<svg xmlns="http://www.w3.org/2000/svg" viewBox="0 0 3.816 3.816" height="14.423" width="14.423" xmlns:v="https://vecta.io/nano"><circle r="1.908" cy="1.908" cx="1.908" opacity=".12" fill="#f9f9f9"/><path d="M1.346 2.84c-.166-.02-.32-.06-.43-.11a.97.97 0 0 1-.233-.16C.61 2.494.55 2.384.53 2.276a.62.62 0 0 1-.007-.152.47.47 0 0 1 .019-.157c.023-.077.07-.17.117-.236a.99.99 0 0 1 .161-.174c.005 0 .007.012.007.036 0 .033-.002.038-.024.063a.71.71 0 0 0-.168.509c.03.24.214.4.54.466.13.026.188.03.384.03s.27-.006.422-.03a2.63 2.63 0 0 0 .727-.223L2.8 2.36a.59.59 0 0 1 .003.105l-.002.107-.06.03c-.224.11-.534.197-.828.235a4.28 4.28 0 0 1-.568.005zm.9-.583c-.053-.008-.104-.036-.142-.077-.048-.052-.07-.117-.07-.21 0-.124.054-.22.15-.266.035-.017.045-.02.102-.02.08-.003.116.01.165.054.057.052.086.128.086.225v.054h-.36l.004.022c.006.033.02.056.05.076.02.015.033.018.066.02.047.003.098-.013.12-.038l.014-.015.043.04c.023.022.043.043.044.046.003.013-.07.063-.11.075-.047.014-.113.02-.16.012zm.144-.366c-.01-.054-.048-.09-.102-.09s-.098.038-.107.09l-.004.022h.217zm-1.378.358c-.03-.01-.067-.045-.08-.075-.012-.025-.013-.04-.015-.177l.002-.23.004-.08h.142v.568H1.05c-.01 0-.026-.004-.037-.008zm.18-.28v-.28h.16c.178 0 .2.003.24.036.014.01.03.033.04.053l.017.034.005.44-.147-.003-.005-.415-.016-.012c-.014-.01-.024-.012-.084-.012h-.068v.443H1.19zm.66.27a.16.16 0 0 1-.086-.088c-.01-.026-.01-.065-.01-.324v-.295l.14.003.005.153h.107v.12h-.108v.146c0 .175-.002.17.063.173l.042.002.005.123h-.064a.32.32 0 0 1-.091-.01zm1.005-.066V2.1l.037-.024c.02-.013.057-.044.082-.07.128-.127.18-.29.143-.44-.053-.208-.244-.35-.544-.406-.213-.04-.455-.035-.71.012a2.59 2.59 0 0 0-.647.201l-.09.04c-.003 0-.005-.013-.005-.028v-.028l.063-.034a2.43 2.43 0 0 1 .902-.277 2.81 2.81 0 0 1 .483.006c.26.04.44.123.565.255a.51.51 0 0 1 .14.363c0 .23-.14.446-.36.558l-.052.023c-.004 0-.006-.028-.006-.076zm-.13.065c-.04-.01-.075-.037-.097-.078-.01-.02-.01-.04-.01-.362v-.34h.144l.002.393c.002.438.006.398-.037.388zM.92 1.548v-.07h.144v.138H.92zm1.957.012c-.035-.03-.027-.08.015-.096.026-.01.046-.006.065.017.024.028.016.07-.016.086-.024.012-.044.01-.064-.007zm.05-.001c.005-.003 0-.01-.01-.022L2.9 1.518v.016c-.01.016-.012.002-.012-.016v-.033h.02c.023 0 .033.013.023.03-.005.007-.004.014.003.024l.01.014.008-.014c.01-.02.01-.03-.004-.05s-.043-.02-.064-.006-.02.05.002.068.03.015.042.008zm-.004-.055c-.02-.006-.024-.003-.024 0 .02.006.024.003.024 0z" fill="#abd0e7"/><path d="M1.42 2.845c-.195-.016-.39-.063-.51-.122-.11-.054-.225-.142-.28-.22-.035-.048-.076-.137-.092-.197-.02-.07-.023-.214-.01-.284.012-.062.05-.16.078-.213.033-.058.103-.148.16-.205l.05-.05v.037c0 .037 0 .038-.038.087-.064.084-.103.165-.136.28-.013.044-.014.063-.014.147 0 .09 0 .098.02.15.01.03.03.07.04.092.027.046.095.12.143.153.1.07.24.12.42.148.1.016.366.02.507.01.208-.015.483-.07.665-.135l.14-.05a1.6 1.6 0 0 0 .142-.065l.097-.05v.208l-.035.018c-.262.132-.635.23-.972.257a4.63 4.63 0 0 1-.378.002zM1.02 2.25c-.036-.01-.06-.03-.078-.062l-.017-.028-.005-.464h.144v.28c0 .316.005.288-.046.273zm1.2.001c-.11-.03-.17-.11-.182-.24-.002-.023-.002-.063.002-.088.014-.103.06-.172.142-.212.04-.02.05-.023.103-.025s.063 0 .092.01c.098.037.152.124.158.26l.003.064h-.362l.003.025c.004.028.016.047.048.073.02.016.028.018.066.02.05.003.093-.01.118-.032l.017-.015.016.012c.01.007.03.025.045.04l.03.03-.033.028c-.05.042-.088.054-.17.056-.044.001-.078-.001-.096-.006zm.173-.352c0-.026-.022-.064-.047-.08s-.08-.02-.107-.005c-.03.016-.06.062-.06.093 0 .012.003.012.108.012h.108zm-1.202.076v-.278h.172c.194 0 .2.001.24.046s.044.056.044.295v.212l-.14.003-.005-.42-.014-.01c-.012-.01-.024-.01-.088-.01h-.074v.443H1.19zm.69.274c-.06-.014-.098-.046-.116-.096-.012-.03-.012-.045-.012-.322v-.29h.144v.156h.108L2 1.806l-.105.003v.148c0 .147 0 .148.014.16s.02.013.054.013h.04L2 2.248l-.054.001c-.03 0-.06 0-.066-.002zm.978-.073v-.077l.03-.02c.043-.028.115-.097.146-.14.036-.05.072-.128.084-.18.013-.06.01-.17-.008-.218a.48.48 0 0 0-.242-.278 1.06 1.06 0 0 0-.361-.113c-.1-.016-.396-.016-.505 0-.31.044-.608.13-.837.246l-.045.02c-.002 0-.003-.012-.003-.026V1.36l.07-.04c.253-.14.554-.234.88-.275a2.96 2.96 0 0 1 .475.003c.204.03.354.082.478.164.052.035.13.112.163.16a.56.56 0 0 1 .019.562.68.68 0 0 1-.279.283l-.05.025-.017.006v-.077zm-.125.065a.14.14 0 0 1-.106-.082c-.006-.015-.008-.087-.008-.357v-.338h.144v.388l-.005.39c-.002.001-.014.001-.025-.002zM.92 1.545V1.48h.144v.132H.92zm1.967.02c-.05-.028-.03-.105.025-.105.028 0 .046.013.054.038.016.048-.035.09-.08.067zm.06-.018c.027-.027.014-.07-.024-.08-.03-.007-.06.026-.054.058s.052.047.078.02zm-.057-.033c0-.03 0-.03.017-.03s.035.014.025.027c-.005.006-.005.012 0 .02-.016-.006-.02-.012-.024-.012-.006.02-.01.024-.012.024s-.006-.013-.006-.03zm.035-.01c-.017-.007-.023-.004-.023.002 0 .01.02.01.023-.002z" fill="#509dcf"/><path d="M1.448 2.845l-.11-.01c-.23-.028-.393-.08-.532-.173-.145-.096-.23-.21-.267-.365a.82.82 0 0 1-.012-.236c.022-.156.1-.305.23-.437l.06-.063.002.035c.002.033 0 .036-.024.064-.06.07-.12.184-.15.293-.02.07-.022.204-.006.27.06.246.29.392.69.437.086.01.35.01.463 0 .196-.017.465-.074.64-.135l.14-.05c.024-.008.085-.036.136-.062l.092-.047v.203l-.04.02c-.363.182-.873.282-1.312.257zm.784-.595c-.09-.017-.157-.086-.183-.183-.012-.045-.012-.143 0-.19.025-.097.088-.163.18-.186s.174-.002.234.064c.045.05.066.105.072.197l.004.06h-.36v.022c0 .033.022.067.057.088.026.016.035.018.072.018.045 0 .095-.017.114-.04.01-.01.012-.01.054.028l.044.04-.022.02c-.066.058-.165.08-.264.062zm.162-.355c-.006-.063-.062-.107-.125-.097-.047.008-.092.057-.092.102v.022l.218-.003zm-1.39.346C.978 2.23.953 2.206.937 2.176c-.012-.023-.013-.03-.015-.253l-.002-.23h.144v.556h-.02c-.01 0-.03-.004-.04-.01zm.185-.272v-.275l.175.002c.168.002.176.002.2.015.014.007.033.023.043.036.035.043.037.055.037.287v.21h-.137V1.84l-.014-.017c-.014-.017-.016-.017-.09-.02l-.075-.002v.444H1.19zm.65.26c-.036-.017-.052-.033-.07-.073-.014-.03-.014-.03-.015-.324l-.002-.295h.138v.156h.108v.107l-.052.002-.052.002-.002.138.002.15c.007.028.024.037.066.037h.04v.114h-.064c-.055 0-.07-.002-.094-.014zm1.02-.06c0-.07 0-.074.014-.08.03-.014.11-.083.145-.13.043-.055.086-.137.102-.196a.47.47 0 0 0-.003-.215c-.06-.192-.216-.317-.482-.382-.118-.03-.17-.034-.374-.034l-.272.01c-.28.04-.572.123-.772.22L1.15 1.4l-.03.014v-.05l.067-.037c.265-.147.57-.24.902-.278.103-.01.35-.01.443.003.387.053.63.205.712.443a.73.73 0 0 1 .022.102c.01.075.008.13-.013.218s-.105.23-.18.3c-.057.052-.18.132-.204.132-.005 0-.007-.02-.007-.074zm-.15.06a.12.12 0 0 1-.059-.041c-.03-.038-.03-.035-.03-.393v-.335h.137v.778h-.013c-.007 0-.023-.004-.035-.008zM.92 1.545V1.48h.144v.132H.92zm1.963.02c-.01-.004-.025-.035-.025-.053s.03-.05.05-.05c.034 0 .056.022.057.056s-.02.052-.052.052c-.012 0-.026-.002-.03-.004zm.063-.015c.02-.02.02-.054-.002-.07s-.047-.016-.065.002-.02.044-.002.065.05.022.07.003zm-.057-.03c0-.016.002-.028.005-.028 0 .02.002.024.01.024s.016.007.022.015c-.016-.013-.03-.012-.033.004zm.033-.016z" fill="#0071ba"/></svg>
