<svg xmlns="http://www.w3.org/2000/svg" viewBox="0 0 3.816 3.816" height="14.423" width="14.423" xmlns:v="https://vecta.io/nano"><circle cx="1.908" cy="1.908" r="1.908" opacity=".12" fill="#f9f9f9"/><path d="M.553 1.545l.288.45.026.737 1.015.463.99-.465.012-.677.377-.547-.5-.246L2.32.95 1.812.884l-.4.09-.297.18-.164-.017-.048.14.005.087z" fill="#fff" paint-order="markers fill stroke"/><path d="M1.84 3.257c-.003-.003-.23-.115-.506-.25L.823 2.75C.812 2.74.812 2.73.81 2.396l-.003-.343-.154-.232-.16-.245c-.01-.018-.008-.038.003-.054a1.48 1.48 0 0 1 .262-.13c.02 0 .043.02.048.04.01.035-.004.047-.1.094l-.09.046c-.003.002.263.403.267.403a15.77 15.77 0 0 0 .292-.141L1.5 1.66c.212-.18.523-.183.742-.007.04.03.094.06.332.18l.292.135c.004-.004.06-.083.124-.175l.192-.277-.15-.073-.157-.085c-.02-.036.003-.078.042-.078a2.64 2.64 0 0 1 .387.188c.01.02.007.044-.015.077l-.19.274-.168.24-.003.343-.012.35c-.005.005-.24.12-.52.26l-.554.245zm-.02-.41v-.274l-.016-.01c-.037-.02-.88-.432-.885-.432s-.004.124-.004.277l.002.277.447.22.452.217c.002-.001.004-.125.004-.276zm.423-.55l.516-.254-.27-.136-.316-.173c-.088-.07-.18-.103-.295-.103a.45.45 0 0 0-.311.114c-.024.02-.09.056-.306.162l-.275.138a79.84 79.84 0 0 0 .882.435 24.5 24.5 0 0 0 .377-.183zm-.423.052c-.075-.016-.14-.068-.172-.137-.018-.038-.02-.044-.02-.108s0-.07.02-.11a.25.25 0 0 1 .397-.074c.15.14.077.392-.125.43-.04.007-.06.007-.1-.002zm.117-.115c.087-.045.11-.15.046-.22-.04-.047-.092-.063-.147-.047-.11.032-.142.174-.055.248.044.038.107.046.156.02zm.5-.547c-.1-.032-.152-.127-.127-.225.012-.046.017-.04-.082-.088a.79.79 0 0 0-.232-.074c-.068-.01-.222-.008-.286.007-.148.033-.265.094-.397.208-.043.037-.062.04-.09.014-.012-.012-.017-.023-.017-.037s.007-.026.046-.064c.11-.107.268-.188.437-.225.083-.018.273-.02.356-.003a.97.97 0 0 1 .308.12l.043.027.033-.01c.046-.015.102-.01.143.012.13.07.13.253 0 .323-.025.014-.04.017-.076.02-.024.001-.05 0-.06-.003zm.1-.122c.034-.032.033-.08 0-.112-.015-.015-.023-.017-.05-.017s-.034.003-.05.017c-.036.034-.036.078-.002.11.02.02.03.022.06.02.018-.002.03-.007.043-.02zm-1.57-.14a.19.19 0 0 1-.116-.097C.844 1.305.84 1.29.84 1.247s.002-.056.017-.084c.02-.034.05-.065.085-.08s.11-.018.146-.002l.03.013.056-.038a1.26 1.26 0 0 1 .528-.201c.076-.01.25-.012.325-.003.24.03.474.13.656.283.063.053.094.085.1.103.01.033-.03.073-.064.064-.008-.002-.04-.026-.07-.054-.08-.073-.15-.12-.252-.172S2.21.993 2.103.97c-.09-.02-.27-.026-.363-.015a1.2 1.2 0 0 0-.498.181c-.05.033-.052.035-.047.052.003.01.005.04.005.065 0 .055-.015.09-.054.128-.044.042-.122.062-.175.044zm.085-.11c.07-.038.044-.142-.036-.142s-.104.108-.033.143c.025.012.044.012.07-.001z" fill="#f82d28"/><path d="M1.84 3.257c-.003-.003-.23-.115-.506-.25L.823 2.75C.812 2.74.812 2.73.81 2.396l-.003-.343-.154-.232-.16-.245c-.01-.018-.008-.038.003-.054a1.48 1.48 0 0 1 .262-.13c.02 0 .043.02.048.04.01.035-.004.047-.1.094l-.09.046c-.003.002.262.403.267.403s.06-.027.128-.06l.288-.14.157-.07c-.016.03-.003.064.032.08.012.005-.016.02-.245.132l-.258.13a24.17 24.17 0 0 0 .442.219l.442.216.374-.183.445-.218.07-.035-.255-.128c-.255-.128-.255-.128-.237-.135.03-.013.042-.044.027-.08-.003-.007.09.037.28.13l.29.134c.004-.004.06-.083.124-.175l.192-.277-.15-.073-.157-.085c-.02-.036.003-.078.042-.078a2.64 2.64 0 0 1 .387.188c.01.02.007.044-.015.077l-.19.274-.168.24-.003.343-.012.35c-.005.005-.24.12-.52.26l-.554.245zm-.02-.41v-.274l-.016-.01c-.037-.02-.88-.432-.885-.432s-.004.124-.004.277l.002.277.447.22.452.217c.002-.001.004-.125.004-.276zm.55.06l.448-.22a1.6 1.6 0 0 0 .007-.279l-.004-.273c-.002 0-.205.1-.45.22l-.447.22-.002.275.004.275c.003 0 .203-.097.446-.216z" fill="#101b28"/></svg>
