<svg xmlns="http://www.w3.org/2000/svg" viewBox="0 0 3.816 3.816" height="14.423" width="14.423" xmlns:v="https://vecta.io/nano"><circle cx="1.908" cy="1.908" r="1.908" opacity=".12" fill="#f9f9f9"/><path d="M1.94 3.38c.004-.005.022-.01.04-.01.053 0 .193-.03.283-.058a1.42 1.42 0 0 0 .894-.868 1.41 1.41 0 0 0-.067-1.099 1.48 1.48 0 0 0-.222-.322l-.07-.085c.007-.007.343-.142.345-.14s.024.03.05.06a1.6 1.6 0 0 1 .326.701c.026.13.026.43 0 .56-.096.48-.39.877-.812 1.092a1.48 1.48 0 0 1-.67.173c-.06.003-.1.001-.095-.005zm-.037-.024c0-.002.036-.012.08-.022.22-.05.427-.16.6-.326.39-.375.505-.94.29-1.44a1.3 1.3 0 0 0-.323-.442c-.028-.024-.052-.047-.052-.05a2.45 2.45 0 0 1 .277-.114c.018 0 .146.146.204.233.165.248.238.49.236.783 0 .17-.022.3-.076.453-.163.462-.577.817-1.047.9-.105.018-.187.03-.187.023zm-.036-.043a1.42 1.42 0 0 0 .425-.217 1.16 1.16 0 0 0 .11-1.711c-.043-.045-.11-.105-.15-.134l-.07-.053.138-.055a.67.67 0 0 1 .156-.05c.035.01.232.23.287.32.307.496.243 1.122-.156 1.538-.185.193-.405.315-.66.367-.15.03-.2.027-.08-.005zM.98 3.023a.33.33 0 0 1-.183-.103C.72 2.836.69 2.752.69 2.612c0-.266.143-.528.39-.718l.07-.05a.75.75 0 0 1 .098.128c-.142.1-.25.214-.305.322-.022.043-.038.08-.035.083s.026-.002.05-.01a.45.45 0 0 1 .12-.017c.223-.002.374.214.307.438-.053.172-.232.276-.406.237zm.183-.19c.046-.035.065-.08.065-.153 0-.133-.134-.207-.282-.157-.075.026-.09.047-.09.12 0 .102.04.17.12.21.058.028.14.02.19-.018zm.802-.004v-.187l-.482-.006L1.48 2.6c-.004-.036.012-.056.29-.397.292-.358.293-.358.332-.358h.04v.643h.125l-.008.15-.12.006v.372h-.176zm0-.504v-.16l-.03.034-.116.143-.102.127c-.015.017-.008.018.116.018h.13zM.483 1.744c0-.02.053-.16.086-.226.086-.172.27-.38.428-.484.22-.144.44-.21.7-.21a1.22 1.22 0 0 1 .679.196c.03.02.057.04.057.045a.77.77 0 0 1-.135.063l-.135.055-.09-.042c-.396-.184-.83-.146-1.184.103-.15.105-.293.277-.372.445-.018.037-.032.062-.032.055zm.332-.001A7.05 7.05 0 0 0 .8 1.595C.78 1.42.78 1.4.8 1.392a1.59 1.59 0 0 1 .286.214c0 .023-.04.018-.078-.01l-.043-.03-.058.03-.057.03.005.052c.004.038 0 .055-.01.06-.018.01-.03.012-.03.002zm.104-.21c0-.007-.07-.063-.077-.063s-.007.05 0 .08c.006.022.007.022.042.006.02-.01.035-.02.035-.023zm1.236.146c-.01-.007-.007-.022.018-.07l.032-.063-.08-.037-.08-.037-.03.063c-.02.046-.033.06-.044.057s-.018-.006-.02-.006c-.01 0 0-.03.062-.16l.075-.14c.005 0 .015.004.023.01s.01.02-.013.07l-.027.063a.94.94 0 0 0 .15.075c0-.002.016-.03.03-.06.035-.07.03-.066.055-.053.02.01.018.017-.048.156a.78.78 0 0 1-.08.145c-.005 0-.016-.004-.024-.01zm-1.05-.11c0-.018.01-.098.018-.178.015-.12.02-.146.035-.148s.054.04.127.13l.11.14c0 .004-.008.01-.018.012s-.03-.01-.054-.036l-.036-.04-.062.02c-.036.01-.063.025-.064.034-.01.074-.016.09-.035.096s-.02 0-.02-.027zm.143-.16c0-.002-.012-.023-.03-.047l-.035-.044-.006.03c-.004.017-.007.043-.008.058 0 .027 0 .027.038.016l.043-.014zm.525.122c-.054-.025-.094-.073-.103-.124-.014-.08.055-.18.135-.195.066-.012.18.037.18.078 0 .03-.012.032-.048.004-.044-.034-.113-.043-.156-.02-.067.034-.082.136-.03.19a.18.18 0 0 0 .139.04c.033-.007.038 0 .026.032-.01.023-.09.02-.145-.003zm-.347-.182V1.19h.067c.074 0 .102.017.115.067.008.03-.012.084-.035.093-.014.005-.012.01.01.034s.082.11.082.12c0 .003-.012.005-.026.005-.02 0-.033-.01-.053-.044-.04-.063-.067-.09-.09-.09-.02 0-.022.006-.022.065s0 .065-.023.068l-.024.003zm.122-.04c.007-.007.013-.022.013-.034 0-.03-.02-.047-.054-.047-.025 0-.03.004-.03.03 0 .017-.004.038-.006.047s0 .016.03.016c.02 0 .04-.006.048-.012z" fill="#42aa3b"/><path d="M1.983 3.337l.11-.032c.377-.12.696-.433.82-.804.162-.486.04-.988-.327-1.346l-.085-.083.28-.114.067.073a1.43 1.43 0 0 1 .35.704 1.78 1.78 0 0 1 0 .475c-.09.48-.414.88-.85 1.048a1.48 1.48 0 0 1-.338.086c-.06.005-.063.005-.025-.005zm-.134-.02c.563-.148.926-.66.876-1.236C2.7 1.8 2.578 1.55 2.37 1.35a1.37 1.37 0 0 0-.131-.113c-.024-.016-.043-.032-.043-.036a.78.78 0 0 1 .134-.062l.134-.054.03.022a1.62 1.62 0 0 1 .273.313c.207.334.245.757.1 1.126-.155.397-.52.696-.945.777-.12.023-.17.02-.076-.004zM.94 3.01C.835 2.972.764 2.9.72 2.79.69 2.713.688 2.528.715 2.425c.054-.2.196-.4.38-.537l.056-.042.045.055c.025.03.045.06.045.065s-.018.02-.04.036c-.064.042-.144.12-.196.188-.047.062-.115.19-.106.2.004.002.03-.005.058-.016a.39.39 0 0 1 .233-.004c.063.022.137.088.17.154.04.076.045.205.013.29-.027.073-.098.15-.17.184a.42.42 0 0 1-.265.015zm.21-.162c.06-.033.086-.082.086-.16s-.028-.125-.09-.16c-.07-.04-.183-.03-.258.023-.05.035-.047.165.007.238.06.08.17.106.255.06zm.826-.02l-.004-.19-.494-.006.004-.037c.004-.03.05-.094.294-.394.272-.334.293-.357.324-.357h.034v.643h.125v.145h-.125v.384h-.155zm.004-.506l-.005-.166c-.005 0-.244.295-.258.32-.006.01.022.013.128.013h.135zM.485 1.74c0-.034.093-.24.145-.327a1.52 1.52 0 0 1 .377-.384 1.26 1.26 0 0 1 1.342-.025.45.45 0 0 1 .085.06c0 .004-.06.033-.135.063l-.135.055-.09-.042c-.234-.108-.456-.14-.696-.1-.366.06-.69.3-.853.632-.022.045-.04.076-.04.067zm.318-.162c-.017-.163-.016-.19.004-.19.004 0 .07.05.145.108.117.092.134.11.12.118s-.027.003-.06-.022L.97 1.56l-.116.063v.054c0 .038-.005.057-.016.063S.82 1.728.805 1.578zm.09-.02c.02-.01.036-.02.036-.023a.4.4 0 0 0-.098-.072.27.27 0 0 0 .016.112c.005 0 .025-.008.045-.017zm1.272.122c-.013-.008-.01-.02.013-.072l.027-.063-.072-.036c-.04-.02-.077-.036-.083-.036s-.022.026-.036.058c-.02.044-.03.057-.044.054s-.017-.01-.015-.02c.005-.024.13-.28.136-.28s.013.004.02.01.007.022-.018.073l-.033.064.078.036c.043.02.082.034.087.03a.28.28 0 0 0 .033-.057c.023-.05.044-.065.056-.043a2.2 2.2 0 0 1-.131.292zM1.11 1.562c.004-.02.01-.088.018-.154.01-.118.023-.166.04-.166.005 0 .035.032.066.07l.112.135c.045.053.05.066.037.07s-.03-.006-.057-.033l-.04-.04-.062.02-.06.02-.01.053c-.007.04-.014.054-.03.057s-.02-.001-.014-.03zm.134-.143c.015-.005.012-.013-.02-.055-.043-.056-.054-.05-.054.026 0 .05 0 .05.028.043l.046-.013zm.56.122c-.108-.032-.157-.14-.106-.237s.18-.112.275-.04a.03.03 0 0 1 .012.038l-.007.023-.03-.026a.23.23 0 0 0-.07-.038c-.11-.033-.205.108-.13.196.032.038.087.058.14.05.037-.005.04-.004.032.017-.01.026-.057.032-.114.016zm-.374-.19v-.16h.06c.083 0 .116.025.116.087 0 .03-.006.05-.02.062-.02.018-.02.02.014.066l.052.077c.018.028.018.03-.007.03-.02 0-.034-.013-.064-.062-.038-.062-.062-.083-.094-.083-.013 0-.016.014-.016.073 0 .066-.004.073-.02.073s-.02-.007-.02-.16zm.113-.032c.035-.024.028-.077-.012-.09-.045-.015-.06-.004-.06.047 0 .025.004.048.007.052.012.012.04.008.064-.01z" fill="#143b8e"/><path d="M.94 3.01C.835 2.972.764 2.9.72 2.79.69 2.713.688 2.528.715 2.425c.054-.2.196-.4.38-.537l.056-.042.045.055c.025.03.045.06.045.065s-.018.02-.04.036c-.064.042-.144.12-.196.188-.047.062-.115.19-.106.2.004.002.03-.005.058-.016a.39.39 0 0 1 .233-.004c.063.022.137.088.17.154.04.076.045.205.013.29-.027.073-.098.15-.17.184a.42.42 0 0 1-.265.015zm.21-.162c.06-.033.086-.082.086-.16s-.028-.125-.09-.16c-.07-.04-.183-.03-.258.023-.05.035-.047.165.007.238.06.08.17.106.255.06zm.826-.02l-.004-.19-.494-.006.004-.037c.004-.03.05-.094.294-.394.272-.334.293-.357.324-.357h.034v.643h.125v.145h-.125v.384h-.155zm.004-.506l-.005-.166c-.005 0-.244.295-.258.32-.006.01.022.013.128.013h.135zM.803 1.578c-.017-.163-.016-.19.004-.19.004 0 .07.05.145.108.117.092.134.11.12.118s-.027.003-.06-.022L.97 1.56l-.116.063v.054c0 .038-.005.057-.016.063S.82 1.728.805 1.578zm.09-.02c.02-.01.036-.02.036-.023a.4.4 0 0 0-.098-.072.27.27 0 0 0 .016.112c.005 0 .025-.008.045-.017zm1.272.122c-.013-.008-.01-.02.013-.072l.027-.063-.072-.036c-.04-.02-.077-.036-.083-.036s-.022.026-.036.058c-.02.044-.03.057-.044.054s-.017-.01-.015-.02c.005-.024.13-.28.136-.28s.013.004.02.01.007.022-.018.073l-.033.064.078.036c.043.02.082.034.087.03a.28.28 0 0 0 .033-.057c.023-.05.044-.065.056-.043a2.2 2.2 0 0 1-.131.292zM1.11 1.562c.004-.02.01-.088.018-.154.01-.118.023-.166.04-.166.005 0 .035.032.066.07l.112.135c.045.053.05.066.037.07s-.03-.006-.057-.033l-.04-.04-.062.02-.06.02-.01.053c-.007.04-.014.054-.03.057s-.02-.001-.014-.03zm.134-.143c.015-.005.012-.013-.02-.055-.043-.056-.054-.05-.054.026 0 .05 0 .05.028.043l.046-.013zm.56.122c-.108-.032-.157-.14-.106-.237s.18-.112.275-.04a.03.03 0 0 1 .012.038l-.007.023-.03-.026a.23.23 0 0 0-.07-.038c-.11-.033-.205.108-.13.196.032.038.087.058.14.05.037-.005.04-.004.032.017-.01.026-.057.032-.114.016zm-.374-.19v-.16h.06c.083 0 .116.025.116.087 0 .03-.006.05-.02.062-.02.018-.02.02.014.066l.052.077c.018.028.018.03-.007.03-.02 0-.034-.013-.064-.062-.038-.062-.062-.083-.094-.083-.013 0-.016.014-.016.073 0 .066-.004.073-.02.073s-.02-.007-.02-.16zm.113-.032c.035-.024.028-.077-.012-.09-.045-.015-.06-.004-.06.047 0 .025.004.048.007.052.012.012.04.008.064-.01z" fill="#242021"/></svg>
