<svg xmlns="http://www.w3.org/2000/svg" viewBox="0 0 3.816 3.816" height="14.423" width="14.423" xmlns:v="https://vecta.io/nano"><circle cx="1.908" cy="1.908" r="1.908" opacity=".42" fill="#ccc"/><g fill="#088dad"><path d="M.623 1.882l.296-.766.215.002.162.38.164.386c.002.006-.004.006-.097.005l-.1-.001-.06-.15H.87l-.055.15H.62zm.524-.286l-.06-.15-.06-.138c-.004.007-.105.287-.105.29s.047.003.114.003c.107 0 .113 0 .11-.006zm.36-.092v-.387l.192.001.22.01c.04.012.068.028.097.056.083.08.09.215.015.292a.37.37 0 0 1-.07.052c.012.01.043.04.056.06a.98.98 0 0 1 .071.142l.04.093.023.052.007.016h-.203l-.018-.04-.04-.09c-.046-.11-.076-.155-.112-.173-.017-.008-.023-.01-.057-.01h-.038v.314h-.186zm.323-.074c.04-.012.06-.036.063-.075.003-.03-.004-.05-.022-.068s-.04-.027-.116-.027h-.06v.175h.06c.04 0 .065-.002.077-.005zm.382.075v-.387h.162l.118.142.12.142a5.16 5.16 0 0 0 .121-.142l.118-.142h.162v.774h-.186l-.002-.482-.2.242H2.61c-.015-.001-.016-.002-.114-.12l-.1-.12-.002.482H2.21z"/><path d="M.624 1.888c0-.002.067-.175.15-.386l.15-.383.212-.002.327.767c.003.006-.002.007-.095.007h-.098l-.06-.153H.87l-.055.15-.096.001c-.053.001-.095 0-.095-.002zm.468-.437l-.063-.15c-.001.002-.026.067-.054.145l-.054.15c-.002.006.005.006.114.006h.117zm.42.053v-.387h.16l.197.004c.103.01.178.07.206.162.01.032.01.084-.001.117a.2.2 0 0 1-.095.114c-.012.007-.023.014-.023.015.036.024.06.056.083.098a6.77 6.77 0 0 1 .118.261 1.3 1.3 0 0 1-.098.002H1.96l-.01-.017a2.48 2.48 0 0 1-.039-.088c-.078-.184-.103-.212-.19-.212h-.028v.317H1.51zm.338-.08c.032-.017.046-.042.046-.08 0-.05-.023-.076-.075-.085a.57.57 0 0 0-.074-.004h-.052v.18l.07-.001c.064-.001.072-.002.085-.01zm.367.08v-.387h.156l.12.144.122.143a7.06 7.06 0 0 0 .122-.144l.12-.143h.156v.774h-.182l-.002-.485-.1.122c-.097.117-.1.122-.113.122s-.016-.004-.113-.122l-.1-.122-.002.484h-.182z"/></g><text y="-121.044" x="-677.022" xml:space="preserve" font-size="1.065" font-family="A-OTF Shin Go Pro" letter-spacing="0" word-spacing="0"><tspan y="3.02" x="1.108">32</tspan></text></svg>