<?xml version="1.0" encoding="UTF-8" standalone="no"?>
<svg
 xmlns:dc="http://purl.org/dc/elements/1.1/"
 xmlns:cc="http://creativecommons.org/ns#"
 xmlns:rdf="http://www.w3.org/1999/02/22-rdf-syntax-ns#"
 xmlns:svg="http://www.w3.org/2000/svg"
 xmlns="http://www.w3.org/2000/svg"
 id="svg16387"
 version="1.1"
 viewBox="0 0 3.8163 3.8163"
 height="3.8163mm"
 width="3.8163mm">
<defs
 id="defs16381" />
<metadata
 id="metadata16384">
<rdf:RDF>
<cc:Work
 rdf:about="">
<dc:format>image/svg+xml</dc:format>
<dc:type
 rdf:resource="http://purl.org/dc/dcmitype/StillImage" />
<dc:title></dc:title>
</cc:Work>
</rdf:RDF>
</metadata>
<g
 transform="translate(-68.3959,-56.2998)"
 id="layer1">
<g
 transform="translate(744.086,158.913)"
 style="display:inline"
 id="g16363">
<circle
 r="1.90815"
 cy="-100.705"
 cx="-673.782"
 id="path2695-6-36-3-8-7-3-6-6-2-0-9-5"
 style="display:inline;opacity:0.420955;fill:#f2f2f2;stroke:none;stroke-width:0.068301;stroke-linecap:round" />
<g
 transform="matrix(0.005642,0,0,0.005642,-670.229,-102.096)"
 id="g16315">
<path
 style="fill:#ffffff;stroke:none;stroke-width:3.99999;stroke-linecap:round;stroke-linejoin:round;paint-order:markers fill stroke"
 d="m -937.285,325.773 569.292,39.05 19.537,-21.257 12.645,-169.989 -8.84,-15.064 -526.531,-13.597 -23.445,12.043 -55.353,151.915 z"
 id="path16308" />
<g
 id="g16300"
 transform="translate(108.604,65.6306)">
<path
 style="fill:#8ac552;stroke-width:0.264583"
 d="m -496.878,307.954 c -3.424,-0.284 -13.552,-1.026 -18.124,-1.327 -1.966,-0.129 -5.239,-0.358 -7.276,-0.51 -2.037,-0.151 -11.205,-0.813 -20.373,-1.47 -9.168,-0.657 -19.05,-1.373 -21.96,-1.59 -5.713,-0.426 -10.671,-0.774 -16.934,-1.189 -4.757,-0.315 -9.966,-0.705 -14.287,-1.068 -1.746,-0.146 -5.08,-0.391 -7.408,-0.543 -2.329,-0.152 -5.84,-0.391 -7.806,-0.53 -1.963,-0.139 -5.178,-0.363 -7.143,-0.497 -5.856,-0.399 -11.039,-0.777 -14.552,-1.06 -3.945,-0.318 -8.618,-0.656 -16.669,-1.204 -3.273,-0.223 -8.274,-0.583 -11.113,-0.8 -4.63,-0.355 -25.723,-1.874 -34.925,-2.516 -12.149,-0.848 -14.917,-1.047 -27.913,-2.005 -3.056,-0.225 -6.985,-0.509 -8.732,-0.63 -1.746,-0.121 -5.913,-0.414 -9.26,-0.65 -3.347,-0.237 -7.633,-0.538 -9.525,-0.671 -1.892,-0.133 -5.879,-0.428 -8.864,-0.658 -2.981,-0.229 -7.09,-0.528 -9.128,-0.665 -2.037,-0.137 -5.31,-0.366 -7.276,-0.51 -6.506,-0.475 -29.378,-2.116 -37.041,-2.658 -4.148,-0.293 -9.029,-0.648 -10.848,-0.788 -3.669,-0.283 -7.657,-0.573 -18.653,-1.355 -6.664,-0.473 -9.857,-0.702 -22.093,-1.586 -1.965,-0.141 -5.12,-0.366 -7.012,-0.498 -8.498,-0.596 -15.348,-1.09 -18.52,-1.336 -4.541,-0.352 -13.924,-1.029 -18.389,-1.326 -1.965,-0.131 -4.405,-0.305 -5.424,-0.387 -3.216,-0.259 -15.787,-1.172 -25.532,-1.854 -5.166,-0.362 -11,-0.776 -12.965,-0.921 -1.964,-0.145 -5.239,-0.385 -7.276,-0.533 -2.037,-0.148 -5.311,-0.39 -7.276,-0.537 -1.964,-0.147 -5.417,-0.387 -7.673,-0.534 -2.255,-0.147 -6.363,-0.446 -9.128,-0.664 -2.765,-0.218 -7.646,-0.579 -10.848,-0.802 -3.201,-0.223 -7.306,-0.519 -9.126,-0.659 -1.82,-0.139 -5.12,-0.365 -7.34,-0.503 -2.22,-0.138 -4.42,-0.318 -4.9,-0.4 -0.47,-0.08 -2.76,-0.264 -5.09,-0.404 -15.87,-0.949 -17.76,-1.204 -22.92,-3.085 -6.58,-2.4 -11.95,-8.31 -14.04,-15.436 -0.15,-0.509 -0.41,-1.093 -0.57,-1.297 -0.22,-0.26 -0.31,-2.643 -0.31,-7.938 0,-6.639 0.1,-7.691 0.47,-8.59 0.25,-0.564 0.46,-1.244 0.46,-1.513 0,-0.268 0.16,-0.879 0.37,-1.356 1.32,-3.13 1.79,-4.343 2.62,-6.822 0.37,-1.092 0.92,-2.64 1.23,-3.44 1.12,-2.877 1.37,-3.584 1.59,-4.366 0.11,-0.436 0.4,-1.151 0.64,-1.587 0.23,-0.437 0.42,-0.961 0.43,-1.165 0,-0.204 0.28,-0.978 0.63,-1.72 0.35,-0.742 0.72,-1.765 0.83,-2.274 0.1,-0.51 0.36,-1.161 0.56,-1.449 0.2,-0.286 0.36,-0.744 0.36,-1.017 0,-0.272 0.17,-0.812 0.38,-1.198 0.21,-0.386 0.64,-1.476 0.95,-2.422 0.31,-0.946 0.66,-1.839 0.77,-1.984 0.12,-0.146 0.28,-0.563 0.36,-0.926 0.22,-0.99 1.09,-3.374 1.87,-5.126 0.38,-0.855 0.7,-1.808 0.7,-2.117 0,-0.309 0.19,-0.794 0.4,-1.076 0.21,-0.283 0.39,-0.685 0.39,-0.893 0,-0.316 1.27,-3.769 2.11,-5.737 0.12,-0.291 0.29,-0.768 0.37,-1.059 0.27,-1.037 1.17,-3.464 1.85,-4.993 0.39,-0.855 0.7,-1.814 0.7,-2.13 0,-0.317 0.11,-0.689 0.24,-0.827 0.25,-0.255 0.93,-1.981 1.34,-3.427 0.43,-1.474 0.97,-2.793 1.28,-3.104 0.17,-0.17 0.31,-0.612 0.31,-0.984 0,-0.37 0.18,-1.015 0.4,-1.432 0.22,-0.417 0.4,-0.893 0.4,-1.058 0,-0.166 0.15,-0.599 0.34,-0.962 0.19,-0.364 0.62,-1.436 0.95,-2.382 0.34,-0.945 0.7,-1.958 0.81,-2.249 0.11,-0.291 0.47,-1.243 0.79,-2.116 0.32,-0.873 0.77,-2.064 0.99,-2.646 0.76,-1.99 1.63,-4.467 1.99,-5.689 0.14,-0.509 0.36,-1.045 0.48,-1.19 0.12,-0.146 0.47,-1.039 0.77,-1.985 0.31,-0.945 0.68,-1.958 0.81,-2.249 0.34,-0.724 1.05,-2.74 1.31,-3.704 0.11,-0.436 0.52,-1.441 0.9,-2.232 0.39,-0.791 0.7,-1.625 0.7,-1.852 0,-0.228 0.18,-0.755 0.4,-1.171 0.22,-0.417 0.4,-0.92 0.4,-1.118 0,-0.198 0.23,-0.869 0.51,-1.491 0.55,-1.234 1.99,-5.046 2.22,-5.894 0.38,-1.417 1.25,-3.619 1.93,-4.936 0.2,-0.386 0.36,-0.963 0.36,-1.282 0,-0.319 0.17,-0.896 0.38,-1.282 0.21,-0.386 0.99,-2.429 1.75,-4.539 0.75,-2.11 1.47,-4.074 1.6,-4.365 0.29,-0.677 0.99,-2.663 1.33,-3.761 0.14,-0.468 0.37,-0.921 0.51,-1.008 0.14,-0.09 0.26,-0.485 0.26,-0.885 0,-0.4 0.17,-0.958 0.38,-1.241 0.22,-0.282 0.4,-0.657 0.4,-0.832 0,-0.78 3.33,-7.0967 4.18,-7.9797 0.19,-0.1983 0.74,-0.9722 1.22,-1.7198 1.16,-1.7898 8.545,-8.8998 9.254,-8.8998 0.09,0 0.755,-0.4202 1.47,-0.9337 3.34,-2.3996 9.474,-5.3011 13.121,-6.2067 1.31,-0.3252 2.501,-0.6807 2.646,-0.7901 0.146,-0.1094 0.979,-0.276 1.852,-0.3702 0.873,-0.094 2.473,-0.2888 3.556,-0.4323 1.303,-0.1727 5.329,-0.1686 11.907,0.012 5.465,0.1502 17.021,0.3914 25.68,0.536 8.658,0.1446 19.076,0.3704 23.151,0.5018 4.075,0.1314 10.861,0.2474 15.081,0.2578 4.22,0.01 14.46,0.1908 22.754,0.4009 8.295,0.2102 21.154,0.4516 28.575,0.5365 7.422,0.085 13.97,0.2089 14.552,0.2756 0.583,0.067 9.036,0.2555 18.786,0.4195 9.75,0.164 19.156,0.3311 20.902,0.3714 1.746,0.04 10.557,0.1976 19.579,0.3498 9.022,0.1522 21.524,0.4031 27.781,0.5576 6.258,0.1545 18.521,0.4235 27.253,0.5976 8.731,0.1742 16.827,0.346 17.991,0.3817 2.44,0.075 16.119,0.3144 28.046,0.4913 4.511,0.067 13.859,0.2382 20.77,0.3807 6.913,0.1424 15.843,0.2678 19.844,0.2786 4.003,0.011 9.48,0.1284 12.17,0.2613 2.694,0.1329 10.848,0.312 18.124,0.3981 7.276,0.086 17.458,0.2788 22.622,0.4284 5.168,0.1496 16.418,0.3785 25.003,0.5087 8.586,0.1301 19.778,0.3538 24.871,0.4971 5.093,0.1432 14.261,0.318 20.373,0.3883 19.365,0.2229 34.481,0.6783 36.38,1.0959 0.945,0.2079 2.405,0.455 3.244,0.5491 0.839,0.094 1.585,0.2659 1.656,0.3818 0.07,0.1158 0.635,0.2943 1.255,0.3967 0.616,0.1023 1.357,0.3099 1.645,0.4612 0.286,0.1514 0.881,0.3676 1.323,0.4804 5.318,1.3635 11.264,5.0095 16.113,9.8796 1.728,1.736 3.302,3.5439 3.501,4.0169 0.198,0.474 0.473,0.931 0.611,1.016 0.14,0.09 0.418,0.481 0.622,0.878 0.206,0.398 0.807,1.521 1.341,2.497 0.532,0.976 0.969,1.907 0.969,2.068 0,0.161 0.314,0.97 0.695,1.797 1.882,4.059 1.972,7.331 0.641,23.597 -0.228,2.766 -0.675,8.948 -1.342,18.521 -0.137,1.965 -0.492,6.846 -0.791,10.848 -0.582,7.84 -1.175,16.095 -1.59,22.225 -0.143,2.11 -0.495,6.873 -0.78,10.583 -0.897,11.614 -1.056,13.732 -1.466,19.712 -0.22,3.201 -0.516,7.13 -0.659,8.731 -0.146,1.601 -0.439,5.411 -0.656,8.467 -0.22,3.056 -0.521,7.104 -0.675,8.996 -0.336,4.185 -0.643,8.081 -1.188,15.213 -1.304,16.971 -2.233,22.155 -4.956,27.649 -3.138,6.331 -11.025,13.721 -19.116,17.912 -7.948,4.117 -16.51,5.76 -25.929,4.977 z m 26.3,-19.461 c 1.077,-0.225 2.167,-0.521 2.423,-0.658 0.54,-0.289 1.76,-3.343 1.95,-4.887 0.07,-0.582 0.199,-2.157 0.281,-3.499 0.08,-1.343 0.203,-2.593 0.272,-2.779 0.07,-0.185 0.302,-2.717 0.519,-5.628 0.537,-7.22 0.897,-11.652 1.071,-13.229 0.08,-0.728 0.318,-3.645 0.53,-6.482 0.211,-2.838 0.563,-7.124 0.78,-9.525 0.22,-2.401 0.577,-6.628 0.794,-9.393 0.217,-2.765 0.637,-7.587 0.936,-10.716 0.299,-3.128 0.715,-8.01 0.924,-10.848 0.209,-2.837 0.442,-5.635 0.521,-6.217 0.191,-1.447 0.868,-9.255 1.328,-15.346 0.209,-2.765 0.564,-7.111 0.789,-9.657 0.225,-2.547 0.521,-6.059 0.656,-7.806 0.304,-3.898 1.257,-13.577 1.598,-16.272 0.14,-1.091 0.376,-3.591 0.521,-5.556 0.283,-3.73 0.807,-9.88 1.458,-17.065 0.212,-2.329 0.455,-5.484 0.54,-7.012 0.09,-1.528 0.262,-3.254 0.391,-3.836 0.127,-0.582 0.257,-2.131 0.284,-3.442 0.03,-1.31 0.148,-3.096 0.267,-3.968 0.357,-2.604 1.098,-12.044 1.087,-13.817 0,-1.8253 -0.905,-3.8859 -1.974,-4.5534 -1.878,-1.1739 -4.677,-1.3145 -39.616,-1.9891 -28.016,-0.541 -33.305,-0.6534 -38.364,-0.8149 -2.4,-0.077 -10.2,-0.2552 -17.331,-0.3969 -7.13,-0.1417 -18.142,-0.3718 -24.473,-0.5114 -6.329,-0.1396 -15.378,-0.3187 -20.109,-0.398 -4.728,-0.079 -9.967,-0.2012 -11.641,-0.2708 -3.078,-0.1279 -6.565,-0.2009 -31.883,-0.6677 -7.712,-0.1422 -18.367,-0.378 -23.68,-0.5241 -5.31,-0.146 -16.383,-0.3851 -24.606,-0.5312 -8.221,-0.146 -16.317,-0.3212 -17.992,-0.3891 -1.672,-0.068 -7.387,-0.1914 -12.7,-0.2743 -5.31,-0.083 -11.681,-0.2044 -14.155,-0.2699 -2.474,-0.066 -10.628,-0.2384 -18.124,-0.3842 -7.493,-0.1458 -15.412,-0.3268 -17.595,-0.4022 -3.707,-0.128 -14.457,-0.351 -63.389,-1.3153 -10.707,-0.211 -24.042,-0.5039 -29.633,-0.6509 -15.052,-0.3958 -35.658,-0.8288 -82.264,-1.7287 -10.987,-0.2121 -21.941,-0.4496 -24.342,-0.5276 -2.401,-0.078 -6.211,-0.2007 -8.467,-0.2724 -2.255,-0.072 -7.275,-0.151 -11.155,-0.1762 l -7.053,-0.046 -1.839,1.0924 c -1.012,0.6008 -2.029,1.3828 -2.262,1.7379 -0.411,0.6279 -1.769,3.9766 -2.697,6.651 -0.754,2.1751 -1.621,4.6131 -2.588,7.276 -0.5,1.383 -1.53,4.24 -2.29,6.35 -0.75,2.11 -1.65,4.551 -1.99,5.424 -0.34,0.873 -0.8,2.123 -1.02,2.778 -0.22,0.655 -1.37,3.81 -2.56,7.012 -1.19,3.201 -2.32,6.297 -2.51,6.879 -0.51,1.56 -1.73,4.947 -1.99,5.556 -0.13,0.291 -1.09,2.911 -2.14,5.821 -1.87,5.225 -2.27,6.327 -4.45,12.303 -1.08,2.952 -3.87,10.655 -5.23,14.42 -0.37,1.019 -1.07,2.924 -1.56,4.233 -0.49,1.31 -1.05,2.858 -1.26,3.44 -0.2,0.582 -0.93,2.606 -1.62,4.498 -0.68,1.891 -1.76,4.868 -2.38,6.614 -1.95,5.437 -4.49,12.425 -7.75,21.299 -0.51,1.383 -1.37,3.764 -1.92,5.292 -0.55,1.528 -1.5,4.147 -2.12,5.821 -0.61,1.673 -1.63,4.471 -2.26,6.217 -0.63,1.747 -1.51,4.188 -1.97,5.424 -0.45,1.237 -1.61,4.393 -2.56,7.012 -0.96,2.619 -2.01,5.477 -2.34,6.35 -0.77,2.005 -1.05,3.883 -0.7,4.553 0.15,0.282 0.73,0.824 1.29,1.204 0.85,0.586 1.47,0.735 4.05,0.972 1.67,0.154 4.05,0.285 5.29,0.29 1.24,0 3.08,0.116 4.1,0.246 1.95,0.25 3.84,0.39 10.98,0.811 6.33,0.374 8.27,0.508 11.38,0.785 1.53,0.136 3.91,0.315 5.29,0.399 8.09,0.485 15.417,0.948 20.769,1.312 11.878,0.809 18.015,1.224 19.843,1.339 5.702,0.36 14.437,0.959 17.198,1.179 1.747,0.14 4.723,0.324 6.615,0.41 1.892,0.09 5.106,0.322 7.144,0.525 2.037,0.203 5.311,0.437 7.276,0.519 1.964,0.08 4.941,0.262 6.614,0.399 5.193,0.423 10.322,0.781 13.494,0.941 1.673,0.09 5.245,0.321 7.937,0.526 2.693,0.205 7.931,0.56 11.642,0.789 3.711,0.228 8.89,0.589 11.51,0.8 2.619,0.212 6.965,0.507 9.657,0.656 2.692,0.149 7.097,0.44 9.789,0.648 2.693,0.207 6.145,0.447 7.673,0.534 1.528,0.09 3.493,0.207 4.366,0.269 0.873,0.06 2.659,0.181 3.969,0.265 1.309,0.08 3.81,0.267 5.556,0.406 1.746,0.14 6.092,0.435 9.657,0.656 3.566,0.221 8.923,0.576 11.907,0.789 2.983,0.213 9.114,0.629 13.626,0.926 4.511,0.296 12.546,0.833 17.859,1.193 5.313,0.36 10.61,0.715 11.774,0.79 1.164,0.07 4.498,0.31 7.408,0.521 2.911,0.212 8.388,0.572 12.171,0.801 3.784,0.228 8.189,0.536 9.79,0.683 1.6,0.147 4.857,0.378 7.239,0.513 8.4,0.475 13.427,0.806 16.176,1.063 1.53,0.144 5.101,0.383 7.938,0.532 2.839,0.149 6.112,0.382 7.276,0.517 1.164,0.135 3.902,0.316 6.085,0.402 2.183,0.09 4.268,0.209 4.63,0.273 0.366,0.06 3.699,0.298 7.409,0.52 3.712,0.222 6.985,0.457 7.279,0.522 0.293,0.06 2.137,0.192 4.101,0.282 1.963,0.09 4.759,0.278 6.215,0.416 1.455,0.138 4.725,0.363 7.268,0.499 6.069,0.324 16.528,1.022 17.867,1.192 0.582,0.07 3.143,0.252 5.689,0.396 2.548,0.145 6.143,0.378 7.993,0.518 1.846,0.14 4.823,0.333 6.614,0.429 1.789,0.1 3.318,0.212 3.397,0.259 0.08,0.05 1.569,0.158 3.308,0.25 5.273,0.278 10.53,0.642 11.231,0.777 0.365,0.07 3.104,0.259 6.086,0.42 2.984,0.161 5.9,0.335 6.482,0.386 0.582,0.05 2.905,0.215 5.162,0.364 2.257,0.148 5.887,0.393 8.07,0.543 2.18,0.151 6.823,0.459 10.316,0.685 3.492,0.226 7.959,0.538 9.922,0.693 1.966,0.154 5.477,0.379 7.805,0.499 2.328,0.121 5.781,0.341 7.673,0.491 1.892,0.149 4.63,0.337 6.085,0.416 2.305,0.126 6.21,0.433 10.187,0.8 1.156,0.108 4.212,0.276 10.186,0.563 1.601,0.08 4.162,0.251 5.689,0.388 1.529,0.136 4.744,0.37 7.144,0.52 2.399,0.149 6.688,0.443 9.525,0.653 11.906,0.882 16.92,1.208 18.917,1.229 1.165,0.01 2.831,0.111 3.705,0.22 0.873,0.108 1.767,0.214 1.984,0.235 0.217,0.02 1.278,-0.145 2.355,-0.369 z m -36.619,-34.794 c -1.746,-0.112 -6.508,-0.396 -10.583,-0.629 -4.075,-0.234 -9.194,-0.536 -11.377,-0.671 -2.183,-0.135 -7.064,-0.433 -10.848,-0.66 -3.784,-0.228 -8.784,-0.535 -11.113,-0.683 -2.328,-0.147 -6.315,-0.385 -8.863,-0.527 -2.545,-0.143 -6.593,-0.381 -8.996,-0.529 -2.4,-0.149 -7.281,-0.445 -10.848,-0.66 -3.564,-0.214 -8.445,-0.508 -10.848,-0.655 -18.931,-1.155 -26.926,-1.641 -30.691,-1.866 -2.4,-0.143 -7.343,-0.44 -10.981,-0.66 -3.638,-0.219 -8.577,-0.509 -10.98,-0.645 -2.4,-0.135 -6.21,-0.367 -8.467,-0.516 -2.254,-0.149 -6.183,-0.394 -8.731,-0.545 -2.545,-0.15 -6.593,-0.397 -8.996,-0.547 -11.027,-0.69 -21.949,-1.353 -26.061,-1.581 -2.477,-0.137 -7.477,-0.431 -11.113,-0.654 -3.638,-0.222 -8.638,-0.52 -11.112,-0.661 -2.474,-0.142 -6.403,-0.378 -8.731,-0.525 -2.329,-0.147 -7.329,-0.447 -11.113,-0.666 -3.783,-0.219 -8.723,-0.516 -10.98,-0.66 -2.254,-0.144 -7.136,-0.44 -10.848,-0.659 -3.709,-0.218 -8.591,-0.519 -10.848,-0.668 -2.254,-0.148 -6.125,-0.384 -8.599,-0.523 -2.474,-0.14 -6.403,-0.37 -8.731,-0.511 -2.328,-0.141 -6.437,-0.381 -9.128,-0.533 -5.363,-0.302 -11.47,-0.692 -16.801,-1.073 -1.892,-0.135 -5.047,-0.312 -7.012,-0.394 -1.964,-0.08 -5.179,-0.26 -7.143,-0.398 -1.965,-0.137 -5.656,-0.375 -8.203,-0.528 -11.715,-0.707 -17.918,-1.086 -21.828,-1.335 -2.328,-0.149 -8.281,-0.504 -13.229,-0.79 -4.948,-0.286 -10.901,-0.639 -13.229,-0.784 -2.328,-0.146 -6.257,-0.383 -8.731,-0.528 -2.474,-0.144 -6.463,-0.381 -8.864,-0.526 -2.401,-0.144 -7.521,-0.443 -11.377,-0.664 -3.856,-0.221 -9.631,-0.58 -12.832,-0.798 -3.202,-0.217 -8.083,-0.518 -10.848,-0.67 -12.413,-0.678 -14.555,-0.835 -14.86,-1.089 -0.241,-0.2 -0.253,-0.452 -0.05,-0.976 0.153,-0.389 1.039,-2.903 1.968,-5.587 0.93,-2.684 1.799,-4.99 1.933,-5.124 0.148,-0.148 1.987,-0.126 4.698,0.06 2.45,0.164 6.776,0.421 9.614,0.572 2.838,0.151 7.065,0.382 9.393,0.515 2.328,0.132 6.376,0.36 8.996,0.506 5.262,0.295 11.793,0.681 18.256,1.079 2.328,0.144 6.555,0.386 9.393,0.538 2.837,0.152 7.064,0.387 9.392,0.523 14.526,0.847 21.269,1.232 32.28,1.845 5.238,0.292 11.31,0.65 13.493,0.796 3.778,0.254 8.307,0.513 18.653,1.068 2.547,0.137 6.655,0.365 9.129,0.507 2.473,0.142 6.641,0.378 9.26,0.525 5.329,0.297 11.726,0.685 17.859,1.083 2.257,0.147 6.602,0.392 9.658,0.546 3.056,0.153 7.342,0.384 9.525,0.512 12.61,0.743 27.916,1.622 32.279,1.855 2.765,0.148 6.932,0.385 9.26,0.526 4.043,0.246 12.145,0.71 23.019,1.32 2.765,0.155 10.147,0.582 16.404,0.948 6.258,0.367 13.343,0.774 15.743,0.905 2.402,0.13 7.522,0.426 11.377,0.656 3.858,0.231 9.155,0.531 11.774,0.668 2.619,0.136 6.609,0.369 8.864,0.517 2.256,0.148 6.305,0.387 8.995,0.532 5.715,0.308 12.637,0.704 18.786,1.075 2.402,0.145 7.461,0.439 11.245,0.653 3.783,0.214 8.903,0.511 11.377,0.659 2.474,0.148 7.773,0.446 11.774,0.662 8.588,0.464 15.758,0.875 18.52,1.062 1.741,0.117 15.865,0.912 30.692,1.726 2.694,0.148 7.633,0.443 10.98,0.655 3.347,0.213 6.311,0.388 6.583,0.389 0.455,0 0.487,0.162 0.347,1.789 -0.162,1.886 -0.511,4.906 -1.048,9.062 l -0.325,2.513 -1.191,0.03 c -0.654,0.02 -2.619,-0.06 -4.366,-0.175 z m -494.553,-22.72 c -1.48,-0.08 -2.77,-0.235 -2.87,-0.334 -0.18,-0.18 0.26,-1.59 1.57,-5.077 0.38,-0.999 0.69,-1.845 0.69,-1.88 0,-0.03 -1.05,-0.144 -2.32,-0.244 -6.78,-0.533 -10.25,-2.486 -11.39,-6.408 -0.83,-2.856 -0.27,-5.037 4.25,-16.638 0.46,-1.164 0.95,-2.262 1.11,-2.439 0.22,-0.25 1.3,-0.265 4.76,-0.07 2.47,0.141 4.6,0.369 4.73,0.507 0.26,0.254 0.23,0.359 -1.03,3.587 -2.24,5.779 -2.53,6.78 -2.21,7.733 0.39,1.171 1.75,1.812 4.4,2.069 l 1.904,0.186 0.536,-1.158 c 0.295,-0.636 0.968,-2.348 1.494,-3.803 0.527,-1.455 1.095,-2.787 1.262,-2.96 0.228,-0.236 1.166,-0.255 3.744,-0.08 1.892,0.131 3.827,0.243 4.3,0.248 0.603,0 0.86,0.135 0.86,0.428 0,0.425 -1.08,3.598 -2.091,6.14 -0.305,0.769 -0.555,1.438 -0.555,1.487 0,0.136 7.394,0.64 18.124,1.237 5.384,0.299 9.87,0.625 9.969,0.724 0.169,0.169 -2.763,8.943 -3.618,10.83 l -0.39,0.86 h -2.039 c -1.121,0 -3.356,-0.117 -4.965,-0.26 -1.609,-0.142 -5.486,-0.394 -8.615,-0.558 -3.128,-0.164 -7.236,-0.385 -9.128,-0.49 -3.677,-0.205 -4.101,-0.163 -4.101,0.407 0,0.201 -0.287,1.111 -0.638,2.022 -0.352,0.911 -0.844,2.222 -1.094,2.914 l -0.456,1.256 -1.75,-0.04 c -0.963,-0.02 -2.963,-0.114 -4.443,-0.199 z m 441.372,-8.638 c -10.118,-0.693 -19.389,-2.077 -28.437,-4.244 -2.318,-0.555 -7.284,-1.94 -8.377,-2.336 -0.212,-0.08 -0.146,-0.641 0.222,-1.915 0.286,-0.993 0.619,-2.163 0.741,-2.6 0.691,-2.493 5.559,-18.743 5.638,-18.824 0.05,-0.05 1.217,0.426 2.588,1.064 1.37,0.639 3.027,1.347 3.68,1.573 0.656,0.227 2.085,0.731 3.175,1.12 5.371,1.916 11.401,3.277 18.786,4.24 4.217,0.55 13.52,0.781 16.801,0.418 8.826,-0.979 13.271,-4.21 13.573,-9.865 0.13,-2.485 -0.384,-3.822 -2.233,-5.8 -2.4,-2.566 -7.901,-5.166 -15.574,-7.361 -8.133,-2.328 -16.039,-4.872 -18.388,-5.918 -6.477,-2.883 -9.483,-4.714 -12.6,-7.675 -4.442,-4.221 -6.453,-8.933 -6.45,-15.131 0,-14.235 9.451,-24.724 26.8,-29.765 4.976,-1.446 10.959,-2.529 17.782,-3.22 4.715,-0.476 19.86,-0.397 25.4,0.133 5.144,0.493 12.703,1.55 15.534,2.173 1.061,0.233 2.405,0.524 2.987,0.647 1.72,0.363 4.921,1.245 5.075,1.398 0.08,0.08 -0.233,1.726 -0.688,3.663 -0.458,1.937 -1.074,4.594 -1.371,5.903 -0.542,2.389 -1.979,8.568 -2.339,10.054 -0.24,1.001 -0.42,0.987 -4.117,-0.329 -7.59,-2.702 -15.515,-3.969 -26.326,-4.209 -9.236,-0.206 -14.107,0.458 -18.068,2.461 -5.075,2.568 -6.255,8.065 -2.447,11.401 2.513,2.201 6.556,3.737 18.282,6.947 8.578,2.348 12.793,3.678 16.918,5.339 16.295,6.56 22.402,17.416 18.499,32.895 -2.799,11.106 -11.035,19.212 -24.188,23.804 -10.398,3.63 -25.021,5.047 -40.878,3.959 z m -118.136,-6.353 c -13.814,-1.113 -25.324,-4.476 -33.245,-9.713 -6.001,-3.966 -10.025,-8.372 -12.878,-14.106 -2.796,-5.618 -3.884,-10.63 -3.884,-17.901 0,-17.16 7.335,-34.435 19.333,-45.535 8.676,-8.027 20.818,-13.599 33.981,-15.597 1.455,-0.221 3.659,-0.558 4.895,-0.749 3.116,-0.483 20.351,-0.491 23.812,-0.01 10.348,1.434 14.743,2.492 21.035,5.063 7.58,3.095 14.187,8.307 18.224,14.372 6.501,9.772 7.895,23.268 4.011,38.822 -1.894,7.588 -5.432,15.037 -10.173,21.431 -1.812,2.443 -6.138,6.955 -8.623,8.99 -1.651,1.352 -6.368,4.768 -6.585,4.768 -0.05,0 -1.085,0.572 -2.308,1.272 -7.114,4.073 -15.819,6.831 -26.561,8.413 -2.508,0.37 -18.018,0.724 -21.034,0.481 z m 13.612,-21.15 c 4.342,-0.699 8.687,-2.429 12.383,-4.932 2.273,-1.539 6.413,-5.734 8.215,-8.323 2.749,-3.952 5.453,-10.055 6.662,-15.045 1.106,-4.566 1.305,-6.351 1.313,-11.913 0,-4.959 -0.06,-5.797 -0.593,-7.805 -2.365,-8.842 -8.07,-13.884 -17.497,-15.458 -4.36,-0.729 -10.649,-0.442 -14.703,0.669 -2.36,0.647 -6.479,2.555 -8.599,3.983 -7.416,4.997 -12.567,13.174 -15.311,24.3 -2.617,10.612 -1.416,20.929 3.103,26.643 3.504,4.432 7.745,6.809 14.06,7.881 2.794,0.474 8.02,0.474 10.967,0 z m -115.345,13.878 c -1.6,-0.114 -5.588,-0.342 -8.863,-0.508 -9.933,-0.502 -18.603,-1.057 -18.745,-1.199 -0.129,-0.128 2.823,-11.162 4.99,-18.649 0.225,-0.781 3.48,-12.592 4.92,-17.86 0.239,-0.873 0.719,-2.599 1.067,-3.836 0.348,-1.237 0.766,-2.725 0.928,-3.307 0.163,-0.582 0.401,-1.416 0.529,-1.852 0.127,-0.437 0.942,-3.414 1.81,-6.615 0.868,-3.201 1.688,-6.178 1.82,-6.615 0.135,-0.436 0.561,-1.984 0.95,-3.439 0.387,-1.455 0.879,-3.241 1.088,-3.969 0.577,-1.983 0.791,-2.757 2.196,-7.875 1.267,-4.618 1.28,-4.701 0.727,-4.814 -0.307,-0.06 -5.085,-0.254 -10.615,-0.423 -15.32,-0.471 -16.945,-0.572 -16.87,-1.043 0.12,-0.763 5.054,-17.508 5.201,-17.655 0.172,-0.172 6.183,-0.133 11.008,0.07 3.577,0.151 12.676,0.436 33.602,1.054 7.35,0.216 17.052,0.511 21.564,0.653 4.511,0.143 11.093,0.34 14.628,0.438 3.535,0.1 6.496,0.288 6.578,0.421 0.08,0.134 0.03,0.74 -0.135,1.347 -0.159,0.607 -1.016,4.139 -1.91,7.85 -2.194,9.111 -2.194,9.11 -2.784,9.231 -0.5,0.103 -16.367,-0.368 -24.14,-0.716 -2.233,-0.1 -4.17,-0.114 -4.303,-0.03 -0.134,0.08 -0.531,1.273 -0.883,2.646 -1.574,6.157 -4.39,16.999 -5.972,23.001 -0.709,2.692 -2.027,7.753 -2.926,11.245 -0.9,3.493 -2.088,8.077 -2.638,10.187 -0.553,2.11 -1.659,6.396 -2.463,9.525 -1.601,6.243 -2.514,9.738 -4.313,16.536 -0.656,2.474 -1.259,4.796 -1.339,5.159 -0.209,0.938 -0.585,1.329 -1.233,1.286 -0.309,-0.02 -1.873,-0.13 -3.474,-0.244 z m -68.659,-3.733 c -1.674,-0.109 -7.865,-0.444 -13.759,-0.742 -15.23,-0.771 -15.065,-0.755 -15.202,-1.432 -0.06,-0.307 -0.181,-2.464 -0.265,-4.792 -0.391,-10.859 -0.986,-19.204 -1.631,-22.886 -1.207,-6.888 -3.745,-10.199 -8.698,-11.347 -1.438,-0.333 -6.974,-0.809 -9.533,-0.818 h -1.594 l -6.319,19.116 c -3.476,10.514 -6.399,19.209 -6.497,19.323 -0.1,0.113 -2.43,0.08 -5.183,-0.07 -2.753,-0.154 -8.22,-0.454 -12.149,-0.667 -13.341,-0.722 -12.568,-0.648 -12.568,-1.204 0,-0.422 2.415,-7.592 3.57,-10.6 0.203,-0.528 0.84,-2.374 1.417,-4.101 0.577,-1.728 1.66,-4.868 2.407,-6.978 0.748,-2.11 1.699,-4.848 2.114,-6.085 0.416,-1.237 1.493,-4.333 2.393,-6.879 0.901,-2.547 1.918,-5.464 2.26,-6.483 0.341,-1.018 1.412,-4.114 2.378,-6.879 0.967,-2.765 2.828,-8.122 4.137,-11.906 1.309,-3.784 2.86,-8.248 3.445,-9.922 0.586,-1.673 1.639,-4.709 2.341,-6.747 3.286,-9.544 5.261,-15.169 5.657,-16.115 l 0.433,-1.034 4.957,0.177 c 2.726,0.1 9.005,0.292 13.952,0.431 39.429,1.111 42.424,1.338 49.245,3.73 12.474,4.375 16.421,13.339 11.207,25.453 -2.795,6.495 -8.033,12.117 -14.178,15.219 -3.335,1.684 -7.463,3.072 -11.216,3.772 -0.946,0.177 -1.809,0.4 -1.917,0.496 -0.108,0.09 0.487,0.488 1.323,0.872 4.139,1.903 5.795,5.137 6.673,13.037 0.146,1.309 0.38,3.214 0.521,4.233 0.847,6.129 1.41,10.604 2.117,16.811 0.438,3.851 0.922,8.014 1.075,9.251 0.493,3.979 0.602,5.743 0.363,5.86 -0.128,0.06 -1.603,0.02 -3.276,-0.08 z m -25.251,-60.034 c 6.321,-0.879 10.71,-3.548 12.765,-7.763 2.25,-4.615 1.47,-8.162 -2.226,-10.132 -3.689,-1.966 -7.611,-2.633 -17.066,-2.899 l -5.981,-0.168 -3.346,10.06 c -1.84,5.533 -3.345,10.249 -3.345,10.48 0,0.346 0.413,0.436 2.315,0.509 5.75,0.219 15.029,0.171 16.884,-0.09 z m -86.007,54.242 c -1.6,-0.114 -6.601,-0.399 -11.112,-0.635 -4.511,-0.236 -9.886,-0.543 -11.945,-0.682 -2.059,-0.14 -4.797,-0.256 -6.085,-0.258 -1.289,0 -2.513,-0.112 -2.721,-0.243 -0.314,-0.199 -0.116,-0.957 1.156,-4.428 0.844,-2.304 1.729,-4.604 1.967,-5.111 l 0.431,-0.924 3.043,0.07 3.041,0.07 -0.793,-0.595 c -3.613,-2.705 -4.219,-5.906 -2.015,-10.633 0.974,-2.089 1.224,-2.378 2.015,-2.328 2.449,0.156 9.307,0.923 9.444,1.057 0.101,0.1 -0.232,1.017 -0.741,2.041 -0.977,1.967 -1.368,4.106 -1.054,5.778 0.422,2.25 3.172,3.923 7.209,4.386 1.287,0.148 5.138,0.393 8.557,0.545 6.713,0.299 8.732,0.483 8.732,0.794 0,0.109 -0.31,1.017 -0.689,2.016 -0.379,1 -0.906,2.473 -1.171,3.273 -1.043,3.149 -1.905,5.439 -2.165,5.755 -0.296,0.357 -0.702,0.361 -5.104,0.05 z m -8.466,-25.785 c -4.998,-1.1 -8.387,-3.6 -9.752,-7.195 -0.798,-2.103 -0.864,-5.109 -0.173,-7.883 1.72,-6.9 5.926,-12.042 12.174,-14.887 3.013,-1.372 4.412,-1.794 8.052,-2.431 1.903,-0.333 8.793,-0.367 8.993,-0.04 0.128,0.207 -0.302,1.516 -2.358,7.177 -0.344,0.946 -1.161,3.208 -1.817,5.027 -0.656,1.819 -1.672,4.612 -2.258,6.207 -0.586,1.594 -1.012,2.953 -0.946,3.019 0.07,0.07 0.8,-0.03 1.632,-0.219 3.74,-0.837 6.571,-3.874 8.342,-8.95 0.738,-2.117 0.804,-2.595 0.812,-5.851 v -3.546 l 4.205,0.166 c 2.312,0.09 4.317,0.235 4.455,0.32 0.386,0.238 0.295,4.251 -0.149,6.571 -2.017,10.537 -8.709,18.503 -18.274,21.75 -3.391,1.152 -9.543,1.517 -12.945,0.769 z m 4.578,-11.968 c 2.303,-6.34 3.756,-10.484 3.756,-10.708 0,-0.18 -0.542,-0.228 -1.521,-0.137 -4.08,0.383 -6.802,2.499 -7.879,6.126 -0.685,2.304 0.08,3.789 2.521,4.896 1.747,0.792 2.793,0.733 3.123,-0.177 z m 10.209,-26.241 c -2.197,-0.351 -4.999,-1.315 -6.27,-2.157 -1.707,-1.13 -3.301,-2.963 -4.081,-4.694 -0.934,-2.07 -0.972,-5.627 -0.09,-8.513 2.886,-9.45 10.275,-14.955 21.434,-15.971 3.439,-0.313 5.913,-0.327 6.806,-0.04 0.333,0.108 0.338,0.09 -1.365,4.765 -0.529,1.455 -1.476,4.075 -2.103,5.821 -0.627,1.746 -1.684,4.69 -2.348,6.541 -0.665,1.852 -1.126,3.415 -1.025,3.475 0.348,0.203 2.997,-0.621 4.132,-1.286 1.806,-1.058 3.284,-2.745 4.404,-5.026 1.699,-3.461 2.301,-7.004 1.747,-10.284 l -0.218,-1.289 4.372,0.106 c 2.405,0.06 4.468,0.202 4.585,0.319 0.355,0.356 0.181,4.402 -0.283,6.587 -2.326,10.955 -9.691,18.805 -19.929,21.243 -2.053,0.489 -7.752,0.724 -9.767,0.402 z m 4.251,-13.38 c 0.48,-1.31 1.363,-3.715 1.963,-5.346 0.6,-1.63 1.092,-3.029 1.092,-3.108 0,-0.289 -2.545,-0.13 -3.742,0.234 -2.76,0.837 -4.973,3.06 -5.51,5.535 -0.534,2.455 0.436,4.011 3.013,4.831 2.018,0.643 2.212,0.511 3.184,-2.146 z"
 id="path16306" />
<path
 style="fill:#48b049;stroke-width:0.264583"
 d="m -492.909,307.31 c -0.146,-0.05 -2.527,-0.236 -5.292,-0.402 -2.765,-0.167 -6.397,-0.416 -8.07,-0.555 -3.378,-0.281 -4.968,-0.397 -8.863,-0.652 -1.455,-0.1 -3.061,-0.22 -3.572,-0.279 -0.508,-0.06 -1.998,-0.17 -3.307,-0.248 -2.569,-0.155 -5.559,-0.366 -7.673,-0.544 -0.728,-0.06 -4.776,-0.35 -8.996,-0.643 -4.22,-0.293 -9.16,-0.652 -10.98,-0.797 -1.818,-0.145 -5.213,-0.384 -7.541,-0.531 -2.328,-0.146 -5.543,-0.383 -7.144,-0.526 -1.6,-0.142 -4.873,-0.38 -7.276,-0.529 -2.399,-0.149 -5.019,-0.326 -5.821,-0.395 -3.167,-0.27 -11.654,-0.902 -14.155,-1.054 -4.675,-0.282 -6.593,-0.42 -7.54,-0.541 -0.508,-0.06 -2.831,-0.244 -5.16,-0.398 -7.355,-0.485 -36.475,-2.585 -38.497,-2.777 -0.653,-0.06 -3.154,-0.234 -5.556,-0.382 -2.4,-0.148 -5.733,-0.388 -7.408,-0.534 -2.686,-0.235 -6.192,-0.49 -12.965,-0.943 -2.042,-0.137 -2.736,-0.19 -8.599,-0.659 -1.892,-0.152 -4.331,-0.333 -5.424,-0.404 -3.495,-0.227 -13.298,-0.904 -15.213,-1.051 -1.019,-0.08 -5.067,-0.373 -8.996,-0.656 -3.929,-0.282 -8.512,-0.627 -10.187,-0.767 -1.672,-0.14 -4.233,-0.324 -5.688,-0.409 -1.455,-0.09 -3.18,-0.214 -3.837,-0.284 -0.653,-0.07 -2.976,-0.243 -5.159,-0.383 -7.21,-0.464 -15.327,-1.052 -16.536,-1.2 -0.654,-0.08 -3.154,-0.258 -5.557,-0.396 -4.945,-0.284 -9.567,-0.611 -16.668,-1.182 -2.691,-0.217 -6.858,-0.52 -9.261,-0.674 -2.4,-0.155 -4.9,-0.334 -5.556,-0.399 -0.654,-0.06 -4.763,-0.358 -9.128,-0.65 -4.366,-0.292 -8.295,-0.588 -8.732,-0.657 -0.436,-0.07 -3.71,-0.308 -7.276,-0.531 -3.565,-0.223 -6.958,-0.458 -7.54,-0.523 -1.114,-0.124 -3.528,-0.302 -7.276,-0.534 -4.912,-0.305 -6.942,-0.45 -11.642,-0.832 -2.692,-0.219 -5.669,-0.447 -6.614,-0.507 -1.868,-0.119 -2.256,-0.147 -12.833,-0.924 -3.929,-0.288 -8.156,-0.589 -9.393,-0.669 -3.531,-0.228 -9.049,-0.649 -9.921,-0.757 -0.437,-0.05 -2.223,-0.179 -3.969,-0.278 -1.746,-0.1 -3.651,-0.227 -4.233,-0.284 -0.583,-0.06 -3.023,-0.228 -5.424,-0.378 -2.402,-0.15 -4.842,-0.33 -5.424,-0.401 -0.582,-0.07 -3.083,-0.252 -5.557,-0.404 -2.473,-0.153 -5.093,-0.33 -5.82,-0.394 -0.728,-0.06 -2.335,-0.184 -3.572,-0.266 -1.237,-0.08 -3.619,-0.268 -5.292,-0.411 -1.674,-0.144 -5.662,-0.433 -8.864,-0.644 -3.201,-0.21 -7.249,-0.501 -8.995,-0.646 -1.747,-0.145 -5.14,-0.393 -7.541,-0.551 -8.62,-0.567 -11.791,-0.793 -12.832,-0.914 -0.582,-0.07 -3.321,-0.247 -6.086,-0.399 -2.765,-0.151 -5.444,-0.333 -5.953,-0.402 -1.092,-0.151 -13.617,-1.083 -17.992,-1.339 -1.673,-0.1 -3.221,-0.211 -3.439,-0.25 -0.358,-0.06 -1.42,-0.143 -7.144,-0.533 -5.235,-0.357 -6.492,-0.459 -6.622,-0.535 -0.1,-0.05 -1.45,-0.155 -3.04,-0.243 -1.6,-0.09 -3.68,-0.216 -4.63,-0.287 -0.94,-0.07 -4.22,-0.3 -7.27,-0.509 -5.79,-0.396 -10.68,-0.75 -16.89,-1.222 -2.01,-0.153 -4.51,-0.452 -5.56,-0.665 -1.04,-0.213 -2.37,-0.46 -2.95,-0.548 -0.58,-0.09 -1.21,-0.276 -1.39,-0.418 -0.18,-0.142 -0.75,-0.179 -1.27,-0.08 -0.53,0.1 -1.09,0.06 -1.26,-0.08 -0.17,-0.141 -0.85,-0.466 -1.51,-0.723 -4.02,-1.575 -9.32,-7.383 -10.97,-12.016 -1.79,-5.064 -1.73,-4.614 -1.73,-11.244 0,-5.421 0.1,-6.346 0.53,-7.806 0.29,-0.911 0.53,-1.891 0.53,-2.177 0,-0.286 0.18,-0.836 0.4,-1.222 0.4,-0.724 0.47,-0.899 2.36,-6.284 0.62,-1.761 1.21,-3.328 1.3,-3.483 0.1,-0.155 0.64,-1.572 1.19,-3.149 1.46,-4.114 3.2,-8.811 3.64,-9.822 0.2,-0.478 0.37,-1.076 0.37,-1.33 0,-0.253 0.16,-0.696 0.36,-0.983 0.2,-0.287 0.6,-1.236 0.91,-2.109 1.22,-3.54 2.66,-7.47 3.09,-8.467 0.26,-0.582 0.56,-1.416 0.68,-1.852 0.24,-0.892 1.45,-4.216 1.83,-5.027 0.32,-0.677 2.13,-5.827 2.13,-6.053 0,-0.09 0.23,-0.675 0.51,-1.292 0.29,-0.617 0.76,-1.836 1.05,-2.709 0.3,-0.874 0.78,-2.243 1.09,-3.043 1.15,-3.06 1.66,-4.462 2.69,-7.409 0.59,-1.673 1.16,-3.161 1.27,-3.307 0.12,-0.145 0.63,-1.515 1.15,-3.043 0.52,-1.527 1.19,-3.432 1.5,-4.233 0.31,-0.8 0.69,-1.812 0.85,-2.249 0.15,-0.436 0.38,-0.907 0.51,-1.045 0.12,-0.138 0.23,-0.458 0.23,-0.711 0,-0.252 0.37,-1.389 0.82,-2.526 0.91,-2.313 1.95,-5.158 3.15,-8.63 0.45,-1.281 1.1,-2.97 1.46,-3.754 0.36,-0.783 0.65,-1.663 0.65,-1.954 0,-0.292 0.12,-0.604 0.27,-0.694 0.14,-0.09 0.26,-0.399 0.26,-0.686 0,-0.288 0.29,-1.084 0.63,-1.771 0.35,-0.686 0.82,-1.843 1.05,-2.57 0.55,-1.759 2.24,-6.457 2.45,-6.798 0.1,-0.149 0.68,-1.716 1.3,-3.483 0.62,-1.767 1.5,-4.225 1.96,-5.462 0.45,-1.237 1.16,-3.202 1.58,-4.366 0.41,-1.164 0.96,-2.593 1.2,-3.175 0.25,-0.582 0.74,-1.927 1.09,-2.989 0.66,-1.997 2.8,-6.4846 3.45,-7.2181 0.21,-0.2297 0.37,-0.5022 0.37,-0.6056 0,-0.1032 0.82,-1.2845 1.83,-2.6249 1.67,-2.2274 3.45,-4.0833 6.645,-6.9333 1.663,-1.4819 3.457,-2.5824 2.699,-1.6555 -0.56,0.6857 -1.971,3.7154 -2.71,5.8197 -0.422,1.2012 -1.196,3.3746 -1.724,4.8298 -0.52,1.4552 -1.1,3.1221 -1.29,3.7039 -0.19,0.582 -0.59,1.654 -0.89,2.382 -0.31,0.727 -1.29,3.346 -2.18,5.82 -2.31,6.398 -2.75,7.609 -3.84,10.584 -0.53,1.455 -1.31,3.598 -1.72,4.762 -0.41,1.164 -1.29,3.605 -1.97,5.424 -0.67,1.819 -1.47,4.022 -1.76,4.895 -1,2.95 -2.36,6.612 -2.65,7.112 -0.15,0.274 -0.43,1.048 -0.62,1.72 -0.19,0.672 -0.85,2.532 -1.45,4.133 -0.61,1.6 -1.38,3.684 -1.71,4.63 -0.33,0.946 -1.1,3.089 -1.72,4.762 -1.17,3.167 -3.19,8.739 -4.65,12.833 -0.95,2.663 -4.56,12.601 -6.34,17.462 -0.64,1.746 -1.77,4.842 -2.51,6.879 -0.75,2.038 -1.63,4.478 -1.98,5.424 -0.34,0.946 -1.1,3.03 -1.68,4.63 -0.58,1.601 -1.56,4.28 -2.18,5.954 -0.62,1.673 -1.51,4.114 -1.98,5.423 -0.46,1.31 -1.44,3.989 -2.18,5.954 -1.53,4.135 -3.29,8.952 -5.1,14.023 -0.7,1.964 -1.64,4.524 -2.09,5.688 -1.18,3.034 -1.61,4.863 -1.61,6.815 0,1.703 0,1.718 1.27,2.898 1.36,1.275 1.82,1.394 6.41,1.682 3.31,0.208 13.66,0.903 17.33,1.165 2.03,0.145 5.55,0.389 7.8,0.542 2.26,0.153 5.53,0.396 7.28,0.539 1.74,0.144 5.14,0.376 7.54,0.516 2.4,0.141 5.26,0.319 6.35,0.397 4.246,0.303 9.845,0.67 14.02,0.919 2.402,0.143 5.854,0.383 7.673,0.532 3.253,0.267 11.112,0.817 18.918,1.323 2.183,0.141 5.457,0.372 7.276,0.514 1.819,0.141 4.379,0.322 5.689,0.402 7.831,0.479 14.976,0.959 16.007,1.076 0.655,0.07 4.167,0.312 7.805,0.53 3.638,0.218 7.27,0.455 8.07,0.528 2.124,0.194 8.04,0.62 14.684,1.058 10.795,0.711 17.699,1.175 23.548,1.582 3.202,0.222 8.56,0.581 11.907,0.798 9.964,0.645 20.063,1.344 24.738,1.712 2.913,0.23 6.218,0.453 13.891,0.937 1.164,0.07 4.617,0.309 7.673,0.524 3.056,0.215 6.508,0.452 7.673,0.527 15.063,0.974 21.904,1.433 25.664,1.722 1.892,0.145 4.691,0.33 6.218,0.412 1.529,0.08 3.196,0.189 3.704,0.238 0.511,0.05 2.892,0.221 5.292,0.379 2.402,0.159 6.212,0.41 8.466,0.559 2.257,0.149 4.877,0.329 5.821,0.399 4.935,0.369 9.835,0.702 13.626,0.926 2.329,0.138 5.305,0.366 6.615,0.506 1.31,0.141 4.059,0.332 6.112,0.425 2.05,0.09 4.193,0.212 4.762,0.266 0.566,0.05 2.998,0.224 5.398,0.378 2.402,0.153 5.794,0.393 7.54,0.533 1.747,0.14 4.665,0.323 6.483,0.406 1.82,0.08 4.378,0.264 5.688,0.402 1.31,0.138 4.466,0.372 7.012,0.52 5.596,0.326 10.816,0.678 15.61,1.053 1.966,0.153 6.429,0.451 9.922,0.662 3.492,0.211 6.887,0.445 7.541,0.521 0.656,0.08 2.262,0.192 3.571,0.259 4.453,0.228 12.69,0.797 15.666,1.083 0.612,0.06 3.173,0.23 5.689,0.382 2.516,0.151 7.136,0.453 10.263,0.67 3.13,0.218 7.536,0.52 9.79,0.671 2.257,0.151 6.649,0.453 9.766,0.671 9.416,0.659 17.115,1.167 21.719,1.434 2.403,0.139 4.842,0.317 5.424,0.395 1.164,0.156 9.263,0.723 18.918,1.325 3.421,0.213 7.826,0.507 9.789,0.652 6.729,0.497 14.949,1.049 17.974,1.206 1.664,0.09 3.101,0.203 3.193,0.26 0.09,0.06 1.648,0.172 3.456,0.256 1.809,0.08 4.781,0.27 6.598,0.411 1.821,0.142 5.451,0.381 8.07,0.531 2.619,0.151 5.773,0.383 7.012,0.517 1.238,0.134 4.034,0.312 6.217,0.394 2.183,0.08 4.98,0.267 6.218,0.409 1.95,0.224 7.078,0.597 12.965,0.943 2.825,0.166 6.561,-0.339 8.122,-1.098 2.416,-1.175 4.673,-4.189 5.332,-7.125 0.164,-0.728 0.476,-2.097 0.69,-3.043 0.217,-0.946 0.516,-3.565 0.664,-5.821 0.148,-2.255 0.442,-5.887 0.651,-8.07 0.212,-2.182 0.516,-5.754 0.68,-7.937 0.162,-2.183 0.466,-6.052 0.677,-8.599 0.212,-2.547 0.498,-6.118 0.638,-7.937 0.138,-1.819 0.498,-6.046 0.802,-9.393 0.301,-3.347 0.661,-7.633 0.799,-9.525 0.137,-1.892 0.368,-4.571 0.516,-5.953 0.145,-1.383 0.458,-5.133 0.698,-8.335 0.519,-6.976 0.744,-9.855 1.268,-16.139 0.219,-2.62 0.524,-6.311 0.68,-8.202 0.153,-1.892 0.452,-5.226 0.658,-7.409 0.209,-2.183 0.453,-5.219 0.54,-6.747 0.09,-1.528 0.265,-3.611 0.394,-4.63 0.13,-1.018 0.307,-3.207 0.397,-4.864 0.09,-1.657 0.268,-3.563 0.395,-4.235 0.127,-0.673 0.304,-2.294 0.394,-3.603 0.09,-1.309 0.33,-4.284 0.534,-6.612 0.207,-2.329 0.561,-6.794 0.791,-9.922 0.233,-3.129 0.598,-7.594 0.815,-9.922 0.215,-2.328 0.511,-5.781 0.654,-7.673 0.145,-1.892 0.378,-4.749 0.524,-6.35 0.143,-1.601 0.336,-4.939 0.431,-7.418 0.196,-5.0452 0.217,-4.9494 -1.678,-7.1769 -1.33,-1.5637 -2.884,-2.4039 -5.371,-2.9061 -1.923,-0.3885 -11.602,-0.7416 -31.353,-1.1439 -7.276,-0.1482 -15.311,-0.33 -17.859,-0.4041 -2.545,-0.074 -11.655,-0.2518 -20.241,-0.3952 -8.585,-0.1433 -16.92,-0.3205 -18.521,-0.3937 -1.6,-0.073 -6.897,-0.1977 -11.774,-0.2766 -16.562,-0.2683 -34.983,-0.6547 -50.138,-1.0517 -2.619,-0.069 -8.988,-0.1901 -14.155,-0.2699 -5.165,-0.08 -10.346,-0.1964 -11.51,-0.259 -1.164,-0.063 -7.712,-0.1804 -14.552,-0.2616 -6.839,-0.081 -13.388,-0.2043 -14.552,-0.2738 -2.556,-0.1525 -10.006,-0.333 -27.252,-0.6602 -26.718,-0.507 -52.509,-1.0454 -56.092,-1.1709 -2.037,-0.071 -7.99,-0.1944 -13.229,-0.2735 -10.289,-0.1553 -15.777,-0.2666 -32.544,-0.6599 -5.966,-0.14 -14.003,-0.3185 -17.859,-0.3967 -9.363,-0.1898 -16.821,-0.3501 -31.089,-0.6681 -23.99,-0.5346 -36.449,-0.7907 -45.243,-0.9302 -4.948,-0.078 -13.342,-0.2553 -18.653,-0.3931 -5.312,-0.1377 -13.289,-0.3155 -17.728,-0.395 -4.438,-0.079 -10.272,-0.2003 -12.964,-0.2686 -9.942,-0.2521 -16.504,-0.3885 -25.797,-0.5363 -5.239,-0.083 -12.918,-0.2639 -17.066,-0.4014 -4.147,-0.1375 -9.267,-0.2542 -11.377,-0.2594 l -3.836,-0.01 0.786,-0.5869 c 1.391,-1.039 6.274,-3.0056 9.268,-3.733 1.601,-0.3889 3.327,-0.8521 3.836,-1.0294 1.121,-0.3902 27.259,-0.3297 42.202,0.098 5.238,0.1499 13.215,0.3273 17.727,0.3943 4.511,0.067 13.262,0.2418 19.446,0.3884 6.185,0.1467 15.829,0.3274 21.432,0.4016 5.602,0.074 17.925,0.3045 27.384,0.5117 9.459,0.2072 21.484,0.4475 26.723,0.534 5.239,0.087 11.192,0.2049 13.229,0.2631 7.15,0.2045 26.776,0.5744 62.574,1.1792 8.951,0.1513 21.095,0.3973 26.988,0.5468 5.895,0.1495 18.872,0.3825 28.839,0.5178 9.97,0.1352 19.196,0.3155 20.506,0.4006 1.309,0.085 10.358,0.2876 20.108,0.45 9.75,0.1624 18.918,0.3281 20.373,0.3681 1.455,0.04 7.707,0.1408 13.89,0.2241 15.899,0.214 24.911,0.3974 27.517,0.5599 2.262,0.1411 34.904,0.7378 63.897,1.1682 28.07,0.4166 50.684,1.0906 54.107,1.6126 2.064,0.3145 4.136,0.822 5.961,1.4604 0.588,0.2052 1.305,0.373 1.596,0.373 0.291,0 0.762,0.1557 1.05,0.3461 0.286,0.1903 1.236,0.5723 2.109,0.8488 0.873,0.2765 1.775,0.6566 2.005,0.8446 0.231,0.188 0.519,0.3418 0.643,0.3418 0.416,0 2.464,1.0794 2.786,1.4684 0.175,0.211 0.421,0.3837 0.546,0.3837 0.481,0 3.098,1.8616 4.923,3.5005 2.35,2.1091 5.633,5.6964 5.633,6.1514 0,0.186 0.178,0.484 0.392,0.662 0.214,0.179 0.553,0.64 0.751,1.025 0.196,0.385 0.794,1.498 1.329,2.474 0.531,0.976 0.968,1.91 0.968,2.074 0,0.165 0.355,1.067 0.788,2.005 1.413,3.049 1.882,7.746 1.363,13.594 -0.283,3.158 -0.595,7.321 -1.098,14.552 -0.487,7.025 -1.048,14.829 -1.304,18.124 -0.545,7.017 -1.403,18.72 -2.003,27.384 -0.217,3.129 -0.511,7.117 -0.654,8.864 -0.143,1.746 -0.442,5.675 -0.661,8.731 -0.9,12.469 -2.069,28.165 -2.514,33.734 -0.145,1.819 -0.444,5.748 -0.667,8.731 -0.727,9.764 -0.941,12.53 -1.188,15.346 -0.134,1.528 -0.314,3.671 -0.396,4.763 -0.723,9.465 -2.059,15.777 -4.271,20.183 -3.566,7.106 -11.451,14.346 -20.206,18.555 -5.543,2.665 -9.083,3.652 -13.359,3.725 -1.601,0.03 -3.863,0.125 -5.027,0.218 -1.164,0.09 -2.236,0.124 -2.381,0.07 z m -16.537,-53.88 c -2.677,-0.199 -4.783,-0.329 -19.182,-1.18 -3.638,-0.215 -8.4,-0.509 -10.583,-0.654 -2.183,-0.145 -7.123,-0.442 -10.98,-0.659 -7.745,-0.437 -13.888,-0.806 -20.109,-1.209 -2.254,-0.146 -10.112,-0.62 -17.462,-1.053 -11.843,-0.699 -18.288,-1.086 -35.058,-2.107 -9.361,-0.57 -13.425,-0.814 -19.843,-1.194 -3.638,-0.215 -8.401,-0.511 -10.584,-0.656 -2.183,-0.146 -7.183,-0.444 -11.112,-0.663 -8.988,-0.501 -15.142,-0.876 -19.712,-1.203 -1.963,-0.141 -5.715,-0.373 -8.334,-0.517 -5.768,-0.316 -8.274,-0.463 -13.626,-0.802 -2.254,-0.143 -7.316,-0.437 -11.245,-0.653 -3.929,-0.216 -8.811,-0.515 -10.848,-0.666 -2.037,-0.15 -7.752,-0.508 -12.7,-0.795 -4.948,-0.287 -12.983,-0.763 -17.859,-1.057 -4.874,-0.295 -11.84,-0.713 -15.478,-0.929 -3.638,-0.215 -8.639,-0.515 -11.113,-0.666 -2.474,-0.15 -6.522,-0.386 -8.996,-0.524 -10.305,-0.576 -13.828,-0.792 -15.081,-0.926 -0.728,-0.08 -3.406,-0.253 -5.953,-0.388 -2.547,-0.135 -7.726,-0.432 -11.509,-0.659 -3.784,-0.228 -8.785,-0.527 -11.113,-0.666 -2.328,-0.139 -6.079,-0.372 -8.334,-0.52 -3.67,-0.24 -7.757,-0.487 -22.093,-1.336 -2.328,-0.138 -6.138,-0.366 -8.467,-0.508 -5.169,-0.313 -28.044,-1.692 -39.952,-2.408 -4.802,-0.289 -10.577,-0.642 -12.832,-0.785 -2.256,-0.143 -7.316,-0.439 -11.245,-0.657 -9.465,-0.526 -11.031,-0.675 -10.905,-1.034 0.06,-0.161 0.916,-2.674 1.908,-5.585 1.792,-5.25 2.136,-6.054 2.498,-5.831 0.103,0.06 2.56,0.241 5.46,0.393 4.873,0.256 12.381,0.672 23.926,1.327 2.546,0.145 7.606,0.441 11.244,0.659 3.638,0.217 8.818,0.518 11.51,0.667 5.4,0.3 11.461,0.648 18.521,1.063 2.546,0.15 9.869,0.571 16.271,0.936 6.403,0.365 14.678,0.841 18.389,1.058 3.711,0.217 8.89,0.516 11.509,0.664 2.62,0.149 6.727,0.382 9.129,0.519 2.401,0.137 7.58,0.43 11.509,0.651 3.929,0.221 9.227,0.525 11.774,0.675 18.534,1.094 22.831,1.34 32.147,1.843 2.619,0.142 7.8,0.444 11.509,0.671 3.712,0.227 8.713,0.523 11.113,0.656 2.402,0.134 7.522,0.426 11.377,0.649 3.857,0.224 9.096,0.523 11.641,0.667 2.548,0.143 7.787,0.442 11.642,0.666 3.858,0.223 12.311,0.704 18.785,1.068 11.092,0.625 14.833,0.839 25.4,1.455 11.253,0.657 13.96,0.811 18.521,1.057 2.694,0.145 7.933,0.448 11.642,0.673 3.712,0.226 8.652,0.517 10.98,0.647 2.329,0.131 7.567,0.427 11.642,0.658 4.074,0.231 9.432,0.532 11.906,0.668 2.474,0.136 7.356,0.428 10.848,0.648 3.493,0.221 8.612,0.521 11.377,0.667 4.964,0.264 7.808,0.425 21.035,1.189 3.712,0.215 10.914,0.629 16.007,0.921 5.093,0.293 14.56,0.841 21.034,1.219 6.477,0.378 13.351,0.752 15.277,0.832 2.106,0.09 3.591,0.264 3.726,0.442 0.214,0.28 -0.31,5.79 -1.016,10.681 l -0.315,2.183 -2.419,-0.04 c -1.33,-0.02 -3.669,-0.131 -5.199,-0.245 z m -491.264,-22.551 c -2.7,-0.184 -3.77,-0.351 -3.77,-0.587 0,-0.181 0.52,-1.767 1.15,-3.523 l 1.16,-3.194 -0.69,-0.129 c -0.38,-0.07 -1.64,-0.208 -2.79,-0.305 -5.04,-0.421 -8.35,-2.027 -9.74,-4.726 -0.76,-1.486 -0.91,-4.266 -0.35,-6.64 0.44,-1.899 4.75,-13.295 5.19,-13.741 0.25,-0.256 8.73,0.195 9.21,0.489 0.19,0.122 -0.85,3.183 -2.35,6.902 -1.45,3.585 -1.38,4.805 0.31,5.806 0.9,0.528 4.941,0.997 5.419,0.628 0.326,-0.252 0.333,-0.268 1.925,-4.565 0.59,-1.591 1.184,-3.005 1.321,-3.141 0.242,-0.243 8.385,0.153 8.652,0.42 0.07,0.07 -0.522,1.836 -1.311,3.928 -0.79,2.092 -1.36,3.879 -1.268,3.97 0.09,0.09 3.68,0.361 7.973,0.599 4.293,0.238 9.77,0.549 12.171,0.692 2.401,0.142 5.107,0.297 6.014,0.343 0.906,0.05 1.716,0.153 1.8,0.237 0.195,0.195 -3.527,10.818 -3.943,11.255 -0.242,0.254 -1.123,0.273 -3.878,0.08 -1.961,-0.135 -6.065,-0.379 -9.121,-0.544 -3.056,-0.164 -7.021,-0.41 -8.812,-0.546 -1.79,-0.136 -4.058,-0.248 -5.04,-0.248 h -1.784 l -0.338,0.992 c -0.186,0.546 -0.755,2.094 -1.264,3.44 -0.795,2.098 -1.009,2.441 -1.502,2.404 -0.316,-0.02 -2.271,-0.159 -4.344,-0.3 z m 38.959,-31.954 c -2.037,-0.112 -5.966,-0.337 -8.731,-0.5 -7.374,-0.433 -19.427,-1.057 -20.572,-1.064 -0.733,0 -0.992,-0.116 -0.992,-0.431 0,-0.423 2.986,-8.511 3.493,-9.462 0.244,-0.458 0.511,-0.483 3.479,-0.327 l 3.215,0.169 -0.926,-0.726 c -3.003,-2.355 -4.004,-4.463 -3.452,-7.269 0.296,-1.503 1.878,-5.321 2.316,-5.592 0.231,-0.142 9.841,0.764 10.022,0.946 0.06,0.06 -0.326,1.055 -0.863,2.206 -0.821,1.76 -0.979,2.386 -0.994,3.944 -0.02,2.259 0.518,3.338 2.254,4.509 2.096,1.412 5.117,1.805 18.432,2.395 2.073,0.09 3.77,0.278 3.77,0.412 0,0.135 -0.643,2.057 -1.43,4.27 -0.786,2.214 -1.633,4.65 -1.882,5.414 l -0.453,1.389 -1.491,-0.04 c -0.82,-0.02 -3.158,-0.131 -5.195,-0.243 z m -5.159,-25.433 c -5.435,-0.676 -9.33,-3.071 -11.086,-6.816 -0.623,-1.327 -0.688,-1.77 -0.684,-4.642 0,-2.87 0.08,-3.404 0.834,-5.556 2.394,-6.872 7.189,-11.622 14.111,-13.979 3.189,-1.086 6.104,-1.518 10.283,-1.522 2.09,0 3.864,0.06 3.941,0.135 0.08,0.08 -0.609,2.197 -1.524,4.71 -0.915,2.514 -2.175,5.999 -2.801,7.745 -0.626,1.746 -1.518,4.187 -1.982,5.424 -0.464,1.237 -0.902,2.585 -0.974,2.995 -0.128,0.735 -0.116,0.743 0.895,0.559 4.348,-0.788 7.68,-4.119 9.35,-9.345 0.778,-2.437 1.113,-5.448 0.809,-7.289 -0.142,-0.865 -0.205,-1.626 -0.138,-1.692 0.235,-0.235 8.206,0 8.458,0.241 0.473,0.467 0.174,5.205 -0.5,7.936 -1.365,5.531 -3.85,10.068 -7.508,13.708 -4.294,4.273 -9.315,6.655 -15.657,7.43 -2.53,0.309 -3.041,0.305 -5.827,-0.04 z m 4.817,-16.979 c 1.259,-3.457 2.01,-5.881 1.867,-6.025 -0.377,-0.377 -3.605,0.185 -5.163,0.898 -4.403,2.016 -6.179,7.535 -3.124,9.711 1.078,0.767 2.641,1.32 3.553,1.255 0.741,-0.05 0.813,-0.199 2.867,-5.839 z m 9.735,-21.361 c -6.09,-0.682 -9.655,-2.717 -11.469,-6.546 -0.785,-1.659 -0.833,-1.932 -0.812,-4.672 0.02,-2.658 0.102,-3.121 0.948,-5.338 1.218,-3.197 2.363,-5.076 4.451,-7.311 3.359,-3.595 7.525,-5.761 13.356,-6.945 2.052,-0.416 9.443,-0.688 9.775,-0.359 0.09,0.09 -0.213,1.157 -0.666,2.381 -0.452,1.224 -0.98,2.702 -1.172,3.284 -0.192,0.582 -0.902,2.547 -1.577,4.366 -2.291,6.169 -3.574,9.852 -3.574,10.253 0,0.611 1.856,0.267 3.847,-0.714 4.311,-2.122 7.137,-7.827 6.952,-14.034 l -0.08,-2.776 3.969,0.09 c 2.446,0.06 4.109,0.205 4.335,0.39 0.458,0.377 0.259,4.184 -0.359,6.847 -1.552,6.696 -4.444,11.53 -9.25,15.464 -2.475,2.027 -7.055,4.34 -9.808,4.953 -1.628,0.363 -6.388,1.015 -6.747,0.924 -0.07,-0.02 -1.025,-0.134 -2.116,-0.256 z m 3.117,-13.864 c 0.634,-1.746 1.562,-4.252 2.061,-5.57 0.499,-1.316 0.907,-2.494 0.907,-2.615 0,-0.273 -2.962,-0.02 -4.242,0.359 -1.672,0.498 -3.367,1.786 -4.401,3.342 -0.824,1.242 -1.01,1.777 -1.099,3.16 -0.101,1.587 -0.06,1.711 0.786,2.638 0.908,0.99 3.281,2.048 4.316,1.923 0.407,-0.05 0.768,-0.749 1.672,-3.237 z m -42.717,-38.4088 c 0.1,-0.097 0.256,-0.097 0.353,0 0.1,0.097 0.02,0.1764 -0.176,0.1764 -0.194,0 -0.274,-0.079 -0.177,-0.1764 z"
 id="path16304" />
<path
 style="fill:#0a1811;stroke-width:0.264583"
 d="m -485.578,302.093 c 0.07,-0.198 0.289,-0.359 0.495,-0.359 0.207,0 0.461,-0.117 0.561,-0.261 0.103,-0.143 0.532,-0.274 0.955,-0.291 0.421,-0.02 0.903,-0.115 1.069,-0.218 0.312,-0.192 0.916,-0.349 2.289,-0.594 0.436,-0.08 0.913,-0.229 1.058,-0.336 0.146,-0.108 1.04,-0.47 1.985,-0.805 2.214,-0.786 6.635,-2.962 7.538,-3.71 0.174,-0.145 0.394,-0.185 0.489,-0.09 0.1,0.1 0.175,0.06 0.175,-0.09 0,-0.146 0.267,-0.39 0.595,-0.541 0.905,-0.419 5.236,-3.735 6.284,-4.811 0.51,-0.524 1.283,-1.261 1.72,-1.638 1.153,-0.998 3.886,-4.095 4.357,-4.939 0.223,-0.399 0.49,-0.789 0.593,-0.867 0.103,-0.08 0.429,-0.673 0.72,-1.323 0.293,-0.649 0.772,-1.538 1.069,-1.975 0.293,-0.436 0.534,-0.999 0.534,-1.25 0,-0.25 0.344,-1.322 0.762,-2.381 0.9,-2.282 1.815,-6.644 2.011,-9.598 0.08,-1.164 0.256,-3.545 0.399,-5.292 0.143,-1.746 0.323,-4.068 0.403,-5.159 0.08,-1.091 0.195,-2.401 0.261,-2.91 0.06,-0.51 0.178,-1.938 0.252,-3.175 0.349,-5.845 0.476,-7.554 0.569,-7.707 0.06,-0.09 0.225,-2.116 0.375,-4.498 0.151,-2.383 0.331,-5.046 0.397,-5.919 0.07,-0.873 0.246,-3.195 0.394,-5.16 0.26,-3.414 0.421,-5.43 0.67,-8.334 0.06,-0.728 0.235,-3.407 0.389,-5.953 0.153,-2.547 0.333,-5.047 0.402,-5.556 0.07,-0.51 0.307,-3.486 0.529,-6.615 0.222,-3.129 0.519,-6.879 0.656,-8.334 0.141,-1.456 0.498,-6.04 0.797,-10.187 0.299,-4.147 0.59,-8.017 0.651,-8.599 0.06,-0.582 0.182,-2.189 0.272,-3.572 0.355,-5.458 0.675,-9.712 0.797,-10.583 0.05,-0.364 0.161,-1.674 0.251,-2.911 0.09,-1.236 0.212,-2.784 0.275,-3.439 0.06,-0.655 0.185,-2.322 0.27,-3.704 0.08,-1.383 0.389,-5.431 0.675,-8.996 0.288,-3.565 0.574,-7.137 0.637,-7.938 0.06,-0.8 0.191,-2.526 0.281,-3.836 0.09,-1.31 0.214,-2.896 0.275,-3.525 0.635,-6.702 0.698,-9.422 0.262,-11.525 -0.238,-1.147 -0.379,-2.141 -0.31,-2.209 0.495,-0.495 1.471,2.109 2.12,5.655 0.476,2.599 0.41,4.432 -0.543,15.44 -0.362,4.191 -0.733,9.34 -1.41,19.58 -0.331,4.988 -1.14,15.742 -1.863,24.738 -0.153,1.892 -0.389,5.404 -0.526,7.805 -0.138,2.401 -0.315,4.842 -0.392,5.424 -0.08,0.582 -0.256,2.726 -0.394,4.763 -0.696,10.169 -1.085,15.445 -1.209,16.404 -0.08,0.582 -0.315,3.678 -0.529,6.879 -0.215,3.202 -0.506,7.131 -0.643,8.731 -0.141,1.601 -0.437,5.649 -0.662,8.996 -0.225,3.347 -0.529,7.395 -0.672,8.996 -0.145,1.601 -0.383,4.875 -0.529,7.276 -0.143,2.401 -0.325,4.663 -0.4,5.027 -0.08,0.364 -0.248,2.269 -0.383,4.234 -0.484,7.091 -0.81,10.742 -1.082,12.17 -0.156,0.801 -0.402,2.11 -0.548,2.911 -0.527,2.863 -1.905,7.042 -2.91,8.821 -0.564,0.995 -1.024,1.9 -1.024,2.011 0,0.343 -3.17,4.477 -4.699,6.129 -2.186,2.361 -5.115,4.599 -7.409,5.661 -1.127,0.521 -2.505,1.181 -3.064,1.466 -0.56,0.285 -1.185,0.518 -1.389,0.518 -0.206,0 -0.373,0.119 -0.373,0.265 0,0.145 -0.129,0.264 -0.291,0.264 -0.158,0 -0.666,0.167 -1.124,0.37 -1.553,0.69 -3.21,1.051 -4.935,1.076 -0.944,0.01 -1.868,0.117 -2.048,0.229 -0.219,0.138 -0.277,0.08 -0.177,-0.183 0.122,-0.317 -0.06,-0.362 -0.997,-0.243 -0.627,0.08 -1.262,0.223 -1.408,0.318 -0.145,0.09 -1.262,0.21 -2.479,0.257 -1.775,0.07 -2.191,0.01 -2.096,-0.274 z m -21.751,-48.654 c -1.966,-0.114 -5.654,-0.339 -8.202,-0.5 -2.545,-0.161 -6.593,-0.412 -8.996,-0.557 -2.4,-0.145 -6.27,-0.386 -8.599,-0.535 -4.323,-0.277 -9.207,-0.571 -17.198,-1.034 -7.577,-0.44 -17.777,-1.053 -22.092,-1.326 -2.255,-0.144 -8.15,-0.499 -13.097,-0.79 -4.948,-0.291 -10.901,-0.653 -13.23,-0.805 -2.328,-0.152 -7.268,-0.453 -10.98,-0.669 -3.709,-0.216 -9.604,-0.569 -13.097,-0.785 -3.492,-0.215 -8.493,-0.511 -11.112,-0.658 -2.619,-0.146 -7.559,-0.447 -10.98,-0.669 -3.419,-0.222 -8.3,-0.52 -10.848,-0.662 -2.546,-0.141 -6.535,-0.377 -8.864,-0.523 -2.328,-0.146 -7.329,-0.446 -11.112,-0.666 -3.784,-0.219 -8.546,-0.514 -10.584,-0.653 -2.037,-0.14 -6.024,-0.376 -8.863,-0.525 -2.837,-0.148 -6.885,-0.387 -8.996,-0.53 -2.109,-0.143 -5.919,-0.385 -8.467,-0.538 -2.545,-0.152 -9.451,-0.571 -15.346,-0.93 -5.892,-0.359 -15.774,-0.948 -21.96,-1.31 -6.183,-0.362 -13.089,-0.777 -15.346,-0.924 -2.254,-0.147 -6.183,-0.389 -8.731,-0.537 -2.545,-0.149 -7.607,-0.45 -11.245,-0.668 -3.638,-0.218 -8.638,-0.515 -11.112,-0.66 -9.119,-0.534 -17.836,-1.059 -21.828,-1.314 -2.256,-0.145 -6.185,-0.39 -8.732,-0.546 -2.546,-0.155 -8.499,-0.519 -13.229,-0.809 -4.729,-0.289 -10.536,-0.639 -12.905,-0.777 -2.368,-0.139 -7.368,-0.437 -11.112,-0.662 -3.744,-0.226 -8.712,-0.518 -11.04,-0.65 -2.329,-0.131 -6.019,-0.364 -8.202,-0.518 -4.027,-0.283 -10.037,-0.64 -26.723,-1.588 -5.093,-0.29 -10.987,-0.647 -13.097,-0.795 -2.11,-0.147 -6.099,-0.392 -8.864,-0.545 -2.765,-0.153 -6.694,-0.391 -8.731,-0.529 -2.037,-0.138 -5.282,-0.329 -7.21,-0.426 -2.286,-0.115 -3.505,-0.278 -3.504,-0.47 0,-0.274 3.652,-11.046 3.79,-11.184 0.06,-0.06 4.987,0.189 13.803,0.701 2.329,0.135 7.567,0.431 11.642,0.657 4.075,0.226 9.194,0.527 11.377,0.668 2.183,0.141 6.35,0.377 9.26,0.523 2.911,0.147 6.066,0.331 7.012,0.409 1.628,0.135 5.546,0.359 16.139,0.922 2.547,0.136 6.417,0.364 8.599,0.508 3.86,0.255 5.778,0.366 21.035,1.22 4.002,0.223 10.252,0.583 13.89,0.797 7.015,0.415 13.203,0.765 20.77,1.174 2.547,0.138 7.786,0.432 11.642,0.655 3.856,0.222 8.141,0.468 9.525,0.546 1.384,0.08 4.239,0.256 6.35,0.395 2.111,0.14 7.35,0.435 11.642,0.656 4.294,0.222 9.652,0.521 11.906,0.667 4.299,0.277 14.459,0.871 22.754,1.331 2.694,0.149 6.623,0.381 8.731,0.516 2.112,0.136 5.385,0.317 7.276,0.404 1.892,0.09 6.059,0.327 9.261,0.533 3.201,0.206 10.226,0.614 15.61,0.906 5.384,0.293 11.756,0.653 14.155,0.8 2.403,0.147 6.628,0.388 9.393,0.535 2.765,0.147 6.874,0.384 9.128,0.527 2.257,0.143 7.435,0.439 11.51,0.657 4.074,0.218 9.374,0.516 11.774,0.663 2.402,0.146 7.522,0.443 11.377,0.658 7.188,0.402 13.25,0.761 20.24,1.199 2.183,0.137 5.697,0.316 7.806,0.399 2.111,0.08 5.326,0.261 7.143,0.395 4.186,0.31 10.84,0.719 17.463,1.073 2.839,0.152 7.183,0.391 9.657,0.532 2.474,0.141 6.583,0.366 9.128,0.501 2.548,0.134 7.549,0.426 11.113,0.648 3.566,0.223 8.744,0.53 11.509,0.684 2.765,0.153 10.266,0.576 16.669,0.94 6.403,0.364 13.716,0.779 16.253,0.923 2.538,0.143 4.67,0.32 4.744,0.392 0.127,0.128 -0.503,5.971 -1.13,10.445 l -0.314,2.249 -0.913,0.03 c -0.503,0.02 -2.519,-0.06 -4.485,-0.174 z m -493.931,-22.76 c -1.65,-0.111 -3.05,-0.258 -3.12,-0.328 -0.11,-0.112 0.18,-0.959 1.9,-5.55 0.21,-0.549 0.38,-1.104 0.38,-1.234 0,-0.131 -0.92,-0.307 -2.05,-0.393 -6.32,-0.482 -9.66,-1.922 -11.05,-4.762 -1.36,-2.781 -1.09,-5.599 1.05,-11.134 0.62,-1.601 1.69,-4.379 2.38,-6.173 l 1.26,-3.262 1.23,0.143 c 0.67,0.08 2.74,0.219 4.6,0.312 1.86,0.09 3.37,0.25 3.37,0.349 0,0.1 -0.57,1.665 -1.26,3.479 -0.7,1.815 -1.55,4.145 -1.9,5.179 l -0.63,1.88 0.51,0.898 c 0.71,1.226 2.02,1.805 4.54,2 2.453,0.189 2.26,0.352 3.39,-2.867 0.374,-1.066 0.99,-2.688 1.369,-3.603 0.63,-1.524 0.746,-1.654 1.371,-1.536 0.376,0.07 2.261,0.209 4.189,0.306 2.346,0.117 3.505,0.275 3.502,0.477 0,0.165 -0.597,1.894 -1.323,3.841 -0.725,1.947 -1.319,3.628 -1.319,3.736 0,0.267 2.302,0.465 10.716,0.925 3.929,0.214 9.287,0.508 11.906,0.653 2.619,0.145 4.911,0.266 5.093,0.269 0.503,0 0.418,0.445 -0.7,3.588 -0.567,1.595 -1.423,4.017 -1.901,5.383 l -0.871,2.484 -3.059,-0.154 c -7.055,-0.354 -16.978,-0.948 -23.362,-1.398 l -2.047,-0.144 -0.385,0.878 c -0.213,0.482 -0.822,2.038 -1.355,3.457 l -0.969,2.58 -1.229,-0.04 c -0.676,-0.02 -2.578,-0.13 -4.226,-0.24 z m 41.758,-31.752 c -5.214,-0.337 -19.492,-1.118 -27.842,-1.523 -2.435,-0.118 -4.509,-0.297 -4.609,-0.397 -0.1,-0.1 -0.05,-0.449 0.104,-0.776 0.465,-0.967 3.243,-8.357 3.243,-8.626 0,-0.438 0.606,-0.481 3.683,-0.259 1.661,0.12 3.09,0.145 3.175,0.06 0.08,-0.09 -0.204,-0.416 -0.641,-0.726 -4.182,-2.972 -4.85,-5.967 -2.447,-10.973 0.443,-0.922 0.966,-1.739 1.162,-1.814 0.363,-0.139 9.394,0.686 9.6,0.877 0.06,0.06 -0.136,0.609 -0.439,1.226 -1.591,3.242 -1.871,5.457 -0.929,7.341 1.319,2.637 3.906,3.579 10.913,3.973 7.875,0.444 13.047,0.783 13.126,0.862 0.04,0.04 -0.564,1.856 -1.343,4.035 -0.779,2.179 -1.64,4.617 -1.912,5.417 -0.576,1.689 -0.259,1.603 -4.844,1.307 z m -8.655,-25.759 c -4.694,-0.897 -7.906,-2.923 -9.473,-5.975 -1.664,-3.241 -1.511,-7.384 0.447,-12.124 3.081,-7.457 9.521,-12.246 18.383,-13.672 2.416,-0.389 8.842,-0.555 9.161,-0.236 0.09,0.09 -0.08,0.773 -0.377,1.521 -0.649,1.64 -3.789,10.303 -4.473,12.34 -0.269,0.801 -0.971,2.743 -1.56,4.318 -0.59,1.574 -1.072,2.988 -1.072,3.142 0,0.186 0.466,0.22 1.373,0.1 4.245,-0.563 7.726,-4.202 9.511,-9.94 0.508,-1.632 0.617,-2.567 0.615,-5.263 V 144.1 l 3.902,0.149 c 2.146,0.08 4.024,0.226 4.173,0.319 0.362,0.223 0.347,3.8 -0.02,5.809 -0.484,2.616 -2.058,7.299 -3.074,9.144 -1.459,2.648 -2.386,3.907 -4.54,6.162 -3.243,3.394 -7.515,5.891 -12.139,7.096 -2.682,0.698 -8.181,0.897 -10.832,0.39 z m 4.083,-11.068 c 0.141,-0.182 0.738,-1.7 1.327,-3.374 0.589,-1.673 1.492,-4.21 2.007,-5.637 1.082,-2.997 1.081,-2.999 -1.471,-2.732 -3.892,0.407 -6.992,2.988 -7.884,6.565 -0.389,1.563 -0.05,2.709 1.144,3.867 1.388,1.345 4.255,2.116 4.877,1.311 z m 11.187,-27.086 c -5.365,-0.674 -9.179,-2.896 -10.849,-6.318 -0.533,-1.092 -0.663,-1.817 -0.743,-4.157 -0.08,-2.502 -0.01,-3.09 0.607,-5.027 2.222,-6.921 6.824,-11.539 13.935,-13.98 3.177,-1.091 6.303,-1.564 10.373,-1.57 h 3.403 l -0.177,0.728 c -0.1,0.4 -0.875,2.632 -1.729,4.96 -4.254,11.604 -5.333,14.753 -5.125,14.955 0.348,0.34 2.562,-0.171 4.086,-0.944 3.179,-1.61 5.928,-5.867 6.755,-10.458 0.373,-2.072 0.342,-4.866 -0.07,-5.93 -0.127,-0.334 0.153,-0.401 1.686,-0.401 1.013,0 2.93,0.08 4.262,0.172 l 2.422,0.172 v 2.192 c 0,2.61 -0.495,5.139 -1.694,8.646 -2.815,8.235 -10.088,14.711 -18.525,16.492 -1.918,0.405 -6.96,0.681 -8.62,0.472 z m 2.851,-11.146 c 0.142,-0.401 1.054,-2.915 2.027,-5.588 0.973,-2.674 1.708,-5.017 1.635,-5.208 -0.336,-0.875 -5.252,0.362 -6.991,1.759 -2.185,1.755 -3.413,4.999 -2.615,6.909 0.608,1.454 2.898,2.793 4.853,2.837 0.678,0.02 0.882,-0.117 1.091,-0.709 z m 510.062,-14.505 c -0.1,-0.388 -0.116,-0.765 -0.05,-0.838 0.07,-0.07 0.212,0.185 0.31,0.573 0.1,0.388 0.119,0.765 0.05,0.837 -0.07,0.07 -0.212,-0.184 -0.31,-0.572 z m -0.68,-1.833 c 0,-0.07 0.06,-0.133 0.132,-0.133 0.07,0 0.133,0.06 0.133,0.133 0,0.07 -0.06,0.132 -0.133,0.132 -0.07,0 -0.132,-0.06 -0.132,-0.132 z"
 id="path16302" />
</g>
</g>
</g>
</g>
</svg>
