<?xml version="1.0" encoding="UTF-8" standalone="no"?>
<!-- Created with Inkscape (http://www.inkscape.org/) -->

<svg
   width="19.873205mm"
   height="19.870104mm"
   viewBox="0 0 19.873205 19.870104"
   version="1.1"
   id="svg1"
   xml:space="preserve"
   xmlns="http://www.w3.org/2000/svg"
   xmlns:svg="http://www.w3.org/2000/svg"><defs
     id="defs1" /><g
     id="layer1"
     transform="translate(-91.619212,-178.89038)"><path
       id="path4"
       style="fill:#000000;fill-opacity:1;stroke:none;stroke-width:4;stroke-linecap:round;stroke-dasharray:none;stroke-opacity:1"
       d="m 99.711226,178.89037 0.01809,0.005 c -4.694239,0.88598 -8.100157,5.01668 -8.110099,9.83661 -8.7e-5,3.97837 2.329924,7.58065 5.938655,9.18135 l -3.674711,-10.06657 -0.0956,-0.48111 0.529683,0.786 2.055689,3.96255 2.453597,-6.03426 0.963765,-2.45101 0.630965,-1.85001 0.22738,-0.80151 0.0605,-0.43976 -5.2e-4,-0.4036 -0.14469,-0.45216 -0.28216,-0.43822 -0.27078,-0.26717 -0.278015,-0.0811 z m 5.511294,0.5178 -0.004,0.002 0.017,0.005 c -0.005,-0.002 -0.009,-0.005 -0.0134,-0.007 z m 0.0134,0.007 c 0.002,9.3e-4 0.004,0.002 0.007,0.003 l 5.2e-4,-0.001 z m 0.007,0.003 -0.7121,1.28726 -6.699332,17.32401 c 1.183542,0.48297 2.448222,0.73123 3.724842,0.73122 5.48761,-1.9e-4 9.93614,-4.48991 9.93634,-10.02833 h -9.93686 l 9.93686,-5.2e-4 c -1.5e-4,-4.22357 -2.58773,-7.83578 -6.24975,-9.31364 z m -7.411432,18.61127 c -0.09151,-0.0372 -0.182476,-0.0758 -0.272852,-0.11576 l 0.153996,0.0734 z" /></g></svg>
