<svg xmlns="http://www.w3.org/2000/svg" viewBox="0 0 17.438 6.449" height="24.374" width="65.907"><style><![CDATA[.B{stroke:#000}.C{stroke-width:.035}]]></style><defs><filter id="A" x="-.033" width="1.066" y="-.103" height="1.207" color-interpolation-filters="sRGB"><feGaussianBlur stdDeviation=".215"/></filter></defs><rect width="15.733" height="4.999" x="1.076" y=".857" ry="1.438" paint-order="markers fill stroke" filter="url(#A)"/><rect ry="1.438" y=".679" x=".913" height="4.999" width="15.733" fill="#f4d7d7" stroke="#4d4d4d" stroke-width=".156" stroke-linejoin="round" paint-order="markers fill stroke"/><g transform="matrix(.650317 0 0 .650317 376.79 65.7333)"><path d="M-574.03-95.98l.115.117q-.057.057-.1.096-.043.038-.083.068.032.03.066.057.036.026.074.055l-.174.15q-.034-.032-.066-.064-.032-.032-.062-.062l.055.18q-.166.057-.317.102-.15.045-.315.094l-.068-.22q.045-.01.085-.02.042-.008.085-.02v-.08q0-.02-.002-.043 0-.02.002-.042-.03.026-.062.05-.032.026-.066.05l-.128-.196q.117-.074.187-.138.072-.064.125-.136h-.234v-.22h.35v-.117h-.353v-.223h.368v-.134h-.306v-.215h.306v-.208h.236v.208h.287v.215h-.287v.134h.39q-.005-.153-.006-.293 0-.142-.002-.264h.213q0 .142.002.283.002.14.008.274h.502v.223h-.487q.008.102.02.196.013.093.03.183.05-.085.09-.174.04-.09.077-.19l.168.117q-.055.143-.12.27-.064.128-.142.242.008.023.014.045.008.02.02.038.008.02.02.045.013.023.026.042.014.02.028.032.014.013.028.013.01 0 .02-.02.008-.02.013-.05.006-.034.01-.077.006-.045.013-.098l.193.15q-.006.064-.026.128-.017.066-.045.117-.028.053-.066.087-.038.034-.087.034-.08 0-.142-.045-.062-.045-.113-.117-.038-.05-.072-.12-.17.18-.398.304l-.108-.185q.132-.074.236-.157.106-.085.19-.185-.038-.14-.06-.3-.02-.16-.032-.325h-.42v.117h.393v.22zm.557-.578q-.023-.053-.043-.096-.02-.043-.043-.083-.02-.043-.05-.085-.026-.043-.064-.098l.18-.1q.042.055.07.098.03.043.05.083.023.04.04.08.02.04.04.09zm-.8.98q-.13-.136-.232-.27-.013.017-.02.023v.323q.117-.03.25-.077zm.04-.255q.034-.028.066-.062.032-.034.074-.085h-.257q.03.04.057.077.03.034.06.07z" opacity=".1" fill="#fff"/><path d="M-572.356-95.87l.02-1.443" fill="none" class="B C"/><path d="M-572.673-96.87h.818l.152.146-.046.245-.86.496-.253-.463z" fill="#fff"/><path d="M-572.237-97.212c-.15-.01-.292-.002-.43.064-.1.043-.172.103-.238.177-.326.365-.218.958.222 1.18a.77.77 0 0 0 .295.079c.106.007.212-.01.31-.047.073-.026.14-.067.202-.114.343-.27.375-.787.083-1.106-.06-.064-.132-.12-.21-.157-.072-.035-.154-.068-.234-.074m-.265.87l.276-.173.15-.094c.05-.028.107-.085.165-.095.07-.013.118.057.093.12-.022.054-.11.085-.157.115l-.385.24c-.05.032-.118.09-.18.084s-.098-.096-.13-.143l-.087-.135c-.02-.03-.04-.06-.03-.097.017-.057.084-.082.132-.047.027.02.044.054.062.08.03.046.068.092.09.142z" fill="#47e91b"/><path d="M-575.8-95.87l.02-1.444" fill="none" class="B C"/><g transform="matrix(.172489 -.018433 .018433 .172489 -487.262 -69.3142)"><path d="M-493.596-213l-.576 2.198 3.534 4.24 2.17-.12 1.067-4.722z" fill="#fff"/><path d="M-464.42-215.27v1.78c0 .28-.04.6 0 .875.02.118.154.182.227.268.133.158.22.377.182.584-.136.776-1.235.904-1.492.133-.1-.26-.02-.536.162-.74.106-.122.27-.17.28-.348.03-.574 0-1.154 0-1.727 0-.255.06-.6 0-.846-.06-.212-.367-.312-.442-.563-.05-.17.05-.38 0-.53-.114-.302-.6-.622-.818-.85-.07-.07-.183-.234-.292-.234-.1 0-.18.12-.24.18l-.558.557-1.727 1.728c-.24.238-.612.5-.68.85-.1.534.535.946.865 1.275l3.03 3.03c.36.36.814 1.066 1.408.826.263-.107.468-.4.664-.586l3.455-3.455c.262-.262.694-.562.66-.983-.04-.513-.72-.963-1.058-1.302l-2.577-2.577c-.33-.33-.73-.915-1.17-1.086-.53-.208-.893.304-1.223.634-.102.102-.327.255-.362.4-.04.138.25.34.336.425.216.216.468.582.744.716.178.1.4-.02.61.08.238.12.415.372.443.638.02.145-.06.27.04.398.192.24.442.448.66.665.104.103.214.255.346.324s.327-.02.478.03c.45.14.725.653.49 1.083-.25.46-.862.57-1.232.185-.14-.144-.215-.33-.215-.53 0-.1.05-.207.02-.292-.04-.124-.194-.23-.283-.32-.23-.23-.452-.504-.718-.69" fill="#ef5034" transform="rotate(328.992 -469.827 -165.36)"/></g><circle cx="-574.052" cy="-97.756" r=".186"/><path d="M-574.238-97.755h.37v3.222h-.37z"/><path d="M-573.023-94.584v.37h-2.116v-.37z"/><path d="M-574.168-97.488c-.488-.492-1.073-.487-1.54-.05-.1.054-.23.023-.265-.084m1.993.137c.487-.492 1.073-.487 1.54-.05.1.054.23.023.266-.084" fill="none" stroke-width=".131" stroke-linecap="round" class="B"/><path d="M-576.285-95.873l.47-1.48" class="B C"/><g fill="none" class="B"><g stroke-width=".039"><ellipse cx="-575.777" cy="-97.456" rx=".068" ry=".137"/><ellipse ry=".137" rx=".068" cy="-97.455" cx="-572.334"/></g><path d="M-575.267-95.86l-.468-1.48m2.89 1.466l.468-1.48m.554 1.48l-.468-1.48" class="C"/></g><path d="M-576.382-95.85a.65.65 0 0 0 .04.12c.01.023.07.058.07.058h1.013s.05-.033.07-.058c.02-.034.03-.117.03-.117l.05-.015v-.013h-1.328v.013zm3.436-.02s.02.084.04.12c.02.023.07.058.07.058h1.012s.05-.033.07-.058c.02-.034.03-.117.03-.117l.05-.015v-.013h-1.33v.013z"/><circle r=".186" cy="-94.4" cx="-575.125"/><circle cx="-573.023" cy="-94.398" r=".186"/><path d="M-567.934-96.85c0-.558-.118-1.102-1.393-1.102-.366 0-1.3 0-1.3 1.013 0 .516.276.85.848.9l1.032.113c.535.056.66.314.66.708 0 .446-.164.75-1.1.75-1.04 0-1.154-.394-1.154-.914h-.323c0 .713.3 1.2 1.467 1.2 1.05 0 1.435-.333 1.435-1.05 0-.867-.675-.942-.975-.975l-.994-.108c-.413-.047-.568-.244-.568-.614 0-.544.3-.746.995-.746.95 0 1.05.366 1.05.825zm3.066.718c0-.394 0-.886-1.087-.886-1 0-1.08.534-1.084.844h.3c0-.563.45-.572.774-.572.774 0 .816.258.816.54 0 .36-.15.366-.32.37l-.863.023c-.38.01-.8.206-.8.825 0 .774.63.807 1.036.807.75 0 .868-.216.962-.398a1.05 1.05 0 0 0 .06.36h.3c-.08-.16-.08-.44-.08-.516zm-.286.9c0 .45-.16.792-.928.792-.507 0-.764-.1-.764-.516 0-.202.02-.586.6-.6l.834-.02c.104 0 .207-.038.258-.103zm1.134-1.738v2.762h.3v-2.762zm.166-.682l.025.026q-.013.013-.022.02-.01.008-.018.015.007.006.014.013.008.006.016.012l-.038.033q-.007-.007-.014-.014-.007-.007-.014-.014l.012.04q-.036.013-.07.022-.033.01-.07.02l-.015-.048q.01-.002.02-.004.01-.002.02-.004v-.017q0-.005 0-.01 0-.005 0-.01-.007.006-.014.01-.007.006-.014.01l-.028-.043q.026-.016.04-.03.016-.014.027-.03h-.05v-.048h.076v-.026h-.077v-.05h.08v-.03h-.067v-.047h.067v-.046h.052v.046h.063v.047h-.063v.03h.086q-.001-.034-.001-.064 0-.03 0-.058h.047q0 .03 0 .062 0 .03.002.06h.1v.05h-.107q.002.022.004.043.003.02.007.04.01-.02.02-.038.01-.02.017-.042l.037.026q-.012.03-.027.06-.014.028-.03.053.002.005.003.01.002.004.004.008.002.005.005.01.003.005.006.01.003.004.006.007.003.003.006.003.002 0 .004-.004.002-.004.003-.01.001-.007.002-.017.001-.01.003-.02l.042.033q-.001.014-.006.028-.004.014-.01.026-.006.012-.014.02-.008.007-.02.007-.017 0-.03-.01-.014-.01-.025-.026-.008-.01-.016-.027-.037.04-.087.067l-.024-.04q.03-.016.052-.034.023-.02.042-.04-.008-.03-.013-.066-.005-.035-.007-.07h-.092v.026h.086v.048zm.122-.127q-.005-.012-.01-.02-.004-.01-.01-.018-.005-.01-.01-.02-.006-.01-.014-.02l.04-.022q.01.012.015.02.006.01.01.018.005.01.01.018.004.01.01.02zm-.175.215q-.028-.03-.05-.06-.003.004-.004.005v.07q.026-.007.055-.017zm.01-.056q.007-.006.014-.014.007-.007.016-.02h-.056q.007.01.013.017.007.007.013.015z"/></g><g opacity=".574"><circle r="1.943" cy="3.208" cx="13.58" fill="maroon" stroke-width=".206" class="B"/><g fill="red"><path d="M14.09 1.89l.784.784-1.846 1.846-.784-.784z"/><path d="M13.006 1.912l-.784.784 1.846 1.846.784-.784z"/></g></g><g transform="matrix(-.132562 0 0 -.132562 -65.4427 -33.6362)"><circle r="3.403" cy="-277.984" cx="-606.196" paint-order="markers fill stroke"/><circle cx="-596.374" cy="-277.926" r="3.403" paint-order="markers fill stroke"/><circle cx="-586.527" cy="-278.088" r="3.403" paint-order="markers fill stroke"/></g></svg>