<svg xmlns="http://www.w3.org/2000/svg" viewBox="0 0 3.816 3.816" height="14.423" width="14.423" xmlns:v="https://vecta.io/nano"><circle r="1.908" cy="1.908" cx="1.908" opacity=".12" fill="#f2f2f2"/><g transform="matrix(.005642 0 0 .005642 5.461 .517)"><path d="M-937.285 325.773l569.292 39.05 19.537-21.257 12.645-169.99-8.84-15.064-526.53-13.597-23.445 12.043-55.353 151.915z" fill="#fff" paint-order="markers fill stroke"/><path d="M-388.274 373.585l-67.733-4.897-16.934-1.19-21.695-1.61-7.806-.53-7.143-.497-77.26-5.58-320.742-23.13c-.47-.08-2.76-.264-5.09-.404-15.87-.95-17.76-1.204-22.92-3.085-6.58-2.4-11.95-8.31-14.04-15.436-.15-.51-.41-1.093-.57-1.297-.22-.26-.31-2.643-.31-7.938 0-6.64.1-7.69.47-8.59.25-.564.46-1.244.46-1.513s.16-.88.37-1.356c1.32-3.13 1.79-4.343 2.62-6.822.37-1.092.92-2.64 1.23-3.44 1.12-2.877 1.37-3.584 1.59-4.366.11-.436.4-1.15.64-1.587.23-.437.42-.96.43-1.165 0-.204.28-.978.63-1.72s.72-1.765.83-2.274c.1-.51.36-1.16.56-1.45s.36-.744.36-1.017.17-.812.38-1.198.64-1.476.95-2.422.66-1.84.77-1.984c.12-.146.28-.563.36-.926.22-.99 1.09-3.374 1.87-5.126.38-.855.7-1.808.7-2.117s.19-.794.4-1.076.39-.685.39-.893c0-.316 1.27-3.77 2.11-5.737.12-.29.29-.768.37-1.06.27-1.037 1.17-3.464 1.85-4.993.39-.855.7-1.814.7-2.13s.11-.69.24-.827c.25-.255.93-1.98 1.34-3.427.43-1.474.97-2.793 1.28-3.104.17-.17.31-.612.31-.984s.18-1.015.4-1.432.4-.893.4-1.058.15-.6.34-.962.62-1.436.95-2.382l.81-2.25 1.78-4.762c.76-1.99 1.63-4.467 1.99-5.69.14-.51.36-1.045.48-1.19s.47-1.04.77-1.985c.31-.945.68-1.958.81-2.25.34-.724 1.05-2.74 1.31-3.704.11-.436.52-1.44.9-2.232.39-.79.7-1.625.7-1.852s.18-.755.4-1.17.4-.92.4-1.118.23-.87.51-1.49c.55-1.234 1.99-5.046 2.22-5.894a29.71 29.71 0 0 1 1.93-4.936c.2-.386.36-.963.36-1.282s.17-.896.38-1.282.99-2.43 1.75-4.54l1.6-4.365c.29-.677.99-2.663 1.33-3.76.14-.468.37-.92.51-1.008s.26-.485.26-.885.17-.958.38-1.24c.22-.282.4-.657.4-.832 0-.78 3.33-7.097 4.18-7.98.19-.198.74-.972 1.22-1.72 1.16-1.79 8.545-8.9 9.254-8.9.09 0 .755-.42 1.47-.934 3.34-2.4 9.474-5.3 13.12-6.207 1.31-.325 2.5-.68 2.646-.79s.98-.276 1.852-.37l3.556-.432c1.303-.173 5.33-.17 11.907.012l48.83 1.038c4.075.13 10.86.247 15.08.258s14.46.19 22.754.4l43.127.812c.583.067 9.036.255 18.786.42l40.48.72 27.78.558 45.244.98 48.816.872 19.844.28c4.003.01 9.48.128 12.17.26s10.848.312 18.124.398l22.622.428 70.247 1.394c19.365.223 34.48.678 36.38 1.096.945.208 2.405.455 3.244.55s1.585.266 1.656.382.635.294 1.255.397 1.357.31 1.645.46.88.368 1.323.48c5.318 1.363 11.264 5.01 16.113 9.88 1.728 1.736 3.302 3.544 3.5 4.017s.473.93.61 1.016c.14.09.418.48.622.878l1.34 2.497c.532.976.97 1.907.97 2.068s.314.97.695 1.797c1.882 4.06 1.972 7.33.64 23.597l-4.503 62.177-2.125 28.443-.656 8.467-.675 8.996-1.188 15.213c-1.304 16.97-2.233 22.155-4.956 27.65-3.138 6.33-11.025 13.72-19.116 17.912-7.948 4.117-16.51 5.76-25.93 4.977zm26.3-19.46c1.077-.225 2.167-.52 2.423-.658.54-.29 1.76-3.343 1.95-4.887.07-.582.2-2.157.28-3.5s.203-2.593.272-2.78.302-2.717.52-5.628l1.07-13.23c.08-.728.318-3.645.53-6.482l.78-9.525.794-9.393.936-10.716 1.445-17.065c.19-1.447.868-9.255 1.328-15.346l.79-9.657.656-7.806a575.45 575.45 0 0 1 1.598-16.272c.14-1.09.376-3.59.52-5.556l1.458-17.065.54-7.012c.09-1.528.262-3.254.39-3.836s.257-2.13.284-3.442.148-3.096.267-3.968c.357-2.604 1.098-12.044 1.087-13.817 0-1.825-.905-3.886-1.974-4.553-1.878-1.174-4.677-1.314-39.616-1.99l-111.918-2.392c-3.078-.128-6.565-.2-31.883-.668l-23.68-.524-42.598-.92c-1.672-.068-7.387-.19-12.7-.274l-14.155-.27-243.814-5.28c-2.255-.072-7.275-.15-11.155-.176l-7.053-.046-1.84 1.092c-1.012.6-2.03 1.383-2.262 1.738-.41.628-1.77 3.977-2.697 6.65l-2.588 7.276-2.29 6.35-1.99 5.424c-.34.873-.8 2.123-1.02 2.778s-1.37 3.81-2.56 7.012l-2.51 6.88c-.51 1.56-1.73 4.947-1.99 5.556-.13.29-1.09 2.91-2.14 5.82l-9.68 26.723-1.56 4.233-1.26 3.44-4 11.112-20.92 57.415c-.77 2.005-1.05 3.883-.7 4.553.15.282.73.824 1.29 1.204.85.586 1.47.735 4.05.972 1.67.154 4.05.285 5.29.29a39.31 39.31 0 0 1 4.1.246c1.95.25 3.84.39 10.98.81l11.38.785 5.29.4 20.77 1.312 19.843 1.34 17.198 1.18a232.86 232.86 0 0 0 6.615.41 167.67 167.67 0 0 1 7.144.525 153.48 153.48 0 0 0 7.276.519 196.46 196.46 0 0 1 6.614.399l13.494.94 7.937.526 54.637 3.696 3.97.265 5.556.406 9.657.656 11.907.79 72.628 4.914c1.6.147 4.857.378 7.24.513l16.176 1.063c1.53.144 5.1.383 7.938.532s6.112.382 7.276.517 3.902.316 6.085.402 4.268.21 4.63.273 3.7.298 7.41.52l7.28.522c.293.06 2.137.192 4.1.282s4.76.278 6.215.416 4.725.363 7.268.5l17.867 1.192c.582.07 3.143.252 5.69.396l14.607.947c1.79.1 3.318.212 3.397.26s1.57.158 3.308.25c5.273.278 10.53.642 11.23.777.365.07 3.104.26 6.086.42l6.482.386a440.5 440.5 0 0 0 5.162.364l18.386 1.228 9.922.693 15.478.99 6.085.416c2.305.126 6.21.433 10.187.8 1.156.108 4.212.276 10.186.563 1.6.08 4.162.25 5.69.388s4.744.37 7.144.52l9.525.653 18.917 1.23c1.165.01 2.83.11 3.705.22l1.984.235c.217.02 1.278-.145 2.355-.37zm-36.62-34.794l-32.808-1.96-11.113-.683-8.863-.527-8.996-.53-244.607-14.808c-1.892-.135-5.047-.312-7.012-.394a294.61 294.61 0 0 1-7.143-.398l-8.203-.528-57.017-3.437-8.864-.526-11.377-.664-12.832-.798-10.848-.67c-12.413-.678-14.555-.835-14.86-1.09-.24-.2-.253-.452-.05-.976.153-.39 1.04-2.903 1.968-5.587s1.8-4.99 1.933-5.124c.148-.148 1.987-.126 4.698.06l9.614.572 18.39 1.02 18.256 1.08 9.393.538 9.392.523 32.28 1.845 13.493.796 37.042 2.1 17.86 1.083 9.658.546 9.525.512 167.746 9.655 11.377.66 11.774.662 66.775 3.832c.455 0 .487.162.347 1.79-.162 1.886-.51 4.906-1.048 9.062l-.325 2.513-1.19.03c-.654.02-2.62-.06-4.366-.175zm-494.553-22.72c-1.48-.08-2.77-.235-2.87-.334-.18-.18.26-1.59 1.57-5.077l.69-1.88c0-.03-1.05-.144-2.32-.244-6.78-.533-10.25-2.486-11.39-6.408-.83-2.856-.27-5.037 4.25-16.638.46-1.164.95-2.262 1.11-2.44.22-.25 1.3-.265 4.76-.07 2.47.14 4.6.37 4.73.507.26.254.23.36-1.03 3.587-2.24 5.78-2.53 6.78-2.21 7.733.39 1.17 1.75 1.812 4.4 2.07l1.904.186.536-1.158c.295-.636.968-2.348 1.494-3.803s1.095-2.787 1.262-2.96c.228-.236 1.166-.255 3.744-.08l4.3.248c.603 0 .86.135.86.428 0 .425-1.08 3.598-2.09 6.14-.305.77-.555 1.438-.555 1.487 0 .136 7.394.64 18.124 1.237 5.384.3 9.87.625 9.97.724.17.17-2.763 8.943-3.618 10.83l-.39.86h-2.04c-1.12 0-3.356-.117-4.965-.26s-5.486-.394-8.615-.558l-9.128-.49c-3.677-.205-4.1-.163-4.1.407 0 .2-.287 1.11-.638 2.022l-1.094 2.914-.456 1.256-1.75-.04c-.963-.02-2.963-.114-4.443-.2zm441.372-8.638c-10.118-.693-19.39-2.077-28.437-4.244-2.318-.555-7.284-1.94-8.377-2.336-.212-.08-.146-.64.222-1.915l.74-2.6c.69-2.493 5.56-18.743 5.638-18.824.05-.05 1.217.426 2.588 1.064s3.027 1.347 3.68 1.573l3.175 1.12c5.37 1.916 11.4 3.277 18.786 4.24 4.217.55 13.52.78 16.8.418 8.826-.98 13.27-4.21 13.573-9.865.13-2.485-.384-3.822-2.233-5.8-2.4-2.566-7.9-5.166-15.574-7.36-8.133-2.328-16.04-4.872-18.388-5.918-6.477-2.883-9.483-4.714-12.6-7.675-4.442-4.22-6.453-8.933-6.45-15.13 0-14.235 9.45-24.724 26.8-29.765 4.976-1.446 10.96-2.53 17.782-3.22 4.715-.476 19.86-.397 25.4.133 5.144.493 12.703 1.55 15.534 2.173l2.987.647c1.72.363 4.92 1.245 5.075 1.398.08.08-.233 1.726-.688 3.663l-3.71 15.957c-.24 1-.42.987-4.117-.33-7.59-2.702-15.515-3.97-26.326-4.21-9.236-.206-14.107.458-18.068 2.46-5.075 2.568-6.255 8.065-2.447 11.4 2.513 2.2 6.556 3.737 18.282 6.947 8.578 2.348 12.793 3.678 16.918 5.34 16.295 6.56 22.402 17.416 18.5 32.895-2.8 11.106-11.035 19.212-24.188 23.804-10.398 3.63-25.02 5.047-40.878 3.96zm-118.136-6.353c-13.814-1.113-25.324-4.476-33.245-9.713-6-3.966-10.025-8.372-12.878-14.106-2.796-5.618-3.884-10.63-3.884-17.9 0-17.16 7.335-34.435 19.333-45.535 8.676-8.027 20.818-13.6 33.98-15.597l4.895-.75c3.116-.483 20.35-.49 23.812-.01 10.348 1.434 14.743 2.492 21.035 5.063 7.58 3.095 14.187 8.307 18.224 14.372 6.5 9.772 7.895 23.268 4.01 38.822-1.894 7.588-5.432 15.037-10.173 21.43-1.812 2.443-6.138 6.955-8.623 8.99-1.65 1.352-6.368 4.768-6.585 4.768-.05 0-1.085.572-2.308 1.272-7.114 4.073-15.82 6.83-26.56 8.413-2.508.37-18.018.724-21.034.48zm13.612-21.15c4.342-.7 8.687-2.43 12.383-4.932 2.273-1.54 6.413-5.734 8.215-8.323 2.75-3.952 5.453-10.055 6.662-15.045 1.106-4.566 1.305-6.35 1.313-11.913 0-4.96-.06-5.797-.593-7.805-2.365-8.842-8.07-13.884-17.497-15.458-4.36-.73-10.65-.442-14.703.67-2.36.647-6.48 2.555-8.6 3.983-7.416 4.997-12.567 13.174-15.31 24.3-2.617 10.612-1.416 20.93 3.103 26.643 3.504 4.432 7.745 6.81 14.06 7.88 2.794.474 8.02.474 10.967 0zm-115.345 13.878l-8.863-.508-18.745-1.2c-.13-.128 2.823-11.162 4.99-18.65l5.987-21.696.928-3.307.53-1.852c.127-.437.942-3.414 1.81-6.615l1.82-6.615c.135-.436.56-1.984.95-3.44l1.088-3.97 2.196-7.875c1.267-4.618 1.28-4.7.727-4.814-.307-.06-5.085-.254-10.615-.423-15.32-.47-16.945-.572-16.87-1.043.12-.763 5.054-17.508 5.2-17.655.172-.172 6.183-.133 11.008.07l69.794 2.145c3.535.1 6.496.288 6.578.42s.03.74-.135 1.347c-.16.607-1.016 4.14-1.91 7.85-2.194 9.11-2.194 9.11-2.784 9.23-.5.103-16.367-.368-24.14-.716-2.233-.1-4.17-.114-4.303-.03s-.53 1.273-.883 2.646l-19.65 75.653c-.21.938-.585 1.33-1.233 1.286l-3.474-.244zm-68.66-3.733l-13.76-.742c-15.23-.77-15.065-.755-15.202-1.432-.06-.307-.18-2.464-.265-4.792-.39-10.86-.986-19.204-1.63-22.886-1.207-6.888-3.745-10.2-8.698-11.347-1.438-.333-6.974-.81-9.533-.818h-1.594l-6.32 19.116-6.497 19.323c-.1.113-2.43.08-5.183-.07l-12.15-.667c-13.34-.722-12.568-.648-12.568-1.204 0-.422 2.415-7.592 3.57-10.6.203-.528.84-2.374 1.417-4.1l2.407-6.978 16.727-48.154 2.34-6.747 5.657-16.115.433-1.034 4.957.177 13.952.43c39.43 1.11 42.424 1.338 49.245 3.73 12.474 4.375 16.42 13.34 11.207 25.453-2.795 6.495-8.033 12.117-14.178 15.22-3.335 1.684-7.463 3.072-11.216 3.772-.946.177-1.81.4-1.917.496-.108.09.487.488 1.323.872 4.14 1.903 5.795 5.137 6.673 13.037l.52 4.233 2.117 16.81 1.075 9.25c.493 3.98.602 5.743.363 5.86-.128.06-1.603.02-3.276-.08zm-25.25-60.034c6.32-.88 10.71-3.548 12.765-7.763 2.25-4.615 1.47-8.162-2.226-10.132-3.69-1.966-7.61-2.633-17.066-2.9l-5.98-.168-3.346 10.06-3.345 10.48c0 .346.413.436 2.315.51 5.75.22 15.03.17 16.884-.09zm-86.007 54.242c-1.6-.114-6.6-.4-11.112-.635l-11.945-.682c-2.06-.14-4.797-.256-6.085-.258s-2.513-.112-2.72-.243c-.314-.2-.116-.957 1.156-4.428.844-2.304 1.73-4.604 1.967-5.11l.43-.924 6.084.14-.793-.595c-3.613-2.705-4.22-5.906-2.015-10.633.974-2.09 1.224-2.378 2.015-2.328 2.45.156 9.307.923 9.444 1.057.1.1-.232 1.017-.74 2.04-.977 1.967-1.368 4.106-1.054 5.778.422 2.25 3.172 3.923 7.21 4.386 1.287.148 5.138.393 8.557.545 6.713.3 8.732.483 8.732.794 0 .11-.31 1.017-.69 2.016s-.906 2.473-1.17 3.273c-1.043 3.15-1.905 5.44-2.165 5.755-.296.357-.702.36-5.104.05zm-8.466-25.785c-4.998-1.1-8.387-3.6-9.752-7.195-.798-2.103-.864-5.11-.173-7.883 1.72-6.9 5.926-12.042 12.174-14.887 3.013-1.372 4.412-1.794 8.052-2.43 1.903-.333 8.793-.367 8.993-.04.128.207-.302 1.516-2.358 7.177l-1.817 5.027-2.258 6.207c-.586 1.594-1.012 2.953-.946 3.02s.8-.03 1.632-.22c3.74-.837 6.57-3.874 8.342-8.95.738-2.117.804-2.595.812-5.85v-3.546l4.205.166c2.312.09 4.317.235 4.455.32.386.238.295 4.25-.15 6.57-2.017 10.537-8.71 18.503-18.274 21.75-3.39 1.152-9.543 1.517-12.945.77zm4.578-11.968l3.756-10.708c0-.18-.542-.228-1.52-.137-4.08.383-6.802 2.5-7.88 6.126-.685 2.304.08 3.79 2.52 4.896 1.747.792 2.793.733 3.123-.177zm10.21-26.24c-2.197-.35-5-1.315-6.27-2.157-1.707-1.13-3.3-2.963-4.08-4.694-.934-2.07-.972-5.627-.09-8.513 2.886-9.45 10.275-14.955 21.434-15.97 3.44-.313 5.913-.327 6.806-.04.333.108.338.09-1.365 4.765l-2.103 5.82-2.348 6.54c-.665 1.852-1.126 3.415-1.025 3.475.348.203 2.997-.62 4.132-1.286 1.806-1.058 3.284-2.745 4.404-5.026 1.7-3.46 2.3-7.004 1.747-10.284l-.218-1.29 4.372.106c2.405.06 4.468.202 4.585.32.355.356.18 4.402-.283 6.587-2.326 10.955-9.69 18.805-19.93 21.243-2.053.49-7.752.724-9.767.402zm4.25-13.38l1.963-5.346c.6-1.63 1.092-3.03 1.092-3.108 0-.29-2.545-.13-3.742.234-2.76.837-4.973 3.06-5.51 5.535-.534 2.455.436 4.01 3.013 4.83 2.018.643 2.212.51 3.184-2.146z" fill="#8ac552"/><path d="M-384.305 372.94c-.146-.05-2.527-.236-5.292-.402l-8.07-.555-8.863-.652-3.572-.28-3.307-.248-16.67-1.187-10.98-.797-7.54-.53-7.144-.526a343.83 343.83 0 0 0-7.276-.529l-5.82-.395-14.155-1.054-7.54-.54-5.16-.398-51.46-3.693c-2.686-.235-6.192-.49-12.965-.943l-8.6-.66-5.424-.404-15.213-1.05-8.996-.656-10.187-.767-5.688-.41-3.837-.284c-.653-.07-2.976-.243-5.16-.383l-16.536-1.2c-.654-.08-3.154-.258-5.557-.396l-16.668-1.182-14.817-1.073c-.654-.06-4.763-.358-9.128-.65l-8.732-.657c-.436-.07-3.71-.308-7.276-.53l-7.54-.523c-1.114-.124-3.528-.302-7.276-.534l-11.642-.832-6.614-.507-22.226-1.593-9.92-.757c-.437-.05-2.223-.18-3.97-.278l-4.233-.284c-.583-.06-3.023-.228-5.424-.378l-5.424-.4c-.582-.07-3.083-.252-5.557-.404l-5.82-.394-3.572-.266-5.292-.41-25.4-1.84-12.832-.914c-.582-.07-3.32-.247-6.086-.4l-5.953-.402c-1.092-.15-13.617-1.083-17.992-1.34l-3.44-.25c-.358-.06-1.42-.143-7.144-.533l-6.622-.535c-.1-.05-1.45-.155-3.04-.243l-4.63-.287-7.27-.51-16.89-1.222c-2.01-.153-4.51-.452-5.56-.665-1.04-.213-2.37-.46-2.95-.548s-1.21-.276-1.39-.418-.75-.18-1.27-.08c-.53.1-1.09.06-1.26-.08s-.85-.466-1.51-.723c-4.02-1.575-9.32-7.383-10.97-12.016-1.79-5.064-1.73-4.614-1.73-11.244 0-5.42.1-6.346.53-7.806.29-.91.53-1.89.53-2.177s.18-.836.4-1.222c.4-.724.47-.9 2.36-6.284.62-1.76 1.21-3.328 1.3-3.483.1-.155.64-1.572 1.19-3.15l3.64-9.822c.2-.478.37-1.076.37-1.33s.16-.696.36-.983.6-1.236.91-2.11c1.22-3.54 2.66-7.47 3.09-8.467.26-.582.56-1.416.68-1.852.24-.892 1.45-4.216 1.83-5.027.32-.677 2.13-5.827 2.13-6.053 0-.09.23-.675.51-1.292.29-.617.76-1.836 1.05-2.71l1.09-3.043 2.69-7.41c.59-1.673 1.16-3.16 1.27-3.307.12-.145.63-1.515 1.15-3.043l1.5-4.233.85-2.25c.15-.436.38-.907.51-1.045.12-.138.23-.458.23-.71s.37-1.39.82-2.526c.91-2.313 1.95-5.158 3.15-8.63.45-1.28 1.1-2.97 1.46-3.754s.65-1.663.65-1.954.12-.604.27-.694c.14-.09.26-.4.26-.686s.29-1.084.63-1.77a20.32 20.32 0 0 0 1.05-2.57c.55-1.76 2.24-6.457 2.45-6.798.1-.15.68-1.716 1.3-3.483l1.96-5.462 1.58-4.366c.41-1.164.96-2.593 1.2-3.175.25-.582.74-1.927 1.09-2.99.66-1.997 2.8-6.485 3.45-7.218.21-.23.37-.502.37-.606s.82-1.285 1.83-2.625c1.67-2.227 3.45-4.083 6.645-6.933 1.663-1.482 3.457-2.582 2.7-1.656-.56.686-1.97 3.715-2.71 5.82l-1.724 4.83-1.29 3.704c-.19.582-.59 1.654-.89 2.382-.31.727-1.29 3.346-2.18 5.82l-3.84 10.584-1.72 4.762-1.97 5.424-1.76 4.895c-1 2.95-2.36 6.612-2.65 7.112-.15.274-.43 1.048-.62 1.72s-.85 2.532-1.45 4.133l-1.71 4.63-1.72 4.762-4.65 12.833-6.34 17.462-4.49 12.303-1.68 4.63-2.18 5.954-4.16 11.377-5.1 14.023-2.09 5.688c-1.18 3.034-1.61 4.863-1.61 6.815 0 1.703 0 1.718 1.27 2.898 1.36 1.275 1.82 1.394 6.41 1.682l17.33 1.165 7.8.542 7.28.54c1.74.144 5.14.376 7.54.516l6.35.397 14.02.92 7.673.532 31.883 2.24 16.007 1.076c.655.07 4.167.312 7.805.53l8.07.528c2.124.194 8.04.62 14.684 1.058l35.455 2.38 24.738 1.712 64.823 4.36c.51.05 2.892.22 5.292.38l8.466.56 19.447 1.325c2.33.138 5.305.366 6.615.506s4.06.332 6.112.425l4.762.266a374.59 374.59 0 0 0 5.398.378l7.54.533a229.34 229.34 0 0 0 6.483.406c1.82.08 4.378.264 5.688.402s4.466.372 7.012.52l25.532 1.715 7.54.52c.656.08 2.262.192 3.57.26 4.453.228 12.69.797 15.666 1.083.612.06 3.173.23 5.69.382l10.263.67 9.79.67 9.766.67 21.72 1.434 5.424.395c1.164.156 9.263.723 18.918 1.325l27.763 1.858c1.664.09 3.1.203 3.193.26s1.648.172 3.456.256 4.78.27 6.598.41l8.07.53c2.62.15 5.773.383 7.012.517s4.034.312 6.217.394 4.98.267 6.218.41c1.95.224 7.078.597 12.965.943 2.825.166 6.56-.34 8.122-1.098 2.416-1.175 4.673-4.19 5.332-7.125l.69-3.043c.217-.946.516-3.565.664-5.82l.65-8.07.68-7.937.677-8.6.638-7.937 1.6-18.918c.137-1.892.368-4.57.516-5.953s.458-5.133.698-8.335l1.268-16.14.68-8.202.658-7.41c.21-2.183.453-5.22.54-6.747s.265-3.61.394-4.63.307-3.207.397-4.864.268-3.563.395-4.235.304-2.294.394-3.603l.534-6.612.79-9.922.815-9.922.654-7.673.524-6.35c.143-1.6.336-4.94.43-7.418.196-5.045.217-4.95-1.678-7.177-1.33-1.564-2.884-2.404-5.37-2.906-1.923-.388-11.602-.742-31.353-1.144l-17.86-.404-20.24-.395-18.52-.394c-1.6-.073-6.897-.198-11.774-.277l-75.803-1.58c-1.164-.063-7.712-.18-14.552-.262l-14.552-.274c-2.556-.153-10.006-.333-27.252-.66l-271.198-5.692-28.443-.66-3.836-.01.786-.587c1.39-1.04 6.274-3.006 9.268-3.733 1.6-.39 3.327-.852 3.836-1.03 1.12-.39 27.26-.33 42.202.098l17.727.394 19.446.388 227.675 4.355c1.31.085 10.358.288 20.108.45l20.373.368 13.89.224 27.517.56c2.262.14 34.904.738 63.897 1.168 28.07.417 50.684 1.09 54.107 1.613 2.064.314 4.136.822 5.96 1.46.588.205 1.305.373 1.596.373s.762.156 1.05.346 1.236.572 2.11.85 1.775.657 2.005.845.52.342.643.342c.416 0 2.464 1.08 2.786 1.468.175.21.42.384.546.384.48 0 3.098 1.862 4.923 3.5 2.35 2.11 5.633 5.696 5.633 6.15 0 .186.178.484.392.662s.553.64.75 1.025.794 1.498 1.33 2.474.968 1.91.968 2.074.355 1.067.788 2.005c1.413 3.05 1.882 7.746 1.363 13.594l-1.098 14.552-3.307 45.508-.654 8.864-.66 8.73-2.514 33.734-.667 8.73-1.188 15.346-.396 4.763c-.723 9.465-2.06 15.777-4.27 20.183-3.566 7.106-11.45 14.346-20.206 18.555-5.543 2.665-9.083 3.652-13.36 3.725-1.6.03-3.863.125-5.027.218s-2.236.124-2.38.07zm-16.537-53.88l-40.745-2.493-20.11-1.21-239.05-14.41c-.728-.08-3.406-.253-5.953-.388l-11.51-.66-11.113-.666-8.334-.52-94.59-5.694c-9.465-.526-11.03-.675-10.905-1.034.06-.16.916-2.674 1.908-5.585 1.792-5.25 2.136-6.054 2.498-5.83.103.06 2.56.24 5.46.393l23.926 1.327 11.244.66 76.2 4.388 326.295 18.7c2.106.09 3.59.264 3.726.442.214.28-.31 5.79-1.016 10.68l-.315 2.183-2.42-.04a106.81 106.81 0 0 1-5.199-.245zm-491.264-22.55c-2.7-.184-3.77-.35-3.77-.587 0-.18.52-1.767 1.15-3.523l1.16-3.194-.69-.13c-.38-.07-1.64-.208-2.79-.305-5.04-.42-8.35-2.027-9.74-4.726-.76-1.486-.91-4.266-.35-6.64.44-1.9 4.75-13.295 5.19-13.74.25-.256 8.73.195 9.21.49.19.122-.85 3.183-2.35 6.902-1.45 3.585-1.38 4.805.31 5.806.9.528 4.94.997 5.42.628.326-.252.333-.268 1.925-4.565.59-1.59 1.184-3.005 1.32-3.14.242-.243 8.385.153 8.652.42.07.07-.522 1.836-1.31 3.928s-1.36 3.88-1.268 3.97 3.68.36 7.973.6l18.185 1.035c.906.05 1.716.153 1.8.237.195.195-3.527 10.818-3.943 11.255-.242.254-1.123.273-3.878.08l-9.12-.544-8.812-.546c-1.79-.136-4.058-.248-5.04-.248h-1.784l-.338.992c-.186.546-.755 2.094-1.264 3.44-.795 2.098-1.01 2.44-1.502 2.404l-4.344-.3zm38.96-31.954l-8.73-.5-20.572-1.064c-.733 0-.992-.116-.992-.43 0-.423 2.986-8.51 3.493-9.462.244-.458.51-.483 3.48-.327l3.215.17-.926-.726c-3.003-2.355-4.004-4.463-3.452-7.27.296-1.503 1.878-5.32 2.316-5.592.23-.142 9.84.764 10.022.946.06.06-.326 1.055-.863 2.206-.82 1.76-.98 2.386-.994 3.944-.02 2.26.518 3.338 2.254 4.51 2.096 1.412 5.117 1.805 18.432 2.395 2.073.09 3.77.278 3.77.412s-.643 2.057-1.43 4.27l-1.882 5.414-.453 1.39-1.49-.04c-.82-.02-3.158-.13-5.195-.243zm-5.16-25.433c-5.435-.676-9.33-3.07-11.086-6.816-.623-1.327-.688-1.77-.684-4.642s.08-3.404.834-5.556c2.394-6.872 7.19-11.622 14.11-13.98 3.19-1.086 6.104-1.518 10.283-1.522 2.09 0 3.864.06 3.94.135.08.08-.61 2.197-1.524 4.71l-2.8 7.745-1.982 5.424c-.464 1.237-.902 2.585-.974 2.995-.128.735-.116.743.895.56 4.348-.788 7.68-4.12 9.35-9.345.778-2.437 1.113-5.448.81-7.29-.142-.865-.205-1.626-.138-1.692.235-.235 8.206 0 8.458.24.473.467.174 5.205-.5 7.936-1.365 5.53-3.85 10.068-7.508 13.708-4.294 4.273-9.315 6.655-15.657 7.43-2.53.31-3.04.305-5.827-.04zm4.817-16.98c1.26-3.457 2.01-5.88 1.867-6.025-.377-.377-3.605.185-5.163.898-4.403 2.016-6.18 7.535-3.124 9.71 1.078.767 2.64 1.32 3.553 1.255.74-.05.813-.2 2.867-5.84zm9.735-21.36c-6.09-.682-9.655-2.717-11.47-6.546-.785-1.66-.833-1.932-.812-4.672.02-2.658.102-3.12.948-5.338 1.218-3.197 2.363-5.076 4.45-7.31 3.36-3.595 7.525-5.76 13.356-6.945 2.052-.416 9.443-.688 9.775-.36.09.09-.213 1.157-.666 2.38l-1.172 3.284c-.192.582-.902 2.547-1.577 4.366-2.29 6.17-3.574 9.852-3.574 10.253 0 .61 1.856.267 3.847-.714 4.31-2.122 7.137-7.827 6.952-14.034l-.08-2.776 3.97.09c2.446.06 4.11.205 4.335.39.458.377.26 4.184-.36 6.847-1.552 6.696-4.444 11.53-9.25 15.464-2.475 2.027-7.055 4.34-9.808 4.953-1.628.363-6.388 1.015-6.747.924-.07-.02-1.025-.134-2.116-.256zm3.117-13.864l2.06-5.57c.5-1.316.907-2.494.907-2.615 0-.273-2.962-.02-4.242.36-1.672.498-3.367 1.786-4.4 3.342-.824 1.242-1.01 1.777-1.1 3.16-.1 1.587-.06 1.71.786 2.638.908.99 3.28 2.048 4.316 1.923.407-.05.768-.75 1.672-3.237zm-42.717-38.41a.25.25 0 0 1 .353 0c.1.097.02.176-.176.176s-.274-.08-.177-.176z" fill="#48b049"/><path d="M-376.974 367.724c.07-.198.29-.36.495-.36s.46-.117.56-.26.532-.274.955-.29.903-.115 1.07-.218c.312-.192.916-.35 2.29-.594.436-.08.913-.23 1.058-.336s1.04-.47 1.985-.805c2.214-.786 6.635-2.962 7.538-3.71.174-.145.394-.185.49-.09.1.1.175.06.175-.09s.267-.39.595-.54c.905-.42 5.236-3.735 6.284-4.81l1.72-1.638c1.153-.998 3.886-4.095 4.357-4.94.223-.4.49-.79.593-.867s.43-.673.72-1.323.772-1.538 1.07-1.975.534-1 .534-1.25.344-1.322.762-2.38c.9-2.282 1.815-6.644 2.01-9.598l.4-5.292.403-5.16.26-2.91.252-3.175.57-7.707c.06-.09.225-2.116.375-4.498l.397-5.92.394-5.16.67-8.334.39-5.953.402-5.556c.07-.51.307-3.486.53-6.615l.656-8.334c.14-1.456.498-6.04.797-10.187l.65-8.6a134.53 134.53 0 0 0 .272-3.572l.797-10.583c.05-.364.16-1.674.25-2.91l.275-3.44c.06-.655.185-2.322.27-3.704s.39-5.43.675-8.996l.637-7.938.28-3.836.275-3.525c.635-6.702.698-9.422.262-11.525-.238-1.147-.38-2.14-.31-2.21.495-.495 1.47 2.11 2.12 5.655.476 2.6.41 4.432-.543 15.44l-1.41 19.58-1.863 24.738-.526 7.805c-.138 2.4-.315 4.842-.392 5.424s-.256 2.726-.394 4.763l-1.21 16.404c-.08.582-.315 3.678-.53 6.88l-.643 8.73c-.14 1.6-.437 5.65-.662 8.996l-.672 8.996c-.145 1.6-.383 4.875-.53 7.276s-.325 4.663-.4 5.027-.248 2.27-.383 4.234c-.484 7.09-.81 10.742-1.082 12.17l-.548 2.91c-.527 2.863-1.905 7.042-2.91 8.82-.564.995-1.024 1.9-1.024 2.01 0 .343-3.17 4.477-4.7 6.13-2.186 2.36-5.115 4.6-7.41 5.66l-3.064 1.466c-.56.285-1.185.518-1.39.518s-.373.12-.373.265-.13.264-.29.264-.666.167-1.124.37c-1.553.69-3.21 1.05-4.935 1.076-.944.01-1.868.117-2.048.23-.22.138-.277.08-.177-.183.122-.317-.06-.362-.997-.243-.627.08-1.262.223-1.408.318s-1.262.21-2.48.257c-1.775.07-2.19.01-2.096-.274zm-21.75-48.654l-8.202-.5-17.595-1.092-52.387-3.15-362.546-21.87c-2.286-.115-3.505-.278-3.504-.47 0-.274 3.652-11.046 3.79-11.184.06-.06 4.987.19 13.803.7l11.642.657 11.377.668 9.26.523 7.012.41c1.628.135 5.546.36 16.14.922l8.6.508 34.925 2.017 32.412 1.83 9.525.546 6.35.395 23.548 1.323 22.754 1.33 8.73.516 7.276.404 9.26.533 15.61.906 14.155.8 53.182 3.04 20.24 1.2 7.806.4a242.97 242.97 0 0 1 7.143.395l17.463 1.073 18.785 1.033 11.113.648 11.51.684 16.67.94 16.253.923c2.538.143 4.67.32 4.744.392.127.128-.503 5.97-1.13 10.445l-.314 2.25-.913.03c-.503.02-2.52-.06-4.485-.174zm-493.93-22.76c-1.65-.11-3.05-.258-3.12-.328-.11-.112.18-.96 1.9-5.55.21-.55.38-1.104.38-1.234s-.92-.307-2.05-.393c-6.32-.482-9.66-1.922-11.05-4.762-1.36-2.78-1.09-5.6 1.05-11.134l3.64-9.435 1.23.143c.67.08 2.74.22 4.6.312s3.37.25 3.37.35-.57 1.665-1.26 3.48c-.7 1.815-1.55 4.145-1.9 5.18l-.63 1.88.51.898c.71 1.226 2.02 1.805 4.54 2 2.453.19 2.26.352 3.39-2.867.374-1.066.99-2.688 1.37-3.603.63-1.524.746-1.654 1.37-1.536.376.07 2.26.21 4.19.306 2.346.117 3.505.275 3.502.477 0 .165-.597 1.894-1.323 3.84s-1.32 3.628-1.32 3.736c0 .267 2.302.465 10.716.925l11.906.653 5.093.27c.503 0 .418.445-.7 3.588l-2.772 7.867-3.06-.154-23.362-1.398-2.047-.144-.385.878c-.213.482-.822 2.038-1.355 3.457l-.97 2.58-1.23-.04c-.676-.02-2.578-.13-4.226-.24zm41.758-31.752l-27.842-1.523c-2.435-.118-4.51-.297-4.61-.397s-.05-.45.104-.776c.465-.967 3.243-8.357 3.243-8.626 0-.438.606-.48 3.683-.26 1.66.12 3.09.145 3.175.06s-.204-.416-.64-.726c-4.182-2.972-4.85-5.967-2.447-10.973.443-.922.966-1.74 1.162-1.814.363-.14 9.394.686 9.6.877.06.06-.136.61-.44 1.226-1.59 3.242-1.87 5.457-.93 7.34 1.32 2.637 3.906 3.58 10.913 3.973l13.126.862c.04.04-.564 1.856-1.343 4.035l-1.912 5.417c-.576 1.69-.26 1.603-4.844 1.307zm-8.655-25.76c-4.694-.897-7.906-2.923-9.473-5.975-1.664-3.24-1.51-7.384.447-12.124 3.08-7.457 9.52-12.246 18.383-13.672 2.416-.39 8.842-.555 9.16-.236.09.09-.08.773-.377 1.52-.65 1.64-3.79 10.303-4.473 12.34-.27.8-.97 2.743-1.56 4.318s-1.072 2.988-1.072 3.142c0 .186.466.22 1.373.1 4.245-.563 7.726-4.202 9.51-9.94.508-1.632.617-2.567.615-5.263v-3.28l3.902.15c2.146.08 4.024.226 4.173.32.362.223.347 3.8-.02 5.81-.484 2.616-2.058 7.3-3.074 9.144-1.46 2.648-2.386 3.907-4.54 6.162-3.243 3.394-7.515 5.89-12.14 7.096-2.682.698-8.18.897-10.832.39zm4.083-11.068c.14-.182.738-1.7 1.327-3.374l2.007-5.637c1.082-2.997 1.08-3-1.47-2.732-3.892.407-6.992 2.988-7.884 6.565-.39 1.563-.05 2.71 1.144 3.867 1.388 1.345 4.255 2.116 4.877 1.31zm11.187-27.086c-5.365-.674-9.18-2.896-10.85-6.318-.533-1.092-.663-1.817-.743-4.157-.08-2.502-.01-3.09.607-5.027 2.222-6.92 6.824-11.54 13.935-13.98 3.177-1.09 6.303-1.564 10.373-1.57h3.403l-.177.728c-.1.4-.875 2.632-1.73 4.96-4.254 11.604-5.333 14.753-5.125 14.955.348.34 2.562-.17 4.086-.944 3.18-1.61 5.928-5.867 6.755-10.458.373-2.072.342-4.866-.07-5.93-.127-.334.153-.4 1.686-.4 1.013 0 2.93.08 4.262.172l2.422.172v2.192c0 2.61-.495 5.14-1.694 8.646-2.815 8.235-10.088 14.71-18.525 16.492-1.918.405-6.96.68-8.62.472zm2.85-11.146l2.027-5.588c.973-2.674 1.708-5.017 1.635-5.208-.336-.875-5.252.362-6.99 1.76-2.185 1.755-3.413 5-2.615 6.91.608 1.454 2.898 2.793 4.853 2.837.678.02.882-.117 1.09-.71zm510.062-14.505c-.1-.388-.116-.765-.05-.838s.212.185.31.573.12.765.05.837-.212-.184-.31-.572zm-.68-1.833c0-.07.06-.133.132-.133s.133.06.133.133-.06.132-.133.132-.132-.06-.132-.132z" fill="#0a1811"/></g></svg>
