<svg xmlns="http://www.w3.org/2000/svg" viewBox="0 0 3.816 3.816" height="14.423" width="14.423" xmlns:v="https://vecta.io/nano"><circle cx="1.908" cy="1.908" r="1.908" opacity=".12" fill="#f9f9f9"/><path d="M1.663 3.382A1.5 1.5 0 0 1 .5 2.277c-.02-.11-.04-.21-.04-.374a1.37 1.37 0 0 1 .24-.821C.814.91.856.865.89.88c.02 0 0 .04-.08.16a1.4 1.4 0 0 0-.292.864A1.45 1.45 0 0 0 1.329 3.2c.212.106.376.143.63.143a1.36 1.36 0 0 0 .877-.292c.09-.07.138-.09.15-.08.02.02.02.03 0 .05-.05.06-.333.235-.457.286-.25.1-.6.132-.86.08zm.03-.236c-.103-.02-.214-.09-.2-.133.06-.14.06-.328 0-.438-.07-.148-.235-.253-.42-.28-.225-.03-.392-.23-.392-.467 0-.19.114-.365.28-.435.03-.02.12-.02.192-.02.453 0 .937.31 1.17.748.125.235.196.612.158.846-.02.09-.02.1-.104.128s-.09.03-.185 0l-.1-.03.02-.08C2.216 2.408 1.78 1.8 1.22 1.74c-.132-.02-.172 0-.172.09 0 .07.05.104.172.122.143.03.352.136.46.254s.164.218.202.358a1.38 1.38 0 0 1 0 .496c-.03.104-.06.113-.177.09zm-.59-.262c-.12-.04-.158-.21-.07-.292.03-.03.06-.04.127-.03.1 0 .158.08.158.17 0 .1-.13.19-.216.16zM2.707 2.7c0-.106-.07-.4-.128-.54-.23-.554-.79-.967-1.382-1.016h-.133v-.08c0-.07 0-.08.11-.16l.153-.1c.06-.02.356.06.54.143.35.155.668.427.878.752a2.31 2.31 0 0 1 .284.677c.02.132.02.155-.09.306-.06.07-.07.08-.145.08-.08 0-.08 0-.08-.06zm.418-.732c-.1-.263-.29-.545-.523-.77-.198-.19-.394-.327-.635-.442-.09-.04-.155-.08-.148-.09.02-.03.262-.02.418.02a1.25 1.25 0 0 1 .96 1.158c.02.16 0 .18-.02.18s-.04-.03-.05-.05z"/></svg>
