<svg xmlns="http://www.w3.org/2000/svg" width="14.423" height="14.423" viewBox="0 0 3.816 3.816" xmlns:v="https://vecta.io/nano"><circle cy="1.908" cx="1.908" r="1.908" opacity=".42" fill="#f0f0f0"/><g fill="#a80030"><path d="M2.127 2.068c-.053.001.01.027.08.038l.052-.044c-.043.01-.086.01-.13.007"/><path d="M2.41 1.998c.03-.043.054-.09.062-.14-.007.035-.026.065-.044.097-.098.062-.01-.037 0-.074-.106.133-.015.08-.018.117m.104-.272c.006-.095-.02-.065-.027-.03.01.005.018.067.027.03M1.927.43c.028.005.06.01.056.016.03-.007.038-.013-.056-.016"/><path d="M1.983.446l-.02.004.018-.002.001-.002"/><path d="M2.86 1.762c.003.085-.025.126-.05.2l-.046.023c-.037.072.004.046-.023.103-.058.052-.176.162-.214.172-.028-.001.02-.033.025-.045-.078.053-.062.08-.182.113l-.003-.008c-.294.138-.7-.136-.696-.51-.003.024-.01.018-.015.027a.47.47 0 0 1 .264-.464c.17-.085.372-.05.495.064-.067-.088-.202-.182-.36-.173-.156.002-.302.1-.35.21-.08.05-.09.194-.124.22-.047.344.088.493.316.667.036.024.01.028.015.046a.62.62 0 0 1-.202-.155c.03.044.063.087.105.12-.07-.024-.167-.173-.195-.18.123.22.5.387.697.304-.09.003-.207.002-.31-.036-.043-.022-.102-.068-.09-.077.27.1.547.076.78-.11.06-.046.124-.125.143-.126-.028.042.005.02-.017.058.06-.095-.026-.04.06-.164l.032.044c-.012-.08.098-.175.087-.3.025-.038.028.04.001.13.037-.098.01-.113.02-.194.01.027.024.056.03.084-.024-.094.025-.16.037-.214-.012-.005-.037.042-.043-.07.001-.048.013-.025.018-.037-.01-.005-.034-.043-.05-.114.01-.017.03.043.044.046-.01-.057-.026-.1-.027-.143-.044-.09-.015.012-.05-.04-.046-.145.04-.034.044-.1.07.102.11.26.13.326-.014-.08-.037-.157-.065-.232.02.01-.034-.164.028-.05C3.05.937 2.833.71 2.632.6c.025.022.056.05.044.055-.1-.06-.082-.064-.097-.09-.08-.033-.087.003-.14 0-.153-.08-.183-.073-.324-.124l.006.03c-.102-.034-.118.013-.228 0-.007-.005.035-.02.07-.024-.098.013-.094-.02-.19.004.024-.017.05-.028.074-.042-.08.005-.19.047-.157.01-.13.058-.363.14-.493.262L1.194.655C1.134.727.934.87.918.962L.902.965c-.03.053-.05.112-.076.166-.04.07-.06.027-.054.037-.08.162-.12.298-.154.41.024.036.001.22.01.366-.04.724.508 1.427 1.107 1.59.088.03.218.03.33.033-.13-.037-.148-.02-.276-.064-.092-.043-.112-.093-.178-.15l.026.046c-.128-.045-.074-.056-.18-.09l.028-.036c-.04-.003-.11-.07-.13-.107l-.045.002c-.055-.067-.084-.116-.08-.153l-.015.026c-.017-.03-.2-.252-.105-.2-.018-.016-.04-.026-.067-.073l.02-.022c-.046-.06-.085-.135-.082-.16.025.033.042.04.058.045C.925 2.344.92 2.616.83 2.34l.02-.001c-.014-.02-.023-.045-.034-.068l.008-.08C.74 2.092.8 1.778.812 1.606c.008-.07.07-.145.116-.26L.9 1.34c.054-.095.31-.38.43-.366.057-.072-.01 0-.023-.018.126-.13.166-.092.25-.116.092-.054-.08.02-.035-.02.16-.04.112-.092.32-.113.022.012-.05.02-.07.035.132-.065.418-.05.604.036.216.1.458.4.468.68l.01.003c-.006.11.017.24-.022.36l.027-.056"/><path d="M1.552 2.14l-.007.037c.035.047.062.098.106.135l-.1-.172m.083-.003c-.018-.02-.03-.045-.04-.07.012.043.035.08.058.117l-.016-.048m1.446-.313l-.008.02a.94.94 0 0 1-.092.293.92.92 0 0 0 .1-.312M1.937.405c.036-.013.088-.007.125-.016l-.147.013.02.003M.687 1.07c.008.076-.057.105.014.055C.74 1.038.687 1.1.687 1.07m-.084.35c.017-.05.02-.08.026-.11-.046.058-.02.07-.026.11"/></g><text xml:space="preserve" x="181.751" y="384.811" font-size="1.158" font-family="A-OTF Shin Go Pro" letter-spacing="0" word-spacing="0" fill="#000"><tspan x="1.474" y="3.451">sid</tspan></text><text xml:space="preserve" x="181.283" y="383.495" font-size=".902" font-family="A-OTF Shin Go Pro" letter-spacing="0" word-spacing="0" fill="#000"><tspan x="1.006" y="2.135">32</tspan></text></svg>