<svg xmlns="http://www.w3.org/2000/svg" viewBox="0 0 3.816 3.816" height="14.423" width="14.423" xmlns:v="https://vecta.io/nano"><circle cx="1.908" cy="1.908" r="1.908" opacity=".12" fill="#f9f9f9"/><path d="M1.576 3.312c-.042-.012-.086-.05-.106-.092-.016-.033-.02-.082-.02-.246v-.205h-.076c-.103 0-.172-.035-.21-.108-.027-.053-.027-.055-.027-.626V1.46h1.547v.573l-.027.626c-.037.072-.106.108-.21.108h-.076v.207c0 .242-.01.273-.097.318a.16.16 0 0 1-.177-.008c-.065-.046-.074-.085-.074-.312V2.77h-.228v.205c0 .227-.01.266-.074.312-.036.026-.105.038-.148.026zM.802 2.46c-.07-.058-.07-.073-.07-.498l.02-.43c.06-.12.23-.13.304-.017.02.032.023.063.023.448s-.001.416-.023.448c-.036.055-.084.08-.153.08-.05 0-.07-.006-.1-.032zm2.023.01a.24.24 0 0 1-.057-.057c-.02-.032-.023-.063-.023-.448s.001-.416.023-.448c.075-.114.243-.105.304.017.02.037.02.084.02.43 0 .425-.002.44-.07.498-.048.04-.143.045-.197.01zm-1.68-1.125a.72.72 0 0 1 .32-.517l.068-.045-.06-.107a.49.49 0 0 1-.056-.124c.008-.044.036-.02.095.088.053.096.068.114.088.11l.108-.03a.87.87 0 0 1 .408 0l.108.03c.02.005.034-.013.088-.11.06-.107.087-.132.095-.088a.48.48 0 0 1-.056.124l-.06.107.068.045a.72.72 0 0 1 .32.517l.007.057h-1.55zm.46-.245c.032-.032 0-.106-.047-.106s-.078.072-.045.106c.008.008.028.014.046.014s.038-.007.046-.014zm.713-.01c.02-.03 0-.08-.034-.09-.056-.014-.102.06-.062.1.02.02.08.013.097-.01z"/><path d="M1.514 3.27c-.055-.05-.063-.094-.064-.33v-.183h-.087c-.1 0-.15-.023-.19-.087-.023-.038-.024-.06-.024-.624V1.46h1.523v.585l-.024.624c-.04.064-.09.087-.19.087h-.087v.183c0 .236-.01.28-.064.33a.12.12 0 0 1-.109.039c-.056 0-.072-.005-.108-.037-.024-.02-.048-.056-.054-.08a1.58 1.58 0 0 1-.012-.239v-.195H1.8v.195c0 .107-.005.215-.012.24s-.03.06-.054.08c-.036.032-.05.037-.108.037a.12.12 0 0 1-.109-.039zm-.687-.797C.743 2.43.742 2.427.742 1.965c0-.384.002-.416.023-.45.045-.074.157-.1.23-.05.08.054.083.065.083.5l-.02.43c-.043.086-.142.12-.23.076zm2-.007c-.08-.054-.083-.065-.083-.5s.002-.446.083-.5c.073-.05.185-.025.23.05.02.034.023.067.023.45s-.002.416-.023.45c-.045.074-.157.1-.23.05zM1.15 1.356a.66.66 0 0 1 .067-.246C1.28.987 1.365.896 1.51.8l.028-.02-.062-.11C1.41.555 1.403.534 1.433.54a.99.99 0 0 1 .139.216c.002.005.047-.005.1-.023a.61.61 0 0 1 .24-.031c.123 0 .158.005.24.03.053.017.097.028.1.023A.99.99 0 0 1 2.39.54c.03-.006.024.014-.042.132l-.062.11.028.02c.145.095.23.186.292.31a.66.66 0 0 1 .067.246V1.4H1.15zm.44-.24c.007-.005.02-.02.026-.034.034-.065-.068-.124-.11-.063-.025.036-.024.053.005.082s.056.03.08.015zm.724-.015c.03-.03.03-.046.005-.082-.042-.06-.144-.002-.11.063.026.05.068.057.105.02z"/></svg>
