<?xml version="1.0" encoding="UTF-8" standalone="no"?>
<svg xmlns:dc="http://purl.org/dc/elements/1.1/" xmlns:cc="http://creativecommons.org/ns#" xmlns:rdf="http://www.w3.org/1999/02/22-rdf-syntax-ns#" xmlns:svg="http://www.w3.org/2000/svg" xmlns="http://www.w3.org/2000/svg" id="svg2951" version="1.1" viewBox="0 0 3.88606 3.88606" height="3.88606mm" width="3.88606mm">
<defs id="defs2945" />
<metadata id="metadata2948">
<rdf:RDF>
<cc:Work rdf:about="">
<dc:format>image/svg+xml</dc:format>
<dc:type rdf:resource="http://purl.org/dc/dcmitype/StillImage" />
<dc:title></dc:title>
</cc:Work>
</rdf:RDF>
</metadata>
<g transform="translate(319.929,37.1042)" id="layer1">
<path id="path2788" fill="#fff" d="m -318.033,-36.0432 c -0.542,0.03 -0.631,0.671 -0.631,0.671 l -0.193,0.365 0.14,0.836 0.189,0.236 0.377,0.212 0.601,-0.02 0.273,-0.125 0.127,-0.166 0.09,-1.051 -0.418,-0.596 z" style="fill:#ffffff;stroke:#000000;stroke-width:0.013903px" />
<path d="m -318.204,-36.7692 c 0.212,-0.03 0.415,0.111 0.602,0.22 0.292,0.248 0.296,0.255 0.415,0.601 0.13,0.559 0.417,1.519 0.06,1.933 -0.07,0.16 -0.425,0.268 -0.658,0.274 0.764,-0.399 0.723,-1.155 0.55,-1.46 -0.08,0.207 -0.257,0.632 -0.336,0.839 -0.09,0.08 -0.307,0.334 -0.276,0.05 -0.01,-0.265 0.113,-0.512 0.152,-0.771 0.06,-0.228 0.145,-0.434 0.05,-0.603 -0.1,-0.15 -0.203,-0.223 -0.498,-0.188 -0.293,0.04 -0.416,0.296 -0.383,0.5 -0.04,0.355 0.133,0.699 0.191,1.046 0.02,0.125 0.07,0.435 -0.09,0.204 -0.177,-0.178 -0.291,-0.389 -0.352,-0.632 -0.05,-0.1 -0.05,-0.454 -0.05,-0.152 0,0.268 0.122,0.566 0.198,0.819 0.06,0.126 0.242,0.269 0.533,0.341 -0.385,0.01 -0.706,-0.37 -0.762,-0.649 -0.07,-0.349 -0.1,-0.755 -0.04,-1.057 0.07,-0.275 0.242,-0.524 0.462,-0.672 0.06,-0.04 0.04,-0.06 0.02,-0.09 -0.09,-0.198 -0.453,-0.08 -0.58,-0.226 0.224,-0.145 0.598,-0.298 0.791,-0.326 z" style="fill:#000000;stroke:#000000;stroke-width:0.004589px" id="path2697" />
<circle r="0.0781378" cy="-36.5582" cx="-318.234" id="path2702" style="fill:#ffffff;stroke-width:0.027147;stroke-linecap:round" />
<path d="m -318.518,-33.8072 c 0.06,0.02 0.113,0.05 0.17,0.07 -0.05,0.05 -0.211,0.05 -0.26,0.09 0.05,-0.01 0.203,0.03 0.249,0.02 0.03,0.04 -0.08,0.08 -0.03,0.108 0.05,0 0.199,-0.02 0.252,0 0.04,0 0.07,0.114 0.104,0.04 0.02,-0.07 0.05,-0.147 0.07,-0.22 0.08,0 0.16,0 0.24,-0.01 0.05,0.08 0.11,0.151 0.166,0.226 0.02,-0.03 0,-0.118 0.06,-0.112 0.06,0.01 0.126,0.03 0.189,0.04 -0.01,-0.05 -0.02,-0.09 -0.06,-0.165 0.1,0.04 0.164,0.08 0.348,0.06 -0.08,-0.07 -0.218,-0.09 -0.299,-0.165 0.04,-0.03 0.07,-0.06 0.111,-0.1 -0.07,0.04 -0.138,0.08 -0.212,0.109 -0.166,0.03 -0.33,0.06 -0.499,0.07 -0.09,0 -0.187,0.02 -0.278,0 -0.106,-0.02 -0.213,-0.04 -0.319,-0.06 z" style="fill:#000000;stroke:#000000;stroke-width:0.004589px" id="path2704" />
</g>
</svg>
