<svg xmlns="http://www.w3.org/2000/svg" xmlns:xlink="http://www.w3.org/1999/xlink" viewBox="0 0 3.816 3.816" height="14.423" width="14.423" xmlns:v="https://vecta.io/nano"><defs><linearGradient y2="648.024" x2="323.018" y1="-1398.277" x1="-67.697" id="A" xlink:href="#B" /><linearGradient id="B" gradientUnits="userSpaceOnUse"><stop offset="0" stop-color="#fff"/><stop offset=".342" stop-color="#fff"/><stop offset=".52" stop-color="#bebdf3"/><stop offset=".754" stop-color="#8f82f9"/><stop offset=".871" stop-color="#9f99c7"/><stop offset="1" stop-color="#524c76"/></linearGradient><linearGradient y2="-43.679" x2="294.938" y1="485.472" x1="412.955" id="C" xlink:href="#B" /><radialGradient gradientTransform="matrix(3.28737,0,0,2.51965,111.689,-642.721)" r="31.949" fy="320.086" fx="49.53" cy="320.086" cx="49.53" id="D" xlink:href="#B" /><radialGradient r="218.022" fy="590.59" fx="332.723" cy="590.59" cx="332.723" gradientTransform="matrix(-0.06604,4.19027,-3.57375,-0.056268,2168.15,-1171.42)" id="E" xlink:href="#B" /></defs><g transform="translate(668.589 111.794)"><circle cx="-666.681" cy="-109.886" r="1.908" opacity=".12" fill="#f9f9f9"/><g transform="matrix(.003973 0 0 .00507 -667.79907 -111.555391)"><path d="M25.757 521.914c.068-26.26 22.392-62.924 54.112-96.233 21.198-22.26 42.727-41.8 89.657-81.813-32.462-17.813-82.95-39.304-108.283-67.45-9.374-10.414-26.363-34.008-23.068-65.53 6.716-64.246 86.015-161.746 198.73-182.36 37.504-6.86 80.564-1.908 116.003 14.025C464.088 92.54 600.056 216.717 616.785 277.35c5.888 21.342 4.757 55.36-5.395 74.32-12.58 23.498-56.135 71.225-115.725 120.473-93.5 77.274-224.52 160.25-322.352 174.21-31.61 4.51-63.908-.194-86.573-12.983-35.46-20.01-47.232-46.723-51.37-54.73-11.003-21.293-9.637-48.267-9.613-56.726zM288.9 226.874c1.208-14.89 59.594-.07 55.905 11.725-3.892 12.44-57.29 5.355-55.905-11.725z" fill="url(#A)" fill-rule="evenodd"/><g fill-rule="evenodd"><path d="M201.125 319.265c-30.724 25.94-51.152 43.432-76.763 66.84-61.676 56.37-103.582 99.28-81.977 157.932 24.923 67.66 79.556 64.23 143.622 51.654 165.136-32.57 436.592-241.26 422.756-318.342-11.196-62.37-162.855-186.374-252.65-230.5-28.052-13.785-60.382-20.915-92.81-19.39-123.47 5.828-219.894 118.242-214.97 179.15 4.792 59.256 154.556 110.888 152.79 112.655zM182.59 112.402c-37.153 41.336-13.398 121.31 48.215 164.903 72.096 51.007 188.845 60.242 212.078 20.905 43.335-73.373-3.98-150.955-74.61-185.563-69.795-34.2-162.522-26.012-185.682-.245z" fill="url(#C)"/><path d="M309.296 275.57c52.16 7.25 97.117-13.64 104.147-65.144 5.355-39.234-54.69-82.1-90.79-91.987-30.146-8.256-95.595 2.36-100.008 59.378-4.586 59.272 56.237 93.525 86.65 97.753zm-25.543-98.58c-34.28 53.103 49.77 69.43 62.638 59.745 55.477-41.752-47.536-83.142-62.638-59.745z" fill="url(#D)"/></g><path d="M253.353 41.57c-60.634 6.39-72.247 14.194-127.176 55.753-18.41 13.928-52.294 47.82-60.975 88.025-3.306 15.313.602 28.533 11.63 37.804 35.313 29.688 94.416 53.774 142.904 77.057 14.203 6.82 4.8 19.186-18.104 39.013-57.79 50.032-135.926 110.934-141.38 157.342-2.57 21.868 4.916 51.583 31.46 66.79 31.007 17.764 95.372 6.17 138.35-9.835 62.806-23.388 145.308-75.004 210.807-125.74 68.11-52.76 131.437-119.773 134.57-130.703 3.847-13.422 3.463-25.818-3.96-40.07-11.658-22.382-27.244-39.013-43.98-57.628-44.902-47.34-92.412-88.935-149.254-120.81C337.197 55.548 301.08 36.54 253.353 41.57zM342.42 147.7c43.805 21.18 88.79 76.807-.39 108.825-24.25 8.707-101.158-21.382-98.803-62.444 3.433-60.655 45.707-72.24 99.194-46.38z" fill="url(#E)" fill-rule="evenodd"/></g></g></svg>
