<svg xmlns="http://www.w3.org/2000/svg" viewBox="0 0 3.816 3.816" height="14.423" width="14.423" xmlns:v="https://vecta.io/nano"><circle cx="1.908" cy="1.908" r="1.908" opacity=".12" fill="#f9f9f9"/><path d="M.63 2.073v-1.06l.334.003.385.018c.157.047.26.15.3.298a.59.59 0 0 1 0 .224c-.02.076-.058.142-.11.196s-.094.08-.172.107c-.052.02-.053.02-.314.022l-.262.004-.005.17.895 1.06.015.02H.63v-1.06zm1.634 1.05l.363-.502.38-.53.117-.16c.008-.01.01.086.01.596v.606h-.438c-.35 0-.436-.002-.43-.01zm-.32-.26l-.505-.598-.06-.075c.003-.002.022-.006.045-.01a.75.75 0 0 0 .357-.171c.055-.05.12-.136.154-.2a.78.78 0 0 0 .083-.338c.01-.22-.067-.433-.212-.59a.82.82 0 0 0-.193-.143.66.66 0 0 0-.138-.05c-.03-.007-.055-.015-.06-.02A27.8 27.8 0 0 1 2.27.666l.86.002.005.638-.098.137-.07.1-.477.668-.242.34-.267.346c-.005 0-.02-.014-.033-.03z" fill="#f5b118"/><path d="M.63 2.073v-1.06l.334.003.385.018c.157.047.26.15.3.298a.59.59 0 0 1 0 .224c-.02.076-.058.142-.11.196s-.094.08-.172.107c-.052.02-.053.02-.314.022l-.262.004-.005.17.895 1.06.015.02H.63v-1.06zm1.634 1.05l.363-.502.38-.53.117-.16c.008-.01.01.086.01.596v.606h-.438c-.35 0-.436-.002-.43-.01z" fill="#686e93"/><path d="M.635 3.128C.633 3.125.63 2.65.63 2.072V1.02H.95l.37.01a.42.42 0 0 1 .253.153c.16.215.086.53-.15.646-.086.042-.108.045-.386.048l-.253.003v.178l.088.105.768.91.04.05c.004.007-.1.01-.518.01-.288 0-.526-.002-.528-.005zm1.63 0a.37.37 0 0 1 .034-.047l.785-1.093.043-.058v.6l-.003.6h-.43a10.96 10.96 0 0 1-.43-.004z" fill="#273170"/></svg>
