<?xml version="1.0" encoding="UTF-8"?>
<svg width="3.8163mm" height="3.8163mm" version="1.1" viewBox="0 0 3.8163 3.8163" xmlns="http://www.w3.org/2000/svg" xmlns:cc="http://creativecommons.org/ns#" xmlns:dc="http://purl.org/dc/elements/1.1/" xmlns:rdf="http://www.w3.org/1999/02/22-rdf-syntax-ns#">
 <metadata>
  <rdf:RDF>
   <cc:Work rdf:about="">
    <dc:format>image/svg+xml</dc:format>
    <dc:type rdf:resource="http://purl.org/dc/dcmitype/StillImage"/>
    <dc:title/>
   </cc:Work>
  </rdf:RDF>
 </metadata>
 <g transform="translate(-100.15 -147.02)">
  <circle cx="102.05" cy="148.92" r="1.9082" fill="#e6e6e6" opacity=".42096"/>
  <path d="m102.2 150.16s-0.02-0.01-0.02-0.02c0 0-0.08-0.155-0.163-0.338l-0.156-0.328h0.07 0.07s0.07 0.138 0.157 0.302c0.09 0.181 0.155 0.302 0.157 0.31 0 0.03-0.01 0.05-0.04 0.06-0.02 0.01-0.05 0.01-0.07 0zm0.439-0.822c-0.06 0-0.09-0.01-0.123-0.03-0.01 0-0.02-0.01-0.02-0.02-0.01-0.02-0.02-0.07-0.02-0.118v-0.04h0.03s0.03 0.06 0.04 0.07c0.05 0.07 0.123 0.1 0.184 0.07 0.03-0.01 0.05-0.05 0.05-0.08 0-0.06-0.03-0.112-0.121-0.158-0.08-0.05-0.123-0.08-0.146-0.128-0.01-0.03-0.02-0.04-0.02-0.08 0-0.03 0-0.05 0.02-0.08 0.02-0.05 0.07-0.08 0.13-0.1h0.07c0.05 0 0.07 0 0.125 0.01 0.03 0 0.04 0 0.04 0.02s0.01 0.06 0.01 0.09c0 0.05 0 0.05-0.02 0.05-0.01 0-0.02 0-0.03-0.03-0.02-0.06-0.07-0.1-0.109-0.102-0.03 0-0.07 0-0.09 0.03-0.02 0.02-0.03 0.03-0.03 0.06-1e-3 0.02 0 0.03 0 0.04 0 0.02 0.03 0.04 0.05 0.06 0 0 0.04 0.02 0.06 0.04 0.06 0.03 0.09 0.05 0.113 0.08 0.04 0.05 0.06 0.101 0.06 0.161-0.01 0.09-0.08 0.157-0.187 0.174h-0.09zm-1.556-0.01c-0.02-0.03-0.07-0.09-0.195-0.249-0.172-0.213-0.178-0.22-0.198-0.241-0.01-0.02-0.02-0.02-0.02-0.01v0.358c0 0.05 0 0.07 0.02 0.08 0.01 0.01 0.03 0.02 0.07 0.03h0.02v0.02h-0.124c-0.136 0-0.127 0-0.127-0.02 0-0.01 0-0.02 0.02-0.02 0.03 0 0.05-0.02 0.06-0.03v-0.04-0.251-0.234c0-0.02-0.03-0.03-0.07-0.03h-0.02v-0.03h0.07 0.111 0.05c0 0.01 0.02 0.05 0.05 0.08 0.03 0.04 0.214 0.259 0.27 0.322l0.02 0.02v-0.115c0-0.15 0-0.222-0.02-0.245 0-0.01-0.03-0.02-0.05-0.03h-0.02s-0.01-0.01 0-0.02v-0.01h0.07 0.123 0.06v0.02h-0.02c-0.03 0-0.04 0.02-0.05 0.03-0.01 0.03-0.02 0.116-0.02 0.379v0.205s-0.03 0.02-0.04 0.02h-0.01v-0.01zm0.255 0c-0.08-0.01-0.137-0.06-0.16-0.142v-0.112c0.02-0.08 0.07-0.135 0.144-0.158 0.03 0 0.08-0.01 0.111 0 0.02 0 0.05 0.02 0.07 0.03 0.03 0.02 0.04 0.06 0.04 0.1v0.03h-0.116c-0.128 0-0.12 0-0.12 0.02 0 0.04 0.02 0.08 0.04 0.104 0.05 0.05 0.15 0.05 0.183 0 0-0.01 0.02-0.01 0.03 0v0.03c-0.02 0.03-0.06 0.07-0.09 0.08s-0.08 0.02-0.112 0.01zm0.07-0.293c0.01 0 0.02-0.01 0.02-0.02 0-0.02 0-0.04-0.03-0.05h-0.05c-0.03 0.02-0.06 0.06-0.04 0.08h0.101zm0.266 0.293c-0.02 0-0.04-0.01-0.05-0.02l-0.02-0.02c-0.01-0.03-0.01-0.04-0.01-0.175v-0.132h-0.03c-0.03 0-0.03 0-0.03-0.02l0.02-0.02c0.05-0.02 0.09-0.06 0.125-0.1 0.01-0.02 0.02-0.02 0.03-0.01v0.1h0.05 0.05v0.04h-0.05-0.05v0.08c0 0.1 0 0.15 0.01 0.168 0.02 0.04 0.05 0.05 0.09 0.03h0.02v0.01l-0.01 0.02-0.08 0.04h-0.08zm1.448 0h-0.122-0.09v-0.03h0.03c0.04 0 0.05-0.02 0.05-0.05v-0.478c0-0.03-0.01-0.05-0.05-0.05h-0.02v-0.03s0.06 0 0.176-0.01c0.163 0 0.247 0 0.323 0.03 0.09 0.03 0.155 0.09 0.187 0.183 0.01 0.03 0.02 0.06 0.02 0.108 0 0.116-0.05 0.212-0.138 0.271-0.05 0.03-0.103 0.05-0.178 0.06h-0.186zm0.163-0.05c0.09-0.02 0.154-0.09 0.175-0.212v-0.141c-0.02-0.13-0.102-0.201-0.238-0.213h-0.05c-0.02 0-0.03 0-0.03 0.02v0.466c0 0.04 0.02 0.05 0.04 0.07 0.02 0.01 0.07 0.02 0.109 0zm-1.408 0.04v-0.03h0.03c0.03 0 0.04-0.01 0.05-0.03v-0.248-0.254c0-0.02 0-0.03-0.02-0.04h-0.03-0.02v-0.03s0.06 0 0.165-0.01c0.19 0 0.267 0 0.317 0.05 0.03 0.03 0.05 0.08 0.04 0.123 0 0.05-0.04 0.09-0.1 0.105-0.03 0.01-0.03 0.01 0 0.02 0.07 0.02 0.116 0.06 0.127 0.127 0.01 0.06 0 0.118-0.05 0.158-0.03 0.03-0.07 0.05-0.134 0.06h-0.211-0.179zm0.341-0.05c0.03 0 0.05-0.02 0.06-0.06 0.01-0.02 0.02-0.05 0.01-0.09 0-0.06-0.02-0.1-0.07-0.119-0.03-0.01-0.05-0.02-0.09-0.02s-0.04 0-0.04 0.107c0 0.117 0 0.132 0.02 0.154 0.01 0.01 0.02 0.02 0.04 0.02h0.05zm-0.04-0.325c0.05-0.01 0.08-0.05 0.08-0.112 0-0.03 0-0.05-0.01-0.07 0-0.02-0.03-0.04-0.05-0.05-0.02 0-0.05-0.01-0.07-0.01-0.04 0-0.03 0-0.03 0.126v0.109h0.01 0.07zm1.462-0.127c-0.02 0-0.04-0.03-0.05-0.04 0-0.02-0.01-0.05 0-0.07 0-0.02 0.03-0.04 0.05-0.05 0.04-0.02 0.09 0 0.111 0.04 0.01 0.02 0.01 0.05 0 0.07-0.02 0.05-0.07 0.07-0.116 0.05zm0.06-0.01c0.03-0.01 0.05-0.04 0.05-0.07s-0.02-0.06-0.05-0.07-0.06 0-0.08 0.02c-0.06 0.06 0 0.149 0.08 0.121zm-0.06-0.07v-0.05h0.02c0.03 0 0.05 0.01 0.05 0.03 0 0 0 0.01-0.01 0.02l0.02 0.04-0.02-0.02c-0.01-0.02-0.01-0.02-0.02-0.02v0.04-0.05zm0.05-0.01v-0.03h-0.02-0.01v0.04h0.01 0.02zm-2.396-0.436c-0.15-0.317-0.204-0.435-0.204-0.442 0-0.02 0.02-0.03 0.04-0.02 0 0 0.127 0.233 0.436 0.831l0.03 0.07h-0.1zm0.359 0.148c-0.06 0-0.147-0.02-0.154-0.03 0 0-0.331-0.588-0.329-0.589 0 0 0.02 0 0.04 0.01 0.231 0.09 0.46 0.102 0.736 0.05 0.106-0.02 0.201-0.04 0.373-0.09 0.197-0.06 0.296-0.08 0.41-0.102 0.137-0.02 0.278-0.03 0.395 0 0.1 0.02 0.203 0.05 0.283 0.08h-0.03c-0.06-0.01-0.113-0.02-0.183-0.02s-0.106 0-0.178 0.01c-0.06 0.01-0.132 0.03-0.206 0.05-0.1 0.03-0.162 0.06-0.292 0.122-0.07 0.03-0.1 0.05-0.08 0.04 0.132-0.04 0.282-0.06 0.39-0.07h0.214c0.07 0.01 0.151 0.03 0.215 0.05 0.03 0.01 0.116 0.05 0.115 0.05h-0.03c-0.07-0.01-0.102-0.02-0.187-0.02h-0.118c-0.124 0.02-0.243 0.05-0.39 0.113-0.07 0.03-0.113 0.05-0.274 0.129-0.209 0.103-0.288 0.137-0.392 0.166-0.09 0.03-0.148 0.03-0.237 0.03h-0.08z" stroke-width=".002713"/>
 </g>
</svg>
