<?xml version="1.0" encoding="UTF-8" standalone="no"?>
<!-- Created with Inkscape (http://www.inkscape.org/) -->

<svg
   width="23.340921mm"
   height="17.778292mm"
   viewBox="0 0 23.340921 17.778292"
   version="1.1"
   id="svg1"
   xml:space="preserve"
   xmlns="http://www.w3.org/2000/svg"
   xmlns:svg="http://www.w3.org/2000/svg"><defs
     id="defs1" /><g
     id="layer1"
     transform="translate(-125.90384,-231.9968)"><path
       style="fill:#000000;stroke-width:0.440829"
       d="m 137.81178,249.57836 c -0.14025,-0.236 -2.21339,-4.59629 -2.21339,-4.65527 0,-0.0216 0.20559,-0.0393 0.45686,-0.0393 h 0.45687 l 1.11772,2.16607 c 1.22693,2.37771 1.19451,2.28928 0.93443,2.54935 -0.2427,0.24271 -0.60178,0.23278 -0.75249,-0.0208 z m -9.18712,-7.55677 c -0.78844,-0.9918 -1.49097,-1.80327 -1.56118,-1.80327 h -0.12766 l 0.056,1.45338 0.056,1.45337 0.149,0.17953 c 0.0819,0.0987 0.24754,0.17953 0.36798,0.17953 0.12045,0 0.21899,0.0525 0.21899,0.11663 v 0.11664 h -0.93997 -0.93997 l 0.0721,-0.11664 c 0.0396,-0.0641 0.14901,-0.11663 0.24304,-0.11663 0.30134,0 0.39845,-0.5586 0.39845,-2.29213 v -1.69376 l -0.34991,-0.13207 c -0.55856,-0.21084 -0.41017,-0.31421 0.45105,-0.31421 h 0.80095 l 0.2897,0.43738 c 0.15932,0.24056 0.70428,0.92917 1.21101,1.53024 l 0.92133,1.09284 0.0332,-1.25094 0.0332,-1.25095 -0.13499,-0.16265 c -0.0742,-0.0895 -0.23353,-0.16264 -0.35398,-0.16264 -0.12044,0 -0.21898,-0.0525 -0.21898,-0.11665 v -0.11663 h 0.87476 0.87478 v 0.11663 c 0,0.0641 -0.0488,0.11665 -0.10831,0.11665 -0.0595,0 -0.19078,0.0825 -0.29159,0.18327 l -0.18328,0.18329 v 2.02032 2.02032 l -0.18449,0.0708 c -0.10148,0.0389 -0.19333,0.0687 -0.20413,0.0662 -0.0108,-0.003 -0.6647,-0.81606 -1.45313,-1.80786 z m 2.81279,1.64835 c -0.20365,-0.0919 -0.4617,-0.3067 -0.57346,-0.47727 l -0.2032,-0.31011 v -0.50647 -0.50647 l 0.20073,-0.30636 c 0.1104,-0.16849 0.36846,-0.41157 0.57346,-0.54018 l 0.37273,-0.23383 0.46636,0.0573 0.46637,0.0573 0.26891,0.31263 0.26891,0.31263 -0.0354,0.2486 -0.0354,0.24861 -0.84561,0.0342 -0.84561,0.0342 v 0.29178 0.29179 l 0.28628,0.28628 0.2863,0.28629 h 0.34687 c 0.19079,0 0.42561,-0.0787 0.52183,-0.17495 0.21585,-0.21585 0.30826,-0.22195 0.30826,-0.0203 0,0.085 -0.12605,0.27305 -0.28013,0.41779 l -0.28012,0.26317 -0.44886,0.0503 -0.44884,0.0503 z m 0.99071,-2.19779 -0.0373,-0.26243 -0.2479,-0.0354 c -0.24438,-0.0349 -0.62687,0.24088 -0.62687,0.45192 0,0.0596 0.21359,0.10831 0.47465,0.10831 h 0.47465 z m 1.47444,2.12357 -0.21566,-0.23831 -0.05,-1.04468 -0.05,-1.04469 h -0.16068 c -0.0884,0 -0.16069,-0.0525 -0.16069,-0.11664 0,-0.0641 0.0523,-0.11663 0.11629,-0.11663 0.064,0 0.31964,-0.1837 0.56817,-0.40822 0.55033,-0.4972 0.59853,-0.5019 0.59853,-0.0583 v 0.34992 h 0.40823 0.40822 v 0.17495 0.17495 h -0.40822 -0.40823 v 0.86644 0.86645 l 0.19172,0.19172 0.19172,0.19172 0.27483,-0.069 0.27482,-0.069 v 0.1248 c 0,0.39557 -1.26197,0.57499 -1.57915,0.22451 z m 6.59543,0.13418 c -0.33246,-0.0925 -0.57988,-0.50663 -0.58239,-0.97475 -0.002,-0.41857 0.18014,-0.40858 0.40285,0.0221 0.47841,0.92516 1.81151,0.96151 1.81151,0.0494 0,-0.46655 -0.18736,-0.69737 -0.93447,-1.15121 l -0.70243,-0.42671 -0.17295,-0.33445 c -0.21962,-0.42469 -0.21978,-0.85027 -4.5e-4,-1.27433 l 0.17247,-0.33352 0.52736,-0.2014 0.52736,-0.2014 0.53453,0.0733 c 0.68885,0.0944 0.72466,0.12128 0.81686,0.61274 l 0.0774,0.41285 -0.12132,0.12133 -0.12132,0.12132 -0.1861,-0.35985 c -0.21291,-0.41174 -0.50521,-0.60004 -0.93144,-0.60004 h -0.29657 l -0.19986,0.30503 -0.19987,0.30503 0.16831,0.29986 c 0.0926,0.16491 0.46632,0.47399 0.83056,0.68682 0.36425,0.21284 0.77088,0.52507 0.90364,0.69384 l 0.24138,0.30687 v 0.4934 0.49341 l -0.25286,0.32145 c -0.44143,0.5612 -1.416,0.78836 -2.3122,0.53896 z m -4.78301,-0.10148 c 0,-0.049 0.11809,-0.14079 0.26243,-0.20411 l 0.26244,-0.11514 0.032,-1.89712 0.032,-1.89712 -0.3015,-0.11463 c -0.16583,-0.0631 -0.26901,-0.16722 -0.22929,-0.23149 l 0.0722,-0.11685 1.18864,4.4e-4 c 1.81499,7.1e-4 2.41331,0.26515 2.41331,1.06549 0,0.47853 -0.11158,0.67479 -0.49694,0.87408 l -0.35204,0.18204 0.46999,0.21042 0.46999,0.21042 0.1385,0.41967 0.1385,0.41967 -0.1385,0.41967 -0.1385,0.41968 -0.48288,0.21925 -0.48289,0.21928 -1.42879,0.003 c -0.78583,0.001 -1.42879,-0.0375 -1.42879,-0.0864 z m 2.66064,-0.38211 0.25526,-0.23781 v -0.5074 -0.50739 l -0.21056,-0.26004 -0.21057,-0.26004 -0.46009,-0.0153 -0.46009,-0.0153 -0.0351,0.7405 -0.035,0.7405 0.1835,0.28006 0.18351,0.28008 h 0.26691 c 0.1468,0 0.38178,-0.10702 0.52218,-0.23782 z m -0.10204,-2.38743 c 0.0939,-0.0939 0.17068,-0.35252 0.17068,-0.57477 v -0.4041 l -0.21636,-0.23907 -0.21635,-0.23907 h -0.39015 -0.39015 v 0.79701 c 0,0.43836 0.039,0.83601 0.0867,0.88368 0.12465,0.12465 0.75484,-0.0228 0.95567,-0.22368 z m 4.78947,2.7607 c 0,-0.0656 0.11809,-0.136 0.26243,-0.1565 l 0.26244,-0.0373 0.032,-1.94806 0.032,-1.94805 -0.23607,-0.12634 c -0.12984,-0.0695 -0.23607,-0.18201 -0.23607,-0.25006 v -0.12371 l 1.60375,0.0403 1.60375,0.0403 0.56171,0.27656 0.56172,0.27655 0.31109,0.47009 0.31108,0.47008 10e-4,0.71131 0.001,0.71131 -0.24384,0.46654 -0.24383,0.46654 -0.5631,0.34991 -0.5631,0.34991 -1.7299,0.0398 -1.7299,0.0398 z m 3.25124,-0.4569 c 0.15537,-0.11601 0.37967,-0.39212 0.49844,-0.61357 l 0.21595,-0.40266 -1.9e-4,-0.70163 -1.7e-4,-0.70164 -0.20394,-0.4059 c -0.11216,-0.22324 -0.38227,-0.52504 -0.60025,-0.67065 l -0.39631,-0.26476 h -0.56593 -0.56594 v 1.85956 1.85956 l 0.26244,0.18872 0.26243,0.18872 0.40549,-0.0624 c 0.22302,-0.0344 0.53261,-0.15733 0.68798,-0.27333 z m 1.8405,-3.15766 c -0.26024,-0.28757 -0.24315,-0.63828 0.0438,-0.89794 l 0.2368,-0.2143 0.30769,0.10875 c 0.16923,0.0598 0.32116,0.17567 0.33762,0.25746 0.0165,0.0818 0.003,0.0949 -0.0293,0.0291 -0.0839,-0.16907 -0.27312,-0.14864 -0.27312,0.0295 0,0.082 -0.10497,0.23891 -0.23327,0.34876 l -0.23328,0.19974 v -0.35565 -0.35565 l -0.11663,0.0721 c -0.16123,0.0996 -0.14645,0.56503 0.0233,0.73481 0.19372,0.19372 0.50819,0.17497 0.72648,-0.0433 0.10081,-0.10081 0.18329,-0.1289 0.18329,-0.0624 0,0.34515 -0.69899,0.45219 -0.97333,0.14904 z m 0.50679,-0.60315 c 0,-0.0641 -0.0525,-0.11663 -0.11663,-0.11663 -0.0641,0 -0.11664,0.0525 -0.11664,0.11663 0,0.0641 0.0525,0.11663 0.11664,0.11663 0.0641,0 0.11663,-0.0525 0.11663,-0.11663 z m 0.0291,-0.31052 c -0.0802,-0.0324 -0.2114,-0.0324 -0.29159,0 -0.0802,0.0323 -0.0146,0.0588 0.14579,0.0588 0.16038,0 0.22599,-0.0265 0.1458,-0.0588 z m -0.0291,0.71874 c 0,-0.0321 0.0262,-0.0583 0.0583,-0.0583 0.0321,0 0.0583,0.0262 0.0583,0.0583 0,0.0321 -0.0262,0.0583 -0.0583,0.0583 -0.0321,0 -0.0583,-0.0262 -0.0583,-0.0583 z m 0.46654,-0.23327 c 0,-0.0321 0.0262,-0.0583 0.0583,-0.0583 0.0321,0 0.0583,0.0262 0.0583,0.0583 0,0.0321 -0.0262,0.0583 -0.0583,0.0583 -0.0321,0 -0.0583,-0.0262 -0.0583,-0.0583 z m -16.60834,-1.1372 c -0.27771,-0.59338 -0.93548,-1.99002 -1.46169,-3.10365 l -0.95678,-2.02476 0.0697,-0.18167 0.0697,-0.18166 0.0969,0.10698 c 0.14869,0.16417 3.2779,6.23047 3.2779,6.35454 0,0.06 -0.13293,0.1091 -0.2954,0.1091 h -0.29542 z m 0.80416,-1.14529 -0.34991,-0.10369 -1.12574,-2.0144 c -0.61917,-1.10792 -1.11137,-2.02956 -1.09379,-2.0481 0.0176,-0.0185 0.41919,0.0742 0.89248,0.20615 0.47328,0.13192 1.30664,0.27198 1.85192,0.31126 l 0.9914,0.0714 0.99141,-0.1331 c 0.96885,-0.13007 1.37271,-0.22614 4.72376,-1.12369 l 1.63291,-0.43735 1.45794,-0.013 1.45795,-0.013 0.84561,0.26509 c 0.46509,0.14581 0.84552,0.2767 0.84539,0.2909 -1.2e-4,0.0142 -0.66932,0.0292 -1.48711,0.0334 l -1.48688,0.008 -0.95108,0.31465 c -1.04595,0.34603 -2.78246,1.10738 -2.70421,1.18563 0.0272,0.0272 0.36218,-0.038 0.74435,-0.14493 l 0.69486,-0.19443 1.6329,-0.005 1.6329,-0.005 0.69982,0.22897 0.69981,0.22898 -1.39963,0.0745 -1.39964,0.0745 -0.87814,0.29938 c -0.48298,0.16467 -1.83031,0.75087 -2.99406,1.30267 l -2.11591,1.00327 -0.90275,0.23089 -0.90275,0.23088 -0.82694,-0.0106 c -0.45483,-0.006 -0.98442,-0.0572 -1.17687,-0.11421 z m 12.69389,-2.98557 c 0.0427,-0.0427 0.11275,-0.0427 0.15552,0 0.0427,0.0427 0.008,0.0778 -0.0778,0.0778 -0.0855,0 -0.12053,-0.035 -0.0778,-0.0778 z"
       id="path2" /></g></svg>
