<svg xmlns="http://www.w3.org/2000/svg" viewBox="0 0 3.816 3.816" height="14.423" width="14.423" xmlns:v="https://vecta.io/nano"><circle cx="1.908" cy="1.908" r="1.908" opacity=".12" fill="#f9f9f9"/><path d="M1.332 3.303c-.08-.02-.166-.08-.255-.174-.04-.05-.145-.19-.165-.23 0-.02 0-.04-.04-.04 0-.02-.103-.2-.125-.262l-.124-.408v-.402c0-.137 0-.134.04-.22a.9.9 0 0 1 .208-.322c.103-.1.213-.16.364-.2a.39.39 0 0 1 .214 0c.04 0 .04.02.103.03.04 0 .125.04.166.06s.124.04.145.04c.04 0 .08-.02.207-.06.04-.02.104-.04.125-.04.124-.04.124-.04.23-.04h.124c.186.04.325.116.435.25 0 .02.04.04 0 .04-.04.05-.124.12-.145.167-.07.07-.104.157-.145.265v.34c0 .03.07.116.07.157.07.104.166.2.276.25.04.02.04.02.04.03v.03c0 .03-.04.13-.08.197-.103.207-.277.433-.39.503-.125.08-.224.07-.43 0l-.145-.05c-.104-.02-.213-.02-.33.03-.187.07-.264.09-.338.07zM1.88.986h-.04v-.02c0-.05 0-.172.04-.25.04-.112.145-.25.253-.31.08-.06.186-.1.265-.107h.04v.25c0 .02-.04.08-.04.103 0 .04-.07.12-.125.163-.08.08-.145.112-.22.143-.04.02-.08.02-.145.02z"/></svg>
