<?xml version="1.0" encoding="UTF-8" standalone="no"?>
<svg xmlns:dc="http://purl.org/dc/elements/1.1/" xmlns:cc="http://creativecommons.org/ns#" xmlns:rdf="http://www.w3.org/1999/02/22-rdf-syntax-ns#" xmlns:svg="http://www.w3.org/2000/svg" xmlns="http://www.w3.org/2000/svg" id="svg2951" version="1.1" viewBox="0 0 3.88606 3.88606" height="3.88606mm" width="3.88606mm">
<defs id="defs2945" />
<metadata id="metadata2948">
<rdf:RDF>
<cc:Work rdf:about="">
<dc:format>image/svg+xml</dc:format>
<dc:type rdf:resource="http://purl.org/dc/dcmitype/StillImage" />
<dc:title></dc:title>
</cc:Work>
</rdf:RDF>
</metadata>
<g transform="translate(325.53,40.2578)" id="layer1">
<path d="m -323.751,-38.9038 c -0.04,-0.189 -0.309,-0.45 -0.453,-0.535 0.1,-0.1 0.196,0.04 0.311,0.178 0.09,0.127 0.198,0.392 0.196,0.342 -0.146,-0.525 -0.02,-0.948 0.177,-1.046 0.228,0.02 0.167,0.81 0.03,0.88 -0.114,0.175 -0.236,0.362 -0.09,0.18 0.874,-0.627 1.373,0.333 1.27,0.848 -0.116,0.618 -0.514,1.097 -1.064,0.839 -0.147,-0.04 -0.138,-0.14 -0.263,0.02 -0.334,0.341 -0.863,0.1 -1.031,-0.209 -0.416,-0.531 -0.14,-1.674 0.704,-1.519 z" style="fill:#000000;stroke:#000000;stroke-width:0.012917px" id="path2784" />
</g>
</svg>
