<svg xmlns="http://www.w3.org/2000/svg" viewBox="0 0 3.816 3.816" height="14.423" width="14.423" xmlns:v="https://vecta.io/nano"><circle r="1.908" cy="1.908" cx="1.908" opacity=".42" fill="#fff"/><path d="M1.442 2.76c-.17-.03-.31-.12-.405-.262a1.15 1.15 0 0 1 0-1.132c.1-.148.257-.25.432-.277.07-.01.206 0 .268.01.225.06.39.24.457.502a1.47 1.47 0 0 1-.02.693.65.65 0 0 1-.517.463c-.07.01-.154.01-.215 0zm.2-.05a.58.58 0 0 0 .4-.259c.153-.225.19-.59.09-.892-.05-.18-.17-.316-.314-.382-.08-.04-.128-.05-.245-.05-.09 0-.116 0-.16.01-.25.07-.412.267-.47.583a1.35 1.35 0 0 0 0 .401c.06.335.24.54.507.58a.58.58 0 0 0 .186 0zm1.016.05c-.03-.01-.08-.01-.107-.02-.05-.02-.154-.06-.154-.07v-.03c0-.01 0-.02.02-.01 0 .01.1.05.145.07a.55.55 0 0 0 .335.01c.134-.04.24-.155.268-.28v-.09c0-.176-.09-.295-.303-.396l-.15-.07c-.21-.1-.294-.205-.294-.37 0-.112.03-.2.117-.28.04-.04.06-.06.104-.08.08-.04.125-.05.23-.05s.173.01.244.05l.04.02v.04l-.02-.01c-.09-.05-.28-.06-.38-.03-.127.04-.218.13-.256.258v.185c.04.105.1.158.332.272l.188.102c.07.05.14.115.166.166.07.135.05.314-.02.44-.07.11-.194.18-.348.196a.39.39 0 0 1-.152 0zM.59 2.16V1.58h.04v1.164H.59zm0-.91c-.03-.03 0-.08.03-.08s.04 0 .04.03c.02.05-.04.09-.07.06z" fill="#333"/></svg>