<?xml version="1.0" encoding="UTF-8"?>
<svg width="3.8163mm" height="3.8163mm" version="1.1" viewBox="0 0 3.8163 3.8163" xmlns="http://www.w3.org/2000/svg" xmlns:cc="http://creativecommons.org/ns#" xmlns:dc="http://purl.org/dc/elements/1.1/" xmlns:rdf="http://www.w3.org/1999/02/22-rdf-syntax-ns#">
 <metadata>
  <rdf:RDF>
   <cc:Work rdf:about="">
    <dc:format>image/svg+xml</dc:format>
    <dc:type rdf:resource="http://purl.org/dc/dcmitype/StillImage"/>
    <dc:title/>
   </cc:Work>
  </rdf:RDF>
 </metadata>
 <g transform="translate(-153.82 -232.44)">
  <g transform="translate(762.54 351.43)">
   <circle cx="-606.81" cy="-117.08" r="1.9082" fill="#fff" opacity=".42096"/>
   <path d="m-607.61-118.04 0.03 0.118-0.04 0.06-0.209-0.126 0.199 0.266-0.191 0.02-0.187-0.07 0.153 0.142v0.196l-0.172-0.06v0.02l0.191 0.152-0.06 0.05-0.03 0.119-0.08 0.04-0.267-0.199-0.149 0.01-0.05 0.02 0.217 0.243 0.14 0.287v0.197l0.104-0.06 0.09-0.177h0.04l0.1 0.218 0.156 0.187 0.04 0.06-0.04 0.125 0.114-0.108 0.27 0.175v0.145l0.09-0.117 0.291 0.07 0.04 0.142 0.03-0.138 0.272-0.01 0.09 0.158 0.03-0.191 0.185-0.07 0.109-0.07 0.135 0.135-0.09-0.19 0.122-0.11 0.06-0.102 0.07 0.03v-0.09l0.224-0.222 0.05-0.241-0.09-0.234-0.05-0.06v-0.125l-0.03-0.07-0.162-0.22 0.03-0.124 0.116-0.128-0.209 0.09-0.1-0.1v-0.09l-0.05 0.04-0.07-0.06v-0.194l-0.129 0.123-0.159-0.06-0.03-0.147-0.06 0.123-0.114-0.03-0.04-0.06-0.03-0.188-0.05 0.216-0.143 0.05-0.09-0.176v0.202l-0.158-0.02-0.127-0.136 0.04 0.176-0.07 0.07-0.113-0.176 0.06 0.248-0.04-0.02-0.09 0.08z" fill="#fff68e" stop-color="#000000" stroke-linecap="round" stroke-width="1.383" style="paint-order:markers fill stroke"/>
   <g fill="#fff" stroke-linecap="round" stroke-width="1.383">
    <path d="m-606.9-116.95h-0.249l-0.206 0.257 0.236 0.05 0.105-0.08 0.104-0.117 0.05-0.03h-0.08l0.03-0.05-0.122 0.04z" stop-color="#000000" style="paint-order:markers fill stroke"/>
    <path d="m-605.82-117.44 0.1 0.03 0.03 0.07v0.08l-0.07 0.08-0.03-0.08z" stop-color="#000000" style="paint-order:markers fill stroke"/>
    <path d="m-606.19-117.43v0.124l0.145 0.08 0.06 0.08 0.05-0.135v-0.131l-0.04-0.04z" stop-color="#000000" style="paint-order:markers fill stroke"/>
   </g>
   <g transform="matrix(.051105 0 0 .051105 -579.18 -112.08)" stroke-width=".26458">
    <path d="m-537.2-72.188c0-0.1503-0.366-1.2219-0.813-2.3813-0.691-1.7917-0.905-2.1082-1.424-2.1082-0.623 0-0.927 0.5699-0.934 1.7537 0 0.3095-0.173 0.7032-0.38 0.8747-0.315 0.2611-0.406 0.069-0.562-1.179-0.152-1.2173-0.302-1.5436-0.816-1.7777-0.346-0.1577-0.674-0.2376-0.728-0.1776-0.211 0.2323-1.751 3.9175-1.751 4.1884 0 0.1574-0.119 0.2863-0.265 0.2863-0.145 0-0.274-0.6252-0.286-1.3891-0.03-2.2378-0.524-3.711-1.369-4.114-0.916-0.4374-1.079-0.3307-1.515 0.9919-0.253 0.7665-0.502 1.0716-0.871 1.0716-0.472 0-0.502-0.1262-0.338-1.437 0.164-1.3128 0.128-1.4644-0.416-1.7555-0.526-0.2815-0.668-0.2299-1.222 0.4448-0.345 0.4199-0.923 1.3332-1.283 2.0299-0.725 1.3986-1.219 1.4652-0.919 0.1238 0.106-0.4736 0.217-1.6351 0.247-2.581 0.05-1.6801 0.03-1.7336-0.831-2.3151-0.488-0.3276-0.963-0.5953-1.056-0.5953-0.09 0-0.546 0.5466-1.005 1.2144-1.099 1.597-1.524 1.2144-0.791-0.7122 0.675-1.7786 0.678-1.7241-0.12-2.2474-0.904-0.5919-1.932-0.1506-3.318 1.425-0.579 0.6578-1.108 1.1404-1.176 1.0724-0.07-0.068 0.289-1.0684 0.794-2.2236 0.91-2.0846 1.071-2.8614 0.762-3.6663-0.245-0.6384-0.938-0.5032-2.028 0.3945-1.191 0.9816-1.269 0.6318-0.192-0.8551 0.436-0.6025 0.794-1.261 0.794-1.4635 0-0.4138-0.998-2.4632-1.2-2.4632-0.07 0-0.409 0.6249-0.75 1.389-0.341 0.7639-0.85 1.5928-1.131 1.8421-0.717 0.6358-2.322 1.2684-3.195 1.2589-0.684-0.01-0.699-0.029-0.207-0.3083 0.832-0.4717 0.953-0.7916 0.776-2.0606-0.378-2.7127-2.198-6.338-4.676-9.3167-1.422-1.7084-2.127-2.1184-3.045-1.7734-0.947 0.357-0.706-0.211 0.397-0.936 1.158-0.762 3.121-1.257 4.048-1.021 0.848 0.216 1.593 0.691 3.763 2.402 1.979 1.5599 2.564 1.6221 3.1 0.329 0.403-0.974 0.22-1.256-1.217-1.872-0.639-0.274-1.161-0.555-1.161-0.625s0.672-0.104 1.493-0.08c0.946 0.03 1.533-0.06 1.603-0.259 0.06-0.171-0.612-0.8-1.494-1.399-0.881-0.599-1.602-1.207-1.602-1.351 0-0.518 0.833-0.568 2.002-0.122 1.408 0.538 1.85 0.426 2.029-0.512 0.116-0.608-0.02-0.779-1.089-1.355l-1.223-0.658 1.31 0.166c1.237 0.156 1.289 0.139 0.952-0.322-0.196-0.267-1.023-1.103-1.836-1.856-0.814-0.753-1.393-1.456-1.287-1.562s1.033 0.194 2.06 0.668c2.715 1.251 4.026 0.808 2.456-0.831-0.772-0.806-0.597-0.942 0.446-0.345 1.422 0.813 1.368 0.325-0.131-1.19-1.415-1.43-1.53-1.628-1.163-1.995 0.368-0.368 0.582-0.289 2.163 0.793 1.946 1.333 2.454 1.457 2.706 0.664 0.171-0.539-0.544-1.947-1.774-3.493-0.937-1.18-0.318-1.161 0.974 0.03 1.303 1.201 2.286 1.691 2.912 1.451 0.498-0.191 0.498-0.405 0-1.593-0.614-1.469-0.477-1.595 0.507-0.466 0.706 0.809 0.975 0.967 1.229 0.72 0.239-0.232 0.253-0.513 0.05-1.058-0.666-1.817-0.92-2.988-0.747-3.435 0.177-0.453 0.215-0.447 0.632 0.09 0.243 0.313 0.777 1.189 1.186 1.945 0.72 1.335 0.758 1.362 1.257 0.91 0.661-0.598 0.647-1-0.12-3.415-0.777-2.449-0.415-2.614 0.939-0.427 1.634 2.642 3.316 3.234 2.966 1.044-0.204-1.275 0.281-1.259 0.562 0.02 0.09 0.425 0.335 0.91 0.537 1.078 0.702 0.582 0.919 0.03 0.747-1.904-0.209-2.367 0.298-2.396 1.133-0.06 0.351 0.983 0.732 1.601 1.02 1.659 0.393 0.08 0.446-0.08 0.363-1.125-0.113-1.428 0.06-1.539 0.587-0.371 0.763 1.702 1.418 0.989 1.867-2.034 0.162-1.092 0.386-1.985 0.497-1.985 0.291 0 0.52 1.015 0.524 2.323 0 1.196 0.606 2.968 1.008 2.968 0.131 0 0.456-0.506 0.722-1.124l0.484-1.125 0.152 1.303c0.203 1.747 0.677 1.82 1.075 0.164 0.176-0.735 0.414-1.394 0.528-1.465 0.391-0.241 0.73 0.526 0.86 1.945 0.195 2.129 1.126 2.514 1.654 0.684l0.3-1.043 0.19 1.378c0.104 0.758 0.298 1.445 0.431 1.527 0.409 0.253 2.039-1.391 2.633-2.655 0.807-1.716 1.097-1.231 0.516 0.863-0.822 2.963-0.537 3.898 0.798 2.62 1.015-0.973 1.558-0.879 0.715 0.124-0.732 0.869-0.829 1.182-0.444 1.42 0.133 0.08 0.481-0.178 0.772-0.579 0.709-0.973 1.008-0.59 0.572 0.732-0.464 1.408-0.121 1.795 1.055 1.187 1.047-0.541 1.42-0.27 0.572 0.416-0.352 0.286-0.56 0.673-0.476 0.889 0.183 0.477 1.229 0.213 3.342-0.844 1.932-0.966 1.859-0.941 1.859-0.647 0 0.142-0.518 0.837-1.152 1.544-1.042 1.162-2.023 2.694-2.023 3.158 0 0.1 0.596 0.101 1.323 0 0.728-0.1 1.323-0.123 1.323-0.06 0 0.06-0.429 0.368-0.953 0.678-1.201 0.708-1.107 1.261 0.515 3.003 1.327 1.424 2.062 2.868 1.549 3.04-0.524 0.174-0.358 1.364 0.315 2.262 0.981 1.308 1.982 3.4636 2.179 4.6915 0.125 0.781 0.329 1.1546 0.681 1.2467 0.276 0.072 0.793 0.7046 1.148 1.4052 0.703 1.388 1.252 1.8338 2.012 1.6351 0.764-0.2 0.609 0.6506-0.282 1.541-0.672 0.672-0.969 0.7733-2.266 0.7733-0.821 0-1.704-0.1127-1.961-0.2503-0.378-0.2026-0.763 0.048-2.011 1.3092l-1.544 1.5595 0.71 1.072c0.828 1.2507 0.752 1.3055-0.564 0.4107-0.536-0.3638-1.065-0.6615-1.177-0.6615-0.319 0-0.236 0.5919 0.2 1.4285 0.506 0.9692 0.333 1.1488-0.55 0.5707-0.381-0.2498-0.726-0.4146-0.766-0.3667-0.83 0.9853-0.63 1.5944 1.134 3.456 0.514 0.5429 0.861 1.0612 0.771 1.152-0.09 0.091-0.798-0.14-1.571-0.5123-2.1-1.0112-2.636-1.0816-3.329-0.4365-0.642 0.5982-0.587 0.8607 0.506 2.422 0.27 0.3863 0.492 0.8924 0.492 1.1245 0 0.7702-0.726 0.4381-1.785-0.8168l-1.046-1.2393-1.214 0.7112c-1.166 0.6837-1.207 0.7501-1.063 1.7023 0.136 0.8917 0.408 1.8066 1.004 3.3721 0.111 0.2911-0.605-0.2746-1.592-1.2567-1.234-1.228-1.997-1.786-2.441-1.786-0.633 0-0.643 0.033-0.466 1.5579 0.283 2.4315-0.784 2.5466-1.453 0.1569-0.272-0.9705-0.444-1.1856-0.949-1.1856-0.514 0-0.684 0.2278-1.024 1.3711-0.224 0.7538-0.407 1.8848-0.407 2.5135 0 0.6284-0.119 1.1425-0.264 1.1425-0.146 0-0.265-0.1231-0.265-0.2731zm0.321-3.4311c0.1-0.6806 0.03-0.7938-0.476-0.7938-0.549 0-0.57 0.059-0.293 0.7938 0.165 0.4365 0.379 0.7937 0.476 0.7937 0.1 0 0.229-0.3572 0.293-0.7937zm-7.219-1.1245c0.01-0.1093-0.16-0.1985-0.378-0.1985-0.435 0-0.491 0.2416-0.218 0.9512 0.165 0.4318 0.193 0.4286 0.378-0.044 0.11-0.2805 0.208-0.5993 0.218-0.7083zm10.294-1.491c-0.273-2.2587-0.133-3.9991 0.32-3.9991 0.139 0 0.253 0.8953 0.253 1.9894v1.9894l0.721-0.181c0.397-0.1 1.48-0.5249 2.406-0.9451 1.576-0.7146 1.675-0.8104 1.521-1.4777-0.09-0.3924-0.598-1.1007-1.128-1.5735-0.584-0.5215-0.805-0.8599-0.561-0.8599 0.496 0 2.233 1.2417 3.474 2.4821l0.929 0.9289-0.739-1.6393c-0.668-1.4817-1.414-4.1587-1.215-4.358 0.04-0.044 0.414 0.7287 0.823 1.7164s0.824 1.8923 0.923 2.0098c0.1 0.1177 0.646-0.3585 1.216-1.0584 1.892-2.3219 1.813-2.1042 1.034-2.826-0.915-0.8472-0.53-1.0475 0.837-0.4357l1.089 0.4878-0.388-0.93c-0.214-0.5111-0.341-1.1853-0.284-1.4978 0.09-0.491 0.151-0.4479 0.446 0.3167l0.342 0.8851 1.938-1.9246c2.997-2.9779 3.782-5.4057 2.79-8.6334-0.304-0.9874-0.807-2.2079-1.118-2.7122l-0.566-0.917-0.522 0.644c-0.398 0.492-0.437 0.67-0.167 0.753 0.195 0.059 0.622 0.3511 0.949 0.649 0.735 0.668 0.826 2.6492 0.165 3.5922-0.358 0.5112-0.38 0.7829-0.132 1.6111 0.654 2.1833 0.03 3.7724-1.784 4.577-1.02 0.4508-1.322 0.4821-2.068 0.2122-1.029-0.3723-1.261-0.2654-1.858 0.8583-0.676 1.2737-0.767 0.2236-0.109-1.2639 0.432-0.9769 0.481-1.3642 0.259-2.0614-0.516-1.6219-0.821-2.3138-1.021-2.3138-0.111 0-0.695 0.6549-1.3 1.4552-0.604 0.8004-1.288 1.4552-1.519 1.4552-0.305 0-0.168-0.3071 0.501-1.1244 1.609-1.9654 2.397-3.8233 2.425-5.7177 0.02-1.6417 0-1.7047-1.017-2.585-0.587-0.508-1.744-1.12-2.646-1.401-0.897-0.279-1.334-0.51-0.992-0.524 0.528-0.02 0.601-0.144 0.53-0.885-0.05-0.515-0.216-0.833-0.414-0.794-0.488 0.1-0.402-0.875 0.176-1.994 0.53-1.027 1.952-2.484 3.371-3.454 1.016-0.695 1.248-0.719 0.914-0.1-0.2 0.374 0.05 0.918 1.182 2.562 1.311 1.908 1.82 3.055 1.181 2.66-0.155-0.1-0.192 0.352-0.1 1.165 0.128 1.079 0.03 1.579-0.512 2.721-0.662 1.3849-1.148 4.0402-0.687 3.7555 0.131-0.081 0.736-0.822 1.346-1.6475l1.109-1.501-0.08-3.151c-0.08-3.217-0.453-5.193-1.349-7.22-0.345-0.778-0.404-1.141-0.189-1.141 0.174 0 0.653-0.422 1.065-0.938l0.748-0.939-0.979 0.41c-1.419 0.593-1.824 0.517-2.727-0.512-0.445-0.507-0.864-0.833-0.93-0.725-0.07 0.108-0.275 0.939-0.463 1.847-0.351 1.702-0.767 2.207-0.76 0.923 0-0.4 0.16-1.39 0.351-2.2l0.347-1.472-1.304 0.877c-0.716 0.482-1.499 0.87-1.739 0.862-0.372-0.01-0.362-0.06 0.07-0.331 0.837-0.524 2.274-1.811 2.274-2.037 0-0.117-0.539-0.528-1.197-0.914s-1.126-0.816-1.04-0.955c0.09-0.14 0.255-0.194 0.375-0.12 0.119 0.07 0.266-0.281 0.325-0.79l0.108-0.924-1.747 1.693-1.369-0.579c-0.753-0.318-1.428-0.52-1.498-0.45s-0.139 0.814-0.152 1.651c-0.03 2.385-0.52 1.937-0.848-0.784-0.163-1.351-0.312-2.242-0.331-1.98-0.07 1.037-1.622 3.36-2.238 3.36-0.143 0-0.07-0.213 0.168-0.473 0.446-0.492 1.242-2.219 1.242-2.693 0-0.151-0.149-0.274-0.331-0.275-0.182 0-0.786-0.128-1.344-0.283-0.796-0.221-1.104-0.489-1.437-1.255-0.344-0.792-0.444-0.875-0.534-0.445-0.177 0.845-1.087 1.656-2.065 1.839-1.028 0.193-1.067 0.364-0.477 2.097 0.235 0.689 0.37 1.309 0.301 1.378-0.22 0.22-0.902-1.028-1.606-2.938l-0.68-1.847-0.02 1.588c-0.01 0.995-0.214 1.982-0.536 2.646l-0.515 1.058 0.147-1.323c0.08-0.727 0.205-1.534 0.277-1.792 0.114-0.412 0-0.449-0.936-0.299-1.461 0.234-2.358-0.04-3.254-1.002l-0.761-0.814 0.272 0.714c0.423 1.114 0.326 1.707-0.4 2.433l-0.671 0.671 0.946 1.316c0.665 0.926 0.794 1.235 0.435 1.043-0.742-0.397-1.824-1.758-2.572-3.234-0.358-0.706-0.696-1.285-0.751-1.285-0.05 0 0.186 0.898 0.534 1.995 0.638 2.009 0.829 3.826 0.403 3.826-0.127 0-0.309-0.59-0.405-1.312-0.1-0.722-0.272-1.373-0.392-1.447-0.12-0.07-0.504 0.172-0.852 0.546-0.945 1.015-1.708 1.229-2.651 0.741-0.772-0.399-0.788-0.395-0.515 0.116 0.373 0.697 0.359 1.703-0.03 2.091-0.239 0.239 0 0.446 0.992 0.889 0.717 0.318 1.156 0.628 0.976 0.689-0.588 0.198-2.134-0.472-4.195-1.817-1.11-0.725-2.068-1.269-2.128-1.209s0.407 0.532 1.038 1.049c1.395 1.143 3.364 3.644 3.364 4.272 0 0.407-0.08 0.395-0.719-0.108-0.638-0.502-0.929-0.546-2.579-0.394-1.136 0.104-2.154 0.06-2.611-0.117l-0.75-0.289 0.948 1.108c1.052 1.228 1.045 1.2 0.666 2.842-0.316 1.373-0.115 1.6 1.423 1.606 0.603 0 0.942 0.111 0.844 0.269-0.261 0.422-2.52 0.291-4.04-0.234-0.767-0.265-1.362-0.451-1.323-0.414 0.04 0.04 0.798 0.603 1.686 1.255 1.563 1.149 2.956 2.716 2.668 3.003-0.08 0.08-0.502-0.127-0.943-0.453-1.182-0.874-1.62-0.4-1.62 1.7544 0 0.9197-0.119 1.7455-0.264 1.8355-0.15 0.092-0.265-0.1244-0.265-0.498 0-0.6371-0.03-0.6474-0.728-0.2818-0.4 0.2088-0.865 0.3802-1.033 0.3813-0.169 0-1.211-0.7668-2.315-1.7058-2.274-1.9326-3.444-2.3936-5.003-1.9746-0.969 0.261-1.002 0.303-0.593 0.755 0.336 0.372 0.709 0.452 1.679 0.36 0.927-0.09 1.144-0.05 0.849 0.162-0.218 0.154-0.674 0.282-1.014 0.284-0.374 0-0.574 0.134-0.508 0.335 0.06 0.1961 0.693 0.3638 1.543 0.412 1.833 0.104 2.405 0.5802 0.696 0.5802h-1.241l0.725 1.0483c0.593 0.857 0.894 1.0565 1.651 1.0933l0.926 0.045-0.926 0.1847c-0.954 0.1899-0.768 0.4085 0.53 0.6228 0.638 0.1053 0.636 0.1103-0.07 0.1452l-0.733 0.036 0.554 1.0856c0.478 0.9369 0.648 1.0673 1.246 0.953l0.693-0.1322-0.573 0.4357c-0.644 0.4903-0.448 1.2417 0.214 0.8231 0.678-0.4288 0.87-0.2746 0.267 0.2138-0.449 0.3638-0.538 0.6303-0.397 1.1906 0.213 0.8488 0.308 0.8734 1.001 0.2591 0.507-0.4493 0.513-0.4453 0.21 0.1323-0.172 0.3273-0.427 0.5953-0.568 0.5953-0.14 0-0.255 0.3572-0.255 0.7937 0 0.9205 0.06 0.9419 0.951 0.3564 0.687-0.4503 1.695-2.145 1.695-2.8501 0-0.219 0.218-0.5148 0.485-0.6577 0.357-0.1911 0.454-0.4739 0.367-1.0679-0.07-0.4879 0-0.8078 0.176-0.8078 0.162 0 0.295 0.2567 0.295 0.5702 0 0.5445 0.02 0.5496 0.505 0.1127 0.278-0.2513 0.578-0.7461 0.667-1.0993 0.09-0.353 0.278-0.6419 0.42-0.6419 0.407 0 0.307 0.5223-0.283 1.4767l-0.542 0.8773 0.816 0.4218c0.448 0.232 0.745 0.5352 0.659 0.6741-0.09 0.1506-0.465 0.093-0.921-0.1437-0.421-0.2177-0.839-0.3958-0.929-0.3958-0.255 0 0.142 1.0885 0.812 2.2278l0.611 1.0369 1.106-1.7645c1.057-1.6859 1.577-2.1569 1.577-1.4293 0 0.1845-0.298 0.7734-0.662 1.3089-0.364 0.5353-0.661 1.0409-0.661 1.1232 0 0.083 0.431-0.03 0.958-0.2506 1.491-0.6228 1.666-0.4717 0.415 0.3588-0.628 0.4162-1.327 1.0218-1.553 1.3457-0.528 0.7538-0.237 1.3411 1.527 3.0781l1.284 1.2655 0.429-1.0263c0.236-0.5646 0.493-1.4203 0.571-1.9015 0.15-0.9242 0.602-1.2155 0.602-0.3879 0 0.5-0.857 3.9909-1.212 4.9371-0.109 0.291 0.585-0.2151 1.542-1.1245 2.048-1.9457 2.692-2.151 1.388-0.4426-0.508 0.6659-0.924 1.3105-0.924 1.4324 0 0.3514 2.457 2.0617 3.246 2.2596 0.616 0.1547 0.755 0.075 1.005-0.5758 0.168-0.4368 0.219-1.3131 0.12-2.0783-0.114-0.8863-0.08-1.2356 0.1-1.0583 0.418 0.4154 0.841 3.6401 0.656 4.9929-0.211 1.537 0 1.5696 0.51 0.078 0.467-1.3727 1.676-3.3512 2.047-3.3512 0.146 0-0.102 0.7265-0.55 1.6142-0.448 0.888-0.777 1.6489-0.731 1.691 0.149 0.1373 4.075 1.1927 4.436 1.1927 0.269 0 0.314-0.3559 0.194-1.5213-0.09-0.8369-0.227-1.8191-0.314-2.1829-0.09-0.3638 0.209 0.026 0.657 0.8668 0.448 0.8403 0.979 2.2095 1.181 3.0427 0.326 1.3433 0.371 1.4097 0.401 0.5885 0.05-1.5074 0.651-4.0016 0.937-3.9159 0.302 0.091 0.305 0.6141 0.01 2.3945l-0.206 1.2568h1.452c3.359 0 3.659-0.3662 2.312-2.8197-0.94-1.7134-0.981-1.9299-0.237-1.2565 0.801 0.7247 1.703 2.3884 2.244 4.1391 0.258 0.8351 0.498 1.4889 0.534 1.4531 0.04-0.036-0.05-1.0615-0.203-2.2794zm-4.899-2.4778c-0.304-0.9096-0.747-2.1002-0.984-2.6458-0.722-1.6645 0.02-1.1038 0.878 0.6615 0.726 1.4972 0.802 1.5755 0.808 0.8268 0.01-1.2213 0.304-2.4805 0.579-2.4805 0.132 0 0.171 0.5654 0.09 1.2568-0.08 0.6911-0.196 1.7925-0.247 2.4474-0.127 1.6224-0.12 1.5875-0.357 1.5875-0.116 0-0.459-0.7443-0.763-1.6537zm-6.028-0.5987c-0.218-1.3576-0.557-2.7826-0.8-3.37-0.115-0.2773-0.08-0.463 0.1-0.463 0.16 0 0.489 0.7101 0.73 1.5779l0.439 1.5783 0.626-1.352c0.345-0.7435 0.699-1.2798 0.787-1.1915 0.09 0.088-0.09 0.6996-0.403 1.3587-0.309 0.6588-0.563 1.3549-0.563 1.547s-0.168 0.5789-0.373 0.8594c-0.348 0.4765-0.384 0.4405-0.543-0.5448zm12.664-0.2318c-0.422-0.7112-1.224-1.8817-1.783-2.6009-1.402-1.8063-1.049-1.8692 0.532-0.095l1.301 1.4589-0.302-1.7775c-0.167-0.9776-0.238-1.8923-0.16-2.0325 0.16-0.2863 1.397 5.6621 1.264 6.0759-0.05 0.1455-0.431-0.3175-0.852-1.029zm-18.866-2.4106c0-0.2911 0.164-1.4222 0.355-2.5136l0.347-1.9843 0.03 1.5435 0.03 1.5436 1.059-0.8382c1.284-1.017 1.362-0.8919 0.189 0.3043-0.478 0.4874-1.129 1.2435-1.447 1.6801-0.486 0.6681-0.576 0.7099-0.569 0.2646zm24.831-1.8754c-0.501-0.522-1.388-1.1956-1.97-1.4967-0.582-0.3014-0.918-0.5956-0.747-0.6538 0.171-0.059 0.791 0.1389 1.378 0.4387 0.588 0.2995 1.134 0.5445 1.216 0.5445 0.08 0-0.08-0.454-0.366-1.0089-0.283-0.5548-0.429-1.1483-0.323-1.3187 0.165-0.2672 2.153 3.6579 2.151 4.2458 0 0.4199-0.462 0.1622-1.339-0.7509zm-16.47 0.2516c-0.101-0.1013-0.185-0.3728-0.186-0.6032 0-0.2305-0.179-0.7599-0.397-1.1766-0.47-0.902-0.477-0.962-0.117-0.962 0.154 0 0.41 0.3754 0.569 0.8342 0.271 0.7768 0.316 0.8011 0.646 0.35 0.571-0.7808 0.662-0.3 0.145 0.7628-0.261 0.5385-0.559 0.8962-0.66 0.7948zm5.637-0.011c0-0.1474-0.423-0.703-0.939-1.2349-1.038-1.0681-0.987-1.2718 0.103-0.4108l0.703 0.5556 0.09-0.6218c0.189-1.329 0.583-1.1139 0.476 0.2598-0.06 0.7681-0.182 1.4695-0.271 1.5584-0.09 0.089-0.161 0.041-0.161-0.1063zm5.38-2.2196c-0.893-0.8631-1.492-1.5693-1.33-1.5693 0.161 0 0.753 0.4464 1.315 0.9922 1.139 1.1057 1.072 1.234 0.583-1.1245-0.08-0.3638-0.02-0.6614 0.132-0.6614 0.148 0 0.27 0.2786 0.27 0.6194s0.174 1.1983 0.387 1.9058c0.213 0.7077 0.36 1.3136 0.327 1.3467-0.03 0.033-0.791-0.6459-1.684-1.5089zm-15.811 0.195c-0.146-0.9732-0.292-1.2351-0.689-1.2351-0.74 0-2.977-0.7871-3.406-1.1986-0.316-0.3029-0.244-0.4627 0.487-1.0776 0.472-0.3972 1.163-1.3663 1.536-2.154 0.373-0.7874 0.927-1.592 1.232-1.7875 0.565-0.362 6.244-0.6924 6.244-0.363 0 0.5993-0.891 0.7797-3.001 0.6085l-2.247-0.1823-0.75 1.1062c-0.412 0.6083-1.194 1.6897-1.737 2.4027-0.544 0.7131-0.882 1.3626-0.751 1.4433 0.131 0.081 0.492-0.1815 0.804-0.5823 0.468-0.6022 0.515-0.6215 0.266-0.1109-0.463 0.952-0.02 1.0629 0.701 0.1757 0.388-0.476 0.572-0.5911 0.461-0.2873-0.122 0.3312-0.09 0.4455 0.1 0.3304 0.181-0.1122 0.234 0.016 0.146 0.3535-0.193 0.7369 0.536 0.6924 1.076-0.066 0.276-0.3884 0.37-0.4344 0.268-0.1323-0.289 0.8642 0.416 0.4684 0.942-0.5291 0.541-1.024 0.764-1.0097 0.269 0.019-0.193 0.4006-0.07 0.3344 0.395-0.2159 0.371-0.4366 0.675-0.8729 0.676-0.9697 0-0.2537 2.53-2.073 2.881-2.073 0.576 0 0.283 0.4156-0.646 0.9154-0.517 0.2789-1.544 1.2743-2.281 2.212-0.737 0.9379-1.685 1.8356-2.107 1.9947-0.473 0.1788-0.714 0.4267-0.629 0.6482 0.08 0.1971 0.14 0.5569 0.143 0.7998 0 0.3389 0.124 0.2887 0.511-0.2161 0.278-0.3617 0.564-0.5991 0.636-0.5276 0.07 0.072-0.202 0.5363-0.607 1.0326l-0.737 0.9028-0.185-1.2351zm-0.998-2.6972c-0.08-0.082-0.229 0.065-0.328 0.3262-0.144 0.3771-0.114 0.4075 0.148 0.1482 0.181-0.1796 0.262-0.3932 0.18-0.4744zm-7.621 2.0619c0-0.079 0.485-0.6702 1.078-1.3137 0.593-0.6434 1.305-1.6687 1.582-2.2785 0.276-0.6096 0.519-0.9896 0.539-0.8441 0.104 0.753-0.141 1.4185-0.851 2.3151-0.852 1.0756-0.711 1.1994 0.697 0.6112 0.501-0.2095 0.96-0.2987 1.02-0.1984 0.06 0.1005-0.831 0.5583-1.979 1.0173-1.147 0.4591-2.086 0.7699-2.086 0.6911zm15.441-1.2872c-0.204-0.6517-0.206-0.8522-0.01-0.6551 0.409 0.409 0.655 0.3511 0.76-0.1789 0.05-0.2548 0.167-0.3439 0.259-0.1984 0.09 0.1458-0.03 0.6488-0.274 1.1181l-0.441 0.8533zm5.01-1.0731c-0.321-0.4869-0.477-0.8853-0.347-0.8853 0.131 0 0.324 0.1394 0.429 0.3098 0.127 0.2053 0.263 0.1159 0.404-0.2646 0.117-0.3159 0.348-0.5744 0.514-0.5744 0.184 0 0.226 0.1799 0.108 0.463-0.107 0.2545-0.268 0.7721-0.359 1.1499l-0.166 0.6869zm-7.466-0.6869c0.01-0.3276 0.08-0.4416 0.158-0.2535 0.105 0.2625 0.223 0.2702 0.508 0.034 0.452-0.3749 0.499 0.053 0.05 0.4977-0.483 0.4826-0.743 0.3821-0.72-0.2778zm-4.783 0.1984c0-0.073 0.06-0.1323 0.132-0.1323 0.07 0 0.132 0.06 0.132 0.1323 0 0.073-0.06 0.1323-0.132 0.1323-0.07 0-0.132-0.059-0.132-0.1323zm16.205-1.3848c-0.327-0.2196-0.595-0.5186-0.595-0.6641 0-0.1479 0.175-0.1193 0.397 0.065 0.337 0.2794 0.401 0.214 0.421-0.4308l0.02-0.7599 0.255 0.8843c0.337 1.1713 0.217 1.388-0.501 0.9059zm-7.499-1.1777c-0.284-0.5328-0.275-0.5701 0.07-0.2881 0.302 0.2487 0.466 0.2519 0.705 0.013 0.206-0.2061 0.311-0.2151 0.311-0.026 0 0.1566-0.17 0.4262-0.378 0.599-0.304 0.2524-0.442 0.1939-0.705-0.2982zm-14.318-0.3071c0.285-0.3136 0.657-0.838 0.825-1.1653 0.169-0.3272 0.43-0.5953 0.581-0.5953 0.15 0 0.03 0.3458-0.274 0.7684-0.714 1.0025-0.696 1.0837 0.246 1.0837 1.363 0 0.866 0.3948-0.551 0.4376l-1.345 0.041zm-5.501 0.1786c0-0.1315 0.605-0.83 1.344-1.5523 0.739-0.7221 1.522-1.6513 1.739-2.0651 0.218-0.4138 0.457-0.6906 0.533-0.6152 0.289 0.2892-0.28 1.36-1.331 2.5019-0.969 1.0536-1.019 1.1655-0.433 0.979 1.46-0.4652 2.473-0.6075 2.983-0.4189 0.396 0.1466-0.01 0.3123-1.554 0.6329-1.15 0.2389-2.358 0.5115-2.686 0.6057-0.327 0.094-0.595 0.064-0.595-0.068zm30.163-0.6163c0-0.1455 0.126-0.2645 0.28-0.2645s0.207 0.119 0.117 0.2645c-0.09 0.1456-0.216 0.2646-0.281 0.2646-0.06 0-0.116-0.119-0.116-0.2646zm-5.755-0.1751c-0.182-0.074-0.331-0.2572-0.331-0.4085 0-0.1725 0.14-0.1585 0.377 0.038 0.304 0.2527 0.399 0.1958 0.493-0.2984 0.103-0.5427 0.121-0.5297 0.153 0.1169 0.04 0.7253-0.06 0.8054-0.692 0.5525zm-27.847-0.6186c0-0.1939 0.08-0.2733 0.176-0.1765 0.1 0.097 0.1 0.2559 0 0.353-0.1 0.097-0.176 0.017-0.176-0.1765zm13.758-0.7938c0-0.1939 0.08-0.2733 0.176-0.1764 0.1 0.097 0.1 0.2558 0 0.3529-0.1 0.097-0.176 0.017-0.176-0.1765zm11.546-0.7127c-0.289-0.2887-0.187-0.5221 0.228-0.5221 0.218 0 0.397 0.092 0.397 0.2051 0 0.2979-0.427 0.5146-0.625 0.317zm-21.974-0.2782c-0.108-0.1084-0.872-0.2571-1.697-0.3307l-1.501-0.1339 1.548-0.8773c1.64-0.9295 2.234-0.9898 1.121-0.1141-0.731 0.5753-0.648 0.8591 0.253 0.8591 0.322 0 0.733 0.1786 0.914 0.3969 0.267 0.322 0.257 0.3969-0.06 0.3969-0.212 0-0.474-0.089-0.583-0.1969zm29.824-0.1825c0.455-0.3453 0.449-0.3831-0.125-0.7856-0.332-0.2323-0.484-0.4225-0.339-0.4225 0.146 0 0.547 0.1974 0.891 0.4387 0.598 0.4188 0.604 0.4545 0.141 0.7937-0.267 0.1953-0.612 0.3514-0.766 0.3466-0.154-0.01-0.06-0.1714 0.198-0.3709zm-21.579-0.068c-0.255-0.067-0.463-0.2169-0.463-0.3339 0-0.1169 0.208-0.3704 0.463-0.563 0.395-0.299 0.414-0.2956 0.13 0.024-0.274 0.3066-0.226 0.4329 0.264 0.7054 0.602 0.3339 0.464 0.3926-0.394 0.1685zm6.747 0.01c-0.526-0.2122-0.384-0.8372 0.265-1.1695 0.566-0.2897 0.573-0.2815 0.143 0.1683-0.425 0.4461-0.425 0.4929 0 0.8162 0.448 0.3405 0.227 0.4411-0.408 0.185zm3.274-0.036c-0.07-0.1162-0.02-0.3839 0.113-0.5953 0.19-0.3001 0.244-0.2538 0.247 0.2111 0 0.612-0.13 0.7556-0.36 0.3842zm-6.663-1.1372c-0.1-0.1596 0.04-0.4868 0.301-0.7276 0.446-0.4075 0.457-0.4072 0.148 0.01-0.274 0.3662-0.249 0.4892 0.147 0.7196 0.429 0.2495 0.432 0.2787 0.03 0.2861-0.246 0.01-0.528-0.1225-0.626-0.2821zm15.494-1.1816c0-0.2268 0.119-0.339 0.264-0.249 0.146 0.09 0.265 0.2754 0.265 0.4125 0 0.137-0.119 0.2489-0.265 0.2489-0.145 0-0.264-0.1857-0.264-0.4124zm-3.704-0.097c0-0.1254 0.178-0.2966 0.396-0.3807 0.219-0.08 0.397-0.05 0.397 0.076 0 0.1254-0.178 0.2966-0.397 0.3805-0.218 0.084-0.396 0.049-0.396-0.076zm-21.313-0.5287c-0.138-0.134-0.665-0.349-1.172-0.478l-0.92-0.235 1.048-0.712c0.576-0.392 1.14-0.712 1.251-0.712 0.434 0 0.17 0.426-0.522 0.847l-0.726 0.44 0.726 0.276c0.399 0.151 0.725 0.398 0.725 0.547 0 0.3345-0.09 0.3403-0.41 0.03zm3.722-0.01c-0.09-0.142-0.63-0.399-1.206-0.571-1.314-0.394-1.332-0.689-0.05-0.897 0.546-0.09 1.26-0.27 1.587-0.403 0.351-0.142 0.596-0.144 0.596 0 0 0.131-0.437 0.383-0.971 0.559l-0.971 0.321 0.706 0.37c0.389 0.203 0.707 0.485 0.707 0.626 0 0.3288-0.189 0.3282-0.393 0zm11.77-0.272c0-0.194 0.08-0.274 0.176-0.177 0.1 0.1 0.1 0.256 0 0.353-0.1 0.1-0.176 0.02-0.176-0.176zm3.175 0.03c0-0.146 0.119-0.338 0.264-0.428 0.146-0.09 0.265-0.05 0.265 0.101 0 0.145-0.119 0.338-0.265 0.428-0.145 0.09-0.264 0.04-0.264-0.101zm-6.262-0.737c0.1-0.1 0.256-0.1 0.353 0 0.1 0.1 0.02 0.177-0.177 0.177-0.194 0-0.273-0.08-0.176-0.177zm-5.711-1.288c-0.618-0.826-0.589-0.922 0.265-0.886 0.448 0.02 0.549 0.08 0.264 0.152-0.541 0.141-0.585 0.383-0.149 0.818 0.172 0.173 0.261 0.363 0.198 0.424-0.06 0.06-0.323-0.168-0.578-0.508zm3.758-0.675c-0.362-0.678-0.297-0.737 0.542-0.49 0.478 0.142 0.525 0.203 0.17 0.222-0.323 0.02-0.439 0.162-0.339 0.423 0.226 0.588-0.03 0.481-0.373-0.155zm-8.523-0.618c-0.236-0.495-0.87-1.237-1.408-1.65-1.282-0.984-2.031-1.698-1.909-1.82 0.05-0.05 0.903 0.194 1.886 0.551 0.984 0.357 2.207 0.649 2.718 0.649 0.622 0 0.869 0.1 0.746 0.298-0.119 0.192-0.687 0.246-1.596 0.153l-1.411-0.146 0.662 0.708c0.634 0.677 1.103 1.793 0.857 2.039-0.06 0.06-0.31-0.288-0.545-0.782zm13.064 0.442c-0.03-0.636 0.382-0.761 1.028-0.309 0.314 0.22 0.277 0.244-0.177 0.117-0.415-0.116-0.608-0.03-0.697 0.314-0.1 0.37-0.13 0.343-0.154-0.122zm4.997-0.01c0-0.407 0.117-0.52 0.419-0.404 0.23 0.09 0.319 0.234 0.198 0.325-0.121 0.09-0.31 0.273-0.419 0.404-0.109 0.132-0.198-0.02-0.198-0.325zm2.91-0.719c0-0.23 0.826-0.9 1.125-0.913 0.109 0 0.196 0.26 0.194 0.587 0 0.46-0.06 0.509-0.245 0.216-0.199-0.315-0.311-0.321-0.657-0.03-0.229 0.19-0.417 0.255-0.417 0.144zm-17.462-1.806c-0.364-0.729-0.825-1.488-1.024-1.688-0.521-0.522-0.129-0.769 0.427-0.269 0.255 0.231 1 0.725 1.655 1.098 1.125 0.642 0.863 1.025-0.282 0.412-0.581-0.312-0.633-0.183-0.231 0.569 0.155 0.289 0.244 0.678 0.199 0.864-0.05 0.187-0.381-0.257-0.744-0.986zm10.327 0.208c0-0.154 0.167-0.511 0.383-0.794 0.339-0.444 0.428-0.46 0.658-0.117 0.146 0.219 0.265 0.516 0.265 0.662 0 0.145-0.112 0.09-0.25-0.131-0.215-0.34-0.307-0.321-0.649 0.132-0.219 0.29-0.403 0.402-0.407 0.248zm-3.02-1.043c0.1-0.437 0.263-1.027 0.365-1.313 0.178-0.498 0.2-0.494 0.512 0.09 0.178 0.334 0.256 0.677 0.171 0.762-0.08 0.08-0.153 0.01-0.153-0.155 0-0.17-0.119-0.309-0.265-0.309s-0.266 0.208-0.269 0.463c0 0.255-0.124 0.642-0.272 0.86-0.196 0.289-0.22 0.182-0.09-0.397zm8.339-0.198c-0.04-0.843-0.205-0.896-0.877-0.289-0.267 0.242-0.551 0.374-0.631 0.294s0.219-0.406 0.664-0.723c0.681-0.485 0.834-0.514 0.962-0.18 0.08 0.218 0.1 0.673 0.03 1.011-0.105 0.55-0.121 0.539-0.153-0.113zm4.462-0.214c0-0.07 0.11-0.506 0.246-0.978 0.226-0.788 0.206-0.836-0.247-0.594-0.272 0.145-0.71 0.259-0.974 0.254-0.34 0-0.249-0.133 0.313-0.429 0.437-0.231 1.062-0.663 1.389-0.962 0.711-0.649 0.714-0.636 0.164 1.023-0.366 1.103-0.891 2.098-0.891 1.686zm-16.182-2.102c-0.05-0.873-0.03-1.588 0.05-1.587 0.08 0 0.437 0.338 0.799 0.751 0.363 0.414 0.836 0.814 1.051 0.89 0.216 0.08 0.321 0.216 0.234 0.311-0.09 0.09-0.463-0.07-0.835-0.361-0.937-0.737-1.022-0.683-0.828 0.526 0.106 0.664 0.07 1.058-0.106 1.058-0.151 0-0.315-0.715-0.364-1.588zm-3.606-0.02c-0.178-0.572-0.751-1.633-1.271-2.358-0.521-0.725-0.907-1.432-0.858-1.57 0.05-0.139 0.794 0.33 1.655 1.042 0.862 0.712 1.874 1.337 2.249 1.39 0.572 0.08 0.608 0.129 0.221 0.305-0.298 0.136-0.838 0.01-1.527-0.345l-1.067-0.556 0.409 0.791c0.661 1.276 0.921 2.09 0.71 2.22-0.108 0.07-0.342-0.347-0.521-0.919zm8.18-0.771c0-0.219 0.151-0.992 0.347-1.72 0.288-1.062 0.397-1.219 0.553-0.794 0.108 0.291 0.411 1.035 0.675 1.654 0.263 0.618 0.36 1.124 0.215 1.124-0.144 0-0.423-0.384-0.621-0.853l-0.359-0.854-0.4 0.92c-0.221 0.506-0.405 0.741-0.41 0.523zm6.708-0.816-0.179-0.815-0.586 0.551c-0.797 0.747-1.184 0.702-0.472-0.06 0.313-0.334 0.718-1.018 0.898-1.521l0.328-0.915 0.179 1.323c0.1 0.727 0.263 1.531 0.367 1.786 0.107 0.262 0.07 0.463-0.08 0.463-0.149 0-0.352-0.367-0.451-0.816zm4.287-0.1c-0.113-0.284-0.123-1.174-0.02-1.977l0.183-1.461-0.929 0.985c-0.511 0.542-1.094 0.984-1.295 0.981-0.231 0-0.264-0.08-0.09-0.198 0.325-0.229 2.544-3.132 2.978-3.899l0.3-0.529v0.529c0 0.291-0.109 0.946-0.25 1.456-0.142 0.509-0.352 1.759-0.467 2.778-0.147 1.3-0.271 1.698-0.415 1.335zm-14.726-1.997c-0.01-0.8-0.195-2.164-0.402-3.031s-0.322-1.631-0.255-1.698c0.158-0.158 0.154-0.164 1.176 1.687 0.482 0.873 1.162 1.974 1.512 2.447 0.349 0.473 0.53 0.86 0.403 0.86-0.381 0-1.326-1.13-1.769-2.119l-0.416-0.924 0.156 1.455c0.09 0.801 0.03 1.753-0.111 2.117-0.23 0.57-0.271 0.459-0.294-0.794zm6.389-2.256c0.286-1.306 0.587-2.672 0.668-3.035 0.11-0.495 0.267-0.127 0.619 1.455 0.26 1.164 0.599 2.444 0.754 2.844 0.154 0.4 0.178 0.728 0.05 0.728-0.29 0-1.074-1.934-1.102-2.718-0.02-0.56-0.03-0.556-0.241 0.07-0.121 0.364-0.285 0.959-0.364 1.323-0.08 0.364-0.316 0.896-0.526 1.183-0.297 0.406-0.266 0 0.14-1.852zm10.537 38.637c0-0.073-0.06-0.1323-0.132-0.1323-0.07 0-0.132 0.06-0.132 0.1323 0 0.073 0.06 0.1323 0.132 0.1323 0.07 0 0.132-0.059 0.132-0.1323zm-0.495-1.2623c-0.44-0.4405-0.69 0-0.28 0.4911 0.248 0.2989 0.392 0.3346 0.465 0.1156 0.06-0.1741-0.02-0.4472-0.185-0.6067zm-21.315-1.963c-0.209-0.5445-0.299-0.4201-0.515 0.7118-0.174 0.912-0.17 0.9168 0.25 0.3185 0.235-0.3341 0.354-0.7977 0.265-1.0303zm-4.119-2.0664c0-0.073-0.06-0.1322-0.132-0.1322-0.07 0-0.132 0.059-0.132 0.1322 0 0.073 0.06 0.1323 0.132 0.1323 0.07 0 0.132-0.059 0.132-0.1323zm32.751-1.184c-0.221-0.354-0.413-0.4357-0.595-0.2534s-0.142 0.3492 0.125 0.5183c0.635 0.4016 0.821 0.2968 0.47-0.2649zm-35.282-1.8301c0.08-0.1283-0.02-0.3696-0.221-0.5363-0.292-0.2421-0.422-0.1413-0.646 0.5017-0.259 0.7453-0.243 0.7847 0.221 0.5363 0.276-0.1477 0.567-0.3734 0.646-0.5017zm38.617-5.8459c0.754-0.7364 0.888-2.8763 0.232-3.6865-0.636-0.7855-1.121-0.5371-1.151 0.5898l-0.02 0.8443-0.223-0.7446c-0.373-1.2411-0.753-1.5044-2.173-1.5044-1.124 0-1.294 0.066-1.149 0.4419 0.09 0.2431 0.288 0.9726 0.433 1.6211 0.294 1.3104 0.637 2.0648 1.265 2.7842 0.516 0.5908 2.022 0.4042 2.789-0.3458zm4.834-1.128c-0.148-0.5757-0.136-0.5736 0.369 0.066 0.415 0.526 0.484 0.553 0.337 0.1323-0.165-0.4723-0.136-0.4895 0.268-0.1606 0.896 0.7292 0.73 0.041-0.339-1.4063-1.124-1.5221-1.594-1.8169-1.614-1.0128 0 0.2548-0.172 0.9109-0.367 1.4581-0.196 0.5498-0.25 1.0602-0.121 1.1401 0.129 0.08 0.238-0.011 0.243-0.2014 0-0.2137 0.111-0.169 0.277 0.1167 0.41 0.703 1.135 0.6017 0.947-0.1323zm-4.035-4.7122c0.623-1.1636 0.426-2.1577-0.511-2.5847-1.219-0.5556-1.898-0.3826-2.677 0.6824-0.4 0.5458-1.022 1.3184-1.383 1.7171-0.362 0.3985-0.589 0.7932-0.505 0.8771 0.288 0.2887 2.3-0.4263 3.104-1.1033 0.883-0.743 1.131-0.4781 0.277 0.295-0.823 0.744-0.679 1.2385 0.331 1.1411 0.674-0.065 0.968-0.2854 1.364-1.0247zm-5.033-4.8527c0.559-1.178 0.544-2.615-0.04-3.266-0.408-0.459-0.687-0.501-2.36-0.359-1.044 0.09-1.974 0.238-2.067 0.332-0.09 0.09-0.09 0.594 0 1.112 0.151 0.807 0.34 1.004 1.32 1.378 0.63 0.24 1.412 0.722 1.739 1.07 0.775 0.825 0.891 0.803 1.398-0.267zm-1.662-1.58c-0.434-0.524-0.07-1.224 0.634-1.224 0.333 0 0.679 0.193 0.77 0.43 0.186 0.483-0.263 1.157-0.77 1.157-0.182 0-0.468-0.163-0.634-0.363zm6.054 0.268c0-1.299-0.283-1.82-1.033-1.934-0.77-0.118-0.689 0.402 0.111 0.706 0.831 0.316 0.903 1.309 0.111 1.517-0.409 0.106-0.512 0.288-0.4 0.702 0.08 0.308 0.155 0.738 0.162 0.956 0 0.281 0.165 0.214 0.533-0.228 0.335-0.402 0.519-1.014 0.516-1.719zm0.04-2.752c-0.137-0.256-0.498-0.692-0.803-0.967-0.551-0.498-0.554-0.497-0.554 0.314 0 0.785 0.245 0.996 1.266 1.088 0.244 0.02 0.27-0.101 0.09-0.435zm-5.494-0.309 1.288-0.02-0.462-0.728c-0.575-0.907-1.75-2.182-2.01-2.182-0.438 0-1.879 1.453-2.343 2.364l-0.498 0.975 1.369-0.195c0.753-0.107 1.948-0.204 2.656-0.215zm-27.084-14.439c0-0.07-0.06-0.132-0.132-0.132-0.07 0-0.132 0.06-0.132 0.132 0 0.07 0.06 0.133 0.132 0.133 0.07 0 0.132-0.06 0.132-0.133z" fill="#8c8c8c"/>
    <path d="m-537.55-73.482c-0.762-2.3612-1.309-3.32-1.946-3.411-0.486-0.069-0.607 0.08-0.75 0.926-0.405 2.4008-0.778 2.5932-1.057 0.5456-0.192-1.4071-0.442-1.7746-1.214-1.782-0.422 0-1.584 2.2225-1.964 3.7645-0.286 1.161-0.559 0.6302-0.743-1.4446-0.239-2.6916-0.375-3.0438-1.297-3.3655-0.444-0.1548-0.853-0.2813-0.909-0.2813-0.06 0-0.332 0.5358-0.613 1.1907-0.285 0.6651-0.688 1.1906-0.912 1.1906-0.333 0-0.375-0.2683-0.241-1.5478 0.154-1.4687 0.13-1.5563-0.467-1.7129-0.784-0.2056-1.484 0.454-2.619 2.4669l-0.821 1.4552 0.16-1.852c0.09-1.0187 0.223-2.1778 0.301-2.5763 0.113-0.5789-0.03-0.8834-0.731-1.5213-0.48-0.4385-1.015-0.7972-1.188-0.7972-0.347 0-1.684 1.4859-1.684 1.8724 0 0.1344-0.171 0.2442-0.38 0.2442-0.311 0-0.281-0.2892 0.166-1.6142l0.545-1.6145-0.659-0.6596c-0.628-0.6273-0.698-0.6397-1.443-0.2548-0.43 0.2225-1.205 0.8724-1.721 1.4439-0.921 1.0189-1.743 1.6922-1.488 1.2189 0.4-0.7451 1.153-2.5133 1.555-3.655 0.792-2.2494-0.194-3.2432-1.841-1.8568-0.463 0.3895-0.923 0.6271-1.021 0.5284-0.1-0.099-0.05-0.2625 0.1-0.3636 0.152-0.1013 0.583-0.6405 0.958-1.1983l0.68-1.0141-0.568-1.2949c-0.313-0.712-0.708-1.2972-0.878-1.3007-0.17 0-0.506 0.5856-0.746 1.3087-0.497 1.4962-1.531 2.5021-2.988 2.9067-1.459 0.4053-1.716 0.3471-1.116-0.253 0.633-0.6326 0.658-1.2464 0.135-3.2562-0.728-2.7935-3.23-6.9834-5.321-8.9114-1.234-1.1371-1.447-1.2121-2.24-0.7881-0.84 0.45-0.575-0.1 0.35-0.721 1.205-0.814 2.179-1.14 3.407-1.14 1.293 0 1.679 0.197 4.222 2.157 1.104 0.8509 2.203 1.5472 2.441 1.5472 0.472 0 1.146-0.8903 1.285-1.6962 0.07-0.383-0.262-0.679-1.355-1.225l-1.442-0.719 1.547 0.03c1.956 0.04 2.127-0.342 0.626-1.416-1.975-1.413-2.158-1.607-1.829-1.937 0.221-0.221 0.519-0.207 1.154 0.05 1.717 0.704 2.276 0.683 2.574-0.1 0.334-0.88 0.221-1.071-1.007-1.709l-0.975-0.506 1.155 0.151c1.101 0.143 1.141 0.125 0.863-0.393-0.16-0.299-0.971-1.15-1.802-1.891-1.716-1.53-1.386-1.805 0.821-0.685 1.332 0.676 2.393 0.826 3.021 0.428 0.275-0.175 0.165-0.441-0.49-1.187-0.972-1.107-0.9-1.164 0.544-0.428 0.576 0.294 1.047 0.46 1.047 0.368 0-0.09-0.595-0.818-1.323-1.614-0.727-0.796-1.322-1.561-1.322-1.699 0-0.66 0.901-0.442 2.327 0.564 1.856 1.309 2.587 1.322 2.528 0.04-0.03-0.554-0.432-1.376-1.149-2.326-0.61-0.807-1.04-1.536-0.956-1.62 0.08-0.08 0.739 0.397 1.456 1.068 2.32 2.17 4.023 1.895 2.799-0.452-0.546-1.046-0.366-1.099 0.538-0.156 0.808 0.844 1.452 1.029 1.452 0.418 0-0.206-0.236-1.128-0.525-2.051-0.624-1.989-0.65-2.339-0.176-2.339 0.196 0 0.562 0.456 0.813 1.013 0.251 0.556 0.722 1.345 1.047 1.752 0.555 0.696 0.617 0.714 1.039 0.292 0.586-0.586 0.565-1.298-0.1-3.451-0.301-0.975-0.484-1.836-0.407-1.913 0.08-0.08 0.621 0.629 1.211 1.57 1.116 1.779 2.042 2.515 2.798 2.225 0.356-0.136 0.407-0.367 0.259-1.16-0.208-1.114-0.03-1.043 0.613 0.246 0.242 0.484 0.663 0.922 0.936 0.973 0.464 0.09 0.484-0.04 0.306-1.948-0.242-2.576 0.177-2.589 1.12-0.04 0.487 1.316 0.774 1.764 1.089 1.699 0.338-0.07 0.413-0.367 0.357-1.402l-0.07-1.314 0.535 1.156c0.443 0.956 0.602 1.101 0.918 0.839 0.473-0.393 0.848-1.569 1.077-3.383 0.168-1.332 0.646-2.201 0.664-1.207 0.02 1.378 0.512 4.119 0.793 4.457 0.492 0.594 0.692 0.477 1.152-0.671 0.233-0.582 0.454-1.059 0.491-1.059 0.04 0 0.07 0.563 0.07 1.251 0 0.96 0.103 1.272 0.443 1.339 0.33 0.06 0.535-0.238 0.803-1.185 0.518-1.834 1.098-1.702 1.267 0.288 0.203 2.392 1.347 2.791 1.854 0.647l0.209-0.884 0.03 0.926c0.04 1.326 0.299 2.116 0.682 2.116 0.494 0 2.473-2.245 2.669-3.027 0.176-0.702 0.642-0.94 0.642-0.327 0 0.192-0.187 0.898-0.416 1.568-0.45 1.322-0.424 2.878 0.05 3.034 0.163 0.05 0.669-0.216 1.124-0.599 0.898-0.755 1.164-0.507 0.298 0.278-0.54 0.488-0.728 1.455-0.284 1.455 0.135 0 0.494-0.316 0.797-0.702 0.733-0.931 0.972-0.622 0.483 0.625-0.642 1.636-0.163 2.068 1.398 1.261 0.979-0.506 1-0.29 0.05 0.53-0.554 0.48-0.654 0.705-0.42 0.942 0.367 0.374 2.223-0.177 3.974-1.178 0.608-0.348 1.169-0.57 1.246-0.493 0.08 0.08-0.436 0.809-1.139 1.628-2.312 2.69-2.425 3.328-0.561 3.149 1.431-0.138 1.529 0.07 0.279 0.585-1.104 0.458-1.07 1.398 0.09 2.481 0.489 0.456 1.219 1.334 1.622 1.952 0.632 0.969 0.683 1.182 0.37 1.558-0.476 0.574-0.319 1.621 0.349 2.316 0.708 0.739 2.022 3.6562 2.229 4.9524 0.122 0.7615 0.291 1.0308 0.648 1.0308 0.317 0 0.661 0.4025 1 1.1684 0.568 1.2835 1.573 2.1114 2.248 1.8521 0.704-0.2701 0.518 0.5379-0.333 1.4494-0.667 0.7141-0.947 0.8218-2.134 0.8218-0.751 0-1.611-0.131-1.91-0.291-0.476-0.2546-0.737-0.099-2.099 1.2485-0.856 0.8467-1.556 1.651-1.556 1.7873 0 0.1365 0.304 0.6461 0.675 1.1329 0.804 1.0549 0.655 1.1192-0.519 0.2233-0.477-0.3638-1.005-0.6614-1.173-0.6614-0.385 0-0.394 0.6636-0.02 1.3628 0.373 0.6983 0.09 0.9528-0.584 0.5303-0.415-0.2591-0.624-0.2646-0.914-0.024-0.655 0.5445-0.414 1.2215 0.982 2.7487 0.747 0.817 1.308 1.5357 1.247 1.5965-0.06 0.061-0.701-0.1802-1.424-0.5352-1.932-0.9504-2.798-1.0597-3.553-0.4483l-0.632 0.5123 0.861 1.5264c0.64 1.1348 0.785 1.6028 0.562 1.8245-0.222 0.2217-0.596-0.042-1.453-1.0244l-1.153-1.323-0.953 0.5067c-1.704 0.9062-1.708 0.9425-0.541 4.9173 0.146 0.4979-0.141 0.2921-1.161-0.8332-1.323-1.4599-2.586-2.1995-3.155-1.8478-0.199 0.123-0.204 0.5524-0.01 1.4398 0.521 2.4432-0.354 2.743-1.247 0.4271-0.437-1.1316-0.662-1.4163-1.064-1.3465-0.798 0.1381-0.907 0.3524-1.39 2.739l-0.454 2.2421-0.476-1.4764zm0.735-1.7455c0.193-1.0263 0.04-1.4507-0.512-1.4507-0.598 0-0.715 0.4749-0.361 1.4568 0.424 1.17 0.653 1.1684 0.873-0.01zm-7.362-0.6588c0.288-0.9771 0.137-1.321-0.58-1.321-0.06 0-0.111 0.6151-0.111 1.3671 0 1.5179 0.233 1.5023 0.691-0.046zm10.703-0.9562c-0.338-1.8272-0.374-5.4806-0.05-5.2816 0.126 0.078 0.171 0.4411 0.102 0.807-0.07 0.3659-0.05 1.2152 0.06 1.8875 0.175 1.1666 0.216 1.2152 0.922 1.074 0.406-0.081 1.439-0.481 2.294-0.8888 1.147-0.5463 1.579-0.9017 1.643-1.3517 0.112-0.7959-0.597-1.8585-1.46-2.1868-0.377-0.1429-0.62-0.3252-0.54-0.4046 0.426-0.4262 4.089 2.6027 5.311 4.3927 0.248 0.3638-0.02-0.2316-0.591-1.323-0.966-1.8362-2.006-4.7252-1.783-4.9485 0.05-0.053 0.364 0.6226 0.693 1.5002 0.328 0.8779 0.691 1.5963 0.808 1.5963 0.389 0 2.899-3.0105 2.899-3.4775 0-0.2537-0.265-0.6466-0.588-0.8731-0.831-0.5821-0.116-0.512 1.099 0.1077l1.019 0.5199-0.512-1.3462c-0.281-0.7406-0.45-1.4081-0.374-1.4838 0.126-0.1262 0.192 0.013 0.53 1.1081 0.18 0.5816 3.629-2.7691 4.536-4.4061 0.683-1.2335 0.772-1.6526 0.772-3.6428 0-1.9809-0.101-2.4617-0.846-4.0349-0.89-1.8789-1.424-2.2059-1.961-1.2019-0.262 0.489-0.235 0.628 0.166 0.8598 1.483 0.8559 1.85 2.1505 1.045 3.6933-0.307 0.5882-0.361 1.2219-0.23 2.6686 0.197 2.1791-0.03 2.8117-1.3 3.5846-0.893 0.5445-2.684 0.6961-2.96 0.2506-0.263-0.4266-1.163 0.1968-1.348 0.9345-0.09 0.3595-0.262 0.6537-0.381 0.6537-0.219 0-0.03-0.7818 0.545-2.2489 0.256-0.6541 0.225-1.0496-0.178-2.2479-0.269-0.7998-0.668-1.4859-0.886-1.5245-0.218-0.039-0.695 0.3701-1.058 0.9085-0.756 1.1171-1.574 1.9378-1.933 1.9378-0.135 0 0.196-0.4886 0.736-1.0861 2.145-2.3743 3.087-5.7806 2.117-7.6557-0.436-0.8433-1.944-1.7313-3.831-2.2563-0.992-0.276-1.065-0.336-0.435-0.355 0.576-0.02 0.718-0.124 0.596-0.442-0.09-0.231-0.161-0.66-0.161-0.955 0-0.367-0.125-0.488-0.397-0.383-0.502 0.192-0.514-0.362-0.03-1.515 0.42-1.005 2.596-3.247 3.846-3.965 0.838-0.48 0.848-0.48 0.534 0.02-0.276 0.442-0.114 0.809 1.208 2.738 1.028 1.5 1.407 2.251 1.16 2.299-0.275 0.06-0.344 0.466-0.276 1.658 0.07 1.278-0.03 1.777-0.503 2.574-0.599 0.9965-0.978 3.7659-0.517 3.7659 0.128 0 0.498-0.3871 0.822-0.8599s0.926-1.2216 1.339-1.6637c0.673-0.7233 0.722-0.8963 0.487-1.7183-0.145-0.503-0.265-2.105-0.268-3.562 0-2.542-0.269-3.737-1.446-6.553-0.15-0.358-0.1-0.428 0.231-0.302 0.254 0.1 0.427 0.03 0.427-0.171 0-0.183 0.303-0.732 0.675-1.219 0.729-0.956 0.625-1.08-0.411-0.488-1.146 0.656-2.27 0.502-2.91-0.396-0.311-0.437-0.668-0.794-0.793-0.794s-0.374 0.684-0.553 1.521c-0.359 1.676-0.874 2.594-0.627 1.116 0.212-1.268 0.605-3 0.817-3.595 0.126-0.355-0.08-0.259-0.723 0.333-0.854 0.789-2.348 1.684-2.804 1.682-0.117 0 0.205-0.251 0.714-0.557 1.056-0.633 2.117-1.558 2.117-1.844 0-0.106-0.566-0.528-1.257-0.937-0.901-0.533-1.125-0.771-0.791-0.839 0.257-0.05 0.413-0.182 0.348-0.288-0.07-0.106-0.02-0.648 0.108-1.205l0.228-1.011-0.983 0.96c-1.13 1.104-1.515 1.16-2.945 0.43-0.57-0.291-1.111-0.529-1.202-0.529-0.09 0-0.125 0.834-0.08 1.853 0.06 1.353 0 1.853-0.243 1.852-0.244 0-0.336-0.782-0.349-2.977-0.02-3.047-0.05-3.072-0.902-0.666-0.244 0.689-0.669 1.522-0.946 1.852-0.459 0.549-0.454 0.484 0.06-0.759 0.679-1.642 0.529-2.213-0.58-2.213-1.269 0-2.109-1.012-2.131-2.568-0.02-1.406-0.345-1.017-0.633 0.755-0.193 1.19-0.609 1.555-1.984 1.739-0.588 0.08-1.069 0.228-1.069 0.332s0.242 0.891 0.537 1.75c0.423 1.229 0.451 1.475 0.131 1.155-0.223-0.223-0.811-1.592-1.306-3.041l-0.9-2.636 0.02 2.382c0.02 1.82-0.09 2.568-0.438 3.175-0.255 0.436-0.406 0.6-0.335 0.364 0.07-0.236 0.21-0.976 0.31-1.646l0.183-1.216-1.46 0.04c-1.669 0.04-2.552-0.403-3.401-1.722-0.3-0.465-0.458-0.607-0.353-0.316 0.106 0.291 0.252 1.079 0.323 1.751 0.115 1.071 0.05 1.282-0.526 1.716-0.62 0.468-0.634 0.532-0.246 1.16 0.225 0.365 0.715 1.017 1.089 1.448l0.679 0.783-0.901-0.666c-0.505-0.373-1.435-1.608-2.117-2.812-1.616-2.856-1.745-2.923-0.845-0.444 0.829 2.282 1.296 4.869 0.879 4.869-0.141 0-0.313-0.598-0.383-1.329s-0.201-1.401-0.29-1.49c-0.09-0.09-0.586 0.211-1.105 0.667-0.984 0.864-2.152 1.085-2.721 0.516-0.491-0.491-0.607-0.129-0.257 0.799 0.251 0.666 0.25 0.96 0 1.368-0.448 0.718-0.465 0.694 0.872 1.205 0.658 0.251 1.141 0.513 1.073 0.581-0.285 0.285-2.623-0.773-4.482-2.028-1.098-0.741-2.089-1.347-2.201-1.347s0.638 0.863 1.666 1.918c2.205 2.262 3.012 3.294 3.012 3.852 0 0.326-0.119 0.298-0.595-0.138-0.857-0.784-1.654-0.952-2.707-0.571-0.774 0.28-1.137 0.265-2.247-0.09l-1.324-0.423 0.888 1.099c1.143 1.416 1.202 1.646 0.811 3.134-0.179 0.683-0.259 1.308-0.178 1.389 0.08 0.08 0.665 0.148 1.295 0.148 0.683 0 1.147 0.123 1.147 0.303 0 0.444-2.825 0.09-4.471-0.556-0.742-0.293-1.35-0.476-1.35-0.408 0 0.07 0.506 0.438 1.124 0.821 1.252 0.773 3.272 2.622 3.679 3.366 0.233 0.426 0.201 0.449-0.27 0.197-0.294-0.157-0.608-0.404-0.697-0.549-0.244-0.394-1.186-0.317-1.351 0.111-0.08 0.206-0.238 1.188-0.353 2.183-0.116 0.9946-0.226 1.4769-0.245 1.0716-0.03-0.6432-0.1-0.7022-0.547-0.463-1.049 0.5614-1.767 0.295-3.616-1.3423-1.004-0.8893-2.101-1.7223-2.438-1.8523-0.823-0.317-2.348-0.298-2.974 0.04-0.431 0.23-0.459 0.352-0.183 0.793 0.179 0.287 0.624 0.53 0.989 0.54 0.569 0.02 0.592 0.05 0.163 0.216-0.461 0.18-0.439 0.245 0.265 0.7987 0.421 0.3315 0.752 0.681 0.736 0.777-0.02 0.096 0.266 0.5615 0.627 1.0343 0.473 0.6197 0.887 0.871 1.484 0.8996 0.8 0.038 0.804 0.043 0.101 0.1497-1.006 0.1524-0.915 0.5964 0.132 0.6403 0.622 0.026 0.696 0.068 0.265 0.1508-0.327 0.063-0.595 0.1707-0.595 0.2395 0 0.2992 1.659 3.2779 1.826 3.2779 0.101 0 0.354-0.1489 0.561-0.3307 0.207-0.182 0.16-0.071-0.104 0.2468-0.353 0.4239-0.433 0.7967-0.3 1.4018 0.158 0.7191 0.237 0.7811 0.62 0.4852 0.383-0.2955 0.381-0.2704-0.01 0.1974-0.33 0.3892-0.4 0.7411-0.255 1.283l0.199 0.7464 0.89-0.7491c0.49-0.4119 1.169-1.3782 1.509-2.147 0.34-0.7692 0.752-1.3984 0.916-1.3984 0.196 0 0.238-0.314 0.123-0.926-0.108-0.5787-0.07-0.9261 0.103-0.9261 0.152 0 0.277 0.2382 0.277 0.5292 0 0.8504 0.476 0.6125 1.058-0.5292 0.297-0.582 0.594-1.0583 0.66-1.0583 0.183 0-0.325 1.234-0.816 1.9828-0.413 0.6313-0.409 0.663 0.09 0.663 0.29 0 0.691 0.2009 0.89 0.4464 0.324 0.3971 0.305 0.4231-0.166 0.2347-1.714-0.6866-1.802-0.4747-0.692 1.6698l0.738 1.4247 1.23-1.9539c0.773-1.2282 1.232-1.7558 1.234-1.42 0 0.2937-0.294 0.9718-0.657 1.5073-0.364 0.5353-0.662 1.0351-0.662 1.1102 0 0.075 0.566-0.094 1.257-0.376s1.02-0.3669 0.731-0.1889c-0.289 0.1781-0.988 0.7705-1.553 1.3163l-1.027 0.9922 0.734 0.9922c0.973 1.3158 2.29 2.7117 2.559 2.7117 0.265 0 1.179-1.9669 1.398-3.0078 0.09-0.4172 0.219-0.7003 0.29-0.6286 0.189 0.1886-0.664 3.8079-1.262 5.3562l-0.511 1.3229 1.933-2.0505c1.063-1.1279 2.106-2.0508 2.316-2.0505 0.245 0 0.09 0.3085-0.431 0.8599-1.585 1.6748-1.578 1.8544 0.123 3.0414 2.678 1.8695 3.207 1.7007 3.259-1.0396l0.03-1.4065 0.259 1.0583c0.143 0.5821 0.205 2.1 0.139 3.3735-0.07 1.2731-0.09 2.3151-0.05 2.3151s0.386-0.7874 0.771-1.75c0.628-1.5679 2.002-3.9545 2.002-3.4766 0 0.1032-0.321 0.8419-0.713 1.6415-0.393 0.7995-0.633 1.5335-0.536 1.6311 0.1 0.098 1.154 0.4606 2.348 0.8062 1.708 0.4948 2.217 0.5572 2.387 0.2929 0.235-0.3633 0.03-2.3276-0.355-3.3491-0.13-0.3474-0.185-0.6829-0.122-0.7456 0.202-0.2019 1.698 3.9825 1.912 5.3464l0.207 1.3229 0.325-2.2135c0.419-2.8471 0.596-3.5287 0.873-3.3575 0.123 0.076 0.07 0.8847-0.123 1.7965-0.201 0.9546-0.25 1.7582-0.116 1.8944 0.137 0.1387 1.14 0.1387 2.431 0l2.197-0.2365-0.06-0.7755c-0.03-0.4265-0.423-1.3645-0.87-2.0844-0.943-1.5166-0.908-1.9214 0.06-0.653 0.957 1.2584 1.402 2.2074 2.078 4.4363 0.676 2.2264 0.954 2.1415 0.528-0.1617zm-4.907-3.2462c-0.1-0.5672-0.526-1.7756-0.956-2.6849-0.43-0.9094-0.613-1.5135-0.407-1.342 0.207 0.1712 0.504 0.6347 0.661 1.03 0.158 0.3953 0.428 1.0761 0.6 1.5126l0.314 0.7938 0.191-0.7938c0.154-0.6397 0.197-0.5016 0.223 0.712 0.04 1.7611-0.373 2.2667-0.626 0.7723zm7.007-0.4259c0-0.073 0.06-0.1323 0.132-0.1323 0.07 0 0.132 0.059 0.132 0.1323 0 0.073-0.06 0.1323-0.132 0.1323-0.07 0-0.132-0.06-0.132-0.1323zm-13.343-1.5047c-0.1-0.7493-0.353-1.7735-0.563-2.2762-0.333-0.7988-0.333-0.8739 0-0.5956 0.211 0.1754 0.463 0.8461 0.56 1.4909 0.1 0.6448 0.266 1.2282 0.377 1.2965 0.11 0.068 0.455-0.4876 0.765-1.2354 0.311-0.7479 0.626-1.2988 0.701-1.2242 0.07 0.074-0.164 0.7776-0.53 1.5629-0.365 0.785-0.665 1.5692-0.667 1.7425 0 0.1734-0.106 0.3795-0.234 0.458-0.127 0.079-0.312-0.4701-0.411-1.2194zm12.438-0.071c-0.409-0.6974-1.163-1.7327-1.676-2.3005s-0.871-1.0941-0.796-1.1692c0.07-0.075 0.747 0.5932 1.492 1.4853 0.95 1.1367 1.364 1.4767 1.382 1.1359 0.02-0.2672 0.137-0.019 0.271 0.5546 0.373 1.592 0.146 1.6912-0.673 0.2939zm-5.419-1.1205c-0.02-0.4643 0.09-0.9178 0.238-1.0078 0.305-0.1881 0.305 0.2405 0 1.1906-0.202 0.6316-0.213 0.6234-0.238-0.1828zm5.582-1.0078c0-0.4366 0.06-0.5831 0.131-0.3257 0.07 0.2574 0.06 0.6146-0.01 0.7937-0.07 0.1792-0.127-0.031-0.122-0.468zm-18.69-0.463c0.104-0.4731 0.287-1.4552 0.406-2.1828 0.211-1.2862 0.214-1.2761 0.119 0.3627l-0.1 1.6857 1.081-1.0242c1.033-0.9785 1.024-0.9562-0.205 0.4971-0.707 0.8366-1.332 1.5214-1.389 1.5214-0.06 0-0.02-0.3871 0.09-0.8599zm24.724-1.2989c-0.655-0.5757-1.608-1.2816-2.117-1.5689-0.682-0.3847-0.752-0.4752-0.265-0.3432 0.364 0.099 1.108 0.4612 1.654 0.8057 1.148 0.7241 1.172 0.6871 0.463-0.7036-0.291-0.5704-0.523-1.1909-0.514-1.3785 0-0.1878 0.485 0.6599 1.06 1.8836 0.575 1.2234 1.015 2.2532 0.977 2.2881-0.04 0.035-0.604-0.4074-1.258-0.9832zm-6.299 0.1744c0-0.4366 0.06-0.5831 0.132-0.3257 0.07 0.2574 0.06 0.6146-0.01 0.7937-0.07 0.1792-0.127-0.031-0.122-0.468zm-10.19 0.2249c-0.1-0.099-0.18-0.4051-0.18-0.6789 0-0.2741-0.182-0.8496-0.404-1.279-0.222-0.4292-0.291-0.7805-0.153-0.7805s0.391 0.4236 0.562 0.9416c0.287 0.8702 0.338 0.9054 0.673 0.463 0.463-0.6101 0.474-0.3662 0.03 0.6861-0.192 0.4556-0.43 0.7472-0.53 0.6477zm4.965-1.0848c-0.725-0.9739-0.726-0.9808-0.06-0.3776 0.504 0.4567 0.715 0.5247 0.818 0.2646 0.08-0.1926 0.15-0.024 0.161 0.3776 0.01 0.4-0.02 0.7276-0.08 0.7276-0.05 0-0.433-0.4466-0.839-0.9922zm-9.622-0.485c0.01-0.4246 0.08-0.6143 0.161-0.4217 0.104 0.2609 0.318 0.1937 0.839-0.2635 0.617-0.5422 0.606-0.5062-0.1 0.31-0.437 0.508-0.823 0.974-0.86 1.0354-0.04 0.061-0.06-0.2358-0.04-0.6602zm15.652-0.7792c-1.568-1.6666-1.595-1.8751-0.06-0.491 0.638 0.5762 1.069 0.813 1.082 0.5953 0.01-0.1987 0.128-0.011 0.256 0.4191 0.128 0.4291 0.201 0.8128 0.161 0.8525-0.04 0.04-0.685-0.5795-1.435-1.3759zm-7.206 0.272c0-0.073 0.06-0.1323 0.132-0.1323 0.07 0 0.132 0.06 0.132 0.1323 0 0.073-0.06 0.1323-0.132 0.1323-0.07 0-0.132-0.059-0.132-0.1323zm2.116-0.1323c0-0.1939 0.08-0.2733 0.177-0.1765 0.1 0.097 0.1 0.2559 0 0.353-0.1 0.097-0.177 0.017-0.177-0.1765zm-17.96-1.9182c0.606-0.7641 1.259-1.7463 1.451-2.1828 0.283-0.6445 0.351-0.6893 0.359-0.2381 0 0.3056-0.347 1.0496-0.785 1.6536-0.671 0.9268-0.723 1.0999-0.331 1.1091 0.294 0.01 0.123 0.1985-0.461 0.5181-1.401 0.767-1.432 0.6517-0.233-0.8599zm7.116 1.2171c0-0.1675-0.629-0.4514-1.393-0.6308-0.764-0.1796-1.741-0.5053-2.172-0.7236l-0.784-0.3969 0.97-0.8244c0.533-0.4533 1.2-1.3716 1.484-2.0408 0.283-0.6691 0.855-1.4867 1.269-1.8166 0.691-0.5495 0.941-0.5871 2.974-0.4471 1.285 0.088 2.427 0.041 2.712-0.1112 0.295-0.1579 0.493-0.1643 0.493-0.016 0 0.536-1.582 0.8122-3.072 0.5365-1.779-0.3286-2.31-0.059-3.566 1.8098-0.466 0.6935-1.207 1.6438-1.647 2.1122-0.642 0.6847-0.72 0.8818-0.395 1.0062 0.802 0.3079 1.941 0.3222 2.314 0.029 0.288-0.2257 0.336-0.2225 0.194 0.013-0.239 0.3985 0.246 0.7101 0.681 0.4376 0.182-0.1138 0.45-0.2228 0.596-0.2421 0.819-0.1087 1.404-0.5096 1.988-1.3621 0.791-1.1543 3.119-3.0458 3.476-2.8249 0.141 0.087-0.135 0.3551-0.613 0.5958-0.479 0.2405-1.483 1.1999-2.231 2.1318-0.749 0.9318-1.704 1.8719-2.123 2.0891-0.419 0.217-0.849 0.526-0.956 0.6866-0.14 0.2098-0.196 0.2067-0.199-0.013zm16.717-0.4895c0-0.4366 0.06-0.5831 0.131-0.3257 0.07 0.2574 0.06 0.6146-0.01 0.7937-0.07 0.1792-0.127-0.031-0.122-0.468zm-9.764-0.6689c-0.348-0.9242-0.331-0.9453 0.23-0.2897 0.234 0.2731 0.345 0.6271 0.246 0.7864-0.103 0.1669-0.304-0.043-0.476-0.4967zm-12.513 0.01c0.218-0.141 0.575-0.25 0.794-0.2418 0.261 0.011 0.216 0.092-0.133 0.2418-0.727 0.3125-1.145 0.3125-0.661 0zm13.229-0.5291c0-0.194 0.08-0.2733 0.177-0.1765 0.1 0.097 0.1 0.2559 0 0.353-0.1 0.097-0.177 0.017-0.177-0.1765zm4.239-0.6403c-0.361-0.4482-0.456-0.6559-0.21-0.4614 0.513 0.4069 0.998 0.2063 0.998-0.4133 0-0.2339 0.06-0.3638 0.137-0.289 0.08 0.075 0.05 0.5509-0.07 1.0576l-0.203 0.9207zm-13.102 0.3757c0.09-0.1455 0.223-0.2646 0.295-0.2646 0.07 0 0.06 0.1191-0.03 0.2646s-0.223 0.2646-0.296 0.2646c-0.07 0-0.06-0.1191 0.03-0.2646zm5.837-0.7162c-0.143-0.3771-0.113-0.4075 0.149-0.1482 0.181 0.1797 0.262 0.3932 0.18 0.4744-0.08 0.081-0.229-0.065-0.329-0.3262zm0.645-0.4744c0-0.073 0.06-0.1323 0.132-0.1323 0.07 0 0.133 0.059 0.133 0.1323 0 0.073-0.06 0.1323-0.133 0.1323-0.07 0-0.132-0.06-0.132-0.1323zm10.563-1.1166c-0.353-0.3958-0.441-0.567-0.197-0.3802 0.388 0.2964 0.455 0.2456 0.538-0.4051 0.08-0.6011 0.12-0.5281 0.225 0.3805 0.07 0.6183 0.118 1.1245 0.103 1.1245-0.02 0-0.316-0.3239-0.669-0.7197zm-34.905-0.7072c0-0.057 0.185-0.1749 0.411-0.2617 0.235-0.09 0.342-0.046 0.249 0.104-0.156 0.2516-0.66 0.372-0.66 0.1577zm12.965-0.1789c0-0.09 0.266-0.391 0.591-0.6683 0.431-0.3686 0.498-0.3844 0.247-0.059-0.305 0.394-0.244 0.4553 0.533 0.5358 0.837 0.087 0.825 0.097-0.247 0.2233-0.618 0.073-1.124 0.059-1.124-0.032zm14.686 0.021c-0.09-0.1497 0.01-0.1942 0.249-0.104 0.458 0.176 0.542 0.3657 0.162 0.3657-0.137 0-0.322-0.1178-0.411-0.2617zm-19.978-0.2275c0-0.067 0.465-0.5191 1.032-1.0052 0.568-0.486 1.414-1.4499 1.881-2.1421 0.549-0.8154 0.781-1.0255 0.659-0.5969-0.104 0.3639-0.675 1.165-1.269 1.7804-0.593 0.6154-1.009 1.1893-0.923 1.2751 0.09 0.086 0.616 0.019 1.179-0.1501 0.562-0.1685 1.358-0.2661 1.768-0.2169 0.491 0.059-0.122 0.2757-1.79 0.6334-1.395 0.2992-2.537 0.4892-2.537 0.4223zm1.323-0.4369c0-0.073-0.06-0.1323-0.132-0.1323-0.07 0-0.132 0.06-0.132 0.1323 0 0.073 0.06 0.1323 0.132 0.1323 0.07 0 0.132-0.059 0.132-0.1323zm23.126-0.4378c-0.117-0.1892-0.07-0.2337 0.116-0.1165 0.305 0.1884 0.41 0.422 0.189 0.422-0.06 0-0.201-0.1375-0.305-0.3055zm5.714 0.1733c0-0.073 0.06-0.1323 0.132-0.1323 0.07 0 0.132 0.059 0.132 0.1323 0 0.073-0.06 0.1322-0.132 0.1322-0.07 0-0.132-0.059-0.132-0.1322zm-33.602-0.5292c0-0.073 0.06-0.1323 0.132-0.1323 0.07 0 0.132 0.059 0.132 0.1323 0 0.073-0.06 0.1323-0.132 0.1323-0.07 0-0.132-0.06-0.132-0.1323zm9.938-0.2098c0.1-0.2609 0.248-0.4077 0.329-0.3263 0.08 0.081 0 0.2948-0.18 0.4744-0.262 0.2593-0.292 0.2289-0.149-0.1481zm18.372-0.1871c0-0.1939 0.08-0.2733 0.176-0.1765 0.1 0.097 0.1 0.2559 0 0.353-0.1 0.097-0.176 0.017-0.176-0.1765zm-14.552-0.5292c0-0.1939 0.08-0.2733 0.176-0.1764 0.1 0.097 0.1 0.2558 0 0.3529-0.1 0.097-0.176 0.017-0.176-0.1765zm-10.848-1.1906c-0.472-0.2701-0.535-0.3807-0.22-0.3876 0.621-0.013 1.278 0.2686 1.278 0.5482 0 0.3257-0.282 0.2829-1.058-0.1606zm22.622 0.1323c0.09-0.1455 0.223-0.2646 0.296-0.2646 0.07 0 0.06 0.1191-0.03 0.2646s-0.223 0.2646-0.295 0.2646c-0.07 0-0.06-0.1191 0.03-0.2646zm7.276 0.1323c0-0.073 0.06-0.1323 0.132-0.1323 0.07 0 0.133 0.059 0.133 0.1323 0 0.073-0.06 0.1323-0.133 0.1323-0.07 0-0.132-0.059-0.132-0.1323zm-20.638-0.2646c0-0.073 0.06-0.1323 0.133-0.1323 0.07 0 0.132 0.06 0.132 0.1323 0 0.073-0.06 0.1323-0.132 0.1323-0.07 0-0.133-0.059-0.133-0.1323zm21.335-0.263c0.08-0.2175 0.261-0.3283 0.393-0.2463 0.278 0.1715 0.06 0.6416-0.304 0.6416-0.132 0-0.172-0.1778-0.09-0.3953zm-32.315-0.4225c0.582-0.3125 1.267-0.7509 1.522-0.9745 0.717-0.6299 0.546-0.065-0.187 0.6139-0.357 0.331-1.042 0.6754-1.521 0.7654l-0.872 0.1632zm10.073 0.3185c-0.08-0.1288 0.06-0.3968 0.315-0.5953 0.411-0.3217 0.423-0.3135 0.118 0.077-0.279 0.3572-0.279 0.4622 0 0.5744 0.235 0.094 0.243 0.1436 0.03 0.1579-0.173 0.011-0.38-0.085-0.46-0.2138zm6.835-0.071c-0.117-0.1891-0.07-0.2336 0.117-0.1164 0.305 0.1884 0.409 0.422 0.189 0.422-0.06 0-0.202-0.1376-0.306-0.3056zm3.597 0.041c0-0.1939 0.08-0.2733 0.177-0.1764 0.1 0.097 0.1 0.2558 0 0.3529-0.1 0.097-0.177 0.017-0.177-0.1765zm11.22-0.5701c-0.117-0.1892-0.07-0.2337 0.117-0.1164 0.305 0.1883 0.409 0.422 0.188 0.422-0.06 0-0.201-0.1376-0.305-0.3056zm-17.57-0.091c0-0.073 0.06-0.1323 0.133-0.1323 0.07 0 0.132 0.059 0.132 0.1323 0 0.073-0.06 0.1323-0.132 0.1323-0.07 0-0.133-0.059-0.133-0.1323zm3.175 0c0-0.073 0.06-0.1323 0.133-0.1323 0.07 0 0.132 0.059 0.132 0.1323 0 0.073-0.06 0.1323-0.132 0.1323-0.07 0-0.133-0.059-0.133-0.1323zm-3.704-0.2646c0-0.073 0.06-0.1323 0.133-0.1323 0.07 0 0.132 0.059 0.132 0.1323 0 0.073-0.06 0.1323-0.132 0.1323-0.07 0-0.133-0.059-0.133-0.1323zm0.265-0.5292c0-0.073 0.06-0.1323 0.132-0.1323 0.07 0 0.132 0.06 0.132 0.1323 0 0.073-0.06 0.1323-0.132 0.1323-0.07 0-0.132-0.059-0.132-0.1323zm11.906-0.7937c0-0.073 0.06-0.1323 0.132-0.1323 0.07 0 0.133 0.059 0.133 0.1323 0 0.073-0.06 0.1323-0.133 0.1323-0.07 0-0.132-0.059-0.132-0.1323zm-18.025-0.595c-0.329-0.42-0.32-0.429 0.1-0.1 0.254 0.2 0.463 0.408 0.463 0.463 0 0.2174-0.218 0.078-0.563-0.363zm-3.935-0.07c-0.219-0.141-0.278-0.257-0.133-0.257 0.146 0 0.444 0.116 0.662 0.257s0.278 0.256 0.132 0.256c-0.145 0-0.443-0.115-0.661-0.256zm15.875-0.133c0-0.07 0.06-0.132 0.132-0.132 0.07 0 0.132 0.06 0.132 0.132 0 0.07-0.06 0.133-0.132 0.133-0.07 0-0.132-0.06-0.132-0.133zm3.175 0c0-0.07 0.06-0.132 0.132-0.132 0.07 0 0.132 0.06 0.132 0.132 0 0.07-0.06 0.133-0.132 0.133-0.07 0-0.132-0.06-0.132-0.133zm-20.37-0.33c0-0.247 1.859-1.467 2.006-1.32 0.06 0.06-0.248 0.425-0.684 0.813-0.775 0.69-1.328 0.902-1.322 0.507zm3.899 0.02c-0.452-0.118-0.657-0.6-0.264-0.623 0.109 0 0.701-0.109 1.316-0.228 0.62-0.12 1.054-0.115 0.976 0.01-0.08 0.125-0.424 0.227-0.771 0.227-0.708 0-1.106 0.413-0.597 0.618 0.406 0.164-0.02 0.16-0.66 0zm10.385-0.215c0-0.07 0.06-0.132 0.133-0.132 0.07 0 0.132 0.06 0.132 0.132 0 0.07-0.06 0.133-0.132 0.133-0.07 0-0.133-0.06-0.133-0.133zm-6.032-1.508c-0.484-0.483-0.382-0.744 0.278-0.71 0.469 0.02 0.494 0.06 0.118 0.154-0.379 0.1-0.413 0.201-0.166 0.499 0.378 0.456 0.21 0.498-0.23 0.06zm4.023-0.252c-0.117-0.19-0.07-0.234 0.116-0.117 0.305 0.188 0.41 0.422 0.189 0.422-0.06 0-0.202-0.137-0.305-0.305zm-8.433-0.725c-0.09-0.297-0.909-1.217-1.81-2.044-0.901-0.828-1.426-1.429-1.167-1.337 2.028 0.721 4.191 1.248 4.453 1.085 0.21-0.129 0.247-0.08 0.11 0.139-0.202 0.328-1.555 0.247-2.696-0.16-0.376-0.135-0.328 0 0.209 0.594 0.793 0.877 1.394 1.943 1.202 2.134-0.07 0.07-0.206-0.113-0.301-0.411zm12.824 0.104c0-0.218 0.115-0.397 0.256-0.397s0.187 0.179 0.104 0.397c-0.08 0.218-0.199 0.397-0.257 0.397-0.06 0-0.103-0.179-0.103-0.397zm5.027 0.132c0-0.194 0.08-0.273 0.176-0.176 0.1 0.1 0.1 0.256 0 0.353-0.1 0.1-0.176 0.02-0.176-0.177zm-9.79-0.132c0-0.07 0.06-0.132 0.132-0.132 0.07 0 0.133 0.06 0.133 0.132 0 0.07-0.06 0.132-0.133 0.132-0.07 0-0.132-0.06-0.132-0.132zm5.556 0c0-0.07 0.06-0.132 0.133-0.132 0.07 0 0.132 0.06 0.132 0.132 0 0.07-0.06 0.132-0.132 0.132-0.07 0-0.133-0.06-0.133-0.132zm7.541-0.926c0.09-0.146 0.223-0.265 0.296-0.265 0.07 0 0.06 0.119-0.03 0.265s-0.223 0.265-0.295 0.265c-0.07 0-0.06-0.119 0.03-0.265zm0.682-0.154c0.01-0.309 0.08-0.371 0.16-0.16 0.08 0.191 0.07 0.419-0.02 0.507-0.09 0.09-0.15-0.07-0.139-0.347zm-18.012-0.148c0-0.215-0.41-1.071-0.911-1.902-0.951-1.58-0.923-1.595 0.752-0.39 0.567 0.408 1.222 0.751 1.455 0.763 0.25 0.01 0.294 0.07 0.107 0.149-0.173 0.07-0.571 0-0.882-0.174-0.75-0.402-0.847-0.251-0.492 0.768 0.163 0.468 0.223 0.924 0.134 1.013-0.09 0.09-0.163-0.01-0.163-0.227zm10.848-1.286c0-0.194 0.08-0.273 0.176-0.176 0.1 0.1 0.1 0.256 0 0.353-0.1 0.1-0.176 0.02-0.176-0.177zm-4.234-0.132c0-0.07 0.06-0.132 0.133-0.132 0.07 0 0.132 0.06 0.132 0.132 0 0.07-0.06 0.132-0.132 0.132-0.07 0-0.133-0.06-0.133-0.132zm3.44 0c0-0.07 0.06-0.132 0.132-0.132 0.07 0 0.132 0.06 0.132 0.132 0 0.07-0.06 0.132-0.132 0.132-0.07 0-0.132-0.06-0.132-0.132zm0.353-0.573c0.1-0.1 0.255-0.1 0.352 0 0.1 0.1 0.02 0.176-0.176 0.176-0.194 0-0.273-0.08-0.176-0.176zm4.695-0.243c0.01-0.308 0.08-0.371 0.16-0.159 0.08 0.191 0.07 0.419-0.02 0.507-0.09 0.09-0.15-0.07-0.138-0.348zm-8.223-0.11c0-0.194 0.08-0.273 0.176-0.176 0.1 0.1 0.1 0.256 0 0.353-0.1 0.1-0.176 0.02-0.176-0.177zm0.585-0.537c-0.474-0.759-0.39-1.002 0.103-0.298 0.233 0.332 0.378 0.651 0.321 0.708-0.06 0.06-0.247-0.128-0.424-0.41zm12.115 0.405c0-0.07 0.06-0.132 0.132-0.132 0.07 0 0.132 0.06 0.132 0.132 0 0.07-0.06 0.132-0.132 0.132-0.07 0-0.132-0.06-0.132-0.132zm-5.292-0.232c0-0.06 0.208-0.264 0.463-0.463 0.42-0.329 0.429-0.32 0.1 0.1-0.346 0.44-0.563 0.58-0.563 0.363zm-10.583-0.297c0-0.07 0.06-0.133 0.132-0.133 0.07 0 0.132 0.06 0.132 0.133 0 0.07-0.06 0.132-0.132 0.132-0.07 0-0.132-0.06-0.132-0.132zm16.274-0.497c0.136-0.657 0.09-0.734-0.32-0.565-1.109 0.456-1.446 0.397-0.45-0.08 0.596-0.284 1.165-0.727 1.263-0.983 0.1-0.256 0.233-0.412 0.298-0.346 0.07 0.07-0.12 0.708-0.414 1.427-0.293 0.719-0.463 0.965-0.377 0.546zm-19.978-0.694c0-0.194 0.08-0.273 0.176-0.176 0.1 0.1 0.1 0.255 0 0.352-0.1 0.1-0.176 0.02-0.176-0.176zm3.475-0.86c-0.02-0.546 0-0.992 0.05-0.992s0.363 0.387 0.706 0.86c0.548 0.755 0.557 0.801 0.07 0.375-0.54-0.474-0.555-0.471-0.67 0.132-0.08 0.409-0.13 0.282-0.154-0.375zm1.64 0.684c0.1-0.1 0.256-0.1 0.353 0 0.1 0.1 0.02 0.176-0.177 0.176-0.194 0-0.273-0.08-0.176-0.176zm-5.38-0.538c0-0.15-0.476-0.974-1.058-1.83-0.581-0.856-1.058-1.655-1.058-1.776 0-0.12 0.625 0.329 1.388 1 0.764 0.67 1.747 1.323 2.183 1.452 0.78 0.229 0.782 0.233 0.102 0.257-0.38 0.01-0.995-0.215-1.365-0.506-0.955-0.751-1.046-0.661-0.415 0.409 0.304 0.515 0.479 1.011 0.388 1.102-0.09 0.09-0.165 0.04-0.165-0.108zm8.338-0.609c0.08-0.364 0.213-0.989 0.3-1.389 0.161-0.733 0.623-1.02 0.623-0.387 0 0.188 0.225 0.783 0.5 1.323 0.276 0.54 0.407 0.982 0.293 0.982s-0.388-0.446-0.609-0.992c-0.4-0.988-0.402-0.99-0.652-0.331-0.464 1.227-0.597 1.459-0.455 0.794zm6.519-1.028c-0.191-0.638-0.222-1.267-0.08-1.65 0.185-0.5 0.255-0.315 0.365 0.964 0.08 0.87 0.112 1.612 0.08 1.65-0.03 0.04-0.196-0.397-0.366-0.964zm-1.015 0.121c0.314-0.353 0.622-0.592 0.683-0.531 0.143 0.143-0.781 1.174-1.052 1.174-0.112 0 0.05-0.29 0.369-0.643zm5.579-1.384 0.07-2.158-1.166 1.232c-1.162 1.228-1.163 1.229-0.418 0.176 1.101-1.557 2.468-3.362 2.468-3.261 0 0.05-0.129 0.504-0.286 1.012-0.157 0.509-0.387 1.877-0.51 3.041l-0.224 2.117zm-14.923 0.704c0-0.194 0.08-0.274 0.176-0.177 0.1 0.1 0.1 0.256 0 0.353-0.1 0.1-0.176 0.02-0.176-0.176zm1.794-1.255c-0.224-0.256-0.655-0.941-0.957-1.523l-0.549-1.059-0.04 1.059c-0.04 0.98-0.07 0.932-0.412-0.652-0.206-0.94-0.339-1.816-0.295-1.945 0.04-0.13 0.419 0.401 0.834 1.18 0.416 0.779 1.049 1.811 1.407 2.294 0.691 0.931 0.698 1.43 0.01 0.646zm4.47-0.994c0.728-3.154 1.093-4.404 1.117-3.826 0.02 0.609 0.523 2.75 0.953 4.09 0.117 0.365 0.04 0.324-0.23-0.132-0.219-0.364-0.478-1.124-0.576-1.688-0.193-1.113-0.629-0.87-0.654 0.365 0 0.364-0.189 0.959-0.403 1.323l-0.39 0.661zm10.578 36.909c-0.303-1.1346-0.361-1.1827-0.962-0.8023-0.328 0.2072-0.265 0.381 0.38 1.0544 0.425 0.4434 0.793 0.8062 0.818 0.8062 0.03 0-0.08-0.4763-0.236-1.0583zm-21.891-1.4203c0.674-1.0898 0.676-1.1404 0.05-1.4767-0.46-0.246-0.512-0.1542-0.595 1.0494-0.05 0.7252-0.07 1.3187-0.05 1.3187s0.292-0.4014 0.595-0.8914zm29.066-4.2487c-0.443-0.6763-0.679-0.8361-0.929-0.6292-0.183 0.1527-0.334 0.3604-0.334 0.4617 0 0.1405 1.38 0.9562 1.789 1.057 0.04 0.01-0.199-0.391-0.526-0.8895zm-35.394-2.1701c0-0.303-0.755-1.0541-0.868-0.8639-0.03 0.057-0.252 0.6602-0.483 1.3399l-0.421 1.2358 0.886-0.7067c0.487-0.3886 0.886-0.8408 0.886-1.0051zm38.385-5.6343c0.638-0.6377 0.773-0.9941 0.773-2.0296 0-0.7978-0.16-1.433-0.438-1.7402-0.507-0.5606-1.051-0.6284-1.229-0.1532-0.09 0.2418-0.221 0.2127-0.485-0.1082-0.417-0.5069-2.314-0.8644-2.822-0.5321-0.28 0.1828-0.26 0.5612 0.105 2.0127 0.803 3.1999 2.432 4.214 4.096 2.5506zm6.679-0.7961c0.24-0.2429 0.205-0.376-0.153-0.5779-0.255-0.1442-0.702-0.7281-0.993-1.2975-0.29-0.5694-0.748-1.1531-1.016-1.2967-0.433-0.2315-0.539-0.082-0.926 1.3102-0.523 1.8828-0.525 1.9174-0.108 1.7785 0.181-0.06 0.488 0.05 0.684 0.2463 0.415 0.4146 2.045 0.3088 2.512-0.1629zm-1.672-0.1503c0-0.073 0.06-0.1323 0.132-0.1323 0.07 0 0.132 0.059 0.132 0.1323 0 0.073-0.06 0.1323-0.132 0.1323-0.07 0-0.132-0.06-0.132-0.1323zm-4.88-3.7743c0.616-0.4276 1.175-1.5489 1.175-2.3551 0-1.0525-0.795-1.6801-2.109-1.6652-0.827 0.011-1.067 0.1897-2.11 1.5874-0.647 0.8674-1.272 1.577-1.389 1.577s-0.212 0.119-0.212 0.2645c0 0.3578 1.483 0.3361 2.2-0.032 0.318-0.1633 0.921-0.6099 1.34-0.9922 0.689-0.6289 0.733-0.6395 0.459-0.1114-0.166 0.3212-0.503 0.6966-0.749 0.8342-0.377 0.2112-0.392 0.3167-0.1 0.6729 0.371 0.4471 1.026 0.5437 1.492 0.2201zm-4.222-6.0388c0.468-1.12 0.476-2.773 0.02-3.401-0.311-0.425-0.591-0.46-2.379-0.292-1.115 0.104-2.099 0.306-2.187 0.449-0.09 0.143-0.08 0.673 0.01 1.178 0.15 0.799 0.357 0.999 1.592 1.545 0.78 0.346 1.554 0.881 1.719 1.189 0.37 0.692 0.744 0.488 1.227-0.668zm-1.57-1.343c-0.324-0.324-0.181-1.162 0.224-1.317 0.641-0.246 1.227 0.394 0.908 0.992-0.269 0.502-0.802 0.655-1.132 0.325zm6.062 0.559c0.209-1.116-0.364-2.34-1.147-2.452-0.399-0.06-0.593 0.05-0.593 0.331 0 0.241 0.225 0.415 0.537 0.415 0.816 0 0.978 0.792 0.278 1.359-0.48 0.388-0.56 0.641-0.416 1.3 0.172 0.782 0.201 0.798 0.679 0.366 0.274-0.248 0.572-0.842 0.662-1.319zm0.11-2.963c0-0.109-0.387-0.612-0.86-1.117l-0.858-0.92-0.09 0.892c-0.05 0.535 0.06 0.98 0.265 1.114 0.436 0.276 1.541 0.299 1.539 0.03zm-5.489-0.414c1.213 0.05 1.246 0.03 0.949-0.53-0.559-1.051-1.891-2.561-2.259-2.561-0.688 0-1.656 0.851-2.468 2.17l-0.815 1.325 1.669-0.225c0.917-0.124 2.233-0.204 2.924-0.179zm-9.326-16.188c0-0.07-0.06-0.133-0.132-0.133-0.07 0-0.133 0.06-0.133 0.133 0 0.07 0.06 0.132 0.133 0.132 0.07 0 0.132-0.06 0.132-0.132z" fill="#333"/>
   </g>
  </g>
 </g>
</svg>
