<?xml version="1.0" encoding="UTF-8"?>
<svg width="5.1275mm" height="5.1275mm" version="1.1" viewBox="0 0 5.1275 5.1275" xmlns="http://www.w3.org/2000/svg" xmlns:cc="http://creativecommons.org/ns#" xmlns:dc="http://purl.org/dc/elements/1.1/" xmlns:rdf="http://www.w3.org/1999/02/22-rdf-syntax-ns#">
<metadata>
<rdf:RDF>
<cc:Work rdf:about="">
<dc:format>image/svg+xml</dc:format>
<dc:type rdf:resource="http://purl.org/dc/dcmitype/StillImage"/>
<dc:title/>
</cc:Work>
</rdf:RDF>
</metadata>
<g transform="translate(-94.198 -73.032)">
<circle cx="96.762" cy="75.595" r="2.5187" fill="#0a0" stroke="#000" stroke-linecap="round" stroke-width=".090153"/>
<path d="m95.484 75.123 2.464-0.809 0.493 0.812-2.01 2.209-1.352-1.855z" fill="#fff" stroke-width=".018022px"/>
<path d="m96.556 73.682c-0.377 0.06-0.718 0.185-1.016 0.439-0.192 0.165-0.354 0.366-0.468 0.591-0.56 1.111 0.09 2.495 1.319 2.75 0.257 0.05 0.521 0.05 0.778 0 0.264-0.05 0.512-0.166 0.732-0.321 0.162-0.116 0.304-0.256 0.422-0.414 0.665-0.89 0.403-2.179-0.525-2.771-0.186-0.116-0.401-0.206-0.617-0.247-0.2-0.04-0.423-0.06-0.625-0.03m-0.08 2.312c0.184-0.2059 0.379-0.401 0.564-0.607 0.104-0.104 0.201-0.226 0.308-0.328 0.104-0.104 0.207-0.279 0.344-0.343 0.163-0.08 0.328 0.06 0.307 0.232-0.01 0.147-0.218 0.283-0.311 0.387-0.258 0.286-0.53 0.558-0.787 0.845-0.103 0.1161-0.231 0.302-0.39 0.325-0.161 0.03-0.305-0.1699-0.411-0.266l-0.303-0.273c-0.06-0.06-0.135-0.117-0.135-0.218 1e-3 -0.151 0.152-0.256 0.293-0.203 0.08 0.03 0.145 0.103 0.207 0.158 0.104 0.09 0.228 0.183 0.314 0.291z" fill="#47e91b" stroke-width=".009018"/>
</g>
</svg>

