<?xml version="1.0" encoding="UTF-8"?>
<svg width="69.046mm" height="23.991mm" version="1.1" viewBox="0 0 69.046 23.991" xmlns="http://www.w3.org/2000/svg" xmlns:cc="http://creativecommons.org/ns#" xmlns:dc="http://purl.org/dc/elements/1.1/" xmlns:rdf="http://www.w3.org/1999/02/22-rdf-syntax-ns#">
<metadata>
<rdf:RDF>
<cc:Work rdf:about="">
<dc:format>image/svg+xml</dc:format>
<dc:type rdf:resource="http://purl.org/dc/dcmitype/StillImage"/>
<dc:title/>
</cc:Work>
</rdf:RDF>
</metadata>
<g transform="translate(370.23 44.86)">
<path d="m-370.23-44.86h69.046v23.991h-69.046z" fill="none" stroke-linecap="round" stroke-width="28.17"/>
<g transform="matrix(.73506 0 0 .73506 -24.436 -133.1)" fill="#fff" opacity=".10965" style="text-decoration-color:#000000" aria-label="裁">
<path d="m-449.06 137.17 0.72 0.733q-0.36 0.36-0.626 0.6-0.267 0.24-0.52 0.427 0.2 0.186 0.413 0.36 0.227 0.16 0.467 0.346l-1.094 0.934q-0.213-0.2-0.413-0.4t-0.387-0.387l0.347 1.12q-1.04 0.36-1.987 0.64-0.946 0.28-1.973 0.587l-0.427-1.374q0.28-0.07 0.534-0.12 0.266-0.05 0.533-0.12v-0.493q0-0.133-0.01-0.267 0-0.133 0.01-0.266-0.187 0.16-0.387 0.32t-0.413 0.306l-0.8-1.226q0.733-0.467 1.173-0.867 0.454-0.4 0.787-0.853h-1.467v-1.374h2.187v-0.733h-2.213v-1.4h2.306v-0.84h-1.92v-1.347h1.92v-1.306h1.48v1.306h1.8v1.347h-1.8v0.84h2.454q-0.03-0.96-0.04-1.84 0-0.893-0.01-1.653h1.334q0 0.893 0.01 1.773t0.05 1.72h3.147v1.4h-3.054q0.05 0.64 0.12 1.227 0.08 0.586 0.187 1.146 0.307-0.533 0.56-1.093 0.253-0.573 0.48-1.2l1.053 0.733q-0.346 0.894-0.76 1.694-0.4 0.8-0.893 1.52 0.05 0.146 0.09 0.28 0.05 0.12 0.12 0.24 0.05 0.133 0.134 0.28 0.08 0.146 0.16 0.266 0.09 0.12 0.173 0.2 0.09 0.08 0.173 0.08 0.07 0 0.12-0.12t0.08-0.306q0.04-0.214 0.07-0.48 0.04-0.28 0.08-0.614l1.213 0.947q-0.04 0.4-0.16 0.8-0.106 0.413-0.28 0.733-0.173 0.334-0.413 0.547t-0.547 0.213q-0.493 0-0.893-0.28-0.387-0.28-0.707-0.733-0.24-0.32-0.453-0.76-1.067 1.12-2.493 1.907l-0.68-1.16q0.826-0.467 1.48-0.987 0.666-0.533 1.2-1.16-0.24-0.88-0.374-1.88-0.133-1-0.2-2.04h-2.64v0.733h2.467v1.374zm3.494-3.627q-0.147-0.333-0.267-0.6t-0.267-0.52q-0.133-0.267-0.306-0.533-0.16-0.267-0.4-0.614l1.12-0.626q0.266 0.346 0.44 0.613 0.186 0.267 0.32 0.52 0.146 0.253 0.253 0.507 0.12 0.253 0.253 0.573zm-5.014 6.147q-0.813-0.854-1.453-1.694-0.08 0.107-0.12 0.147v2.027q0.733-0.187 1.573-0.48zm0.254-1.6q0.213-0.174 0.413-0.387t0.467-0.533h-1.614q0.187 0.253 0.36 0.48 0.187 0.213 0.374 0.44z"/>
</g>
<path d="m-346.8-31.772 0.09-6.653" fill="none" stroke="#000" stroke-width=".1601px"/>
<g transform="matrix(.847 0 0 .847 6.8722 145.52)">
<path d="m-419.28-214.75 4.452-0.01 0.825 0.796-0.248 1.336-4.681 2.699-1.375-2.519z" fill="#fff" stroke-width=".26458px"/>
<path d="m-416.9-216.61c-0.819-0.06-1.587-0.01-2.343 0.346-0.489 0.233-0.935 0.559-1.296 0.963-1.774 1.986-1.186 5.211 1.206 6.416 0.5 0.252 1.048 0.394 1.605 0.432 0.576 0.04 1.153-0.06 1.693-0.257 0.396-0.144 0.77-0.362 1.101-0.623 1.865-1.47 2.04-4.282 0.45-6.019-0.319-0.348-0.716-0.646-1.14-0.854-0.391-0.192-0.838-0.369-1.276-0.404m-1.442 4.737c0.496-0.322 1.007-0.621 1.503-0.943 0.267-0.174 0.54-0.355 0.819-0.509s0.58-0.46 0.899-0.518c0.381-0.07 0.644 0.309 0.506 0.651-0.118 0.293-0.606 0.464-0.857 0.627-0.691 0.448-1.403 0.862-2.094 1.311-0.27 0.175-0.643 0.496-0.985 0.458-0.348-0.04-0.536-0.52-0.703-0.778l-0.476-0.733c-0.103-0.159-0.212-0.327-0.157-0.526 0.09-0.311 0.455-0.447 0.719-0.258 0.149 0.107 0.242 0.293 0.339 0.443 0.162 0.249 0.37 0.502 0.487 0.775z" fill="#47e91b" stroke-width=".019302"/>
</g>
<path d="m-362.67-31.774 0.09-6.654" fill="none" stroke="#000" stroke-width=".1601px"/>
<g transform="matrix(.79511 -.084971 .084971 .79511 45.451 90.643)">
<path d="m-493.6-213.01-0.576 2.198 3.534 4.241 2.171-0.121 1.067-4.722z" fill="#fff" stroke-width=".26458px"/>
<g transform="rotate(-31.008 -469.83 -165.36)">
<path d="m-464.42-215.27v1.78c0 0.28-0.04 0.599 0 0.875 0.02 0.118 0.154 0.182 0.227 0.268 0.133 0.158 0.219 0.377 0.182 0.584-0.136 0.776-1.235 0.904-1.492 0.133-0.09-0.261-0.02-0.536 0.162-0.741 0.106-0.122 0.271-0.169 0.279-0.348 0.03-0.574 0-1.154 0-1.727 0-0.255 0.06-0.601 0-0.846-0.06-0.212-0.367-0.312-0.442-0.563-0.05-0.171 0.05-0.381 0-0.531-0.114-0.302-0.59-0.622-0.818-0.85-0.07-0.07-0.183-0.234-0.292-0.234-0.09 0-0.18 0.121-0.239 0.181l-0.558 0.557-1.727 1.728c-0.239 0.238-0.612 0.499-0.679 0.85-0.101 0.534 0.535 0.946 0.865 1.275l3.029 3.029c0.361 0.361 0.814 1.066 1.408 0.826 0.263-0.107 0.468-0.39 0.664-0.586l3.455-3.455c0.262-0.262 0.694-0.562 0.659-0.983-0.04-0.513-0.719-0.963-1.058-1.302l-2.577-2.577c-0.329-0.329-0.731-0.915-1.169-1.086-0.53-0.208-0.893 0.304-1.223 0.634-0.102 0.102-0.327 0.255-0.362 0.399-0.04 0.138 0.25 0.339 0.336 0.425 0.216 0.216 0.468 0.582 0.744 0.716 0.178 0.09 0.41-0.02 0.611 0.08 0.238 0.12 0.415 0.372 0.443 0.638 0.02 0.145-0.06 0.271 0.04 0.398 0.192 0.24 0.442 0.448 0.659 0.665 0.104 0.103 0.214 0.255 0.346 0.324 0.129 0.07 0.327-0.02 0.478 0.03 0.449 0.14 0.725 0.653 0.491 1.083-0.25 0.461-0.862 0.571-1.232 0.185-0.139-0.144-0.215-0.331-0.215-0.53 0-0.09 0.05-0.207 0.02-0.292-0.04-0.124-0.194-0.23-0.283-0.319-0.23-0.23-0.452-0.504-0.718-0.691" fill="#ef5034" stroke-width=".026571"/>
</g>
</g>
<path d="m-353.76-40.462a0.85894 0.85894 0 0 1-0.859 0.8589 0.85894 0.85894 0 0 1-0.859-0.8589 0.85894 0.85894 0 0 1 0.859-0.8589 0.85894 0.85894 0 0 1 0.859 0.8589" stroke-linecap="round" stroke-width=".49969"/>
<path d="m-355.47-40.456h1.708v14.854h-1.708z" stroke-linecap="round" stroke-width="1.0263"/>
<path transform="rotate(90)" d="m-25.838 349.87h1.7076v9.755h-1.7076z" stroke-linecap="round" stroke-width=".83169"/>
<path d="m-355.15-39.226c-2.247-2.269-4.946-2.245-7.095-0.235-0.415 0.248-1.066 0.106-1.226-0.386" fill="none" stroke="#000" stroke-linecap="round" stroke-width=".60529"/>
<path d="m-354.28-39.214c2.247-2.269 4.946-2.246 7.095-0.236 0.414 0.249 1.066 0.106 1.226-0.385" fill="none" stroke="#000" stroke-linecap="round" stroke-width=".60509"/>
<path d="m-364.91-31.784 2.159-6.827" stroke="#000" stroke-width=".1601px"/>
<path d="m-362.25-39.078a0.31566 0.63133 0 0 1-0.316 0.6313 0.31566 0.63133 0 0 1-0.316-0.6313 0.31566 0.63133 0 0 1 0.316-0.6313 0.31566 0.63133 0 0 1 0.316 0.6313" fill="none" stroke="#000" stroke-linecap="round" stroke-width=".18153"/>
<path d="m-346.38-39.074a0.31566 0.63133 0 0 1-0.316 0.6313 0.31566 0.63133 0 0 1-0.316-0.6313 0.31566 0.63133 0 0 1 0.316-0.6313 0.31566 0.63133 0 0 1 0.316 0.6313" fill="none" stroke="#000" stroke-linecap="round" stroke-width=".18153"/>
<path d="m-360.22-31.724-2.158-6.827" fill="none" stroke="#000" stroke-width=".1601px"/>
<path d="m-349.06-31.786 2.159-6.826" fill="none" stroke="#000" stroke-width=".1601px"/>
<path d="m-344.35-31.792-2.158-6.826" fill="none" stroke="#000" stroke-width=".1601px"/>
<path d="m-365.36-31.672s0.09 0.385 0.198 0.551c0.07 0.107 0.325 0.269 0.325 0.269h4.669s0.231-0.152 0.302-0.266c0.1-0.158 0.141-0.538 0.141-0.538l0.244-0.07v-0.06h-6.122v0.06z" stroke-width=".14012px"/>
<path d="m-349.52-31.77s0.09 0.386 0.198 0.552c0.07 0.107 0.325 0.269 0.325 0.269h4.668s0.232-0.152 0.302-0.266c0.1-0.158 0.141-0.538 0.141-0.538l0.245-0.07v-0.06h-6.123v0.06z" stroke-width=".14012px"/>
<path d="m-358.7-24.99a0.85894 0.85894 0 0 1-0.859 0.8589 0.85894 0.85894 0 0 1-0.859-0.8589 0.85894 0.85894 0 0 1 0.859-0.8589 0.85894 0.85894 0 0 1 0.859 0.8589" stroke-linecap="round" stroke-width=".49969"/>
<path d="m-349.01-24.984a0.85894 0.85894 0 0 1-0.859 0.8589 0.85894 0.85894 0 0 1-0.859-0.8589 0.85894 0.85894 0 0 1 0.859-0.8589 0.85894 0.85894 0 0 1 0.859 0.8589" stroke-linecap="round" stroke-width=".49969"/>
<path d="m-326.42-36.282c-0.04-2.572-0.541-5.079-6.42-5.079-1.686 0-5.944 0-5.944 4.669 0 2.377 1.275 3.912 3.912 4.193l4.756 0.519c2.464 0.259 3.047 1.448 3.047 3.263 0 2.054-0.756 3.459-5.122 3.459-4.799 0-5.318-1.816-5.318-4.215h-1.491c0.04 3.285 1.34 5.49 6.765 5.49 4.842 0 6.614-1.535 6.614-4.842 0-3.998-3.112-4.344-4.495-4.495l-4.583-0.498c-1.902-0.216-2.615-1.124-2.615-2.831 0-2.507 1.426-3.437 4.582-3.437 4.388 0 4.842 1.686 4.842 3.804z" stroke-width="1.8012"/>
<path d="m-312.28-32.976c0-1.815 0-4.085-5.014-4.085-4.604 0-4.972 2.464-4.993 3.891h1.383c0.04-2.594 2.075-2.637 3.567-2.637 3.566 0 3.76 1.189 3.76 2.486 0 1.664-0.691 1.685-1.469 1.707l-3.977 0.108c-1.751 0.04-3.74 0.951-3.74 3.804 0 3.567 2.897 3.718 4.777 3.718 3.458 0 3.999-0.994 4.431-1.837 0.02 0.583 0.108 1.167 0.259 1.664h1.384c-0.368-0.735-0.368-2.032-0.368-2.378zm-1.318 4.107c0 2.075-0.735 3.653-4.28 3.653-2.334 0-3.523-0.454-3.523-2.378 0-0.929 0.108-2.701 2.767-2.766l3.847-0.09c0.476 0 0.951-0.173 1.189-0.475z" stroke-width="1.8012"/>
<path d="m-308.37-36.888v12.731h1.384v-12.731z" stroke-width="1.8012"/>
<g transform="matrix(.16088 0 0 .16088 -235.36 -62.093)" style="text-decoration-color:#000000" aria-label="裁">
<path d="m-449.06 137.17 0.72 0.733q-0.36 0.36-0.626 0.6-0.267 0.24-0.52 0.427 0.2 0.186 0.413 0.36 0.227 0.16 0.467 0.346l-1.094 0.934q-0.213-0.2-0.413-0.4t-0.387-0.387l0.347 1.12q-1.04 0.36-1.987 0.64-0.946 0.28-1.973 0.587l-0.427-1.374q0.28-0.07 0.534-0.12 0.266-0.05 0.533-0.12v-0.493q0-0.133-0.01-0.267 0-0.133 0.01-0.266-0.187 0.16-0.387 0.32t-0.413 0.306l-0.8-1.226q0.733-0.467 1.173-0.867 0.454-0.4 0.787-0.853h-1.467v-1.374h2.187v-0.733h-2.213v-1.4h2.306v-0.84h-1.92v-1.347h1.92v-1.306h1.48v1.306h1.8v1.347h-1.8v0.84h2.454q-0.03-0.96-0.04-1.84 0-0.893-0.01-1.653h1.334q0 0.893 0.01 1.773t0.05 1.72h3.147v1.4h-3.054q0.05 0.64 0.12 1.227 0.08 0.586 0.187 1.146 0.307-0.533 0.56-1.093 0.253-0.573 0.48-1.2l1.053 0.733q-0.346 0.894-0.76 1.694-0.4 0.8-0.893 1.52 0.05 0.146 0.09 0.28 0.05 0.12 0.12 0.24 0.05 0.133 0.134 0.28 0.08 0.146 0.16 0.266 0.09 0.12 0.173 0.2 0.09 0.08 0.173 0.08 0.07 0 0.12-0.12t0.08-0.306q0.04-0.214 0.07-0.48 0.04-0.28 0.08-0.614l1.213 0.947q-0.04 0.4-0.16 0.8-0.106 0.413-0.28 0.733-0.173 0.334-0.413 0.547t-0.547 0.213q-0.493 0-0.893-0.28-0.387-0.28-0.707-0.733-0.24-0.32-0.453-0.76-1.067 1.12-2.493 1.907l-0.68-1.16q0.826-0.467 1.48-0.987 0.666-0.533 1.2-1.16-0.24-0.88-0.374-1.88-0.133-1-0.2-2.04h-2.64v0.733h2.467v1.374zm3.494-3.627q-0.147-0.333-0.267-0.6t-0.267-0.52q-0.133-0.267-0.306-0.533-0.16-0.267-0.4-0.614l1.12-0.626q0.266 0.346 0.44 0.613 0.186 0.267 0.32 0.52 0.146 0.253 0.253 0.507 0.12 0.253 0.253 0.573zm-5.014 6.147q-0.813-0.854-1.453-1.694-0.08 0.107-0.12 0.147v2.027q0.733-0.187 1.573-0.48zm0.254-1.6q0.213-0.174 0.413-0.387t0.467-0.533h-1.614q0.187 0.253 0.36 0.48 0.187 0.213 0.374 0.44z"/>
</g>
</g>
</svg>

