<?xml version="1.0" encoding="UTF-8" standalone="no"?>
<svg
 xmlns:dc="http://purl.org/dc/elements/1.1/"
 xmlns:cc="http://creativecommons.org/ns#"
 xmlns:rdf="http://www.w3.org/1999/02/22-rdf-syntax-ns#"
 xmlns:svg="http://www.w3.org/2000/svg"
 xmlns="http://www.w3.org/2000/svg"
 xmlns:sodipodi="http://sodipodi.sourceforge.net/DTD/sodipodi-0.dtd"
 xmlns:inkscape="http://www.inkscape.org/namespaces/inkscape"
 width="3.8163mm"
 height="3.8163mm"
 viewBox="0 0 3.8163 3.8163"
 version="1.1"
 id="svg8387"
 inkscape:version="1.0.2 (e86c870879, 2021-01-15)"
 sodipodi:docname="solaris-11.svg">
<defs
 id="defs8381" />
<sodipodi:namedview
 id="base"
 pagecolor="#ffffff"
 bordercolor="#666666"
 borderopacity="1.0"
 inkscape:pageopacity="0.0"
 inkscape:pageshadow="2"
 inkscape:zoom="0.35"
 inkscape:cx="-67.0734"
 inkscape:cy="-38.5027"
 inkscape:document-units="mm"
 inkscape:current-layer="layer1"
 inkscape:document-rotation="0"
 showgrid="false"
 inkscape:window-width="3840"
 inkscape:window-height="2109"
 inkscape:window-x="0"
 inkscape:window-y="0"
 inkscape:window-maximized="1" />
<metadata
 id="metadata8384">
<rdf:RDF>
<cc:Work
 rdf:about="">
<dc:format>image/svg+xml</dc:format>
<dc:type
 rdf:resource="http://purl.org/dc/dcmitype/StillImage" />
<dc:title></dc:title>
</cc:Work>
</rdf:RDF>
</metadata>
<g
 inkscape:label="Layer 1"
 inkscape:groupmode="layer"
 id="layer1"
 transform="translate(-123.58,-158.354)">
<g
 id="g8366"
 style="display:inline"
 transform="translate(664.639,291.995)">
<circle
 inkscape:export-ydpi="209.15"
 inkscape:export-xdpi="209.15"
 inkscape:export-filename="/projects/sai/assets/windows-10.png"
 r="1.90815"
 cy="-131.733"
 cx="-539.151"
 id="path2695-6-36-3-8-7-3-6-6-2-0-9-5-9-8-1-9-3675-6"
 style="display:inline;opacity:0.420955;fill:#ffffff;stroke:none;stroke-width:0.068301;stroke-linecap:round" />
<path
 style="fill:#e8892f;stroke-width:0.01594"
 d="m -540.187,-131.925 c -0.06,-0.01 -0.101,-0.05 -0.163,-0.142 -0.08,-0.113 -0.157,-0.157 -0.24,-0.134 -0.09,0.03 -0.08,0 0.01,-0.04 0.112,-0.05 0.162,-0.05 0.312,0 0.1,0.04 0.142,0.05 0.206,0.04 h 0.08 l -0.04,0.09 c -0.02,0.05 -0.05,0.112 -0.06,0.141 -0.02,0.05 -0.04,0.06 -0.104,0.04 z m 2.064,-0.02 c 0,-0.01 -0.03,-0.07 -0.06,-0.137 -0.05,-0.112 -0.06,-0.12 -0.03,-0.149 0.04,-0.05 0.117,-0.06 0.276,-0.06 0.147,0 0.148,0 0.19,-0.05 0.02,-0.03 0.05,-0.06 0.06,-0.08 0.03,-0.05 0,0.05 -0.04,0.148 -0.03,0.07 -0.05,0.09 -0.141,0.131 -0.111,0.05 -0.209,0.13 -0.224,0.178 -0.01,0.03 -0.04,0.04 -0.04,0.01 z m -1.86,-0.348 c -0.05,-0.03 -0.09,-0.104 -0.118,-0.222 -0.02,-0.104 -0.08,-0.171 -0.164,-0.197 l -0.07,-0.02 h 0.09 c 0.12,0 0.194,0.02 0.259,0.09 0.09,0.09 0.119,0.118 0.2,0.145 l 0.08,0.03 -0.112,0.107 -0.113,0.107 z m 1.584,-0.08 c -0.08,-0.08 -0.107,-0.115 -0.1,-0.139 0.02,-0.05 0.101,-0.11 0.213,-0.143 0.128,-0.04 0.191,-0.09 0.206,-0.186 0,-0.06 0.01,-0.06 0.02,-0.02 0.03,0.115 0,0.225 -0.08,0.311 -0.07,0.08 -0.122,0.153 -0.14,0.222 l -0.02,0.06 z m -0.227,-0.167 c -0.03,-0.02 -0.09,-0.04 -0.143,-0.06 -0.1,-0.03 -0.1,-0.04 -0.09,-0.09 0,-0.07 0.05,-0.133 0.146,-0.206 0.09,-0.07 0.121,-0.128 0.109,-0.217 -0.01,-0.08 0.01,-0.07 0.05,0.02 0.04,0.09 0.04,0.161 0,0.287 -0.04,0.112 -0.05,0.189 -0.03,0.255 0,0.02 0.01,0.04 0.01,0.04 0,0 -0.03,-0.01 -0.05,-0.03 z m -1.055,-0.03 c -0.02,-0.04 -0.03,-0.07 -0.02,-0.226 v -0.182 l -0.07,-0.06 c -0.06,-0.06 -0.06,-0.06 -0.02,-0.05 0.121,0.03 0.17,0.07 0.245,0.221 0.05,0.103 0.09,0.154 0.131,0.183 0.03,0.02 0.06,0.05 0.06,0.05 0,0 -0.02,0.01 -0.05,0.02 -0.03,0 -0.09,0.03 -0.138,0.05 -0.106,0.05 -0.106,0.05 -0.14,0 z m 0.404,-0.109 c -0.02,-0.06 0,-0.143 0.05,-0.269 0.07,-0.147 0.07,-0.194 0.01,-0.272 -0.04,-0.05 -0.02,-0.05 0.05,0 0.09,0.07 0.1,0.1 0.112,0.275 0.01,0.13 0.02,0.168 0.05,0.219 l 0.04,0.06 h -0.158 c -0.129,0 -0.16,0 -0.168,-0.03 z"
 id="path8299"
 sodipodi:nodetypes="sssssscsssssssssssssssscssscccsssssssscssssssssssssscssssssssssssssscss" />
</g>
</g>
</svg>
