<svg xmlns="http://www.w3.org/2000/svg" viewBox="0 0 3.816 3.816" height="14.423" width="14.423" xmlns:v="https://vecta.io/nano"><circle r="1.908" cy="1.909" cx="1.908" opacity=".12" fill="#f9f9f9"/><path d="M1.372 1.81c.001-.31-.182-.32-.453-.32-.17 0-.248.015-.32.075s-.09.138-.09.38c0 .196.01.27.06.352.06.096.165.108.384.108.15 0 .332 0 .39-.152.03-.07.03-.094.03-.358H.932v.165h.24c0 .16-.06.16-.24.16-.22 0-.222-.052-.222-.24 0-.295.02-.3.23-.3.158 0 .228 0 .223.133z"/><path d="M2.362 1.832c0-.31-.142-.34-.445-.34-.378 0-.42.117-.42.47 0 .403.112.444.465.444.336 0 .405-.092.408-.36h-.205c0 .166-.02.173-.246.173-.206 0-.217-.025-.217-.287 0-.252.03-.255.244-.255.16 0 .214.01.214.154z"/><path d="M3.35 1.832c0-.31-.14-.34-.445-.34-.377 0-.42.117-.42.47 0 .403.112.444.465.444.335 0 .405-.092.408-.36h-.206c0 .166-.02.173-.245.173-.206 0-.218-.025-.218-.287 0-.252.03-.255.245-.255.16 0 .214.01.214.154z"/></svg>
