<svg xmlns="http://www.w3.org/2000/svg" viewBox="0 0 3.816 3.816" height="14.423" width="14.423" xmlns:v="https://vecta.io/nano"><circle cx="1.908" cy="1.908" r="1.908" opacity=".12" fill="#f9f9f9"/><text y="-89.817" x="-674.181" xml:space="preserve" font-size=".805" font-family="A-OTF Shin Go Pro" letter-spacing="0" word-spacing="0"><tspan y="3.175" x="0.629" font-weight="800">LLVM</tspan></text><path d="M2.018 3.04c-.102-.01-.203-.044-.352-.118l-.138-.07-.087.04c-.23.104-.396.123-.518.06-.114-.058-.143-.19-.06-.28.028-.03.07-.062.058-.042.022.001.026-.003.02-.006s.02-.006.056-.007a.68.68 0 0 1 .284.067c.05.02.09.033.088.03s.016.004.042.02l.047.027.052-.03.13-.08.077-.05-.004-.036c-.005-.042-.028-.093-.04-.09s-.01.04-.002.082c.005.02.004.026-.003.02s-.014-.03-.023-.116-.02-.056-.022.047l-.004.074c-.012-.003-.015-.01-.016-.02l-.007-.083c-.008-.092-.022-.07-.023.04-.001.088-.007.104-.02.054a.35.35 0 0 1-.012-.09l-.003-.046-.006.038c-.004.023-.006.03-.007.016s-.007-.027-.014-.032c-.015-.012-.016-.052-.004-.077s.058-.04.106-.04h.04l-.033.008c-.044.01-.08.025-.08.033.058-.005.092-.007.088 0s.006.008.018.01c.03.004.044.026.03.05.006.003.017-.002.025-.002s.016-.006.02-.013.017-.013.047-.013c.055 0 .055-.013.001-.067a.51.51 0 0 0-.265-.124c-.01 0-.05.033-.09.076l-.074.075-.04-.02a3.25 3.25 0 0 1-.296-.198C.917 2.09.81 1.99.76 1.922l-.034-.045-.014.045c-.02.063-.02.04.001-.03.077-.265.19-.46.31-.54.028-.02.047-.034.042-.034a.47.47 0 0 0-.149.115 1.7 1.7 0 0 0-.29.837c-.001.033-.005.06-.008.06-.008 0-.095-.215-.137-.338-.094-.28-.144-.55-.148-.797-.001-.048-.005-.084-.01-.08 0 .016-.006.023-.015.028-.017-.001-.02.002-.025.008.01-.022.017-.025.017-.022s.01-.005.02-.016a.59.59 0 0 1 .197-.092.6.6 0 0 1 .119-.014C.704 1.005.717 1 .695.977s.05 0 .155.053a2.58 2.58 0 0 1 .301.19c.017.014.033.023.035.02s-.047-.085-.108-.156C1.046 1.047.962.96.893.893L.767.772.876.86c.126.1.274.242.327.312l.037.054c0 .003-.01.012-.025.02-.046.026-.027.056.036.058.044.002.046.005.023.03-.01.01-.013.02-.01.025s.012.036.017.07c.014.088.043.176.087.26l.034.073c-.007 0-.064-.102-.085-.153a.86.86 0 0 1-.037-.118c-.008-.037-.015-.058-.016-.046-.002.07.05.208.114.313.023.037.025.047.023.1s-.003.06.008.026c.006-.018.01-.03.012-.023.017.004.033.013.047.025s.02.023.016.025a.12.12 0 0 0-.025.015c.017.013.04.027.063.048s.028.024.015.01c-.04-.044-.025-.04.026.006a.74.74 0 0 0 .202.12c.018.006.02.005.01-.007.02-.006.047.005.07.016a.48.48 0 0 0 .087.029c.055.012.146.005.173-.013.01-.007.02-.01.02-.006.013-.014.012-.023.002-.033.037-.015.055-.034.04-.044s-.008-.02.012-.02.04-.026.022-.032-.01-.017.01-.02.018-.008.017-.026.003-.023.01-.023c.013 0 .024-.023.016-.035-.003-.004.002-.013.01-.02s.013-.016.01-.022.001-.017.008-.024.01-.02.008-.027-.001-.018.004-.02a.28.28 0 0 0 .008-.087c0-.184-.073-.334-.19-.39-.088-.043-.23-.035-.277.016-.023.024-.043.074-.043.106 0 .024-.001.025-.02.017-.04-.015-.038-.01.01.05a1 1 0 0 1 .086.123c.043.075.054.086.086.087.013 0 .023.004.023.01 0 .013-.04.01-.07-.005l-.026-.013.018.03c.01.017.015.03.01.03s-.005.012-.003.026l.004.026-.028-.026c-.016-.014-.042-.03-.06-.035-.023-.007-.03-.013-.028-.023.013-.043.01-.056-.003-.017a.31.31 0 0 0-.015.105c.001.032.002.045.004.03.007-.067.012-.083.024-.078s.012.016.012.035.01.053.02.08c.015.038.018.05.01.056-.015.01-.055.008-.074-.002s-.016-.014-.012-.05c.01-.068 0-.09-.05-.122-.063-.04-.077-.076-.05-.13.01-.018.01-.025.002-.027s-.01-.033-.01-.11c0-.104.001-.11.024-.152a.3.3 0 0 1 .04-.058c.015-.013.016-.013.016.004.015.01.017-.01.015-.034s0-.043.005-.046c0 .01 0 .02.004.03.006.016.008.014.018-.018.014-.044.025-.06.025-.034s.013.023.026-.007.02-.032.027-.006c.005.02.005.02.023-.004s.03-.03.035-.01c.003.008-.01.018-.04.032-.065.03-.108.08-.106.12.007-.001.015-.004.023-.001-.01-.025-.01-.025.007-.016s.024.006.055-.016c.074-.052.23-.044.32.017.078.054.138.157.156.267.008.05.008.08 0 .146-.016.13-.052.227-.135.365l-.018.03.02-.024c.053-.06.14-.25.14-.304 0-.014.005-.02.02-.02-.01-.008-.012-.014-.007-.04.003-.017.005-.042.005-.057 0-.024.003-.027.03-.03s.03-.002.032.022.003.02.005-.008l.001-.034-.036.002c-.034.002-.034.001-.006-.004.034-.007.04-.02.025-.075-.047-.185-.227-.34-.4-.345h-.03L2 1.174c.117-.034.31.09.386.244.047.098.06.162.06.29-.001.095-.022.275-.042.345-.004.015-.002.02.01.02.018 0 .065-.027.093-.052.014-.013.02-.014.02-.005.001.024.024-.03.025-.057 0-.015.012-.05.026-.08.032-.064.032-.063.044-.047.005.007.016.016.025.02-.001-.025 0-.036.013-.06.016-.032.016-.032.025-.014s.01.018.01-.004c0-.012.003-.03.006-.038-.02.02-.02-.01-.005-.06.033-.11.044-.206.044-.377l-.008-.19c-.004-.018-.007.04-.006.155l.001.183-.007-.183c-.006-.147-.01-.186-.02-.197s-.013-.024-.012-.035c.008.005.018.01.044.01a.24.24 0 0 1 .068.013c.018.007.04.013.048.013.02 0 .1.074.134.123.015.02.046.076.07.122.05.1.058.1.01.002-.09-.185-.19-.29-.284-.29-.022 0-.022-.003-.004-.032.014-.022.014-.022-.002-.01s-.063.012-.062-.004c0-.005.008-.025.017-.043s.014-.026.01-.017c-.015.05-.01.043.03-.027l.06-.102c.02-.03.022-.04.003-.025-.014.01-.002-.005.093-.124.044-.055.067-.078.05-.05-.04.064-.073.105-.08.1 0 .01-.013.037-.033.066a1.18 1.18 0 0 0-.116.223c0 .007.025-.015.056-.05A1.37 1.37 0 0 1 3 .735c.054-.04.068-.044.06-.02-.004.015 0 .017.032.017.06 0 .124.03.184.086.05.048.137.164.137.185 0 .005-.015-.013-.033-.04a.53.53 0 0 0-.059-.075L3.297.863l.007.062a3.58 3.58 0 0 1-.009.548 2.5 2.5 0 0 1-.067.326l-.01.025-.006-.033c-.006-.03-.058-.22-.068-.247-.003-.007-.013.02-.024.063-.055.212-.173.447-.296.588l-.053.067c-.008.012-.015.018-.015.013 0-.015-.075-.094-.102-.108s-.028-.01-.08.01a.38.38 0 0 0-.23.179.68.68 0 0 1-.177.172c-.026.017-.048.035-.048.04 0 .01.01.008.028-.005.01-.007.02-.01.023-.008.02-.006.022 0 .02.005.026-.001.027.001.024.02s-.004.023.017.01c.038-.025.123-.004.123.03-.04-.028-.046-.022-.043.023.002.023 0 .04-.004.04s-.024.016-.044.037-.04.04-.044.04.02-.044.045-.068c.008-.008.017-.026.02-.04s.008-.024.013-.015c.007-.018-.002-.03-.02-.037-.012-.004-.015-.001-.015.02 0 .03-.007.03-.036.008-.04-.03-.074-.017-.1.036l-.017.035.004-.03c.003-.026.002-.03-.01-.027s-.025.013-.038.024c-.03.026-.066.026-.09 0-.017-.02-.017-.02-.05-.005a.35.35 0 0 1-.056.021.37.37 0 0 0-.066.029l-.132.07-.09.048.025.025c.014.014.03.023.035.02-.003.014.09.07.164.1s.17.055.242.06c.036.003.058.008.05.01a.39.39 0 0 1-.079-.002zm-.744-.157a1.3 1.3 0 0 0 .16-.066c.082-.042.224-.13.224-.14 0-.003-.01.001-.022.01-.138.09-.352.18-.505.21l-.075.018c-.002.002.028.002.067-.001.045-.003.1-.014.15-.03zm-.09-.014a1.05 1.05 0 0 0 .188-.07l.028-.015-.112-.047-.14-.055c-.09-.027-.153-.018-.198.028-.023.023-.028.034-.028.065 0 .043.022.077.062.095s.138.015.2-.001zm.424-.016zm.117-.167zm.146-.08c.005-.005-.005-.001-.022.01-.036.02-.053.023-.046.005-.022.002-.04.004-.05.002s-.023 0-.028.006 0 .01.018.01.027.005.028.01c-.02-.006-.02-.002-.017.002s-.002.014-.01.02.015-.003.05-.022.07-.038.075-.043zm-.167.043c-.028.013-.038.02-.038.023s.032-.013.038-.023zm.33-.024c0-.012-.004-.01-.022.01s-.016.018.003.008c.01-.005.02-.014.02-.018zm-.222-.036c.01-.007.013-.017.01-.025-.008-.02-.018-.017-.028.01a.01.01 0 0 0 .018.014zm.084.003zm.04-.03c-.01.003-.018.01-.018.01 0 .007.007.002.018-.01zm-.11-.03zm.242-.13c.03-.057.037-.096.027-.13-.006-.022-.008-.018-.012.03a.33.33 0 0 1-.077.178c-.016.02-.03.04-.03.044 0 .014.07-.08.092-.12zm-.25.114c0-.002-.008-.01-.02-.02l-.02-.016.016.02c.015.018.022.023.022.016zm.402-.083l.023-.03-.026-.027-.058-.065c-.018-.02-.03-.03-.028-.023a.88.88 0 0 1 .01.088c.003.04.01.082.012.09s.002.022-.007.033.001.004.02-.01a.31.31 0 0 0 .056-.056zm-.457.045c-.025-.02-.033-.014-.025-.001s.02.012.025.001zm-.385-.42c.003-.055.002-.07-.003-.05-.01.036-.026.21-.024.255s.02-.105.027-.205zm.92.226c-.018-.008-.02-.005-.017 0 .018.008.02.005.017 0zm.03-.068c.015-.05.016-.06.007-.067-.017-.01-.03-.008-.015.003s.012.01-.002.024c-.023.023-.032.1-.012.1.002 0 .012-.027.022-.06zm-.202.03zm.602-.213c-.005-.037-.012-.066-.014-.064s.001.035.006.072.012.066.014.064-.001-.034-.006-.072zM1.48 1.994c-.002-.02-.003-.006-.003.03s.001.053.003.036.002-.047 0-.067zm1.163-.038c-.002-.017-.003-.003-.003.03s.002.05.003.03.002-.045 0-.063zm-1.206-.002zm1.162-.062c.024-.05.013-.06-.012-.013-.013.025-.024.05-.025.053-.001.014.023-.013.036-.04zM1.4 1.8c-.016-.013-.017-.012-.013-.006zm-.025-.034zm.48-.092c-.01-.007-.02-.024-.02-.04l-.003-.027-.001.03c-.001.03.01.05.03.05zm.023-.024zm-.594-.076zm-.008-.025zm.423-.048l.028-.027-.018-.03-.018-.03.02.005c.018.005.02.003.017-.062l-.001-.067-.02.028a.33.33 0 0 0-.046.162c0 .024.002.044.005.044s.018-.012.033-.027zm.012-.028zm0-.146zm-.446.178zm-.008-.038zm1.868-.028zm-.01-.026zm-1.865-.008zm1.508.001zM1.76 1.34c-.01-.01-.013.026-.003.05.01-.028.008-.045.003-.05zm1.346.057zM1.09 1.314zm.074-.165c-.01-.015-.053-.06-.094-.102C.996.973.996.972 1.057 1.038l.09.102c.034.042.043.047.016.008zm-.86-.01zm.652-.026C.906 1.08.728.99.723.995s0 .012.003.024.012.022.036.027a1.07 1.07 0 0 1 .198.081c.046.028.043.015-.004-.015zM.54 1.037c.032-.008.056-.016.054-.018C.58 1.008.36 1.08.35 1.1c-.002.003.027-.006.064-.02s.094-.034.126-.042zM2.993.79c.03-.017.044-.03.047-.045s.002-.02-.002-.02a.77.77 0 0 0-.16.136c-.005.01.007.004.032-.015s.06-.042.083-.055zm.27.025C3.226.78 3.17.75 3.147.75c-.007 0 .012.013.042.03a.56.56 0 0 1 .079.049c.04.034.037.024-.004-.013zM2.867.727c.008-.012.01-.02.005-.016S2.843.75 2.85.75s.01-.01.018-.022zm-.75 2.31zm.045-.001zm-.48-.14zm-.025-.017zm-.033-.017zm.694-.056c0-.006.006-.022.013-.035s.013-.032.013-.042c.01.006-.008.077-.02.083zm-.058-.008c-.001-.01.028-.06.042-.075.008-.008.018-.028.02-.045.006-.033.02-.04.02-.01-.001.024-.014.09-.015.074-.001-.006-.016.005-.034.025s-.033.034-.033.032zm.034-.088zm-.946-.008zm1.004 0zm-1.054-.025c-.02-.01-.035-.02-.03-.02a.25.25 0 0 1 .073.037c0 .006 0 .006-.042-.017zM1.21 2.64c-.018-.01-.024-.014-.013-.01.024.006.067.028.054.027-.005 0-.023-.008-.042-.016zm-.075-.024c.003-.007.016-.004.025 0-.003.007-.016.004-.025 0zm.485-.008zM1.087 2.6c.006-.002.015-.002.02 0-.022.004-.027.002-.02 0zm.5-.045zm-.012-.033zm.06.004zm.062-.474zM.67 2.05zm.954-.045c-.03-.022-.063-.05-.075-.063s-.028-.022-.038-.022c.006-.014.018-.008.046.018a1.29 1.29 0 0 0 .081.068c.038.03.05.04.042.04a1.01 1.01 0 0 1-.056-.041zm-.945.007zm.01-.03zm.82-.115l-.02-.026.024.023c.013.013.022.024.02.026s-.013-.008-.024-.023zm.392-.003c0-.003.007-.01.016-.016s.018-.008.026.002c.002.02 0 .02 0 .013-.035.01-.042.01-.042.001zm.067-.007c0-.013.02-.037.03-.037.016 0 .016.012-.001.03s-.03.018-.03.008zm.054-.03zm-.076-.04l-.015-.023.02.013c.02.014.032.033.018.033-.004 0-.015-.01-.023-.023zm-.062.002zm.125-.02l-.02-.023.025.02.03.023c-.01.002-.022-.008-.033-.02zm-.602.002zm.57-.12zm.703-.004zm-.71-.017zm.72-.013zm-.728-.004zM1.9 1.54c-.033-.036-.043-.05-.025-.036.033.027.096.1.082.097-.001 0-.027-.028-.056-.06zm.795.044zm.01-.047zm.01-.066c0-.018.002-.025.004-.015s.002.025 0 .033zm-.885.003zm-.037-.21c0-.002.007-.008.015-.015-.008.017-.015.022-.015.015zm-1.59-.06c.01-.012.022-.02.024-.02s-.005.01-.015.02-.022.02-.024.02.005-.01.015-.02zm.042-.027c0-.005.007-.014.015-.02-.005.014-.01.024-.012.025zm1.69-.023c.006-.007.014-.013.018-.013.007.02 0 .025-.01.025zm.046.004c.017-.008.02-.005.02 0-.02.008-.024.005-.02 0zm.857-.105zM2.745.89c0-.008.034-.065.04-.065s-.002.01-.01.023c-.017.03-.03.05-.03.042zM2.79.808zm.017-.025z" fill="#9da4a8"/><path d="M.985 2.97C.94 2.96.9 2.942.908 2.935s.016.002.03.01.043.016.064.02.04.008.042.012c.006.01-.007.008-.06-.005zm.073.002c-.01-.012-.008-.013.11-.018.014-.001.027-.003.03-.005a.42.42 0 0 1 .132-.036c.003-.01.103-.06.123-.06l.06-.033c.032-.016.048-.02.06-.014s-.005.017-.084.055l-.12.052c-.012.003-.026.008-.03.012-.018.013-.108.042-.118.038a.24.24 0 0 1-.083.017c-.053.004-.07.003-.077-.007zm-.194-.07C.85 2.887.838 2.87.838 2.868c.01.007.024.023.037.038s.022.027.02.027-.017-.013-.03-.03zm-.034-.05zM.82 2.828zm.552-.02a2.62 2.62 0 0 1 .184-.093c.002 0 .012-.003.02-.008l.017-.008-.017.014a1.58 1.58 0 0 1-.209.104zm.21-.008c-.014-.01-.016-.007.045-.04.04-.022.052-.026.067-.02s.012.01-.04.038c-.04.02-.063.027-.07.023zm.123-.068c-.014-.008-.01-.012.033-.04s.05-.03.074-.02l.025.012-.054.028c-.062.032-.058.03-.078.02zM1.6 2.694zm-.645-.01C.948 2.68.94 2.675.937 2.67s-.01-.006-.023.001c-.024.015-.03.013-.014-.005.045-.05.163-.055.27-.013.033.013.06.026.06.03s-.065-.007-.086-.018c-.015.002-.037.004-.064.002-.032-.002-.05-.006-.047-.013-.008.01-.067.033-.08.03zm.92-.013a2.79 2.79 0 0 1 .1-.056c.11-.06.156-.09.21-.137.035-.03.036-.03.01-.004-.015.016-.027.034-.027.04-.02.01-.025.013-.025.016s-.02.02-.044.035c-.032.02-.047.036-.053.057s-.007.03.003.033c.02.008.003.02-.03.02-.023 0-.036-.005-.045-.017l-.012-.017-.04.017c-.038.017-.053.02-.045.014zm.15-.03c.01-.01.017-.022.017-.03s-.005-.01-.033.004-.04.025-.028.036.028.006.045-.01zm.21-.02c.007-.022.01-.02.006-.017.008.024.01.03.008.03zM2.11 2.62zm-.38-.017c-.016-.016-.017-.038-.003-.035.006.001.012-.007.013-.02s.007-.026.012-.03.006-.016.004-.023c-.006-.016.014-.017.028-.001-.04.028-.04.094-.008.11l.02.01H1.77c-.015 0-.033-.006-.04-.013zm.55-.018c.008-.002.02-.002.025 0-.03.004-.033.002-.025 0zm-.388-.016c.01-.008.025-.027.032-.043.01-.026.01-.03-.002-.044-.008-.01-.02-.013-.027-.01s-.018-.002-.025-.01c.002.04-.008.035-.02-.001-.005-.017-.02-.045-.03-.063-.022-.034-.018-.036.03-.022.022.007.036.018.047.04s.027.045.04.063c.023.032.025.033.036.017.007-.01.016-.024.02-.033a.05.05 0 0 1-.067-.025.54.54 0 0 0-.092-.126c-.003.003.002.012.01.02.014.015.013.016-.026.02s-.043.001-.073-.025a.61.61 0 0 0-.203-.098c-.043-.007-.043-.01-.05-.158l-.005-.117.04.036c.074.068.253.17.32.183.032.006.037.02.007.02-.01 0-.023.004-.026.008s.005.008.02.008a.35.35 0 0 1 .156.063c.053.037.068.037.024 0-.02-.017-.028-.03-.02-.03s-.007-.008-.032-.018-.043-.018-.04-.02.036.002.077.01a.35.35 0 0 0 .081.008c-.015.013-.018.025-.018.07a.16.16 0 0 1-.017.086c-.01.016-.014.022-.01.013l.013-.042c.006-.022.006-.023-.004-.01-.006.008-.014.015-.016.015-.026-.003-.04.001-.034.01S2 2.355 1.987 2.34a.59.59 0 0 0-.107-.11c-.01-.006-.007.002.012.02l.03.03h-.1l.046.015c.07.023.097.04.126.08.017.024.03.037.038.034s.01.001-.002.022c-.017.033-.13.148-.146.148zm-.024-.057zm.087-.03zm-.437-.043c.013-.02.042-.03.09-.036.02-.002.025-.001.017.005s-.018.006-.026.003-.02.002-.027.01-.017.01-.022.008-.013.003-.02.012-.014.017-.018.017zm.165.014zm-.017-.027c0-.01-.005-.02-.01-.022.016-.006.03.02.02.03zm.594-.04c0-.007.06-.106.068-.11.013-.008-.016.053-.04.085s-.03.034-.03.026zm-.25-.01zm-.73-.037C1.06 2.21.835 2.026.752 1.906L.73 1.873l.016-.047c.027-.078.08-.186.13-.263.078-.12.163-.192.266-.23.037-.013.044-.014.056-.003s.017.012.022.012.01.028.014.062c.01.124.063.268.134.375.034.05.035.063.018.13-.02.077-.03.164-.04.317l-.01.144zm1.048.02zm-.967-.075c.01-.133.047-.284.08-.323.015-.02.016-.02.02.05.003.04.012.1.02.14l.015.068-.038.03c-.02.017-.053.048-.07.07l-.033.04zm.978.05a.47.47 0 0 0 .009-.056c.003-.03.002-.04-.006-.035.01-.012.02-.028.024-.042s.02-.03.053-.048a.22.22 0 0 0 .113-.112.79.79 0 0 1 .049-.086l.03-.043.01.037c.005.02.01.067.01.104s.003.07.007.07a.75.75 0 0 0 .011-.223c-.007-.053-.001-.062.016-.023.012.03.025.033.026.006.001-.01.004.002.01.027s.006.05.004.054c-.005-.036-.022-.068-.02-.046 0 .007.006.028.013.046a1.55 1.55 0 0 1 .037.159c.024.124.024.125.02.054-.002-.04-.014-.13-.026-.2-.027-.16-.027-.21 0-.31.038-.145.048-.37.023-.548-.006-.042-.005-.05.008-.065s.016-.015.066.007c.106.048.212.193.298.408l.02.048-.02.073a1.75 1.75 0 0 1-.175.426c-.048.08-.16.227-.178.234-.008.003-.024-.007-.043-.03a.38.38 0 0 0-.059-.054l-.03-.02-.06.023a.48.48 0 0 0-.159.085c-.017.015-.032.026-.034.024.014-.007.007.008-.02.04-.016.02-.024.024-.02.014zm.06-.12c.03-.038.03-.04.004-.015s-.048.054-.04.054c.002 0 .018-.018.035-.04zM.61 2.314C.438 1.91.36 1.595.34 1.236l-.005-.103.045-.02a.53.53 0 0 1 .254-.049c.084.001.113.004.176.023a1.01 1.01 0 0 1 .275.131c.106.068.108.072.05.078-.16.016-.286.164-.396.462a1.79 1.79 0 0 0-.117.486c-.004.045-.01.077-.012.07zm1.716-.054zm-.19-.17zm.248-.02zm-.215-.03zm.224-.008zm-1.004-.02zm.827-.008c-.002-.006.003-.02.012-.027s.014-.02.012-.026.003-.016.012-.024c.02-.02.02-.01-.01.043-.013.025-.025.04-.027.034zm.187-.033zm.01-.046c.002.02 0 .014 0 0zm-.61-.023c-.006-.006-.01-.027-.01-.048 0-.028.002-.035.008-.026.01-.012.042.064.042.077s-.03.007-.04-.004zm.463-.007zm.156-.017c0-.012.003-.036.006-.054s.007-.026.007-.013-.003.036-.006.054-.007.026-.007.013zm.208 0zm-.715-.025c.018-.008.02-.005.017 0-.018.008-.02.005-.017 0zm-.17-.08c-.02-.018-.02-.02-.001-.014.01.003.02.01.023.016.007.02 0 .018-.02-.003zm1.477.005l-.023-.105a1.76 1.76 0 0 0-.138-.385c-.09-.18-.156-.255-.248-.276l-.043-.01L2.83.94c.072-.072.12-.108.185-.133.08-.03.192-.016.26.037.023.018.034.124.034.315 0 .11-.005.21-.014.28-.013.103-.046.28-.062.335l-.007.025zm-1.512-.03zm.19-.052c-.01-.008-.028-.02-.037-.024s-.018-.02-.02-.036c-.003-.025.01-.036.02-.018-.01.008-.013.016-.013.026s.004.017.016.013.018.001.02.01.015.02.027.028.02.014.014.015-.018-.006-.03-.014zm-.15-.12c.004-.008.01-.02.01-.03v-.023l.01.024c.01.027.001.042-.018.03zm-.87-.063zm.02-.03zm.072-.077c.057-.056.108-.087.158-.095.024-.004.02-.002-.013.01-.054.02-.105.052-.158.1-.025.023-.02.016.013-.016zm.786.018zm-.024-.052c.001-.05.001-.05.008-.02.01.046.01.07-.001.07-.005 0-.008-.022-.007-.052zm-.484.006c0-.018.002-.025.004-.015s.002.025 0 .033zm-.01-.042zm.017-.008zm.57-.017c.01-.012.022-.02.024-.02s-.005.01-.015.02-.022.02-.024.02.005-.01.015-.02zM1.75 1.29c0-.017.004-.03.008-.03s.014-.013.02-.03.014-.03.017-.03c-.01.023.01.017.024 0 .008-.01.02-.017.023-.017s-.01.016-.03.036-.044.05-.05.07l-.012.033v-.03zm.108-.002zm.184-.014a.41.41 0 0 0-.092-.004l-.054.004.042-.012c.046-.013.113-.016.113-.005 0 .004.01.01.023.016.028.01.018.012-.03.001zm-.87-.028zm.018-.02c.015-.006.017-.01.013-.024-.006-.024.007-.01.014.013s-.014.032-.027.01zm-.048-.001zm-.043-.03l-.023-.022.027.02c.015.01.027.02.027.022 0 .007-.01.001-.03-.02zm.056-.02c-.01-.014-.016-.025-.014-.025s.012.01.022.025.016.025.014.025-.012-.01-.022-.025zm.98.02zm-1.076-.03zm.12-.005c.017.008.022.015.015.015-.002 0-.008-.007-.015-.015zm.7.006c.003-.005.012-.008.02-.008-.015.02-.026.02-.02.008zm-.85-.017c.02.01.016.01 0 0zM1 1.133zm.117-.01l-.016-.02.02.016c.018.015.023.022.016.022-.002 0-.01-.008-.02-.02zm.033 0l-.016-.02.02.016c.018.015.023.022.016.022-.002 0-.01-.008-.02-.02zm-.176-.008zm-.02-.01zm.117-.036l-.03-.03.03.03c.03.027.035.034.03.034a.3.3 0 0 1-.031-.031zm.025-.008l-.02-.023.023.02c.02.02.027.026.02.026s-.012-.01-.023-.023zM.53 1.045zm.04-.007zm.095-.01zm.022-.007zm2.38-.265z" fill="#313845"/><path d="M1.4 2.795c.007-.007.083-.038.083-.033s-.017.012-.038.02c-.037.016-.052.02-.044.013zm.426-.11zM2 2.665c-.02-.006-.02-.007-.003-.008.01-.001.02-.005.024-.01.028.027.02.03-.02.018zm.025-.004zm-.884-.01zm.775.001zm-.803-.008zm.82 0zm-.968-.01zm.12 0zM1 2.625c.008-.002.02-.002.025 0-.03.004-.033.002-.025 0zm.05 0zm.926-.007zm.26 0zm-.496-.015c-.01-.007-.012-.014-.006-.023.017.01.027.02.037.025-.01.008-.023.003-.03-.002zm.003-.01zm.25.017zm-.25-.075zm.014-.02c.007-.01.008-.015.001-.023.026-.01.027.002.007.02zm.186-.013zM2 2.46zm-.485-.02c0-.004.008-.013.02-.018.02-.01.02-.01.003.008s-.022.022-.022.01zm.15-.004zm.35-.006c0-.005-.007-.018-.015-.027.02.014.03.026.026.03zm-.46-.01zm.045-.01zm.064.001zm-.402-.083C1.05 2.197.86 2.042.77 1.922c-.033-.044-.033-.045-.023-.08a1.24 1.24 0 0 1 .159-.316c.01-.01.003.004-.016.033-.023.036-.032.06-.03.07.014.05.164.144.26.164a.89.89 0 0 0 .22-.001c.006-.002.02.01.03.025s.02.025.02.02-.012-.024-.026-.045c-.028-.04-.075-.13-.075-.14 0-.004.015.022.034.056l.054.09c.02.028.024.043.014.078l-.006.02-.007-.02c-.001.02-.004.063-.01.1-.01.058-.025.218-.03.352l-.002.04zm.073-.182zm.017-.16zm.008-.042zm-.55-.228zM.82 1.7zm.008-.017zm.025-.05c-.02.017-.025.028-.025.032.02-.017.025-.028.025-.032zm1.12.736zm-.614-.082c.007-.077.036-.22.05-.253.01-.024.01-.018-.001.03.008.001.017-.002.025.001s.014 0 .014-.018.01.02.02.072l.02.095-.134.133zm.093-.204zm.287.234c-.043-.035-.138-.08-.194-.095l-.04-.01-.006-.045C1.5 2.142 1.5 2.117 1.5 2.11s.007.013.01.043.008.045.01.033.01-.024.037-.032a.3.3 0 0 0 .066-.031l.03-.02.036.017c.04.02.036.016-.057-.043l-.062-.044c0-.002.025.012.056.032a.89.89 0 0 0 .192.097c.035.01.04.025.01.025-.023 0-.02.01.007.027.013.008.036.025.052.038l.03.024-.046-.003c-.025-.002-.05 0-.058.005s-.01.01.005.028c.03.032.028.036-.008.038-.03.001-.04-.004-.072-.028zM.597 2.274l-.152-.427c-.06-.214-.1-.46-.1-.633V1.13l.05-.02a.85.85 0 0 1 .098-.031.95.95 0 0 1 .25-.004c.014.003-.024.005-.084.004s-.077 0-.04.002c.057.003.068.005.056.013-.02.014-.038.113-.04.195a.61.61 0 0 0 .099.323c.016.023.023.04.018.048s-.01.022-.012.033.015-.02.04-.073l.05-.094a.64.64 0 0 1-.038.09c-.088.186-.16.45-.172.622l-.006.083zM.62 2.16zm.025-.142zm.008-.025zm.014-.077zm.008-.025zm.008-.025zm.01-.024zm.006-.026zM.71 1.79zm.008-.025zm.02-.04c-.013.01-.016.02-.016.025.013-.01.016-.02.016-.025zM.36 1.138zm.156-.052zM2.07 2.31zm.69-.106l-.03-.217c-.03-.196-.03-.214-.008-.293.026-.092.035-.157.04-.3.006-.128.006-.13.007-.038a1.64 1.64 0 0 1-.019.264l-.005.038.01-.042c.006-.023.012-.037.012-.03.002.024.122.004.208-.035.024-.01.06-.03.08-.046.026-.018.04-.022.04-.015.005-.007.001-.02-.004-.028s-.007-.02-.005-.02.012.017.022.043l.018.047-.017.066c-.057.222-.18.466-.308.612l-.042.048-.006-.052zm-.04-.434zm0-.03zm.027-.07c0-.007-.005.001-.012.017-.015.038-.014.053 0 .02.006-.014.01-.03.01-.038zm.37-.125c-.01.022-.005.02 0 0zm-.003-.03zm-.42.68l-.048-.048.005-.134c.006-.15.005-.15.048.005.017.06.05.226.043.226s-.023-.022-.05-.048zm-.026-.25c-.004.04-.002.048 0 .038s.002-.027 0-.038zm-.212.258c.044-.042.046-.052.008-.038l-.024.01.02-.02.05-.04c.016-.012.026-.025.023-.028-.024.01-.017-.01-.001-.04s.033-.057.038-.06c-.025.043-.022.054.01.07.026.012.03.018.03.048.001.02.004.01.007-.03l.005-.063.003.142-.035.01a.98.98 0 0 0-.098.041l-.072.034c-.005.002.01-.014.032-.035zm.164-.06zm-.07-.1c-.015.022-.014.023-.006.015zm-.676.176zm-.382-.18c0-.035.002-.05.003-.03s.002.045 0 .063-.003.003-.003-.03zm.05-.027l-.016-.02.02.016c.018.015.023.022.016.022-.002 0-.01-.008-.02-.02zm1.034-.044zm-1.133-.013zm.046.004zm1.113-.03zm-.788-.022c-.015-.004-.03-.04-.02-.05.005.034.02.045.03.03.018.026.015.027-.01.02zm.02-.007zm-.017-.033zm1.394-.153a2.11 2.11 0 0 0-.179-.487c-.016-.03-.026-.05-.02-.046s.024.037.043.07c.032.06.05.08.02.024-.012-.023-.012-.026.004-.046.05-.064.074-.217.047-.31a.57.57 0 0 0-.03-.081L3.08.81l.027-.004c-.045.001-.074.004-.082.007.03-.025.144-.02.19.002.07.036.073.038.084.135a2.66 2.66 0 0 1-.053.755l-.02.082-.015-.073zm-.056-.25zm-.025-.067zm-.008-.017zm-.01-.026zm-.006-.015zm-.008-.017zm.1-.502zm-.02-.01zm-1.3.868zm-.03-.018zm-.567-.03c-.008-.02-.006-.026.004-.01.003.02-.001.017-.004.01zm.564 0zm.008-.017zm-.586-.02zm-.008-.025zm-.008-.03zm-.396-.046c.008-.014.02-.03.027-.036s.001.006-.012.026c-.027.04-.038.048-.015.01zm.388.012zm-.277-.05l.05-.046c.002 0-.016.02-.04.046l-.05.046c-.002 0 .016-.02.04-.046zm.27.004zm-.344-.02c0-.002.007-.008.015-.015-.008.017-.015.022-.015.015zm2.192-.018zm-1.347-.008zm1.338-.017zm-.008-.017zm-1.815-.02zm.486-.005zm1.32.01zm-1.832-.008zm1.81-.04zm-.02-.036zm-1.255-.013zm1.246-.004zm-.025-.042zm-1.154-.025zm1.13-.008zm.037-.03zm-.083-.026l-.025-.027.027.025c.025.023.03.03.025.03s-.014-.012-.027-.027zm.067.001zM.905 1.13zM.888 1.12zm-.025-.008zM.817 1.1c.003-.007.016-.004.025 0-.003.007-.016.004-.025 0zm2.112-.023l-.03-.03.03.03.03.03c0 .006-.007 0-.034-.03zm-2.15.01zm2.076.002zm-.084-.084zm.017-.017zM2.884.89c.008-.01.017-.017.02-.017S2.9.882 2.892.89s-.017.017-.02.017.003-.008.01-.017zm.034-.026c.006-.01.08-.053.083-.05s-.017.015-.042.03-.043.023-.04.02z" fill="#1e2531"/></svg>
