<svg xmlns="http://www.w3.org/2000/svg" viewBox="0 0 3.816 3.816" height="14.423" width="14.423" xmlns:v="https://vecta.io/nano"><circle cx="1.908" cy="1.908" r="1.908" opacity=".12" fill="#f9f9f9"/><rect transform="matrix(.693024 .720914 -.720914 .693024 677.365 113.288)" ry=".628" y="408.405" x="-549.632" height="2.619" width="2.619" fill="#b3b3b3" paint-order="markers fill stroke"/><g fill="#fff"><path d="M.845 2.108c0 .328.08.425.555.425.254 0 .512-.03.512-.35 0-.208-.122-.256-.166-.273.145-.05.145-.204.145-.24 0-.33-.295-.33-.518-.33-.38 0-.498.08-.504.395h.243c0-.116 0-.17.25-.17.18 0 .288 0 .288.135 0 .124-.09.124-.16.124h-.244v.195h.244c.07 0 .176 0 .176.143 0 .13-.11.147-.253.147-.31 0-.327-.03-.324-.2z"/><path d="M2.81 2.08c.08-.01.18-.05.23-.103.07-.07.08-.213.08-.267 0-.354-.255-.37-.525-.37-.478 0-.51.156-.512.415h.24c0-.164.03-.193.295-.193.226 0 .26.05.26.162 0 .1-.03.13-.144.143l-.38.04c-.29.03-.292.28-.292.403v.208h1.05v-.223h-.808v-.04c0-.11.06-.127.14-.138z"/></g><path d="M.77 1.702v.454h.07v-.3c0-.08.05-.1.114-.1.1 0 .1.06.1.103v.294h.07V1.86c0-.08.04-.103.112-.103.09 0 .09.05.09.09v.304h.07v-.32c0-.04 0-.142-.15-.142-.06 0-.11.02-.137.07-.03-.05-.07-.07-.133-.07s-.1.02-.132.06V1.7z"/><path d="M1.51 1.702v.454h.07v-.454zm0-.153v.08h.08v-.08z"/><path d="M1.697 1.702v.454h.07V1.89c0-.06 0-.132.125-.132.116 0 .117.06.117.102v.296h.07v-.308c0-.1-.05-.152-.166-.152-.04 0-.107 0-.146.06v-.06z"/><path d="M2.64 1.68c-.08 0-.09.03-.1.05-.03-.03-.09-.03-.145-.03-.12 0-.19.03-.19.13 0 .01 0 .06.03.09-.05.01-.06.06-.06.08 0 .05.03.06.04.07-.02 0-.05.03-.05.09 0 .09.08.112.23.112.158 0 .222-.03.222-.122 0-.06-.02-.104-.122-.11l-.218-.02c-.02 0-.04 0-.04-.04 0-.02.01-.03.03-.04.01 0 .03.03.14.03s.185-.02.185-.137c0-.03 0-.05-.01-.06.01-.02.02-.03.07-.03zm-.243.08c.1 0 .127.02.127.07 0 .06-.03.08-.124.08s-.13 0-.13-.08c0-.06.05-.07.126-.07zm.06.323c.07 0 .1.02.1.06s-.02.06-.15.06c-.15 0-.17-.02-.17-.06 0-.02 0-.03.02-.05 0 0 .03-.02.04-.02z"/><path d="M3.06 2.156h.1l.115-.454h-.07l-.09.396-.09-.396h-.1l-.09.396-.09-.396h-.07l.116.454h.1l.09-.4z"/></svg>
