<svg xmlns="http://www.w3.org/2000/svg" viewBox="0 0 3.816 3.816" height="14.423" width="14.423" xmlns:v="https://vecta.io/nano"><circle r="1.908" cy="1.908" cx="1.908" opacity=".12" fill="#f9f9f9"/><rect width="2.619" height="2.619" x="-538.604" y="407.444" ry=".628" transform="matrix(.693024 .720914 -.720914 .693024 669.029 106.003)" fill="#b3b3b3" paint-order="markers fill stroke"/><g fill="#fff"><path d="M1.882 1.69c0-.307-.192-.35-.497-.35-.486 0-.518.166-.518.688 0 .484.205.505.554.505.29 0 .47-.05.47-.396 0-.227-.08-.367-.425-.367-.256 0-.308.05-.356.1 0-.284.06-.312.31-.312.21 0 .223.06.222.136zm-.47.293c.2 0 .247.05.247.157 0 .135-.02.18-.25.18s-.295-.03-.295-.16c0-.173.1-.18.297-.18z"/><path d="M2.62 1.352l-.594.7v.24h.692v.23h.242v-.23h.19V2.07h-.19v-.718zm.1.718h-.442l.442-.517z"/></g><path d="M.77 1.702v.454h.07v-.3c0-.08.05-.1.114-.1.1 0 .1.06.1.103v.294h.07V1.86c0-.08.04-.103.112-.103.09 0 .1.05.1.09v.304h.07v-.32c0-.04 0-.142-.15-.142-.06 0-.11.02-.137.07-.03-.05-.07-.07-.133-.07s-.1.02-.132.06V1.7z"/><path d="M1.51 1.702v.454h.07v-.454zm0-.153v.08h.08v-.08z"/><path d="M1.697 1.702v.454h.07V1.89c0-.06 0-.132.125-.132.116 0 .117.06.117.102v.296h.07v-.308c0-.1-.05-.152-.166-.152-.04 0-.107 0-.146.06v-.06z"/><path d="M2.64 1.68c-.08.001-.09.03-.1.05-.03-.03-.09-.03-.145-.03-.12 0-.19.03-.19.13 0 .01 0 .06.03.09-.05.01-.06.06-.06.07 0 .05.03.06.04.07-.02 0-.05.03-.05.09 0 .09.08.112.23.112.158 0 .222-.03.222-.122 0-.06-.02-.104-.122-.11l-.218-.02c-.02 0-.04 0-.04-.03 0-.02.01-.03.03-.04.01 0 .03.03.14.03s.185-.02.185-.137c0-.03 0-.05-.01-.06.01-.02.02-.03.07-.03zm-.243.08c.1 0 .127.02.127.07 0 .06-.03.08-.124.08s-.13 0-.13-.08c0-.06.04-.07.126-.07zm.06.323c.07 0 .1.02.1.06s-.02.06-.15.06c-.15 0-.17-.02-.17-.06 0-.02 0-.03.02-.05 0 0 .03-.02.04-.02z"/><path d="M3.06 2.156h.1l.115-.454h-.07l-.1.396-.09-.396h-.1l-.09.396-.09-.396h-.07l.116.454h.1l.09-.4z"/></svg>
