<svg xmlns="http://www.w3.org/2000/svg" viewBox="0 0 3.816 3.816" height="14.423" width="14.423" xmlns:v="https://vecta.io/nano"><circle r="1.908" cy="1.908" cx="1.908" opacity=".12" fill="#f9f9f9"/><path d="M2.382 3.194c-.03-.01-.154-.14-.475-.495l-.448-.48c-.007 0-.14.104-.297.232-.33.27-.3.258-.483.183-.172-.07-.156-.002-.16-.713s-.01-.663.115-.724c.217-.105.192-.113.533.166l.29.23c.005 0 .208-.218.45-.485.456-.502.467-.512.553-.512.028 0 .61.275.64.303.056.05.055.024.055 1.01 0 1.113.032.967-.244 1.102-.407.198-.45.213-.53.183zm.117-1.3l-.01-.524a19.92 19.92 0 0 0-.634.52c-.014.017-.012.023.018.047l.322.262.296.23c.005-.003.01-.243.01-.534zm-1.4.1a.56.56 0 0 0 .075-.095 2.9 2.9 0 0 0-.298-.326c-.015 0-.026.556-.012.627l.008.04.076-.082.15-.166z" fill="#b88aed"/><path d="M2.312 3.12l-.395-.43-.387-.426-.07-.074-.268.22c-.37.305-.33.29-.502.214-.18-.078-.163.002-.162-.714s-.014-.64.142-.707c.188-.08.163-.088.407.11l.265.216.112.086c.006 0 .453-.485.792-.86.11-.12.14-.14.188-.13.058.015.063.046.063.394v.32l-.336.276-.34.288c-.004.013.003.02.407.347l.273.227c.015.022.01.635-.004.668-.012.026-.062.054-.095.054-.006 0-.046-.036-.09-.08zM1.036 2.084l.16-.186a3.42 3.42 0 0 0-.331-.359c-.015 0-.03.67-.015.706.01.028.026.014.186-.162zM2.485 3.19c.008-.003.02-.003.022.001-.03.006-.032.003-.022-.001zm.66-.39zm0-.035z" fill="#9260cc"/><path d="M.708 2.62c-.202-.083-.18.002-.18-.72l.012-.607c.012-.055.084-.012.186.1l.107.116.004.174.006.39c.001.26-.013.256.183.045.175-.19.175-.19.22-.136l.11.12c.04.044.075.084.075.09s-.214.188-.495.415c-.083.067-.1.068-.227.016zm1.043-.795c-.067-.058-.07-.064-.043-.078.053-.027.14-.025.175.003l.034.028-.046.048c-.057.058-.05.058-.12-.001zm.187-.087c-.012-.013-.01-.017.018-.024.062-.015.18-.114.195-.164.007-.024.078-.037.078-.015 0 .013-.042.034-.05.025a1.37 1.37 0 0 1-.207.184c-.01.006-.023.003-.032-.007zm-.315-.112c.013-.001.02.006.02.008 0 .01-.01.005-.02-.008zm-.122-.02c0-.006.005-.015.012-.02.012.01.006.02 0 .023zm.522-.001c.004-.006.012-.012.018-.012.01.018.003.023-.007.023zm-.432-.1c.012-.016.026-.03.032-.03s-.001.013-.017.03c-.035.037-.042.038-.015 0zm.666-.018c.004-.006.013-.012.02-.012 0 .018-.008.023-.014.023zm.055-.036c.003-.008.012-.018.02-.02.008.02-.002.028-.01.03zm-.636-.04zm.035-.035z" fill="#6e40a4"/></svg>
