<svg xmlns="http://www.w3.org/2000/svg" viewBox="0 0 3.886 3.886" height="14.687" width="14.687" xmlns:v="https://vecta.io/nano"><circle cx="1.943" cy="1.943" r="1.943" fill="#f9f9f9" fill-opacity=".522"/><path d="M1.92 3.69c.008-.001.02-.001.03 0-.03.002-.037.001-.03 0zm.372-.13c.018-.016.018-.016.01-.007zm-.738-.02l-.01-.012.012.01zm1.295-.322c.016-.013.012-.007.005 0-.017.013-.012.007-.005 0zM.998 3.2l-.018-.02L1 3.2l.02.02c0 .004-.004 0-.02-.018zm1.89-.022zM.64 2.388zm2.585-.055c0-.016.001-.022.002-.014s.001.02 0 .03zm-.152-.364l-.015-.017.017.015.017.017c0 .004-.004 0-.02-.015zm-.095-.122c.001.02 0 .015 0 0zm-2.09-.06zm1.973-.282zM1.024 1.48c.022-.023.027-.027.027-.023s-.01.012-.025.025L1 1.506zm1.785-.03zm-.116-.086zM1.31 1.342l-.015-.002.018-.015c.022-.02.017-.024-.032-.03s-.09-.01-.108-.02l-.016-.006.013-.005c.007-.003.017-.01.022-.013s.006-.01-.042-.025c-.053-.017-.093-.035-.098-.045.013.001.055-.01.055-.015s-.02-.014-.046-.027S1.005 1.11.99 1.1l-.026-.02.023-.004c.04-.007.04-.008.005-.033a.65.65 0 0 1-.06-.047L.906.973H.93C.97.973.97.967.933.934.915.917.892.894.883.88L.867.858.898.86C.943.865.944.857.9.816.88.797.858.775.853.767L.845.752h.032C.894.752.91.75.91.747A.28.28 0 0 0 .869.66L.85.634 1.004.63.985.61C.972.598.968.592.973.59.985.58 1.047.584 1.09.594c.023.006.044.01.046.008.008-.005.004-.02-.01-.034S1.112.553 1.122.553a.95.95 0 0 1 .119.029c.015-.01.01-.02-.004-.035l-.02-.02.02.004c.028.005.074.022.1.038.012.007.025.01.028.01.01-.005.006-.024-.005-.04.001-.015.054.015.08.036s.03.024.038.014.007-.017.005-.03l-.003-.02.024.017a.37.37 0 0 1 .049.042c.022.023.025.024.03.017s.007-.018.006-.03.001-.02.003-.02a.6.6 0 0 1 .054.053c.056.058.052.057.064.018.003-.01.005-.008.024.01a.56.56 0 0 1 .12.208c.008.035.007.098-.002.127a.19.19 0 0 1-.077.088l-.023.012-.042-.03C1.62.976 1.502.905 1.393.854c-.058-.027-.216-.092-.242-.1-.007-.002.03.02.08.048.15.082.236.136.326.204.075.056.144.12.144.134 0 .02-.038.083-.067.11-.054.048-.144.08-.234.087l-.06.004c-.01.001-.023 0-.03-.001zm1.18-.001c-.148-.01-.253-.064-.3-.15-.01-.02-.02-.04-.02-.047s.017-.027.043-.05c.09-.085.232-.18.427-.288l.08-.048c-.027.007-.184.07-.242.1-.11.052-.226.122-.322.195l-.042.03-.023-.012C2.067 1.05 2.03 1.01 2.02.98S2.01.89 2.018.853a.56.56 0 0 1 .12-.208c.02-.018.02-.02.024-.01.013.04.01.04.064-.018L2.28.563c.002 0 .003.01.003.02s.002.024.006.03.01.006.03-.017c.013-.014.035-.033.05-.042l.025-.017-.003.02c-.002.013 0 .023.005.03s.01.01.038-.014.08-.05.088-.05c-.02.032-.022.05-.013.055.003.002.015-.002.028-.01.027-.016.073-.033.1-.038l.02-.004-.02.02c-.014.014-.02.024-.017.03.03-.002.12-.024.13-.024-.017.032-.02.044-.013.05.002.001.023-.002.046-.008.043-.01.105-.013.117-.006.005.003.001.01-.012.022l-.02.018.076.003.076.003-.018.026c-.016.024-.04.074-.04.087 0 .003.014.005.032.005h.032l-.01.014c-.005.008-.026.03-.046.05-.044.04-.044.05.002.045l.03-.003-.016.023c-.01.012-.032.036-.05.053-.038.033-.037.04.004.04h.024L2.942 1a.67.67 0 0 1-.06.047c-.033.022-.033.024.007.03l.024.004-.024.017a.64.64 0 0 1-.072.042c-.027.013-.05.026-.05.028s.042.016.05.013c-.001.012-.04.03-.094.047s-.05.017-.042.025.015.01.022.013l.013.005-.016.006a.48.48 0 0 1-.108.019c-.05.004-.054.01-.032.03.016.014.017.016.007.016-.022.003-.05.002-.078 0zM.987 1.242zM.87 1.07zm2.138-.024c.018-.016.018-.016.01-.007zM.763.632zM2.028.63c.018-.016.018-.016.01-.007zM1.804.593l-.01-.012.012.01zM.777.582C.795.567.795.567.79.575zM2.08.577c.018-.016.018-.016.01-.007zM.852.55C.86.548.872.548.88.55.85.55.844.55.852.55zm2.14 0c.006-.001.017-.001.024 0-.025.002-.03.001-.024 0zm-.8-.028A.14.14 0 0 1 2.216.5c.001 0-.007.01-.018.02s-.022.02-.023.02.007-.01.018-.02zM1.048.49zm.527-.01c.006-.001.017-.001.024 0-.025.002-.03.001-.024 0zm.693 0c.007-.001.017-.001.024 0-.025.002-.03.001-.024 0zM1.134.47zM2.72.47c.02.001.02.005.01.005zM1.467.454zm.92 0zm.244-.01z" fill="#69be46"/><path d="M1.87 3.583c-.114-.02-.26-.112-.288-.18-.01-.023-.006-.036.015-.06.083-.088.383-.125.576-.07.045.013.103.042.118.06.02.024.018.044-.008.084-.04.06-.136.125-.23.155-.05.016-.134.022-.183.013zm.55-.33c-.058-.02-.077-.056-.077-.142.001-.14.072-.284.196-.4s.216-.15.29-.113c.026.013.043.04.06.09a.43.43 0 0 1-.055.381c-.03.04-.092.102-.127.125-.09.062-.21.087-.288.06zm-1.1-.001c-.128-.02-.254-.113-.313-.233a.43.43 0 0 1-.051-.192c-.004-.097.017-.156.065-.18.064-.03.166-.005.265.07.045.034.123.117.146.154.08.133.097.292.04.352-.025.026-.09.04-.15.03zm.546-.123c-.082-.016-.143-.048-.2-.105-.07-.07-.1-.14-.098-.234.002-.218.22-.376.457-.328.025.005.062.02.095.035.046.022.06.033.095.067.096.096.124.223.078.346-.017.044-.06.104-.098.136s-.106.067-.153.078a.51.51 0 0 1-.176.006zM.855 2.58a.4.4 0 0 1-.069-.384c.025-.075.085-.152.152-.194.046-.03.075-.017.095.04.012.035.016.163.008.232-.02.163-.07.3-.116.33-.026.015-.038.01-.07-.023zm2.082.007c-.06-.05-.112-.244-.113-.423-.001-.103.01-.15.04-.178.017-.016.036-.013.07.01.114.074.176.2.17.342-.002.03-.007.07-.01.087-.013.05-.046.113-.076.146-.023.025-.03.03-.045.03s-.023-.005-.033-.013zm-1.56-.08c-.102-.028-.18-.11-.21-.218-.013-.048-.01-.137.003-.19.037-.14.15-.262.282-.307a.42.42 0 0 1 .182-.013c.105.022.193.11.222.22.013.048.01.137-.003.19-.037.14-.148.26-.282.307-.035.012-.053.015-.105.016-.044.001-.07-.001-.09-.006zm.98-.015c-.152-.033-.274-.15-.324-.308a.49.49 0 0 1-.003-.215c.038-.11.117-.185.22-.207.23-.05.476.17.475.422 0 .153-.095.278-.234.308-.045.01-.094.01-.137 0zm.464-.62c-.083-.03-.262-.166-.39-.298-.066-.068-.096-.108-.096-.128s.022-.02.108-.02c.18.001.314.08.38.225a.42.42 0 0 1 .04.163c.004.066 0 .074-.04.06zm-1.795-.01c-.015-.015 0-.134.025-.197.022-.056.05-.1.098-.143a.44.44 0 0 1 .342-.105l.053.004c.007.078-.305.358-.453.43-.04.02-.054.02-.065.01zm.815-.132a.41.41 0 0 1-.188-.083c-.027-.024-.05-.067-.05-.092 0-.062.093-.145.207-.183a.4.4 0 0 1 .263.003c.09.03.17.09.196.145.04.087-.026.167-.17.203-.056.014-.203.018-.26.008z" fill="#c31848"/><path d="M1.594 3.342zm.897-.077zm-1.153-.01zm.042 0zm.535-.01a.14.14 0 0 1 .032 0c-.035.002-.04.001-.032 0zm.087 0zm.37-.016zm.405-.093c.01-.01.02-.018.02-.018s-.005.008-.015.018-.02.018-.02.018.005-.008.015-.018zm-.794-.001zm-.322-.108l-.01-.012.012.01zM2.91 2.86zM1.566 2.82zm-.208-.04l-.02-.022.022.02c.02.02.025.024.02.024s-.01-.01-.022-.022zm1.553.012zm-1.345-.02zm1.4-.17zM1.64 2.59c.017-.016.018-.016.01-.007zm.037-.037c.017-.016.018-.016.01-.007zm-.23-.033c.008-.001.02-.001.026 0-.03.002-.034.001-.026 0zm-.2-.084l-.013-.014.014.013c.013.012.017.016.013.016s-.007-.007-.014-.014zm1.39-.017zm-.91-.007c0-.001.008-.01.017-.017l.017-.015-.015.017c-.014.016-.02.02-.02.015zm.435-.018zm-.03-.03l-.01-.012.012.01zm-1.367-.01zm0-.058zm2.06-.084zm-1.775-.045c0-.017.001-.024.002-.014s.001.024 0 .032zm.11 0zm.71-.042zm.956-.02zm-.808-.034zM.87 2.055zM1.008 2zm.263-.087c0-.001.008-.01.017-.017l.017-.015-.015.017c-.014.016-.02.02-.02.015zm.504-.055l-.013-.014.014.013c.013.012.017.016.013.016s-.007-.007-.014-.014zm.316-.003c0-.001.008-.01.017-.017l.017-.015-.015.017c-.014.016-.02.02-.02.015zM1.02 1.79zm1.838 0zm-1.302-.016c.008-.001.02-.001.026 0-.03.002-.034.001-.026 0zm.378-.032c.008-.001.02-.001.03 0-.03.002-.037.001-.03 0zm.31-.088c.016-.013.012-.007.005 0-.017.013-.012.007-.005 0zM1.39 1.63zm1.045-.043l-.03-.033.033.03c.03.03.035.034.03.034s-.016-.015-.033-.033zm-.154-.014zM1.12 1.55c0-.001.008-.01.017-.017l.017-.015-.015.017c-.014.016-.02.02-.02.015zm.368-.016c.017-.016.018-.016.01-.007zm.063-.096zm.834-.01zm.1 0zm-1.07-.01zm.047 0c.024.001.02.002.01.002zm.512-.063z" fill="#981238"/><path d="M1.53 3.52l-.01-.012.012.01zm.087-.064c-.013-.013-.022-.024-.02-.024s.013.01.026.024.022.024.02.024-.013-.01-.026-.024zm.666-.133zm.183-.057zm.047 0zm-1.192-.01zm.562-.01zm.142 0zm.836-.04c.018-.016.018-.016.01-.007zm-.113-.04zM1.082 3.13c-.013-.013-.022-.024-.02-.024a.18.18 0 0 1 .026.024c.013.013.022.024.02.024a.18.18 0 0 1-.026-.024zm.797.004zm.92-.02c.018-.016.018-.016.01-.007zm-1.12-.07zm-.037-.037zm1.267-.13zM.953 2.81c0-.02.001-.028.002-.017s.001.027 0 .037zm.613.026zM1.39 2.81l-.01-.012.012.01zm1.522-.04zm-1.345-.016zm-.24-.01l-.01-.012.012.01zm1.193-.02l.034-.032c.001 0-.01.014-.03.032l-.034.032c-.001 0 .01-.014.03-.032zM.892 2.614zm1.96-.006zM.86 2.59l-.02-.022.022.02.022.022c0 .004-.005 0-.024-.02zm2.146-.007a.12.12 0 0 1 .02-.018c.001 0-.005.008-.015.018s-.02.018-.02.018.005-.008.015-.018zm-.08-.001l-.013-.014.014.013c.013.012.017.016.013.016s-.007-.007-.014-.014zm-.71-.02l-.018-.02.02.018.02.02c0 .004-.004 0-.02-.018zm-.794-.042zm.063 0zm.44-.07c.01-.001.025-.001.034 0-.036.002-.044.001-.034 0zm.684-.01c.018-.016.018-.016.01-.007zm-.903-.016c.018-.016.018-.016.01-.007zm-.484-.012zm.95-.005zm.473-.003c.018-.016.018-.016.01-.007zM.762 2.372zm.992.006c.018-.016.018-.016.01-.007zm1.35-.064c0-.017.001-.024.002-.014s.001.024 0 .032zM.64 2.288zm.4-.016zm.116-.02zm1.665-.018zM1.046 2.21zm1.68-.026c.001.02 0 .015 0 0zm-1.68-.058zm.966-.026zm.808-.01zM.846 2.08c.018-.016.018-.016.01-.007zm1.167-.035zm-.148-.003zM.89 2.034zm2.07-.02zm-2.195-.02c.017-.016.018-.016.01-.007zm2.12-.023zm-2.09-.01c.018-.016.018-.016.01-.007zm.457-.037c.018-.016.018-.016.01-.007zm1.34-.05l-.03-.03.03.03c.028.027.033.032.03.032s-.014-.014-.03-.03zm-.8 0zm-.493.002c.018-.016.018-.016.01-.007zm.23-.107zm.063 0zm.307-.032zm.08 0zm.06-.005zm.525-.027zm-1.244-.02c.018-.016.018-.016.01-.007zm1.207-.012zM1.368 1.65zm.27-.01l-.013-.014.014.013c.013.012.017.016.013.016s-.007-.006-.014-.014zm.843-.008l-.015-.017.017.015c.016.014.02.02.015.02s-.008-.008-.017-.017zm-1.034-.056l.03-.026a.15.15 0 0 1-.023.026l-.028.026c-.001 0 .01-.012.023-.026zm-.344-.012c.018-.016.018-.016.01-.007zM2.39 1.54l-.013-.014.014.013c.014.012.017.016.013.016s-.007-.007-.014-.014zm.357 0l-.013-.014.014.013c.014.012.017.016.013.016s-.007-.007-.014-.014zM1.15 1.517c.018-.016.018-.016.01-.007zm.352 0c.017-.016.018-.016.01-.007zm1.334-.04l-.018-.02.02.018.02.02c0 .004-.004 0-.02-.018zm-1.192-.01c.01-.01.02-.018.02-.018s-.005.008-.015.018-.02.018-.02.018.005-.008.015-.018zm.683-.02zm-.937-.032zm.1 0zm.39-.063zm-.59-.01c.003-.004.035-.002.035.002-.03.002-.036 0-.035-.002zm.054.001c.007-.001.016-.001.02 0-.023.002-.028.001-.02 0zm1.17 0c.007-.001.016-.001.02 0-.024.002-.028.001-.02 0zm.038.002c0-.004.032-.006.035-.002-.026.004-.035.003-.035.002zm-1.277-.05zm1.318 0zm.274-.046c.017-.016.018-.016.01-.007zm-1.813-.067c.022-.001.02 0 .01.002zm1.755.001zm-1.902-.04l-.013-.014.014.013c.014.012.017.016.013.016S.915 1.15.908 1.142zm.065-.068c.024.001.02.002.01.002zm1.912 0c.024.001.02.002.01.002zM1.866.918c.001.02 0 .015 0 0zm.142-.003zM3.11.75zM.85.75zm2.17 0zM1.725.63l-.01-.012.012.01zm.42.003c.01-.01.02-.012.02-.003-.03.015-.03.015-.02.003zM2.06.597c.01-.01.02-.018.02-.018s-.005.008-.015.018-.02.018-.02.018.005-.008.015-.018zM3.077.575zM.888.545C.905.53.906.53.9.538zM1.67.522l-.018-.02.02.018.02.02c0 .004-.004 0-.02-.018zM1.104.47c.024.001.02.002.01.002zm1.642 0c.007-.001.016-.001.02 0-.023.002-.028.001-.02 0zM1.21.444zm1.436 0z" fill="#610b23"/><path d="M1.835 3.68c-.105-.02-.204-.07-.283-.145-.018-.017-.04-.03-.067-.04-.07-.028-.144-.067-.217-.117-.083-.056-.072-.05-.125-.075-.137-.065-.253-.21-.288-.36C.85 2.915.833 2.86.82 2.817L.783 2.7C.775 2.668.77 2.655.746 2.627a.49.49 0 0 1-.101-.244c-.02-.166.066-.363.2-.455.032-.022.04-.044.045-.107.007-.104.035-.198.078-.265a.62.62 0 0 1 .157-.152l.05-.037c0-.002-.01-.007-.024-.01-.035-.01-.057-.026-.073-.055-.007-.014-.017-.025-.02-.025-.015 0-.06-.027-.072-.043-.007-.01-.016-.026-.02-.037s-.008-.02-.01-.02-.018-.012-.035-.028C.89 1.122.877 1.1.877 1.075c0-.01-.008-.02-.023-.037C.83 1.015.817.98.823.957.825.952.818.937.807.92.784.887.776.86.783.837.787.822.786.817.774.8.754.77.752.738.768.71.78.69.78.685.774.67a.13.13 0 0 1-.007-.04c0-.047.035-.078.09-.078C.882.553.888.55.9.54.92.516.953.504 1 .503 1.034.5 1.043.5 1.054.49s.02-.013.053-.015.046-.007.06-.015.024-.012.06-.01c.063.005.065.005.092-.005l.025-.01.04.014c.034.012.046.014.073.01s.037-.001.062.01.04.014.06.014c.04 0 .06.01.086.036.02.02.023.022.045.022s.03.004.056.023a.48.48 0 0 1 .147.209c.008.023.016.042.018.042s.007-.012.013-.028a.5.5 0 0 1 .157-.225c.02-.017.03-.02.05-.02S2.18.54 2.198.52c.028-.03.048-.037.09-.037.027 0 .04-.003.06-.014s.03-.013.063-.01.042.001.063-.008c.032-.014.073-.015.093-.002.013.008.018.01.042.003.038-.01.08-.004.1.01.013.01.024.01.05.01s.037.002.054.014.027.014.06.015c.043.002.09.02.103.04.006.01.012.01.034.01.07 0 .105.043.088.107-.007.028-.007.03.003.048.014.024.012.067-.005.09-.01.014-.01.02-.008.042.004.03-.005.054-.028.085-.01.014-.014.023-.013.038.002.025-.014.06-.035.08-.01.01-.017.02-.02.034-.006.032-.027.063-.058.086-.02.015-.03.028-.037.044-.01.03-.04.057-.075.068-.022.007-.027.012-.032.027-.01.025-.033.043-.07.054-.017.005-.03.01-.03.012s.02.016.046.032a.68.68 0 0 1 .17.166c.042.072.066.156.07.25.004.073.01.09.058.124.08.06.14.15.173.263.013.043.014.055.014.13s-.001.088-.014.13c-.018.06-.042.107-.082.16-.027.037-.034.05-.042.084a1.79 1.79 0 0 1-.036.116l-.038.127c-.034.148-.152.29-.3.36-.022.01-.065.036-.095.058a1.11 1.11 0 0 1-.212.119.29.29 0 0 0-.096.058c-.08.067-.148.106-.233.128-.063.016-.18.02-.24.01zm.2-.103a.49.49 0 0 0 .223-.129c.068-.07.065-.11-.01-.15-.12-.063-.35-.073-.523-.023-.088.026-.15.07-.15.106 0 .06.134.164.25.195.046.012.047.012.11.013.043 0 .07-.002.1-.01zm.523-.317a.48.48 0 0 0 .344-.323.42.42 0 0 0 .009-.113c0-.09-.007-.124-.035-.18-.015-.03-.02-.036-.046-.05s-.033-.015-.068-.013c-.07.004-.145.05-.244.148-.113.113-.176.25-.176.383 0 .053.005.077.022.103.03.044.106.062.194.045zm-1.11-.02c.044-.022.06-.056.06-.133 0-.06-.015-.122-.045-.185a.47.47 0 0 0-.108-.151c-.113-.11-.228-.158-.316-.133-.093.026-.115.194-.046.357.023.054.048.09.093.135.086.086.184.13.286.126.04-.001.056-.004.076-.014zm.586-.113a.5.5 0 0 0 .087-.032c.04-.02.057-.03.095-.07s.05-.054.067-.09a.28.28 0 0 0 .031-.161c-.003-.09-.03-.147-.094-.213a.4.4 0 0 0-.551-.007c-.068.065-.1.13-.103.22-.002.038 0 .062.006.09.03.124.132.225.266.26a.52.52 0 0 0 .195.002zm-1.09-.54a.83.83 0 0 0 .088-.56C1.02 2.003.997 1.98.98 1.98c-.035 0-.127.082-.166.148a.42.42 0 0 0-.022.353.37.37 0 0 0 .077.117c.028.025.045.022.076-.01zm2.07-.01c.06-.063.092-.154.093-.258a.35.35 0 0 0-.039-.18c-.037-.074-.134-.166-.176-.166-.05 0-.073.07-.068.214.007.217.078.418.147.418.013 0 .022-.006.044-.03zm-1.445-.073c.143-.046.263-.18.294-.33.018-.085.007-.178-.03-.247-.023-.045-.08-.1-.126-.123-.158-.077-.363-.008-.476.16-.05.077-.075.152-.075.24s.03.168.092.23c.04.04.087.067.14.08s.127.007.18-.01zm.94-.01c.1-.026.182-.112.21-.218.013-.05.012-.137-.002-.192-.04-.15-.166-.28-.31-.318-.05-.013-.128-.014-.173-.002-.095.025-.173.1-.206.2-.02.058-.02.153-.003.215.044.155.164.275.313.316a.48.48 0 0 0 .168 0zm.352-.677c0-.072-.01-.11-.036-.168-.052-.11-.155-.187-.28-.213-.067-.014-.196-.012-.21.003-.01.01-.008.01.006.038.018.034.102.124.18.193.148.13.278.216.32.212h.018v-.063zm-1.75.03a1.76 1.76 0 0 0 .424-.364c.04-.06.033-.065-.083-.065a.38.38 0 0 0-.213.044.38.38 0 0 0-.205.25.6.6 0 0 0-.012.152c.006.016.04.01.09-.016zm.92-.107c.1-.01.18-.044.22-.09a.11.11 0 0 0 .016-.138c-.032-.054-.123-.117-.21-.144a.47.47 0 0 0-.213-.006c-.09.022-.188.084-.225.142-.073.113.096.24.323.242.023 0 .063-.002.09-.005zm-.628-.4c.155-.016.26-.08.297-.182l.008-.022-.046-.044A1.42 1.42 0 0 0 1.447.93C1.38.885 1.25.81 1.188.78 1.17.77 1.156.76 1.157.76a2.1 2.1 0 0 1 .271.114c.102.05.2.11.275.167.028.02.053.038.056.038.01 0 .044-.024.064-.045.03-.033.043-.065.043-.117 0-.084-.045-.178-.127-.273L1.72.62l-.007.02-.01.025a.25.25 0 0 1-.052-.049L1.597.563c-.005.04-.01.053-.016.053S1.57.608 1.56.6C1.546.58 1.49.537 1.48.537c.008.025.007.04-.004.05-.034-.02-.118-.07-.125-.063.02.03.022.048.014.053-.003.002-.015-.003-.03-.01a.38.38 0 0 0-.101-.037l-.02-.004.02.022c.028.03.023.04-.017.027-.03-.01-.11-.026-.11-.023s.007.01.016.017c.015.015.02.03.012.034-.002.001-.02-.002-.04-.007C1.057.585.974.58.97.59.968.59.973.6.982.608s.016.017.016.02S.964.632.924.632H.85L.86.65c.016.024.047.09.047.098S.902.753.877.75C.86.75.845.75.845.75.845.76.867.788.9.818s.037.036.03.04-.032.007-.05 0c-.013.01.027.055.057.08S.97.973.93.973H.906L.92.987c.007.008.032.028.055.045l.044.036c.001.003-.01.005-.025.005s-.027.002-.027.005.045.04.092.064l.044.024c.006.005-.014.012-.033.012-.01 0-.02.002-.02.005a.32.32 0 0 0 .106.048c.023.007.04.014.04.017s-.01.01-.02.014l-.018.01.02.008a.39.39 0 0 0 .079.014c.073.007.078.01.06.026-.007.007-.018.015-.023.02s-.005.006.022.007c.018 0 .056-.002.085-.005zm1.18-.001c-.006-.003-.016-.012-.023-.02-.017-.017-.012-.02.06-.026a.39.39 0 0 0 .079-.014l.02-.008-.018-.01c-.01-.005-.02-.01-.02-.014s.016-.01.04-.017c.044-.013.107-.04.107-.048s-.01-.005-.02-.005c-.018 0-.038-.007-.033-.012s.02-.012.045-.024c.046-.024.092-.056.092-.064 0-.003-.012-.005-.026-.005s-.026-.002-.026-.004.017-.017.04-.032S2.942 1 2.952.99L2.97.973h-.023c-.04 0-.04-.006-.007-.035s.07-.072.07-.08c-.03.007-.053.007-.063 0s0-.012.03-.04S3.03.762 3.03.75c0-.001-.014-.001-.03 0-.025.002-.032.001-.032-.005a.49.49 0 0 1 .047-.098l.01-.017h-.074c-.04 0-.074-.002-.074-.004s.007-.01.016-.02.014-.017.013-.02C2.902.58 2.82.585 2.78.595c-.02.005-.04.01-.04.007-.008-.005-.003-.02.012-.034L2.768.55c0-.003-.08.014-.11.023-.04.012-.045.004-.017-.027l.02-.022-.02.004a.38.38 0 0 0-.101.037c-.035.02-.044.008-.022-.027l.01-.018-.013.004c-.02.007-.04.017-.075.044s-.035.025-.042.017-.01-.023-.003-.038c-.008-.01-.067.036-.082.053-.02.024-.03.018-.03-.02-.007-.018-.032.006-.06.035l-.05.053L2.17.656C2.166.648 2.164.638 2.164.634c0-.018-.012-.01-.045.03-.02.024-.045.06-.058.083-.066.112-.07.222-.012.283.02.02.058.048.067.048.003 0 .03-.017.056-.038a2.07 2.07 0 0 1 .448-.245c.137-.054.14-.054.045-.005-.19.1-.36.215-.456.307l-.04.04.008.022c.04.117.177.185.372.186.035 0 .04-.001.032-.006z"/><g fill="#fff"><path d="M1.883 2.154c0-.22-.208-.22-.285-.22-.193 0-.325.04-.325.41 0 .3.08.387.318.387.14 0 .304-.03.304-.254 0-.207-.15-.244-.288-.244-.05 0-.175 0-.24.09-.001-.08.01-.186.04-.242.04-.06.13-.06.183-.06.172 0 .194.06.193.135zm-.296.16c.11 0 .214.02.214.16 0 .125-.05.17-.215.17-.09 0-.212-.01-.212-.158 0-.07.01-.173.213-.173z"/><path d="M2.413 1.942l-.425.492v.106h.464v.182h.09V2.54h.135v-.09h-.135v-.513zm.04.513h-.37l.37-.432z"/></g></svg>