<?xml version="1.0" encoding="UTF-8" standalone="no"?>
<svg
 xmlns:dc="http://purl.org/dc/elements/1.1/"
 xmlns:cc="http://creativecommons.org/ns#"
 xmlns:rdf="http://www.w3.org/1999/02/22-rdf-syntax-ns#"
 xmlns:svg="http://www.w3.org/2000/svg"
 xmlns="http://www.w3.org/2000/svg"
 xmlns:xlink="http://www.w3.org/1999/xlink"
 id="svg23667"
 version="1.1"
 viewBox="0 0 3.8163 3.8163"
 height="3.8163mm"
 width="3.8163mm">
<defs
 id="defs23661">
<radialGradient
 r="55.8594"
 fy="86.4452"
 fx="98.0015"
 cy="86.4452"
 cx="98.0015"
 gradientTransform="matrix(7.4619e-4,0.715502,-0.593998,6.19478e-4,95.0379,-44.4857)"
 gradientUnits="userSpaceOnUse"
 id="radialGradient3019"
 xlink:href="#linearGradient4024" />
<linearGradient
 id="linearGradient4024">
<stop
 style="stop-color:#bebebe;stop-opacity:1"
 offset="0"
 id="stop4026" />
<stop
 style="stop-color:#000000;stop-opacity:1"
 offset="1"
 id="stop4028" />
</linearGradient>
<linearGradient
 y2="878.907"
 x2="142.819"
 y1="831.523"
 x1="142.819"
 gradientUnits="userSpaceOnUse"
 id="linearGradient3021"
 xlink:href="#linearGradient3560" />
<linearGradient
 id="linearGradient3560">
<stop
 style="stop-color:#ffffff;stop-opacity:1"
 offset="0"
 id="stop3562" />
<stop
 style="stop-color:#ffffff;stop-opacity:0"
 offset="1"
 id="stop3564" />
</linearGradient>
<linearGradient
 y2="61.7408"
 x2="37.3406"
 y1="22.6288"
 x1="37.3406"
 gradientTransform="matrix(1.11867,0,0,1.11867,-1.94964,-2.03029)"
 gradientUnits="userSpaceOnUse"
 id="linearGradient3023"
 xlink:href="#linearGradient11579" />
<linearGradient
 id="linearGradient11579">
<stop
 id="stop11581"
 offset="0"
 style="stop-color:#ff771c;stop-opacity:1" />
<stop
 id="stop11583"
 offset="1"
 style="stop-color:#e72404;stop-opacity:1" />
</linearGradient>
</defs>
<metadata
 id="metadata23664">
<rdf:RDF>
<cc:Work
 rdf:about="">
<dc:format>image/svg+xml</dc:format>
<dc:type
 rdf:resource="http://purl.org/dc/dcmitype/StillImage" />
<dc:title></dc:title>
</cc:Work>
</rdf:RDF>
</metadata>
<g
 transform="translate(-171.961,-165.157)"
 id="layer1">
<g
 transform="translate(841.902,266.555)"
 style="display:inline"
 id="g23659">
<circle
 r="1.90815"
 cy="-99.4896"
 cx="-668.033"
 id="path2695-6-36-3-8-7-3-6-6-2-0-9-5-9-8"
 style="display:inline;opacity:0.420955;fill:#f9f9f9;stroke:none;stroke-width:0.068301;stroke-linecap:round" />
<g
 transform="matrix(0.054059,0,0,0.054059,-670.422,-101.943)"
 id="g3397">
<path
 style="fill:url(#radialGradient3019);fill-opacity:1;stroke:none"
 d="m 44.525,17.1082 c -15.5132,0 -28.0964,12.5059 -28.0964,27.9392 0,15.4333 12.5832,27.9393 28.0964,27.9393 5.0761,0 9.8287,-1.3338 13.9382,-3.6771 l 1.4613,3.6771 h 1.21 10.0569 0.063 L 66.8229,62.0341 c 3.6282,-4.7077 5.7827,-10.5961 5.7827,-16.9867 0,-15.4333 -12.5675,-27.9392 -28.0806,-27.9392 z"
 id="path3834-7-7-2-5-5-0-5-4-6" />
<ellipse
 ry="24.6429"
 rx="35.3571"
 cy="856.291"
 cx="142.5"
 style="fill:url(#linearGradient3021);fill-opacity:1;stroke:none"
 id="path3661-8"
 transform="matrix(0.52623,0,0,0.649697,-30.8298,-522.302)" />
<rect
 style="fill:#010101;fill-opacity:0.882353;stroke:none"
 id="rect4054"
 width="1.11114"
 height="0.984151"
 x="59.2217"
 y="33.2021" />
<circle
 r="6.56599"
 cy="856.393"
 cx="115.662"
 style="fill:#000000;fill-opacity:1;stroke:none"
 id="path4442-9"
 transform="matrix(0.502844,0,0,0.502844,-11.0624,-401.993)" />
<rect
 style="fill:#000000;fill-opacity:1;stroke:none"
 id="rect4444-2"
 width="18.9288"
 height="2.76589"
 x="46.1108"
 y="24.0663"
 transform="matrix(0.989749,0.142818,-0.189726,0.981837,0,0)" />
<rect
 style="fill:#000000;fill-opacity:1;stroke:none"
 id="rect4446-6"
 width="3.30167"
 height="1.19097"
 x="58.1347"
 y="33.9422" />
<path
 style="fill:url(#linearGradient3023);fill-opacity:1"
 d="m 37.0625,21.7188 c -0.029,1.0988 -1.948,0.15 -2.0312,1.4062 -2.124,-0.9456 0.1811,1.4347 -0.031,1.6563 h -0.031 L 34.8125,24.75 c -0.1025,-0.037 -0.2486,-0.083 -0.4687,-0.2187 -1.4834,1.1818 -1.5022,3.6404 -3.0313,5 -1.003,2.1647 -1.267,4.4945 -2,6.75 -0.361,2.1636 -0.6618,4.3335 -0.125,6.5 0.1612,1.7607 -0.3537,4.1692 1.25,5.4062 2.3771,1.9526 4.3478,4.4001 6.3438,6.75 3.1126,3.8305 5.8749,7.9599 8.3125,12.25 0.011,0.02 0.02,0.042 0.031,0.062 l 0.8125,1.7188 c 0.015,0.034 0.016,0.062 0.031,0.094 0.1316,0.2773 0.2731,0.4824 0.4375,0.5313 -0.026,-0.1711 -0.066,-0.4344 -0.094,-0.625 -0.2327,-1.5987 -0.4878,-3.737 -0.625,-5.5 -0.7952,-5.1748 -3.3523,-9.8737 -4.3125,-15 -0.021,-0.1544 -0.04,-0.3109 -0.062,-0.4688 -0.01,-0.063 -0.023,-0.124 -0.031,-0.1875 v -0.094 l -0.062,-0.5625 h -0.031 c -0.3145,-2.5359 -0.4044,-5.2684 1.4375,-7.25 1.8805,-1.8968 4.6716,-2.3694 6.9375,-3.6875 0.5038,-0.2973 1.0215,-0.5506 1.5625,-0.7188 0,0 0.027,0 0.031,0 1.5673,-0.4844 3.2463,-0.4525 4.875,-0.1875 0.024,0 0.038,0 0.062,0 0.1481,0.025 0.3217,0.065 0.4687,0.094 1.1924,0.1062 3.5699,0.573 4,-0.25 -1.6454,-1.4011 -3.9969,-1.3242 -6,-1.875 -0.3171,-0.058 -0.7037,-0.12 -1.0937,-0.1563 L 51.5,32.6875 51,32.5625 v 0.031 l -7.0312,-1.375 C 43.8571,31.117 43.7372,31.0145 43.625,30.9375 L 50.5,31.7813 V 31.75 c 0.2414,0.054 0.4765,0.097 0.7188,0.125 v 0.031 l 4.8437,0.875 c 0.8352,0.3115 1.6957,0.5415 2.5313,0.5937 1.3791,0.2007 3.1413,2.2762 3.5937,2.375 C 61.9658,33.5843 59.7953,32.6044 58,31.9688 55.9025,30.949 52.7695,30.9764 52.4375,28.1563 52.3492,27.9598 52.2636,27.7824 52.1563,27.5938 L 51.3438,26.5 h 0.031 c -1.1149,-1.3159 -2.6762,-2.2902 -4.3437,-2.6562 -1.6551,-0.5713 -3.5309,-1.1479 -5.2813,-1.375 -0.594,1.749 -1.2591,-1.3675 -2.6875,-0.4375 -1.2521,0.1482 -1.0678,0.4807 -2,-0.3125 z m 9,5.0937 c 0.4535,-0.012 0.9791,0.07 1.5,0.25 1.3892,0.4799 2.2979,1.5095 2.0313,2.2813 -0.2667,0.7717 -1.6109,0.9799 -3,0.5 -1.3892,-0.48 -2.2979,-1.4783 -2.0313,-2.25 0.1666,-0.4824 0.7442,-0.7613 1.5,-0.7813 z"
 id="path3499-9-7-6" />
<rect
 style="fill:#010101;fill-opacity:0.882353;stroke:none"
 id="rect4061"
 width="0.158734"
 height="0.190481"
 x="60.6186"
 y="34.6307" />
<rect
 style="fill:#010101;fill-opacity:0.882353;stroke:none"
 id="rect4063"
 width="0.0158734"
 height="0.206354"
 x="60.4757"
 y="34.4561" />
</g>
</g>
</g>
</svg>
