<svg xmlns="http://www.w3.org/2000/svg" viewBox="0 0 3.886 3.886" height="14.687" width="14.687"><circle r="1.943" cy="1.943" cx="1.943" fill="#f9f9f9" fill-opacity=".12"/><path d="M2.498 3.044l-.558-.08-.16-.02v-.886h1.218V3.11h-.05c-.03 0-.23-.03-.45-.06zM1.18 2.86L.75 2.8v-.764h.917v.44c0 .412 0 .44-.03.44-.02 0-.225-.03-.46-.06zM.745 1.564c0-.38 0-.382.04-.39.04 0 .84-.118.87-.118.01 0 .02.176.02.433v.434l-.04.01-.463.01H.748zm1.035-.08V1.04l.05-.01c.03 0 .28-.04.558-.08l.56-.08h.05v1.07H1.78z" fill="#000000"/></svg>
